<?xml version="1.0" standalone="no"?>
<!DOCTYPE svg PUBLIC "-//W3C//DTD SVG 20010904//EN"
 "http://www.w3.org/TR/2001/REC-SVG-20010904/DTD/svg10.dtd">
<svg version="1.0" xmlns="http://www.w3.org/2000/svg"
 width="298.000000pt" height="335.000000pt" viewBox="0 0 298.000000 335.000000"
 preserveAspectRatio="xMidYMid meet">
<metadata>
Created by potrace 1.14, written by Peter Selinger 2001-2017
</metadata>
<g transform="translate(0.000000,335.000000) scale(0.100000,-0.100000)"
fill="#4b9400" stroke="none">
<path d="M660 3321 c-5 -11 -10 -26 -10 -33 1 -21 69 -67 127 -85 47 -15 58
-24 90 -71 20 -30 45 -78 55 -106 10 -28 23 -60 28 -71 31 -72 42 -117 36
-156 -11 -68 20 -87 76 -48 16 12 31 20 33 18 2 -2 10 -47 19 -99 9 -52 24
-142 33 -200 16 -90 18 -175 18 -605 l0 -500 24 -48 c19 -39 27 -48 44 -43 34
9 55 -12 74 -72 9 -31 25 -67 34 -80 10 -13 21 -36 24 -53 5 -23 10 -28 20
-19 8 7 15 7 19 1 3 -5 1 -11 -5 -13 -17 -6 -1 -46 20 -53 10 -3 29 -14 41
-25 28 -25 32 -25 60 0 12 11 31 22 41 25 21 7 37 47 20 53 -6 2 -8 8 -5 13 4
6 11 6 19 -1 10 -9 15 -4 20 19 3 17 14 40 24 53 9 13 25 49 34 80 19 60 40
81 74 72 17 -5 25 4 44 43 l24 48 0 500 c0 430 2 515 18 605 9 58 24 148 33
200 9 52 17 97 19 99 2 2 17 -6 33 -18 56 -39 87 -20 76 48 -6 39 5 84 36 156
5 11 18 43 28 71 10 28 35 76 55 106 32 47 43 56 90 71 61 19 126 64 127 88 0
29 -25 52 -49 44 -14 -4 -20 -12 -17 -22 9 -22 -11 -36 -94 -68 -41 -15 -83
-36 -93 -47 -16 -17 -77 -129 -77 -142 0 -3 -11 -29 -24 -58 -13 -29 -26 -60
-29 -68 -5 -13 -6 -13 -7 0 -1 8 -3 23 -5 34 -2 10 7 28 20 40 13 13 29 35 35
50 21 56 -37 132 -120 156 -75 22 -121 43 -109 51 7 4 25 2 41 -3 38 -14 49
-1 19 23 -28 23 -74 25 -91 4 -18 -22 -85 -12 -140 19 -33 19 -59 26 -100 26
-41 0 -67 -7 -100 -26 -55 -31 -122 -41 -140 -19 -17 21 -63 19 -91 -4 -30
-24 -19 -37 19 -23 16 5 34 7 41 3 12 -8 -34 -29 -109 -51 -83 -24 -141 -100
-120 -156 6 -15 22 -37 35 -50 13 -12 22 -30 20 -40 -2 -11 -4 -26 -5 -34 -1
-13 -2 -13 -7 0 -3 8 -16 39 -29 68 -13 29 -24 55 -24 58 0 13 -61 125 -77
142 -10 11 -52 32 -93 47 -80 31 -105 48 -94 66 7 12 -12 29 -33 29 -7 0 -17
-9 -23 -19z m488 -174 c2 -17 -3 -36 -13 -47 -22 -25 -73 -34 -91 -16 -19 20
-18 29 7 46 12 8 31 23 43 32 29 24 50 18 54 -15z m745 11 c62 -45 66 -51 42
-74 -30 -31 -105 9 -105 56 0 46 16 51 63 18z"/>
<path d="M1010 2705 c-127 -87 -215 -187 -407 -460 -229 -325 -304 -472 -386
-750 -95 -321 -183 -680 -202 -821 -18 -132 -19 -324 -4 -448 11 -88 53 -205
79 -221 21 -13 144 18 195 48 130 76 253 198 462 457 106 132 276 407 321 520
63 158 85 401 86 945 1 311 -2 388 -17 485 -30 192 -49 290 -56 289 -3 0 -35
-20 -71 -44z m50 -220 c6 -55 12 -282 13 -505 l2 -405 -38 2 c-61 4 -89 23
-109 73 -15 40 -17 92 -17 455 l-1 409 62 63 63 63 7 -27 c4 -16 12 -73 18
-128z m-170 -19 c0 -13 -21 -52 -48 -88 -72 -98 -292 -537 -292 -583 0 -50
-31 -98 -83 -129 -23 -14 -69 -51 -101 -82 -55 -54 -60 -56 -67 -36 -10 26 76
223 152 348 27 45 49 86 49 92 0 6 3 12 8 14 4 2 20 23 36 48 16 25 38 56 51
70 12 14 34 46 48 71 15 26 40 58 55 71 16 13 31 29 33 36 4 11 151 192 157
192 1 0 2 -11 2 -24z m0 -402 c1 -317 2 -351 20 -402 25 -72 25 -87 -4 -148
-25 -52 -40 -102 -53 -174 -5 -29 -15 -48 -28 -55 -12 -5 -42 -32 -67 -59 -47
-49 -70 -55 -76 -20 -2 10 -13 26 -24 35 l-21 16 23 174 c12 96 25 246 28 334
l5 159 77 187 c43 103 86 199 95 213 10 15 15 29 12 32 -8 8 -31 -42 -121
-257 -72 -174 -88 -203 -139 -260 -53 -60 -57 -62 -57 -36 0 37 237 503 286
561 21 25 39 46 40 46 2 0 3 -156 4 -346z m-213 -316 c-3 -79 -15 -219 -27
-313 -19 -150 -24 -172 -44 -190 -13 -11 -26 -31 -29 -45 -4 -14 -17 -38 -30
-55 -31 -37 -87 -39 -118 -4 -18 21 -20 32 -14 99 4 41 18 111 31 156 14 44
35 129 47 187 14 67 30 115 42 129 11 13 25 33 30 45 11 24 103 133 112 133 3
0 3 -64 0 -142z m-188 -135 c-13 -73 -28 -128 -65 -238 -24 -74 -35 -127 -40
-203 -6 -90 -11 -113 -40 -168 -18 -35 -40 -90 -49 -121 -16 -53 -18 -56 -31
-39 -30 42 -29 84 11 361 8 55 20 138 25 185 6 47 13 95 16 108 9 42 153 180
174 167 4 -3 4 -26 -1 -52z m529 -44 c63 -16 70 -24 44 -52 -12 -13 -22 -31
-22 -41 0 -70 -63 -162 -104 -152 -16 4 -25 -2 -38 -24 -16 -28 -38 -40 -38
-22 0 5 9 35 20 68 11 32 20 66 20 74 0 26 52 160 62 160 5 0 30 -5 56 -11z
m47 -194 c-9 -30 -26 -67 -38 -80 -30 -33 -139 -105 -149 -99 -15 10 -9 64 7
64 9 0 18 6 21 14 3 8 25 24 49 35 53 25 80 62 90 121 4 24 13 52 19 62 19 31
20 -52 1 -117z m-769 87 c-2 -4 -9 -50 -15 -102 -6 -52 -15 -122 -21 -155 -5
-33 -17 -118 -26 -190 -8 -71 -19 -141 -24 -155 -4 -14 -16 -70 -25 -125 -10
-55 -21 -104 -25 -109 -5 -4 -16 6 -24 23 -12 23 -17 63 -18 153 -2 114 0 133
35 258 103 376 120 426 137 415 6 -4 8 -9 6 -13z m754 -227 c0 -17 -2 -17 -10
-5 -5 8 -10 24 -10 35 0 17 2 17 10 5 5 -8 10 -24 10 -35z m-26 -32 c4 -37 3
-59 -4 -61 -5 -2 -10 -10 -10 -18 0 -8 -4 -22 -8 -32 -5 -9 -20 -39 -33 -67
-44 -92 -77 -66 -85 68 l-5 82 63 42 c35 22 66 41 69 42 3 1 9 -25 13 -56z
m-176 -6 c3 -22 -2 -29 -25 -38 -15 -6 -35 -16 -43 -24 -25 -22 -62 -29 -71
-14 -14 22 -11 27 25 44 18 9 44 27 57 41 29 31 53 27 57 -9z m-198 -2 c12
-22 11 -27 -6 -40 -10 -8 -29 -15 -42 -15 l-22 0 20 40 c24 47 32 49 50 15z
m240 -215 c17 -32 11 -78 -16 -133 -87 -174 -136 -153 -154 68 -5 61 -12 119
-15 130 -8 26 10 42 90 84 l60 31 12 -81 c7 -44 17 -89 23 -99z m-443 115 c23
-10 64 -6 81 7 7 6 15 8 18 5 13 -13 -7 -38 -40 -52 -19 -8 -36 -19 -38 -24
-1 -5 -17 -12 -34 -15 -40 -9 -46 6 -37 81 6 53 7 55 19 31 7 -14 21 -29 31
-33z m233 21 c0 -25 -39 -46 -86 -46 -51 0 -15 40 56 63 27 9 30 7 30 -17z
m20 -156 c13 -130 23 -189 38 -217 27 -50 6 -111 -60 -177 l-40 -40 -14 33
c-8 18 -14 40 -14 47 0 8 -4 22 -9 32 -6 9 -14 96 -20 192 -5 96 -12 182 -16
191 -4 12 6 18 45 29 28 8 54 18 57 23 13 21 23 -15 33 -113z m-152 38 c6 -18
13 -96 17 -173 6 -154 19 -236 42 -276 14 -23 14 -29 -1 -55 -32 -58 -79 -95
-97 -77 -21 21 -47 117 -58 209 -33 291 -37 364 -18 364 7 0 28 9 47 19 48 27
57 26 68 -11z m-153 -20 c3 -18 10 -79 15 -135 6 -57 14 -149 20 -205 12 -120
25 -184 46 -216 20 -31 12 -63 -25 -90 l-29 -21 -27 21 c-35 27 -53 71 -76
183 -21 101 -25 252 -8 323 36 154 71 213 84 140z m-136 -239 c13 -15 22 -42
26 -88 16 -161 53 -304 85 -324 23 -14 27 -62 8 -80 -28 -27 -71 -57 -82 -57
-29 0 -55 79 -92 273 -16 85 -16 108 -6 182 18 125 24 133 61 94z m-173 -279
c1 -206 -2 -270 -12 -274 -8 -3 -18 19 -29 66 -15 60 -16 83 -7 152 6 44 16
124 22 176 11 93 20 150 24 150 1 0 2 -121 2 -270z m116 -87 c15 -69 37 -142
49 -163 20 -35 20 -39 5 -63 -25 -38 -80 -61 -108 -46 -13 7 -27 18 -31 26 -8
12 -12 256 -8 396 l1 39 32 -32 c27 -27 35 -49 60 -157z"/>
<path d="M1877 2663 c-50 -282 -52 -303 -51 -688 1 -544 23 -787 86 -945 45
-113 215 -388 321 -520 209 -259 332 -381 462 -457 51 -30 174 -61 195 -48 26
16 68 133 79 221 15 124 14 316 -4 448 -19 141 -107 500 -202 821 -82 278
-157 425 -386 750 -144 205 -175 245 -256 328 -61 63 -205 177 -224 177 -3 0
-12 -39 -20 -87z m192 -558 c0 -363 -2 -415 -17 -455 -20 -50 -48 -69 -109
-73 l-38 -2 -3 180 c-4 237 14 743 29 823 l11 64 64 -63 64 -63 -1 -411z m124
267 c31 -38 57 -72 57 -76 0 -4 14 -19 30 -33 17 -14 42 -46 57 -72 14 -25 36
-57 48 -71 13 -14 35 -45 51 -70 16 -25 32 -46 37 -48 4 -2 7 -8 7 -14 0 -6
22 -47 49 -92 76 -125 162 -322 152 -348 -7 -20 -12 -18 -67 36 -32 31 -78 68
-101 82 -52 31 -83 79 -83 129 0 46 -220 485 -292 583 -29 39 -48 75 -48 91
l0 26 23 -27 c12 -15 48 -58 80 -96z m101 -294 c71 -140 126 -260 126 -275 0
-26 -4 -24 -57 36 -51 57 -67 86 -139 260 -90 215 -113 265 -121 257 -3 -3 2
-17 12 -32 9 -14 52 -110 95 -213 l77 -187 5 -159 c3 -88 16 -238 28 -334 l23
-174 -21 -16 c-11 -9 -22 -25 -24 -35 -6 -35 -29 -29 -76 20 -25 27 -55 54
-67 59 -13 7 -23 26 -28 55 -13 72 -28 122 -53 174 -29 61 -29 76 -4 148 18
51 19 85 20 404 l1 348 39 -45 c22 -25 93 -150 164 -291z m122 -323 c4 -11 16
-30 28 -42 13 -14 28 -56 43 -129 12 -59 33 -144 47 -188 13 -45 27 -115 31
-156 6 -67 4 -78 -14 -99 -31 -35 -87 -33 -118 4 -13 17 -26 41 -30 55 -3 14
-16 34 -29 45 -20 18 -25 40 -44 190 -12 94 -24 235 -27 315 l-4 145 56 -60
c30 -33 58 -69 61 -80z m176 -162 c67 -64 74 -80 87 -198 6 -49 18 -135 26
-190 40 -276 41 -319 11 -361 -13 -17 -15 -14 -31 39 -9 31 -31 86 -49 121
-29 55 -34 78 -40 168 -5 76 -16 129 -41 203 -45 135 -71 250 -66 288 2 14 45
-15 103 -70z m-538 -85 c14 -40 26 -80 26 -88 0 -8 9 -42 20 -74 11 -33 20
-63 20 -68 0 -18 -22 -6 -38 22 -13 22 -22 28 -38 24 -41 -11 -104 82 -104
153 0 11 -9 28 -20 38 -28 25 -21 37 31 51 74 20 74 20 103 -58z m-119 -78
c10 -59 37 -96 90 -121 24 -11 46 -27 49 -35 3 -8 12 -14 21 -14 16 0 22 -54
7 -64 -10 -6 -119 66 -149 99 -26 30 -53 118 -53 176 0 40 1 42 14 24 7 -11
17 -40 21 -65z m780 13 c15 -35 38 -114 112 -383 35 -125 37 -144 35 -258 -1
-90 -6 -130 -18 -153 -8 -17 -19 -27 -24 -23 -4 5 -15 54 -25 109 -9 55 -21
111 -25 125 -5 14 -16 84 -24 155 -9 72 -21 157 -26 190 -8 47 -31 230 -32
255 -2 32 10 25 27 -17z m-774 -210 c-9 -16 -10 -16 -11 -1 0 9 3 25 7 35 7
16 8 17 11 1 2 -10 -1 -25 -7 -35z m97 -18 l63 -40 -5 -82 c-8 -134 -41 -160
-85 -68 -13 28 -28 58 -33 67 -4 10 -8 24 -8 32 0 8 -5 16 -10 18 -7 2 -8 24
-4 61 4 32 10 56 13 55 3 -2 34 -21 69 -43z m165 -20 c22 -19 46 -35 53 -35
18 0 25 -15 18 -35 -8 -19 -48 -13 -74 10 -8 8 -27 18 -43 24 -19 7 -27 18
-27 34 0 48 19 48 73 2z m177 -15 l20 -40 -22 0 c-13 0 -32 7 -42 15 -17 13
-18 18 -6 40 18 34 26 32 50 -15z m-174 -62 c60 -32 79 -52 69 -75 -3 -10 -10
-67 -15 -128 -17 -221 -67 -242 -154 -68 -29 59 -32 90 -12 149 8 22 18 68 21
101 8 69 3 67 91 21z m379 -86 c-5 -21 -10 -23 -38 -16 -18 3 -34 10 -35 15
-2 5 -19 16 -38 24 -33 14 -53 39 -40 52 3 3 11 1 18 -5 35 -28 100 -11 114
30 7 19 9 14 16 -27 4 -27 6 -60 3 -73z m-215 85 c71 -34 39 -63 -39 -36 -23
8 -31 17 -31 36 0 20 4 23 23 18 12 -3 33 -12 47 -18z m3 -68 c36 -10 46 -17
41 -29 -3 -8 -10 -94 -15 -190 -6 -96 -14 -183 -20 -192 -5 -10 -9 -24 -9 -32
0 -7 -6 -29 -14 -47 l-14 -33 -40 40 c-66 66 -87 127 -60 177 15 28 25 87 38
216 11 112 15 127 33 113 7 -5 33 -15 60 -23z m124 -39 c21 -11 43 -20 50 -20
19 0 15 -73 -18 -364 -11 -92 -37 -188 -58 -209 -18 -18 -65 19 -97 77 -15 26
-15 32 -1 55 23 40 36 122 42 276 7 139 18 205 36 205 5 0 26 -9 46 -20z m141
-62 c48 -152 55 -279 23 -433 -23 -112 -41 -156 -76 -183 l-27 -21 -29 21
c-37 27 -45 59 -25 90 21 32 34 96 46 213 5 55 14 147 20 205 14 145 19 170
35 170 8 0 22 -26 33 -62z m126 -203 c3 -8 11 -53 18 -100 10 -74 10 -97 -6
-182 -37 -194 -63 -273 -92 -273 -11 0 -54 30 -81 57 -20 18 -16 66 7 80 32
20 69 163 85 324 4 46 13 73 26 88 23 25 35 26 43 6z m155 -160 c7 -60 17
-144 23 -186 9 -64 8 -86 -6 -147 -12 -47 -22 -69 -30 -66 -10 4 -13 68 -12
275 0 148 3 261 7 252 3 -10 11 -67 18 -128z m-46 -238 c0 -112 -4 -211 -9
-219 -5 -8 -19 -20 -32 -27 -28 -15 -83 8 -108 46 -15 24 -15 28 5 63 12 21
34 94 49 163 24 103 34 130 58 155 16 16 31 28 33 26 2 -2 4 -95 4 -207z"/>
</g>
</svg>
