<?xml version="1.0" standalone="no"?>
<!DOCTYPE svg PUBLIC "-//W3C//DTD SVG 20010904//EN"
 "http://www.w3.org/TR/2001/REC-SVG-20010904/DTD/svg10.dtd">
<svg version="1.0" xmlns="http://www.w3.org/2000/svg"
 width="596.000000pt" height="435.000000pt" viewBox="0 0 596.000000 435.000000"
 preserveAspectRatio="xMidYMid meet">
<metadata>
Created by potrace 1.14, written by Peter Selinger 2001-2017
</metadata>
<g transform="translate(0.000000,435.000000) scale(0.100000,-0.100000)"
fill="#23936c" stroke="none">
<path d="M2795 4305 c-40 -41 -72 -105 -90 -178 -6 -23 -9 -23 -87 -19 -61 4
-82 1 -89 -9 -6 -11 -30 -3 -111 38 -57 29 -125 59 -153 67 -27 8 -68 22 -90
31 -109 47 -277 79 -373 72 -108 -9 -266 -44 -337 -75 -58 -25 -228 -132 -239
-151 -10 -15 5 -41 24 -41 9 0 34 11 54 25 20 14 39 25 41 25 2 0 31 16 65 36
72 42 123 58 252 78 114 19 230 20 314 5 73 -13 182 -47 210 -66 12 -8 64 -29
115 -47 52 -17 107 -40 122 -51 34 -22 131 -55 163 -55 44 0 54 -9 41 -38 -6
-15 -24 -40 -40 -57 -69 -69 -100 -152 -99 -255 1 -84 19 -125 79 -181 88 -83
86 -81 67 -123 -11 -21 -25 -36 -36 -36 -24 0 -36 -27 -50 -115 l-12 -76 -23
38 c-13 21 -26 53 -29 71 -4 19 -17 40 -30 49 -13 8 -40 47 -59 86 -43 85
-173 248 -232 291 -23 17 -74 69 -113 115 -39 46 -78 90 -85 98 -8 8 -15 18
-15 22 0 4 -16 25 -36 47 -51 56 -90 115 -98 147 -4 17 -13 27 -24 26 -10 0
-12 -3 -4 -6 18 -7 15 -20 -9 -44 -17 -17 -23 -19 -30 -8 -7 11 -9 10 -9 -3 0
-10 10 -20 23 -23 12 -3 33 -22 46 -40 13 -19 27 -35 32 -35 5 0 9 -6 9 -14 0
-8 10 -22 22 -30 12 -9 19 -16 14 -16 -4 0 17 -26 48 -57 31 -32 56 -60 56
-64 0 -3 13 -22 30 -40 16 -19 30 -37 31 -41 1 -5 2 -11 3 -16 0 -4 13 -21 29
-37 15 -16 27 -35 27 -41 0 -6 23 -45 50 -85 28 -41 62 -91 75 -111 14 -20 30
-40 37 -45 25 -16 99 -104 94 -112 -3 -4 10 -45 29 -90 19 -46 35 -88 35 -94
0 -7 16 -43 36 -81 l35 -70 -20 -49 c-12 -27 -21 -55 -21 -61 0 -6 -12 -19
-26 -30 -26 -18 -27 -18 -113 7 -47 14 -114 32 -147 41 -66 17 -657 272 -809
348 -49 25 -133 60 -185 78 -52 18 -130 50 -172 72 -223 111 -477 174 -658
164 -82 -4 -106 -8 -213 -39 -58 -16 -122 -74 -131 -118 -9 -47 -7 -157 3
-163 4 -3 11 -19 14 -36 4 -18 32 -55 74 -98 37 -37 97 -108 133 -156 82 -112
165 -204 248 -274 59 -50 72 -56 120 -60 38 -3 55 -9 59 -21 20 -62 87 -183
114 -203 17 -12 52 -42 77 -64 48 -42 200 -124 230 -124 9 0 40 -9 69 -20 28
-11 89 -22 135 -26 46 -3 96 -13 112 -20 20 -10 67 -14 147 -14 68 0 120 -4
124 -10 9 -15 122 -12 153 4 15 7 45 17 67 20 21 4 57 17 78 29 22 12 50 28
63 35 13 7 31 23 41 35 10 13 46 42 80 65 33 23 70 53 81 66 10 14 32 28 48
32 16 4 36 12 44 19 8 7 35 19 60 26 25 7 52 19 62 26 19 17 24 11 33 -42 11
-64 15 -75 31 -75 8 0 17 6 20 14 3 8 12 12 21 9 22 -9 -33 -50 -77 -59 -92
-18 -140 -57 -190 -152 -39 -74 -141 -375 -144 -422 0 -14 -25 -59 -55 -100
-30 -41 -70 -102 -89 -135 -47 -81 -64 -111 -101 -173 -17 -29 -31 -59 -31
-66 0 -8 -7 -19 -16 -27 -8 -7 -22 -26 -31 -43 -9 -17 -29 -43 -46 -59 -16
-15 -27 -31 -23 -35 4 -3 11 0 15 7 15 23 46 8 46 -22 -1 -15 2 -27 6 -27 9 0
19 26 19 48 0 21 56 133 63 126 3 -3 10 11 17 30 6 20 15 34 19 32 4 -3 13 15
20 39 7 24 18 46 25 48 7 3 23 28 36 55 13 28 27 49 31 47 3 -3 12 8 20 23 8
15 17 29 20 32 3 3 13 19 22 35 9 17 27 42 41 57 14 15 26 31 26 36 0 6 6 12
14 15 8 3 16 16 19 29 2 13 5 1 6 -27 1 -36 4 -46 11 -35 5 8 10 29 10 45 0
17 7 62 16 100 47 200 95 389 99 393 3 3 39 7 80 9 l75 4 0 -30 c0 -16 4 -32
8 -35 5 -3 33 4 63 15 62 24 117 20 157 -11 13 -11 43 -25 66 -31 l41 -12 -60
-12 c-105 -21 -169 -52 -222 -106 -26 -27 -48 -53 -49 -57 -3 -29 -33 -62 -79
-86 -51 -26 -105 -81 -105 -106 0 -6 -8 -36 -19 -68 -22 -67 -25 -100 -56
-665 -5 -77 -6 -79 -53 -135 -40 -47 -99 -132 -167 -244 -22 -36 -132 -196
-170 -248 -41 -55 -55 -78 -90 -144 -12 -23 -32 -43 -52 -51 -18 -8 -33 -20
-33 -26 0 -10 3 -10 12 -1 7 7 18 12 25 12 19 0 50 -31 56 -55 3 -12 5 -7 6
15 1 35 44 134 54 124 3 -3 13 13 23 35 9 22 21 38 26 35 4 -3 8 -1 8 5 0 5
14 33 32 61 22 35 34 47 40 38 5 -9 8 -6 8 10 0 12 7 25 15 28 8 4 15 10 15
14 0 5 16 32 35 61 19 30 35 49 35 44 0 -5 19 19 42 55 23 36 47 70 53 77 65
76 144 190 150 215 l7 28 18 -23 c9 -12 20 -35 24 -51 12 -48 17 -22 6 29 -6
26 -10 84 -9 129 2 45 -1 196 -6 337 -4 140 -5 267 -1 282 4 18 13 27 27 27
11 0 34 7 51 16 l31 16 -6 -66 c-3 -37 -2 -92 4 -124 7 -42 5 -81 -7 -150 -12
-70 -15 -144 -12 -295 3 -196 4 -203 30 -252 16 -31 30 -79 36 -125 14 -107
44 -179 97 -231 35 -36 48 -57 63 -114 19 -70 20 -70 52 -67 61 6 120 -36 120
-87 0 -29 13 -33 54 -16 45 19 127 19 172 0 41 -17 54 -13 54 16 0 51 59 93
120 87 32 -3 33 -3 52 67 15 57 28 78 63 114 53 52 83 124 97 231 6 46 20 94
36 125 26 49 27 56 30 252 3 151 0 225 -12 295 -12 69 -14 108 -7 150 6 32 7
87 4 124 l-6 66 31 -16 c17 -9 40 -16 51 -16 14 0 23 -9 27 -27 4 -15 3 -142
-1 -282 -5 -141 -8 -292 -6 -337 1 -45 -3 -103 -9 -129 -11 -51 -6 -77 6 -29
4 16 15 39 24 51 l18 23 7 -28 c5 -22 83 -136 129 -189 23 -26 33 -40 74 -103
23 -36 42 -60 42 -55 0 5 16 -14 35 -44 19 -29 35 -56 35 -61 0 -4 7 -10 15
-14 8 -3 15 -16 15 -28 0 -16 3 -19 8 -10 6 9 18 -3 40 -38 18 -28 32 -56 32
-61 0 -6 4 -8 8 -5 5 3 17 -13 26 -35 10 -22 20 -38 23 -35 10 10 53 -89 54
-124 1 -22 3 -27 6 -15 6 24 37 55 56 55 7 0 18 -5 25 -12 9 -9 12 -9 12 1 0
6 -15 18 -33 26 -20 8 -40 28 -52 51 -35 66 -49 89 -90 144 -38 52 -148 212
-170 248 -68 112 -127 197 -167 244 -47 56 -48 58 -53 135 -31 565 -34 598
-56 665 -11 32 -19 62 -19 68 0 25 -54 80 -105 106 -46 24 -76 57 -79 86 -1 4
-23 30 -49 57 -53 54 -117 85 -222 106 l-60 12 41 12 c23 6 53 20 66 31 40 31
95 35 157 11 30 -11 58 -18 63 -15 4 3 8 19 8 35 l0 30 75 -4 c41 -2 77 -6 80
-9 4 -4 52 -193 99 -393 9 -38 16 -83 16 -100 0 -16 5 -37 10 -45 7 -11 10 -1
11 35 1 28 4 40 6 27 3 -13 11 -26 19 -29 8 -3 14 -9 14 -15 0 -5 12 -21 26
-36 14 -15 32 -40 41 -57 9 -16 19 -32 22 -35 3 -3 12 -17 20 -32 8 -15 17
-26 20 -23 4 2 18 -19 31 -47 13 -27 29 -52 36 -55 7 -2 18 -24 25 -48 7 -24
16 -42 20 -39 4 2 13 -12 19 -32 7 -19 14 -33 17 -30 7 7 63 -105 63 -126 0
-22 10 -48 19 -48 4 0 7 12 6 27 0 30 31 45 46 22 4 -7 11 -10 15 -7 4 4 -7
20 -23 35 -17 16 -37 42 -46 59 -9 17 -23 36 -31 43 -9 8 -16 19 -16 27 0 7
-14 37 -31 66 -37 62 -54 92 -101 173 -19 33 -59 94 -89 135 -30 41 -55 86
-55 100 -3 47 -105 348 -144 422 -50 95 -98 134 -190 152 -44 9 -99 50 -77 59
9 3 18 -1 21 -9 3 -8 12 -14 20 -14 16 0 20 11 31 75 9 53 14 59 33 42 10 -7
37 -19 62 -26 25 -7 52 -19 60 -26 8 -7 28 -15 44 -19 16 -4 38 -18 48 -32 11
-13 48 -43 81 -66 34 -23 70 -52 80 -65 10 -12 28 -28 41 -35 13 -7 41 -23 63
-35 21 -12 57 -25 78 -29 22 -3 52 -13 67 -20 31 -16 144 -19 153 -4 4 6 56
10 124 10 80 0 127 4 147 14 16 7 66 17 112 20 46 4 107 15 135 26 29 11 60
20 69 20 30 0 182 82 230 124 25 22 60 52 77 64 27 20 94 141 114 203 4 12 21
18 59 21 48 4 61 10 120 60 83 70 166 162 248 274 36 48 96 119 133 156 42 43
70 80 74 98 3 17 10 33 14 36 10 6 12 116 3 163 -17 86 -152 147 -344 157
-181 10 -435 -53 -658 -164 -42 -22 -120 -54 -172 -72 -52 -18 -135 -53 -185
-78 -152 -76 -743 -331 -809 -348 -33 -9 -100 -27 -147 -41 -86 -25 -87 -25
-113 -7 -14 11 -26 24 -26 30 0 6 -9 34 -21 61 l-20 49 35 70 c20 38 36 74 36
81 0 6 16 48 35 94 19 45 32 86 29 90 -5 8 69 96 94 112 7 5 23 25 37 45 13
20 47 70 75 111 27 40 50 79 50 85 0 6 12 25 28 41 15 16 28 33 28 37 1 5 2
11 3 16 1 4 15 22 31 41 17 18 30 37 30 40 0 4 25 32 56 64 31 31 52 57 48 57
-5 0 2 7 14 16 12 8 22 22 22 30 0 8 4 14 9 14 5 0 19 16 32 35 13 18 34 37
46 40 13 3 23 13 23 23 0 13 -2 14 -9 3 -7 -11 -13 -9 -30 8 -24 24 -27 37 -8
44 7 3 5 6 -5 6 -11 1 -20 -9 -24 -26 -8 -32 -47 -91 -98 -147 -20 -22 -36
-43 -36 -47 0 -4 -7 -14 -15 -22 -7 -8 -46 -52 -85 -98 -39 -46 -90 -98 -113
-115 -59 -43 -189 -206 -232 -291 -19 -39 -46 -78 -59 -86 -13 -9 -26 -30 -30
-49 -3 -18 -16 -50 -29 -71 l-23 -38 -12 76 c-14 88 -26 115 -50 115 -11 0
-25 15 -36 36 -19 42 -21 40 67 123 60 56 78 97 79 181 1 103 -30 186 -99 255
-16 17 -34 42 -40 57 -13 29 -3 38 41 38 32 0 129 33 163 55 15 11 70 34 122
51 51 18 103 39 115 47 28 19 137 53 210 66 84 15 200 14 314 -5 129 -20 180
-36 252 -78 34 -20 63 -36 65 -36 2 0 21 -11 41 -25 20 -14 45 -25 54 -25 19
0 34 26 24 41 -11 19 -181 126 -239 151 -71 31 -229 66 -337 75 -96 7 -264
-25 -373 -72 -22 -9 -62 -23 -90 -31 -27 -8 -96 -38 -153 -67 -81 -41 -105
-49 -111 -38 -7 10 -28 13 -89 9 l-80 -5 -18 60 c-21 70 -64 139 -106 168 -33
24 -49 18 -25 -9 13 -14 17 -37 17 -89 0 -99 -7 -104 -150 -104 -143 0 -150 4
-150 106 0 52 4 76 15 85 8 7 15 16 15 21 0 20 -23 7 -65 -36z m-106 -451 c28
-36 35 -99 23 -213 -11 -107 -20 -130 -60 -149 -23 -11 -29 -9 -55 16 -67 63
-70 72 -56 175 7 50 18 99 26 108 7 8 13 19 13 23 0 4 12 25 27 46 31 42 45
41 82 -6z m691 -38 c0 -5 6 -17 13 -25 8 -9 19 -58 26 -108 14 -103 11 -112
-56 -175 -26 -25 -32 -27 -55 -16 -40 19 -49 42 -60 149 -14 133 -5 184 38
227 l35 35 29 -39 c16 -22 30 -43 30 -48z m-2883 -388 c12 -10 17 -10 20 -1 3
9 12 9 36 1 27 -10 29 -12 11 -19 -14 -5 -10 -7 16 -7 19 0 55 -7 80 -16 25
-9 70 -19 100 -21 33 -2 75 -14 105 -29 28 -14 55 -26 61 -26 6 0 17 -7 24
-15 10 -12 10 -15 0 -15 -10 0 -10 -3 0 -15 7 -9 18 -14 24 -12 6 3 17 -1 23
-8 25 -27 -12 -35 -184 -37 -150 -3 -174 -1 -209 16 -21 11 -55 27 -74 35 -19
9 -53 27 -75 40 -105 64 -238 112 -258 92 -16 -16 9 -38 50 -46 44 -8 157 -63
216 -104 83 -59 143 -71 365 -72 110 -1 206 2 213 6 7 5 39 7 71 6 51 -2 65
-7 93 -33 32 -28 33 -32 20 -52 -22 -33 -83 -63 -155 -76 -36 -6 -97 -18 -137
-26 -49 -11 -77 -12 -90 -5 -96 51 -123 57 -123 27 0 -16 42 -46 64 -46 8 0
37 -18 66 -41 50 -40 123 -78 148 -79 7 0 30 -11 51 -24 21 -13 46 -24 57 -23
29 3 28 -30 -2 -58 -33 -31 -54 -27 -149 27 -82 48 -122 54 -290 43 -89 -5
-120 -11 -138 -25 -30 -25 -12 -45 26 -31 49 19 200 19 284 1 69 -15 127 -40
143 -61 3 -4 28 -9 55 -11 28 -2 56 -6 64 -9 10 -3 17 7 21 29 16 71 66 92
216 92 103 -1 179 -11 195 -27 5 -5 3 -29 -6 -61 l-16 -52 -175 0 c-137 0
-180 -3 -197 -15 -15 -9 -46 -14 -89 -13 -44 1 -79 -5 -102 -16 -20 -9 -58
-20 -84 -23 l-49 -5 21 -23 c19 -20 27 -21 81 -15 33 4 73 13 88 19 22 9 49 7
125 -8 175 -36 398 -54 411 -34 9 15 38 16 271 14 91 0 81 0 230 -10 195 -13
407 -52 394 -72 -3 -5 -47 -9 -98 -9 -61 0 -98 -4 -111 -13 -36 -27 -8 -36 98
-32 81 4 94 3 63 -5 -21 -6 -55 -19 -75 -29 -20 -11 -50 -24 -68 -31 -18 -7
-39 -22 -47 -35 -8 -12 -46 -43 -84 -68 -38 -25 -72 -52 -75 -60 -21 -55 -327
-157 -352 -117 -4 6 -58 10 -129 10 -76 0 -126 4 -133 11 -6 6 -50 15 -98 20
-48 5 -113 16 -144 25 -31 8 -69 19 -86 23 -71 19 -183 83 -245 141 -35 33
-67 60 -70 60 -6 0 -39 60 -54 100 -3 8 -10 22 -15 30 -5 8 -13 29 -18 45 -8
28 -12 30 -69 36 -54 5 -68 11 -114 50 -61 52 -161 153 -175 178 -28 48 -178
230 -212 258 -22 17 -46 46 -52 65 -7 18 -18 43 -23 55 -6 13 -8 47 -4 86 6
57 12 70 43 101 20 19 40 33 45 30 5 -3 19 3 31 14 20 19 67 36 127 46 48 8
191 -3 207 -16z m5243 1 c19 -6 45 -21 57 -31 12 -11 26 -17 31 -14 5 3 25
-11 45 -30 31 -31 37 -44 43 -101 4 -39 2 -73 -4 -86 -5 -12 -16 -37 -23 -55
-6 -19 -30 -48 -52 -65 -34 -28 -184 -210 -212 -258 -14 -25 -114 -126 -175
-178 -46 -39 -60 -45 -114 -50 -57 -6 -61 -8 -70 -36 -12 -42 -15 -48 -25 -65
-5 -8 -19 -36 -31 -62 -13 -27 -26 -48 -30 -48 -3 0 -35 -27 -70 -60 -62 -58
-174 -122 -245 -141 -16 -4 -55 -15 -86 -23 -31 -9 -96 -20 -144 -25 -48 -5
-92 -14 -98 -20 -7 -7 -57 -11 -133 -11 -71 0 -125 -4 -129 -10 -25 -40 -331
62 -352 117 -3 8 -37 35 -75 60 -38 25 -76 56 -84 68 -8 13 -29 28 -47 35 -18
7 -48 20 -68 31 -20 10 -54 23 -75 29 -31 8 -18 9 63 5 106 -4 134 5 98 32
-13 9 -50 13 -111 13 -51 0 -95 4 -98 9 -13 20 199 59 394 72 149 10 139 10
230 10 233 2 262 1 271 -14 13 -20 236 -2 411 34 76 15 103 17 125 8 15 -6 55
-15 88 -19 54 -6 62 -5 81 15 l21 23 -49 5 c-26 3 -64 14 -84 23 -23 11 -58
17 -102 16 -43 -1 -74 4 -89 13 -17 12 -60 15 -197 15 l-175 0 -16 52 c-9 32
-11 56 -6 61 16 16 92 26 195 27 150 0 200 -21 216 -92 4 -22 11 -32 21 -29 8
3 37 7 64 9 28 2 52 7 55 11 16 21 74 46 143 61 84 18 235 18 284 -1 38 -14
56 6 26 31 -18 14 -49 20 -138 25 -168 11 -208 5 -290 -43 -95 -54 -116 -58
-149 -27 -30 28 -31 61 -2 58 11 -1 36 10 57 23 21 13 44 24 51 24 25 1 98 39
148 79 29 23 58 41 66 41 22 0 64 30 64 46 0 30 -27 24 -123 -27 -13 -7 -41
-6 -90 5 -40 8 -101 20 -137 26 -72 13 -133 43 -155 76 -13 20 -12 24 20 52
28 26 42 31 93 33 32 1 64 -1 71 -6 7 -4 103 -7 213 -6 222 1 282 13 365 72
59 41 172 96 216 104 41 8 66 30 50 46 -20 20 -153 -28 -258 -92 -22 -13 -58
-32 -80 -42 -22 -11 -55 -26 -74 -35 -29 -14 -63 -17 -204 -14 -172 2 -209 10
-184 37 6 7 17 11 23 8 6 -2 17 3 24 12 10 12 10 15 0 15 -10 0 -10 3 0 15 7
8 18 15 24 15 6 0 34 12 61 26 30 15 72 27 105 29 30 2 75 12 100 21 25 9 61
16 80 16 26 0 30 2 16 7 -18 7 -16 9 11 19 24 8 33 8 36 -1 3 -9 7 -9 18 0 8
6 25 13 39 16 43 8 204 -1 240 -14z m-4180 -436 c130 -64 281 -127 515 -215
139 -52 139 -53 44 -56 -90 -4 -357 15 -374 26 -5 4 -41 18 -79 32 -59 21 -71
30 -79 55 -14 46 -83 130 -148 183 -58 47 -75 69 -41 54 9 -5 82 -40 162 -79z
m2984 45 c-87 -70 -150 -146 -173 -209 -8 -22 -23 -31 -78 -49 -37 -13 -73
-26 -78 -31 -15 -11 -279 -31 -374 -27 -95 3 -95 4 44 56 238 90 415 164 545
228 80 40 147 70 149 68 3 -3 -13 -19 -35 -36z m-3221 8 c57 -34 144 -120 168
-167 l19 -39 -22 0 c-13 -1 -85 -1 -160 0 -76 1 -146 -3 -156 -9 -13 -7 -34
-1 -82 23 -36 17 -87 40 -115 50 -56 21 -89 46 -77 58 11 11 102 27 165 29 51
2 117 27 167 62 32 22 44 22 93 -7z m3407 7 c50 -35 116 -60 167 -62 63 -2
154 -18 165 -29 12 -12 -21 -37 -77 -58 -27 -10 -79 -33 -115 -50 -48 -24 -69
-30 -82 -23 -10 6 -80 10 -156 9 -75 -1 -147 -1 -160 0 l-22 0 19 38 c35 69
176 191 221 192 9 0 27 -8 40 -17z m-3072 -314 c37 -12 79 -30 94 -40 14 -11
33 -19 41 -19 9 0 19 -4 22 -10 4 -6 96 -11 238 -12 161 -1 210 -3 162 -8
-106 -11 -540 -11 -550 -1 -6 6 -35 11 -65 13 -55 3 -55 3 -51 33 4 36 18 65
32 65 5 0 40 -10 77 -21z m2741 4 c5 -10 11 -31 12 -48 4 -30 4 -30 -51 -33
-30 -2 -59 -7 -64 -13 -11 -10 -445 -10 -551 1 -48 5 1 7 162 8 142 1 234 6
238 12 3 6 13 10 21 10 8 0 26 8 41 18 28 18 137 59 165 61 10 0 21 -7 27 -16z
m-2047 -63 c7 0 6 -5 -1 -14 -9 -11 -9 -15 1 -19 7 -2 10 -8 6 -11 -8 -9 -48
29 -48 45 0 6 7 8 16 5 9 -3 20 -6 26 -6z m1298 0 c0 -15 -41 -53 -48 -45 -4
3 0 10 7 14 11 7 11 10 0 16 -9 6 -8 10 7 16 27 11 34 10 34 -1z m-1887 -70
c15 0 27 -5 27 -10 0 -6 -3 -10 -7 -10 -237 -8 -343 -17 -343 -31 0 -14 -50
-11 -51 4 0 9 -2 9 -6 -1 -2 -6 -10 -9 -16 -5 -7 4 -21 8 -32 9 -151 10 -225
25 -184 38 8 2 21 7 29 10 12 3 372 1 583 -4z m3045 -4 c8 -4 10 -12 5 -16 -7
-7 -94 -18 -188 -24 -11 -1 -26 -5 -32 -9 -8 -5 -13 -3 -14 5 0 10 -2 10 -6 1
-5 -15 -53 -18 -53 -4 0 14 -106 23 -342 31 -5 0 -8 5 -8 11 0 6 8 9 18 7 9
-3 38 -2 62 3 61 10 542 6 558 -5z m-2520 -8 c28 -6 52 -15 52 -19 0 -4 23 -6
51 -4 45 2 52 0 60 -22 5 -13 9 -28 9 -32 0 -12 -64 2 -151 32 -65 23 -102 30
-194 37 -18 1 -18 2 -2 8 29 12 118 12 175 0z m1569 -2 c4 -3 -2 -6 -13 -7
-73 -3 -128 -13 -193 -36 -87 -30 -151 -44 -151 -32 0 4 4 19 9 32 8 22 15 24
60 22 28 -2 51 0 51 4 0 22 217 38 237 17z"/>
</g>
</svg>
