<?xml version="1.0" standalone="no"?>
<!DOCTYPE svg PUBLIC "-//W3C//DTD SVG 20010904//EN"
 "http://www.w3.org/TR/2001/REC-SVG-20010904/DTD/svg10.dtd">
<svg version="1.0" xmlns="http://www.w3.org/2000/svg"
 width="1128.000000pt" height="1180.000000pt" viewBox="0 0 1128.000000 1180.000000"
 preserveAspectRatio="xMidYMid meet">
<metadata>
Created by potrace 1.14, written by Peter Selinger 2001-2017
</metadata>
<g transform="translate(0.000000,1180.000000) scale(0.100000,-0.100000)"
fill="#aa3355" stroke="none">
<path d="M2735 11790 c-72 -6 -115 -22 -150 -53 -11 -10 -76 -45 -145 -78
-176 -85 -202 -96 -355 -149 -125 -43 -165 -61 -165 -74 0 -6 -34 -27 -76 -46
-41 -19 -87 -46 -102 -60 -15 -14 -47 -41 -72 -60 -25 -18 -56 -44 -70 -57
-14 -12 -49 -41 -77 -63 -29 -22 -53 -45 -53 -50 0 -6 -6 -10 -14 -10 -8 0
-16 -3 -18 -7 -1 -5 -24 -25 -49 -45 -48 -39 -70 -86 -68 -149 1 -21 3 -26 6
-14 9 38 22 39 37 4 10 -23 15 -28 16 -14 0 10 25 43 56 72 49 47 57 51 71 38
8 -8 16 -15 18 -15 2 0 24 31 48 68 42 65 47 69 76 64 20 -3 31 0 31 8 0 12
56 89 74 102 5 4 15 -1 21 -9 10 -14 21 -7 80 51 66 65 75 69 115 52 9 -4 53
19 110 57 133 87 330 180 346 164 3 -3 -2 -19 -10 -36 -9 -16 -16 -35 -16 -41
0 -7 -6 -26 -14 -43 -15 -36 -33 -131 -41 -222 -6 -61 4 -120 20 -120 5 0 17
32 27 70 10 39 22 79 27 90 5 11 17 40 27 65 24 60 122 210 138 210 3 0 6 -26
6 -57 l0 -58 20 25 c11 14 20 28 20 33 0 14 51 89 57 83 3 -2 -2 -26 -11 -52
-20 -59 -20 -64 -1 -64 8 0 15 5 15 10 0 6 9 20 20 32 11 12 26 34 32 50 7 15
19 30 26 33 13 5 12 -7 -5 -52 -10 -27 16 -11 53 32 21 25 42 45 46 45 4 0 8
-13 8 -30 0 -16 5 -30 10 -30 13 0 50 37 50 50 0 23 29 8 32 -17 l3 -26 31 26
c42 36 57 35 52 -3 -6 -37 13 -40 36 -5 9 14 25 25 36 25 15 0 20 -7 20 -25 0
-30 10 -32 33 -5 9 11 22 20 28 20 6 0 13 -9 16 -20 6 -24 16 -25 37 -5 23 23
73 19 79 -7 6 -20 7 -21 32 -4 31 20 75 14 75 -10 0 -11 4 -12 19 -4 29 15 61
12 68 -5 5 -14 7 -14 23 0 17 15 19 15 25 -4 5 -18 10 -19 27 -10 16 8 22 8
29 -2 6 -10 13 -7 28 12 l20 24 1 -52 0 -51 -55 -31 c-31 -18 -58 -38 -61 -46
-3 -8 3 -38 13 -67 25 -68 21 -88 -18 -88 l-30 0 26 -34 c22 -29 24 -38 15
-55 -6 -12 -13 -21 -15 -21 -9 0 -49 24 -65 39 -13 13 -15 12 -19 -9 -3 -24
22 -82 46 -108 17 -18 16 -57 -3 -93 -18 -36 -45 -32 -84 12 -24 27 -50 38
-50 22 0 -11 34 -107 40 -113 3 -3 16 -20 28 -38 27 -39 25 -60 -13 -116 -14
-20 -25 -46 -25 -56 0 -30 -15 -24 -59 21 -61 64 -60 23 3 -103 22 -44 27 -64
22 -91 -4 -19 -13 -38 -21 -41 -17 -6 -50 37 -67 90 -17 52 -34 44 -30 -14 3
-44 3 -46 -12 -27 -15 19 -15 19 -16 -7 0 -33 25 -99 57 -150 12 -20 19 -39
15 -42 -7 -4 -85 31 -134 62 -51 32 -113 77 -116 85 -6 13 -32 7 -32 -7 0 -25
104 -129 181 -181 72 -49 92 -66 84 -73 -3 -3 -70 24 -122 50 -45 22 -35 -3
23 -60 32 -32 70 -66 84 -75 20 -14 22 -19 11 -26 -10 -7 -35 2 -78 25 -82 45
-83 27 -3 -54 l60 -60 0 -62 c0 -51 5 -69 28 -104 25 -36 28 -50 27 -116 -1
-46 -6 -83 -15 -97 -12 -18 -12 -28 -2 -57 8 -21 10 -50 6 -70 -11 -62 15
-346 37 -394 24 -53 87 -117 136 -137 21 -9 43 -21 48 -28 16 -19 73 -57 86
-57 6 0 23 -6 37 -13 70 -36 189 -87 201 -87 6 0 11 -4 11 -8 0 -5 39 -21 87
-37 l86 -28 371 7 c387 7 416 10 506 46 78 31 172 51 186 39 11 -9 59 -105
101 -199 9 -19 21 -46 28 -60 10 -23 19 -50 55 -175 21 -72 22 -316 3 -483
l-18 -154 -55 43 c-30 24 -57 46 -60 49 -7 7 -43 27 -145 81 -130 67 -233 85
-640 109 -88 5 -191 14 -230 19 -66 10 -199 21 -500 41 -71 5 -175 14 -230 20
-158 16 -320 31 -450 40 -66 4 -158 13 -205 19 -246 30 -432 42 -665 42 -279
0 -345 -8 -685 -78 -114 -23 -364 -87 -465 -118 -76 -24 -150 -44 -220 -60
-217 -51 -216 -51 -350 -116 -67 -33 -93 -48 -112 -66 -7 -6 -22 -15 -33 -18
-11 -3 -20 -11 -20 -16 0 -5 -5 -9 -11 -9 -27 0 -100 -87 -137 -164 -48 -99
-57 -151 -41 -258 23 -159 93 -218 334 -281 80 -21 223 -47 259 -47 15 0 74
-7 130 -14 170 -25 356 -45 466 -51 58 -3 137 -11 175 -16 39 -6 295 -15 570
-19 275 -5 604 -15 730 -24 127 -9 300 -20 385 -26 85 -5 200 -14 255 -20 55
-5 220 -9 368 -10 l267 0 0 -76 0 -76 -142 6 c-79 3 -323 11 -543 17 -220 5
-474 17 -565 24 -414 35 -929 42 -1145 16 -138 -17 -335 -57 -383 -77 -18 -8
-41 -14 -52 -14 -10 0 -21 -4 -25 -9 -3 -5 -20 -12 -38 -16 -17 -4 -86 -33
-153 -66 -174 -86 -239 -155 -264 -280 -11 -56 -11 -73 0 -100 19 -48 94 -160
133 -197 31 -30 216 -132 267 -146 42 -12 162 -57 210 -78 25 -11 56 -25 70
-30 14 -6 39 -17 55 -24 17 -7 37 -15 45 -19 57 -23 165 -104 202 -152 128
-165 412 -413 543 -474 11 -5 34 -18 50 -29 17 -11 41 -25 55 -30 13 -6 27
-14 30 -18 3 -4 64 -35 135 -70 145 -71 162 -79 310 -142 80 -35 86 -37 175
-70 47 -18 101 -38 120 -45 19 -7 60 -21 90 -30 30 -10 73 -24 95 -31 23 -8
49 -14 59 -14 11 0 42 -6 70 -14 188 -53 353 -74 549 -72 111 1 167 -2 167 -9
0 -6 -15 -23 -32 -39 -62 -54 -182 -161 -200 -179 -10 -9 -20 -17 -23 -17 -3
0 -16 -10 -28 -23 -12 -13 -58 -54 -102 -92 -44 -38 -91 -79 -105 -91 -85 -76
-172 -156 -220 -201 l-54 -51 27 -109 c27 -107 45 -171 74 -268 16 -52 26 -88
68 -245 81 -305 119 -462 160 -680 9 -47 23 -112 30 -145 7 -33 21 -96 30
-140 16 -77 35 -153 58 -225 6 -19 14 -51 18 -70 10 -45 32 -126 59 -215 12
-38 25 -86 30 -105 4 -19 13 -48 18 -65 29 -84 72 -256 72 -288 0 -17 11 -38
30 -55 22 -21 30 -38 30 -63 0 -19 4 -49 9 -67 5 -17 13 -96 16 -174 l7 -143
37 -36 c39 -39 81 -88 81 -95 0 -6 19 -30 50 -62 14 -15 39 -46 55 -70 16 -24
37 -49 46 -56 10 -6 23 -24 30 -39 7 -15 16 -27 21 -27 4 0 8 -6 8 -13 0 -8 9
-22 21 -33 11 -10 32 -43 46 -74 34 -73 50 -90 85 -90 28 0 37 13 18 25 -5 3
-10 12 -10 20 0 10 16 15 57 17 l56 3 -29 15 c-50 26 -94 81 -94 118 0 27 -9
43 -46 78 -32 32 -44 50 -39 63 6 20 -3 51 -15 51 -16 0 -100 83 -94 92 9 14
-17 58 -33 58 -7 0 -13 3 -13 8 0 4 -20 20 -45 35 -43 28 -45 31 -45 79 0 27
-5 58 -10 68 -21 40 -52 254 -47 330 4 69 2 81 -29 148 -19 40 -34 80 -34 90
0 10 -7 27 -15 38 -8 10 -15 27 -15 37 0 9 -4 17 -10 17 -5 0 -10 12 -10 28 0
28 -39 153 -51 162 -4 3 -10 28 -14 55 -4 28 -13 66 -20 85 -36 102 -67 219
-90 340 -9 47 -23 108 -31 136 -8 28 -14 59 -14 69 0 10 -7 41 -15 69 -17 60
-64 244 -76 301 -5 22 -16 65 -25 95 -9 30 -22 80 -29 110 -7 30 -17 73 -23
95 -6 22 -18 69 -26 105 -8 36 -27 112 -42 170 -15 58 -30 123 -34 145 -8 44
-23 103 -47 182 -16 51 -16 51 10 75 44 41 81 72 132 112 28 22 55 45 61 51 6
5 32 28 59 50 26 22 67 56 90 75 23 19 63 53 90 75 106 88 140 118 143 126 2
5 8 9 12 9 5 0 24 15 43 33 210 203 204 199 287 187 104 -15 281 -12 304 5 11
8 28 15 39 15 10 0 39 14 64 30 24 17 46 30 49 30 3 0 12 7 20 15 9 8 18 15
22 15 4 0 5 -91 4 -202 -2 -115 1 -225 6 -253 6 -27 20 -102 32 -165 24 -131
48 -218 67 -241 7 -8 13 -20 13 -25 0 -5 13 -25 30 -44 16 -19 29 -41 30 -47
0 -7 4 -13 9 -13 5 0 14 -13 21 -30 7 -16 16 -30 21 -30 5 0 9 -5 9 -11 0 -21
89 -143 150 -207 33 -35 60 -67 60 -73 0 -5 4 -9 10 -9 18 0 21 -45 5 -89 -15
-44 -19 -174 -6 -220 7 -26 36 -50 46 -39 4 4 8 39 9 80 2 40 9 92 16 115 12
38 15 41 34 31 31 -16 36 -28 36 -84 0 -37 4 -54 15 -58 29 -11 45 5 45 45 l0
39 70 0 70 0 0 -39 c0 -40 16 -56 45 -45 11 4 15 21 15 58 0 56 5 68 36 84 19
10 22 7 34 -31 7 -23 14 -75 16 -115 1 -41 5 -76 9 -80 10 -11 39 13 46 39 13
46 9 176 -6 220 -16 44 -13 89 5 89 6 0 10 4 10 9 0 6 27 38 60 73 61 64 150
186 150 207 0 6 4 11 9 11 5 0 14 13 21 30 7 16 16 30 21 30 5 0 9 6 9 13 1 6
14 28 30 47 17 19 30 39 30 44 0 5 6 17 13 25 19 23 43 110 67 241 12 63 26
138 32 165 5 28 8 138 6 253 -1 111 0 202 4 202 4 0 13 -7 22 -15 8 -8 17 -15
20 -15 3 0 25 -13 49 -30 25 -16 54 -30 64 -30 11 0 28 -7 39 -15 23 -17 200
-20 304 -5 83 12 77 16 287 -187 19 -18 38 -33 43 -33 4 0 10 -4 12 -9 3 -8
37 -38 143 -126 27 -22 67 -56 90 -75 23 -19 64 -53 90 -75 27 -22 53 -45 59
-50 6 -6 34 -29 61 -51 51 -40 88 -71 132 -112 26 -24 26 -24 10 -75 -24 -79
-39 -138 -47 -182 -4 -22 -19 -87 -34 -145 -15 -58 -34 -134 -42 -170 -8 -36
-20 -83 -26 -105 -6 -22 -16 -65 -23 -95 -7 -30 -20 -80 -29 -110 -9 -30 -20
-73 -25 -95 -12 -57 -59 -241 -76 -301 -8 -28 -15 -59 -15 -69 0 -10 -6 -41
-14 -69 -8 -28 -22 -89 -31 -136 -23 -121 -54 -238 -90 -340 -7 -19 -16 -57
-20 -85 -4 -27 -10 -52 -14 -55 -12 -9 -51 -134 -51 -162 0 -16 -4 -28 -10
-28 -5 0 -10 -8 -10 -17 0 -10 -7 -27 -15 -37 -8 -11 -15 -28 -15 -38 0 -10
-15 -50 -34 -90 -31 -67 -33 -79 -29 -148 5 -76 -26 -290 -47 -330 -5 -10 -10
-41 -10 -68 0 -48 -2 -51 -45 -79 -25 -15 -45 -31 -45 -35 0 -5 -6 -8 -13 -8
-16 0 -42 -44 -33 -58 6 -9 -78 -92 -94 -92 -12 0 -22 -34 -14 -53 4 -11 -10
-31 -40 -61 -37 -35 -46 -51 -46 -78 0 -37 -44 -92 -94 -118 l-29 -15 56 -3
c41 -2 57 -7 57 -17 0 -8 -4 -17 -10 -20 -19 -12 -10 -25 18 -25 35 0 51 17
85 90 14 31 35 64 46 74 12 11 21 25 21 33 0 7 4 13 8 13 5 0 14 12 21 27 7
15 20 33 30 39 9 7 30 32 46 56 16 24 41 55 55 70 31 32 50 56 50 62 0 7 42
56 81 95 l37 36 7 143 c3 78 11 157 16 174 5 18 9 48 9 67 0 25 8 42 30 63 19
17 30 38 30 55 0 32 43 204 72 288 5 17 14 46 18 65 5 19 18 67 30 105 27 89
49 170 59 215 4 19 12 51 18 70 23 72 42 148 58 225 9 44 23 107 30 140 7 33
21 98 30 145 42 220 78 371 160 680 42 155 52 192 69 250 34 116 46 158 73
263 l27 109 -54 51 c-48 45 -135 125 -220 201 -14 12 -61 53 -105 91 -44 38
-90 79 -102 92 -12 13 -25 23 -28 23 -3 0 -13 8 -23 17 -18 18 -138 125 -199
179 -18 16 -33 33 -33 39 0 7 56 10 168 9 195 -2 360 19 548 72 28 8 59 14 70
14 10 0 36 6 59 14 22 7 65 21 95 31 30 9 71 23 90 30 19 7 73 27 120 45 47
17 94 35 105 40 32 13 117 50 153 66 17 8 47 20 65 28 70 31 292 141 297 148
3 4 17 12 30 18 14 5 39 19 55 30 17 11 39 24 50 29 131 61 415 309 543 474
37 48 145 129 202 152 8 4 29 12 45 19 17 7 41 18 55 24 14 5 45 19 70 30 48
21 168 66 210 78 51 14 236 116 267 146 39 37 114 149 133 197 11 27 11 44 0
100 -25 125 -90 194 -264 280 -67 33 -136 62 -153 66 -18 4 -35 11 -38 16 -4
5 -15 9 -25 9 -11 0 -34 6 -52 14 -48 20 -245 60 -383 77 -216 26 -731 19
-1145 -16 -91 -7 -345 -19 -565 -24 -220 -6 -464 -14 -542 -17 l-143 -6 0 76
0 76 268 0 c147 1 312 5 367 10 55 6 170 15 255 20 85 6 259 17 385 26 127 9
455 19 730 24 275 4 532 13 570 19 39 5 117 13 175 16 110 6 296 26 466 51 56
7 115 14 130 14 94 0 362 67 449 113 89 47 128 105 144 215 16 107 7 159 -41
258 -37 77 -110 164 -137 164 -6 0 -11 4 -11 9 0 5 -9 13 -20 16 -11 3 -26 12
-33 18 -19 18 -45 33 -112 66 -133 65 -142 68 -355 117 -65 15 -140 36 -215
59 -101 31 -351 95 -465 118 -340 70 -406 78 -685 78 -233 0 -419 -12 -665
-42 -47 -6 -139 -15 -205 -19 -130 -9 -292 -24 -450 -40 -55 -6 -158 -15 -230
-20 -301 -20 -434 -31 -500 -41 -38 -5 -142 -14 -230 -19 -407 -24 -510 -42
-640 -109 -102 -54 -138 -74 -145 -81 -3 -3 -30 -25 -60 -49 l-55 -43 -18 154
c-19 167 -18 411 3 483 36 125 45 152 55 175 7 14 19 41 28 60 42 94 90 190
101 199 14 12 108 -8 186 -39 90 -36 119 -39 506 -46 l371 -7 86 28 c48 16 87
32 87 37 0 4 5 8 11 8 12 0 131 51 201 87 14 7 31 13 37 13 13 0 70 38 86 57
5 7 27 19 48 28 49 20 112 84 136 137 22 48 48 332 37 394 -4 20 -2 49 6 70
10 29 10 39 -2 57 -9 14 -14 51 -15 97 -1 66 2 80 27 116 23 35 28 53 28 104
l0 62 60 60 c80 81 79 99 -3 54 -43 -23 -68 -32 -78 -25 -11 7 -9 12 11 26 14
9 52 43 84 75 58 57 68 82 23 60 -148 -73 -165 -63 -38 23 77 52 181 156 181
181 0 14 -26 20 -32 7 -3 -8 -65 -53 -116 -85 -49 -31 -127 -66 -134 -62 -4 3
3 22 15 42 32 51 57 117 57 150 -1 26 -1 26 -16 7 -15 -19 -15 -17 -12 27 4
58 -13 66 -30 14 -17 -53 -50 -96 -67 -90 -8 3 -17 22 -21 41 -5 27 0 47 22
91 63 126 64 167 3 103 -44 -45 -59 -51 -59 -21 0 10 -11 36 -25 56 -38 56
-40 77 -13 116 12 18 25 35 28 38 6 6 40 102 40 113 0 16 -26 5 -50 -22 -39
-44 -66 -48 -84 -12 -19 36 -20 75 -3 93 24 26 49 84 46 108 -4 21 -6 22 -19
9 -16 -15 -56 -39 -65 -39 -2 0 -9 9 -15 21 -9 17 -7 26 15 55 l26 34 -30 0
c-39 0 -43 20 -18 88 10 29 16 59 13 67 -3 8 -30 28 -61 46 l-55 31 0 51 1 52
20 -24 c15 -19 22 -22 28 -12 7 10 13 10 29 2 17 -9 22 -8 27 10 6 19 8 19 25
4 16 -14 18 -14 23 0 7 17 39 20 68 5 15 -8 19 -7 19 4 0 24 44 30 75 10 25
-17 26 -16 32 4 6 26 56 30 79 7 21 -20 31 -19 37 5 3 11 10 20 16 20 6 0 19
-9 28 -20 23 -27 33 -25 33 5 0 18 5 25 20 25 11 0 27 -11 36 -25 23 -35 42
-32 36 5 -5 38 10 39 52 3 l31 -26 3 26 c3 25 32 40 32 17 0 -5 9 -19 20 -30
28 -28 40 -25 40 10 0 17 4 30 8 30 4 0 25 -20 46 -45 54 -62 65 -59 39 13
-10 25 23 1 35 -26 6 -16 21 -38 32 -50 11 -12 20 -26 20 -32 0 -5 7 -10 15
-10 19 0 19 5 -1 64 -9 26 -14 50 -11 52 6 6 57 -69 57 -83 0 -5 9 -19 20 -33
l20 -25 0 58 c0 31 3 57 6 57 16 0 114 -150 138 -210 10 -25 22 -54 27 -65 5
-11 17 -51 27 -90 10 -38 22 -70 27 -70 16 0 26 59 20 120 -8 91 -26 186 -41
222 -8 17 -14 36 -14 43 0 6 -7 25 -16 41 -8 17 -13 33 -10 36 16 16 213 -77
346 -164 57 -38 101 -61 110 -57 40 17 49 13 115 -52 59 -58 70 -65 80 -51 6
8 16 13 21 9 18 -13 74 -90 74 -102 0 -8 11 -11 31 -8 29 5 34 1 76 -64 24
-37 46 -68 48 -68 2 0 10 7 18 15 14 13 22 9 71 -38 31 -29 56 -62 56 -72 1
-14 6 -9 16 14 15 35 28 34 37 -4 3 -12 5 -7 6 14 2 63 -20 110 -68 149 -25
20 -47 40 -49 45 -2 4 -10 7 -18 7 -8 0 -14 4 -14 10 0 5 -24 28 -52 50 -29
22 -64 51 -78 63 -14 13 -45 39 -70 57 -25 19 -57 46 -72 60 -15 14 -61 41
-102 60 -42 19 -76 40 -76 46 0 13 -40 31 -165 74 -153 53 -179 64 -355 149
-69 33 -134 68 -145 78 -63 57 -204 71 -545 53 -304 -15 -450 -38 -536 -83
-44 -23 -195 -177 -210 -214 -8 -18 -14 -45 -14 -60 0 -21 -8 -33 -30 -45 -26
-15 -30 -23 -30 -58 0 -25 -7 -48 -16 -57 -12 -12 -14 -28 -10 -67 4 -28 10
-207 15 -397 4 -190 11 -351 15 -357 6 -10 15 -82 46 -382 6 -58 17 -159 25
-225 8 -66 15 -141 15 -168 0 -26 7 -92 15 -146 12 -81 22 -111 52 -162 40
-66 94 -125 124 -134 11 -4 19 -11 19 -16 0 -5 6 -9 13 -9 7 0 27 -15 45 -33
45 -47 42 -75 -4 -42 -35 24 -141 30 -199 10 -141 -49 -252 -65 -299 -44 -22
10 -28 9 -43 -8 -24 -28 -138 -41 -151 -17 -11 20 -66 21 -85 2 -12 -11 -29
-13 -83 -7 -38 5 -77 8 -86 8 -9 1 -29 12 -44 26 -30 28 -43 30 -68 12 -21
-15 -137 0 -158 21 -18 18 -51 15 -71 -8 -13 -15 -29 -20 -66 -20 -68 0 -81 7
-81 42 0 36 -27 150 -46 196 -8 18 -14 39 -14 47 0 8 -6 29 -14 47 -8 18 -22
51 -31 73 -29 69 -79 169 -92 183 -16 16 -17 52 -3 52 6 0 16 5 23 10 7 6 41
32 77 59 78 58 148 132 174 184 28 54 26 153 -3 200 -50 82 -148 120 -248 97
-32 -7 -63 -17 -70 -22 -18 -14 -70 -13 -88 2 -19 16 -20 77 -1 116 47 95 96
207 102 229 3 14 10 28 15 31 5 3 9 12 9 21 0 8 6 29 14 46 7 18 21 52 31 77
39 101 145 324 157 328 4 2 8 8 8 14 0 14 88 159 171 283 139 207 276 313 432
335 l62 9 -72 -3 c-57 -3 -86 -10 -135 -35 -75 -37 -165 -112 -222 -184 -22
-29 -44 -53 -48 -55 -5 -2 -8 -8 -8 -13 0 -9 -36 -65 -50 -79 -3 -3 -10 -14
-17 -25 -115 -190 -121 -201 -158 -272 -16 -32 -32 -60 -35 -63 -6 -6 -63
-123 -83 -170 -8 -19 -22 -51 -31 -72 -9 -20 -16 -39 -16 -43 0 -4 -6 -21 -14
-38 -7 -18 -23 -57 -35 -87 -33 -82 -36 -89 -71 -160 -17 -36 -48 -83 -67
-105 -19 -22 -41 -48 -48 -58 -12 -17 -28 -19 -165 -19 -137 0 -153 2 -165 19
-7 10 -29 36 -48 58 -19 22 -50 69 -67 105 -35 71 -38 78 -71 160 -12 30 -28
69 -35 87 -8 17 -14 34 -14 38 0 4 -6 21 -14 38 -7 18 -21 50 -31 72 -22 53
-79 169 -85 175 -3 3 -19 31 -35 63 -37 71 -43 82 -158 272 -7 11 -14 22 -17
25 -14 14 -50 70 -50 79 0 5 -3 11 -8 13 -4 2 -26 26 -48 55 -57 72 -147 147
-222 184 -49 25 -78 32 -135 35 l-72 3 62 -9 c156 -22 293 -128 432 -335 83
-124 171 -269 171 -283 0 -6 4 -12 8 -14 12 -4 118 -227 157 -328 10 -25 24
-59 31 -77 8 -17 14 -38 14 -46 0 -9 4 -18 9 -21 5 -3 12 -17 15 -31 6 -22 55
-134 102 -229 19 -39 18 -100 -1 -116 -18 -15 -70 -16 -88 -2 -7 5 -38 15 -70
22 -100 23 -198 -15 -248 -97 -29 -47 -31 -146 -3 -200 26 -52 96 -126 174
-184 36 -27 70 -53 77 -59 7 -5 17 -10 23 -10 14 0 13 -36 -2 -52 -14 -14 -64
-114 -93 -183 -9 -22 -23 -55 -31 -73 -8 -18 -14 -39 -14 -47 0 -8 -6 -29 -14
-47 -19 -46 -46 -160 -46 -196 0 -35 -13 -42 -81 -42 -37 0 -53 5 -66 20 -20
23 -53 26 -71 8 -21 -21 -137 -36 -158 -21 -25 18 -38 16 -68 -12 -15 -14 -35
-25 -44 -26 -9 0 -48 -3 -86 -8 -54 -6 -71 -4 -83 7 -19 19 -74 18 -85 -2 -13
-24 -127 -11 -151 17 -15 17 -21 18 -43 8 -47 -21 -158 -5 -299 44 -58 20
-164 14 -199 -10 -25 -18 -36 -19 -36 -2 0 16 62 77 78 77 7 0 12 4 12 9 0 5
8 12 19 16 30 9 84 68 124 134 30 51 40 81 52 162 8 54 15 120 15 146 0 27 7
102 15 168 8 66 19 167 25 225 31 300 40 372 46 382 4 6 11 167 15 357 5 190
11 369 15 397 4 39 2 55 -10 67 -9 9 -16 32 -16 57 0 35 -4 43 -30 58 -22 12
-30 24 -30 45 0 50 -26 92 -111 176 -93 91 -112 104 -202 130 -144 44 -615 72
-842 51z"/>
</g>
</svg>
