<?xml version="1.0" standalone="no"?>
<!DOCTYPE svg PUBLIC "-//W3C//DTD SVG 20010904//EN"
 "http://www.w3.org/TR/2001/REC-SVG-20010904/DTD/svg10.dtd">
<svg version="1.0" xmlns="http://www.w3.org/2000/svg"
 width="665.000000pt" height="803.000000pt" viewBox="0 0 665.000000 803.000000"
 preserveAspectRatio="xMidYMid meet">
<metadata>
Created by potrace 1.14, written by Peter Selinger 2001-2017
</metadata>
<g transform="translate(0.000000,803.000000) scale(0.100000,-0.100000)"
fill="#b90000" stroke="none">
<path d="M2112 8005 c-71 -60 -61 -164 26 -274 79 -100 325 -371 411 -453 46
-44 83 -89 87 -104 8 -32 -2 -71 -42 -164 -24 -57 -28 -81 -32 -192 l-4 -126
-40 14 c-22 8 -68 14 -102 14 -49 0 -71 -6 -111 -29 -66 -39 -102 -78 -238
-258 -137 -184 -197 -287 -232 -401 -14 -48 -32 -98 -39 -112 -15 -33 -53 -37
-109 -12 l-43 19 -32 -28 c-18 -16 -41 -29 -53 -29 -28 0 -63 38 -82 90 -21
55 -111 549 -131 721 -24 194 -50 250 -149 326 -34 26 -83 66 -109 90 -62 56
-79 62 -220 73 -100 7 -126 13 -163 34 -75 44 -89 39 -168 -58 -35 -43 -73
-39 -139 12 -29 23 -56 38 -59 34 -4 -4 -18 -40 -33 -79 l-25 -73 67 -53 c37
-29 82 -64 99 -77 l33 -25 142 11 c125 9 166 8 323 -9 99 -10 181 -20 183 -22
1 -1 -7 -27 -19 -56 -16 -39 -23 -83 -27 -160 -4 -91 -1 -120 22 -213 39 -153
120 -396 166 -494 118 -252 303 -408 720 -611 80 -39 208 -104 285 -145 164
-88 267 -124 607 -211 138 -36 262 -72 275 -80 40 -27 50 -61 29 -100 -27 -49
-129 -135 -237 -200 -52 -31 -109 -71 -127 -88 -58 -56 -82 -191 -58 -327 28
-159 119 -292 264 -388 86 -56 117 -61 201 -28 83 32 123 33 195 1 31 -14 69
-25 84 -25 16 0 59 19 98 42 242 145 309 254 309 503 0 105 -3 125 -22 161
-29 55 -83 100 -219 185 -128 79 -170 118 -186 171 -9 31 -8 41 6 63 26 39 73
53 391 110 216 39 308 72 569 203 127 65 263 129 301 144 39 16 101 52 140 82
39 31 117 88 175 127 207 143 286 221 344 344 35 73 164 463 190 575 22 94 20
214 -5 295 -11 37 -18 69 -16 71 2 2 39 11 81 19 101 19 218 19 286 -1 95 -27
180 -29 252 -5 60 20 147 71 212 124 l29 23 -29 82 c-16 45 -31 82 -34 82 -3
0 -30 -18 -59 -40 -88 -67 -119 -66 -169 5 -43 62 -68 70 -140 45 -31 -10 -97
-26 -147 -35 -225 -41 -422 -169 -470 -305 -8 -23 -24 -99 -36 -169 -11 -69
-42 -232 -69 -361 -27 -129 -54 -265 -60 -301 -14 -77 -39 -124 -76 -141 -21
-10 -32 -8 -68 12 -37 20 -52 22 -100 16 -51 -6 -59 -4 -80 17 -15 15 -28 46
-35 83 -30 151 -120 334 -252 509 -110 147 -151 189 -207 216 -51 25 -100 21
-179 -16 -39 -18 -55 -21 -60 -12 -4 7 -8 71 -9 142 -1 144 -11 194 -55 264
-45 74 -41 89 54 190 45 48 123 134 172 190 50 57 132 149 183 205 139 152
170 232 119 307 -17 25 -31 35 -56 37 -62 6 -93 -50 -110 -201 -6 -48 -17
-102 -26 -120 -22 -47 -222 -248 -307 -307 -156 -110 -264 -148 -324 -113
-310 182 -396 211 -525 179 -76 -19 -196 -75 -299 -139 -103 -65 -145 -65
-267 -1 -143 75 -223 132 -323 233 -115 116 -150 179 -150 267 0 191 -57 277
-138 209z m1003 -825 c23 -19 18 -79 -9 -115 -31 -41 -87 -68 -121 -59 -64 16
-103 92 -75 144 28 53 156 71 205 30z m653 0 c59 -36 65 -104 14 -155 -24 -24
-33 -27 -75 -22 -39 3 -56 11 -82 38 -48 48 -50 96 -9 134 34 32 104 34 152 5z
m-1303 -555 c13 -3 50 -27 82 -53 77 -65 90 -71 186 -87 78 -14 137 -32 137
-42 0 -2 -21 -29 -47 -58 -27 -30 -75 -105 -108 -167 -46 -85 -70 -120 -103
-145 -74 -56 -120 -64 -352 -59 -113 3 -213 8 -223 12 -26 10 -47 57 -47 107
0 35 8 56 34 93 19 27 61 91 93 142 112 180 173 245 245 262 32 7 47 6 103 -5z
m1954 -29 c44 -24 97 -87 149 -176 27 -47 73 -122 102 -168 43 -67 54 -93 58
-136 4 -48 1 -57 -25 -86 l-29 -32 -222 -4 c-177 -3 -230 0 -264 12 -81 28
-137 87 -158 166 -6 21 -32 66 -59 101 -114 149 -107 183 44 207 86 14 110 24
175 73 89 67 157 80 229 43z"/>
<path d="M51 5366 c-56 -31 -64 -90 -25 -204 49 -147 129 -260 232 -327 78
-50 112 -84 140 -141 35 -69 88 -111 190 -150 52 -21 120 -56 152 -80 109 -82
143 -69 219 87 38 77 55 100 96 131 59 44 65 46 65 15 0 -42 -31 -130 -95
-267 -138 -295 -210 -536 -236 -787 -20 -188 13 -728 62 -1038 41 -253 88
-425 204 -735 26 -69 14 -103 -60 -174 -76 -74 -86 -92 -95 -176 -9 -81 5
-301 25 -387 31 -134 20 -156 -97 -190 -58 -17 -86 -33 -134 -75 -50 -42 -79
-59 -147 -81 -77 -25 -89 -33 -132 -82 -72 -84 -111 -85 -169 -5 -19 26 -44
51 -56 55 -45 14 -108 -64 -94 -119 21 -83 183 -135 315 -102 35 9 122 48 194
85 71 38 171 83 220 100 125 44 162 67 214 135 25 33 68 73 100 93 101 64 112
100 61 193 -74 132 -93 183 -94 247 -1 34 2 65 6 69 4 4 31 -2 60 -13 47 -18
60 -30 112 -102 l59 -82 30 36 c88 108 239 132 345 55 55 -40 105 -145 136
-285 14 -60 29 -123 35 -138 38 -99 -35 -212 -145 -225 -37 -4 -47 -10 -55
-29 -23 -60 13 -114 185 -280 242 -234 456 -351 697 -383 132 -18 358 14 418
58 56 41 65 64 71 192 l5 120 45 39 45 39 7 548 c4 302 13 949 20 1439 17
1187 17 1108 -8 1141 -11 16 -70 55 -130 87 -229 124 -330 211 -388 339 -45
98 -59 165 -60 274 0 172 53 277 193 383 75 57 140 126 129 136 -2 3 -101 24
-219 49 l-214 44 -155 86 c-85 48 -189 113 -230 144 -67 50 -83 58 -150 69
-41 6 -135 12 -209 12 l-134 1 -134 -127 c-175 -166 -161 -157 -209 -132 -53
28 -133 21 -216 -19 -74 -35 -202 -125 -275 -193 -79 -75 -101 -68 -186 62
-39 59 -46 65 -104 84 -72 24 -91 39 -134 110 -34 56 -64 77 -136 95 -49 12
-83 50 -83 91 0 15 16 58 35 95 19 37 35 68 35 70 0 2 -13 10 -30 19 -35 18
-87 19 -119 1z m1279 -1307 c62 -13 185 -93 225 -145 53 -69 68 -127 67 -249
-1 -124 -32 -349 -52 -382 -24 -38 -86 -66 -136 -60 -52 5 -258 120 -286 158
-10 13 -22 53 -27 88 -6 35 -18 75 -28 88 -59 82 -67 145 -33 254 20 66 75
166 113 208 22 23 71 50 94 51 7 0 35 -5 63 -11z m1029 -1274 c132 -46 244
-199 291 -395 11 -47 29 -115 40 -151 11 -36 20 -78 20 -94 0 -69 -79 -169
-171 -215 -45 -24 -54 -24 -209 0 -98 15 -121 29 -167 97 -26 40 -52 65 -81
80 -24 12 -50 27 -58 34 -24 20 -60 98 -73 157 -24 112 -8 335 28 397 42 73
273 128 380 90z"/>
<path d="M6495 5296 c-19 -14 -19 -15 3 -82 12 -38 22 -81 22 -95 0 -39 -34
-76 -88 -93 -66 -22 -86 -38 -133 -107 -34 -50 -51 -65 -106 -91 -47 -23 -78
-47 -111 -87 -126 -149 -122 -149 -314 16 -99 85 -200 148 -262 165 -38 10
-53 9 -106 -7 -61 -18 -62 -18 -98 1 -19 10 -57 46 -84 79 -141 172 -159 187
-254 200 -62 8 -277 -18 -335 -42 -23 -9 -89 -52 -147 -95 -110 -83 -293 -180
-372 -197 -25 -6 -97 -11 -160 -11 -126 0 -188 -18 -210 -60 -19 -36 12 -70
153 -167 147 -101 197 -384 102 -572 -63 -126 -243 -291 -417 -381 -91 -48
-136 -84 -149 -118 -11 -29 -17 -460 -26 -1917 -3 -561 -6 -1054 -7 -1096 l-1
-77 48 -50 47 -51 0 -123 c0 -103 3 -128 19 -154 37 -61 126 -84 326 -84 299
0 445 60 770 318 137 109 230 201 263 260 l23 41 -83 41 c-46 23 -91 49 -101
58 -43 39 -58 102 -37 156 5 14 20 75 34 137 54 239 142 348 282 349 69 0 166
-48 203 -101 14 -21 29 -38 32 -39 3 0 27 29 53 65 37 51 61 72 107 95 32 17
63 30 68 30 14 0 24 -64 17 -103 -3 -19 -23 -60 -43 -93 -79 -129 -93 -159
-93 -202 0 -51 19 -74 97 -116 36 -20 66 -49 103 -98 60 -81 86 -98 195 -134
44 -15 134 -57 200 -95 142 -81 217 -103 321 -97 169 11 243 103 173 217 l-20
33 -67 -72 c-58 -63 -72 -73 -101 -73 -27 0 -41 8 -68 39 -83 97 -90 102 -150
114 -92 18 -94 20 -163 86 -66 63 -119 94 -162 94 -13 0 -34 7 -46 16 -26 18
-29 66 -8 140 24 81 39 202 40 319 1 157 -4 174 -75 242 -33 32 -67 71 -76 87
-22 43 -10 121 37 232 40 97 140 423 184 599 122 491 125 990 10 1455 -41 166
-78 271 -176 493 -38 87 -66 162 -63 167 22 36 105 -49 169 -172 82 -156 99
-164 193 -94 32 24 83 51 113 61 106 34 160 75 220 165 41 63 74 91 141 125
89 46 120 74 179 163 65 99 109 207 116 285 5 54 3 66 -16 90 -18 23 -29 27
-69 27 -26 0 -56 -6 -66 -14z m-1049 -1311 c24 -24 62 -84 86 -132 39 -80 43
-95 43 -163 0 -65 -5 -86 -37 -155 -20 -44 -39 -96 -43 -115 -25 -119 -144
-217 -289 -236 -57 -8 -117 10 -151 46 -31 33 -30 24 -51 263 -4 46 -2 126 6
198 12 108 17 127 44 167 17 25 50 58 73 75 44 32 211 95 252 96 16 1 39 -14
67 -44z m-941 -1248 c66 -19 83 -28 102 -55 27 -41 38 -126 38 -297 0 -121 -2
-134 -27 -185 -36 -74 -45 -83 -105 -114 -36 -17 -66 -44 -94 -82 -23 -30 -56
-62 -73 -71 -49 -25 -126 -43 -189 -43 -48 0 -65 5 -107 33 -88 56 -133 91
-153 119 -28 38 -27 110 1 165 14 27 25 74 31 127 7 70 15 96 51 163 51 97
130 206 165 229 77 50 209 55 360 11z"/>
</g>
</svg>
