<?xml version="1.0" standalone="no"?>
<!DOCTYPE svg PUBLIC "-//W3C//DTD SVG 20010904//EN"
 "http://www.w3.org/TR/2001/REC-SVG-20010904/DTD/svg10.dtd">
<svg version="1.0" xmlns="http://www.w3.org/2000/svg"
 width="350.000000pt" height="352.000000pt" viewBox="0 0 350.000000 352.000000"
 preserveAspectRatio="xMidYMid meet">
<metadata>
Created by potrace 1.14, written by Peter Selinger 2001-2017
</metadata>
<g transform="translate(0.000000,352.000000) scale(0.100000,-0.100000)"
fill="#8a8a8a" stroke="none">
<path d="M1721 3482 c-14 -26 -14 -407 -1 -511 18 -141 32 -488 20 -511 -6
-11 -28 -29 -49 -40 -55 -27 -81 -68 -81 -124 0 -25 5 -56 11 -70 16 -34 -8
-70 -58 -86 -21 -7 -46 -19 -55 -27 -19 -17 -50 -15 -147 12 -77 20 -111 11
-111 -30 0 -22 9 -30 55 -51 31 -13 66 -24 78 -24 26 0 47 -17 47 -38 0 -11
-10 -13 -42 -8 -24 4 -67 9 -95 12 -50 6 -53 5 -54 -18 -3 -63 0 -65 106 -93
47 -12 91 -27 96 -32 15 -15 7 -54 -11 -63 -8 -4 -41 -19 -72 -33 -78 -36
-110 -92 -63 -111 18 -7 109 26 133 47 28 26 67 21 92 -10 23 -30 23 -61 1
-153 -6 -25 -15 -67 -19 -95 -5 -27 -13 -59 -19 -70 -6 -11 -16 -43 -22 -70
-19 -95 -50 -200 -83 -285 -32 -84 -33 -87 -32 -245 0 -121 5 -176 18 -225 28
-100 63 -201 86 -245 11 -21 20 -44 20 -50 0 -6 11 -22 24 -34 34 -32 59 -16
85 54 12 31 21 58 21 60 0 7 53 114 88 175 16 30 33 72 37 92 4 20 13 45 20
55 13 17 14 17 21 -1 4 -11 1 -44 -6 -75 -25 -105 -12 -149 82 -284 26 -39 48
-76 48 -83 0 -7 11 -24 25 -38 14 -14 34 -43 46 -66 41 -79 73 -72 119 26 46
95 47 120 11 177 -37 56 -65 69 -145 65 l-60 -3 -28 46 c-16 25 -30 59 -31 75
-2 26 1 29 23 26 14 -2 35 -13 48 -25 21 -19 40 -22 116 -17 10 1 28 -8 40
-19 26 -24 49 -27 65 -7 10 11 6 27 -17 73 -17 32 -33 85 -37 117 -6 43 -15
67 -35 90 -27 29 -32 31 -109 31 -88 2 -113 13 -95 43 6 9 24 18 40 20 86 8
134 60 134 145 0 78 15 77 55 -4 43 -85 113 -192 153 -235 28 -29 99 -175 122
-249 30 -99 56 -122 95 -85 14 13 29 37 34 54 5 17 19 56 29 86 11 30 30 102
42 160 11 58 26 125 32 150 6 25 13 57 15 72 7 35 -22 146 -53 208 -40 79
-174 278 -222 328 -7 8 -25 30 -40 50 -15 20 -40 52 -57 70 -51 56 -70 156
-39 200 19 27 44 28 72 3 27 -23 128 -37 149 -20 31 27 10 53 -79 99 -49 25
-86 50 -85 55 2 6 28 11 57 12 95 3 140 25 140 68 0 39 -17 45 -113 38 -84 -6
-89 -5 -85 13 2 10 21 28 43 39 83 42 115 67 115 89 0 28 -18 46 -47 46 -25 0
-73 -20 -73 -30 0 -7 -61 -40 -74 -40 -3 0 -20 13 -38 29 -18 16 -56 40 -83
53 -50 23 -50 24 -55 78 -9 87 -36 123 -134 176 -11 6 -23 17 -27 25 -9 17
-25 197 -44 504 -27 416 -50 550 -84 487z m298 -1334 c95 -56 125 -114 80
-159 -17 -17 -32 -20 -107 -19 -48 1 -157 -1 -242 -4 -85 -3 -164 -6 -174 -6
-21 -1 -36 16 -36 41 -1 103 365 215 479 147z m-2 -335 c36 -40 54 -69 58 -93
15 -102 26 -143 42 -164 10 -13 46 -59 81 -102 203 -254 287 -395 298 -501 6
-56 -34 -277 -73 -407 -10 -32 -33 -48 -33 -23 0 22 -101 211 -133 249 -125
146 -241 425 -292 698 -9 47 -23 123 -31 170 -9 47 -20 92 -25 102 -17 32 -10
78 16 103 13 14 27 25 31 25 4 0 32 -26 61 -57z m-305 19 c10 -15 23 -34 29
-43 10 -13 10 -83 1 -315 -6 -165 -11 -324 -11 -355 0 -81 -29 -351 -47 -439
-22 -105 -140 -342 -169 -338 -25 4 -55 90 -91 257 -31 144 -30 204 2 316 56
198 85 301 90 330 3 17 12 46 19 65 7 19 18 67 25 105 7 39 17 78 22 87 5 10
17 84 28 165 10 82 22 158 26 171 10 33 54 30 76 -6z m162 -358 c25 -10 19
-34 -8 -34 -27 0 -41 14 -31 30 7 12 17 12 39 4z m56 -293 c0 -15 -11 -20 -57
-25 -40 -5 -59 -3 -64 6 -14 22 11 36 66 37 47 0 55 -2 55 -18z"/>
<path d="M2709 3300 c-40 -21 -124 -110 -134 -141 -4 -12 -18 -37 -30 -56 -38
-54 -58 -138 -45 -178 6 -19 8 -49 5 -67 -4 -19 1 -58 11 -93 9 -33 19 -73 21
-90 11 -61 71 -97 93 -56 16 30 12 68 -15 157 -18 60 -32 88 -52 102 l-26 19
21 31 c12 16 22 37 22 45 0 8 19 52 42 98 30 60 60 102 106 147 64 64 76 95
37 99 -11 1 -36 -6 -56 -17z"/>
<path d="M756 3208 c-9 -5 -16 -15 -16 -22 0 -15 46 -59 80 -76 37 -19 100
-73 100 -86 0 -6 10 -19 21 -30 12 -10 27 -30 33 -44 6 -14 24 -47 40 -73 24
-40 33 -48 55 -45 20 2 27 9 29 31 5 43 -79 176 -160 253 -79 76 -148 111
-182 92z"/>
<path d="M1026 2778 c-19 -30 -66 -182 -66 -214 0 -91 82 -80 97 12 3 22 15
59 25 83 23 54 27 119 7 132 -24 15 -48 10 -63 -13z"/>
<path d="M2530 2557 c-35 -18 -149 -238 -149 -289 -1 -33 2 -38 22 -38 24 0
67 37 67 57 0 6 10 24 23 40 13 15 41 63 62 106 32 64 37 82 29 104 -11 32
-22 36 -54 20z"/>
<path d="M1000 2442 c0 -26 20 -61 133 -239 29 -45 60 -61 82 -43 25 21 17 50
-41 152 -71 124 -102 158 -143 158 -27 0 -31 -3 -31 -28z"/>
<path d="M1075 1951 c-92 -45 -178 -81 -194 -81 -22 0 -51 -30 -51 -53 0 -19
29 -37 60 -37 19 0 70 20 175 70 22 11 54 23 70 28 32 9 57 54 39 71 -20 20
-60 21 -99 2z"/>
<path d="M2476 1957 c-29 -21 -11 -62 43 -96 25 -17 80 -55 121 -85 76 -56
106 -66 128 -44 25 25 14 64 -25 90 -51 33 -76 50 -155 103 -72 48 -85 52
-112 32z"/>
<path d="M14 1795 c-22 -55 140 -152 301 -180 113 -19 147 -19 171 3 11 10 36
18 59 18 22 1 72 16 110 33 39 18 85 39 103 47 18 7 38 26 44 40 11 23 10 28
-7 40 -35 26 -91 14 -178 -38 -26 -15 -54 -28 -62 -28 -11 0 -43 -36 -49 -57
-2 -3 -234 36 -276 47 -49 12 -119 50 -140 74 -16 20 -69 21 -76 1z"/>
<path d="M2788 1696 c-12 -28 -12 -28 42 -123 67 -118 79 -133 108 -133 19 0
32 -8 44 -29 21 -38 87 -59 223 -72 104 -9 126 -7 210 18 62 19 89 46 74 75
-12 21 -23 21 -124 -2 -62 -14 -218 -5 -282 16 -25 9 -59 14 -74 12 -30 -5
-39 6 -40 45 0 12 -24 65 -52 117 -48 87 -55 95 -85 98 -26 3 -34 -1 -44 -22z"/>
<path d="M2405 1690 c-7 -21 13 -76 71 -195 13 -28 24 -55 24 -61 0 -6 13 -23
30 -39 l30 -29 25 24 c14 13 25 29 25 36 0 7 -17 43 -37 81 -66 122 -73 137
-73 151 0 21 -25 42 -58 48 -25 5 -31 2 -37 -16z"/>
<path d="M1191 1591 c-11 -11 -25 -37 -31 -58 -6 -21 -19 -54 -30 -73 -72
-131 -78 -200 -16 -184 22 5 35 22 67 90 21 47 39 87 39 89 0 3 9 25 21 49 26
56 23 100 -8 104 -12 2 -31 -6 -42 -17z"/>
<path d="M2587 1333 c-12 -11 -8 -60 7 -90 8 -15 29 -59 47 -97 21 -44 43 -75
61 -85 16 -9 30 -28 34 -44 10 -48 130 -143 238 -190 115 -50 252 -40 230 16
-3 9 -25 22 -48 28 -174 45 -233 73 -321 150 -16 15 -43 30 -59 33 -26 7 -28
10 -23 43 5 26 1 47 -13 72 -11 20 -29 59 -41 86 -11 28 -28 58 -36 68 -16 17
-63 23 -76 10z"/>
<path d="M1034 1209 c-16 -18 -19 -37 -19 -138 1 -64 4 -125 8 -136 6 -16 -9
-37 -75 -106 -83 -87 -189 -160 -253 -175 -41 -9 -55 -22 -55 -50 0 -37 35
-38 122 -5 86 32 114 52 225 160 75 73 77 76 76 123 0 26 3 48 7 48 5 0 15 6
23 14 17 18 23 237 7 267 -14 25 -42 24 -66 -2z"/>
</g>
</svg>
