<?xml version="1.0" standalone="no"?>
<!DOCTYPE svg PUBLIC "-//W3C//DTD SVG 20010904//EN"
 "http://www.w3.org/TR/2001/REC-SVG-20010904/DTD/svg10.dtd">
<svg version="1.0" xmlns="http://www.w3.org/2000/svg"
 width="214.000000pt" height="245.000000pt" viewBox="0 0 214.000000 245.000000"
 preserveAspectRatio="xMidYMid meet">
<metadata>
Created by potrace 1.14, written by Peter Selinger 2001-2017
</metadata>
<g transform="translate(0.000000,245.000000) scale(0.100000,-0.100000)"
fill="#008b5c" stroke="none">
<path d="M1447 2433 c-14 -13 -6 -23 27 -37 61 -26 186 -219 186 -288 0 -32
-6 -34 -32 -11 -26 23 -69 7 -83 -30 -7 -22 -6 -35 7 -58 17 -29 17 -29 -18
-56 l-36 -27 46 -13 c26 -8 61 -28 80 -48 l35 -35 8 43 c8 40 10 42 42 39 40
-4 71 21 71 58 0 15 -7 33 -15 40 -22 18 -12 26 55 40 78 17 242 7 278 -16 29
-19 53 -5 32 21 -29 34 -179 52 -300 34 -133 -19 -122 -22 -146 51 -28 86 -57
143 -111 213 -51 66 -106 101 -126 80z"/>
<path d="M1275 2209 c-92 -36 -139 -79 -169 -156 -34 -83 -62 -122 -121 -164
-31 -23 -45 -40 -45 -56 0 -27 3 -27 32 -10 36 21 98 90 134 150 20 31 54 70
77 86 23 16 60 47 81 69 22 23 44 38 49 35 5 -3 -24 -40 -65 -82 -93 -94 -116
-125 -211 -278 -91 -145 -97 -163 -67 -193 30 -30 68 -24 207 35 111 46 112
47 144 103 17 31 38 65 47 75 35 40 -5 24 -144 -57 -81 -47 -149 -84 -152 -82
-2 2 37 54 86 115 155 192 242 330 242 383 0 51 -41 60 -125 27z"/>
<path d="M1448 1877 c-20 -12 -49 -38 -64 -57 -37 -50 -100 -184 -118 -256
-19 -75 -21 -180 -3 -187 43 -14 143 50 246 158 94 100 131 168 131 239 -1 57
-10 74 -60 105 -45 27 -86 27 -132 -2z"/>
<path d="M1927 1836 c-47 -50 -165 -241 -243 -396 -58 -114 -62 -105 -40 78 9
70 16 148 16 172 l0 45 -28 -60 c-16 -33 -41 -75 -57 -93 l-27 -33 4 -145 c3
-139 4 -147 27 -165 53 -43 79 -24 193 146 97 144 119 183 163 290 20 50 41
94 46 100 15 15 10 -29 -6 -51 -8 -12 -21 -53 -29 -91 -11 -52 -26 -88 -59
-136 -25 -36 -52 -89 -61 -118 -10 -30 -21 -61 -26 -71 -7 -12 -4 -18 8 -23
23 -9 48 24 56 75 9 60 31 97 96 166 67 69 82 110 84 221 0 58 -3 77 -20 100
-31 41 -48 39 -97 -11z"/>
<path d="M723 1768 c-6 -7 -14 -47 -18 -88 -16 -174 -52 -295 -101 -341 -23
-22 -27 -22 -72 -10 -26 8 -63 16 -82 19 -32 4 -34 4 -20 -13 21 -26 89 -55
129 -55 54 0 97 33 130 103 29 58 61 201 61 268 0 15 4 30 9 33 7 5 176 -293
196 -345 4 -11 -15 -38 -57 -83 l-63 -67 -88 20 c-48 12 -94 21 -102 21 -8 0
-84 -58 -167 -128 -326 -273 -367 -302 -420 -302 -21 0 -38 -4 -38 -10 0 -13
63 -23 99 -15 17 4 127 81 253 178 123 95 239 185 259 199 31 24 39 26 70 18
19 -5 44 -16 54 -24 19 -13 15 -19 -70 -108 -241 -250 -375 -444 -375 -541 0
-29 7 -46 29 -68 39 -38 98 -40 165 -4 26 14 49 25 52 25 2 0 4 -11 4 -25 0
-35 62 -100 116 -121 53 -20 111 -15 153 15 16 12 31 21 34 21 2 0 2 -20 0
-44 -8 -67 13 -141 49 -171 70 -59 150 -12 218 129 47 97 109 284 140 419 12
53 25 97 30 97 4 0 14 -7 21 -17 11 -13 14 -79 14 -332 0 -293 1 -319 19 -346
19 -30 55 -64 68 -65 4 0 -4 19 -18 43 l-25 42 2 342 2 341 -31 40 c-38 48
-39 65 -9 192 l23 95 39 -3 c41 -3 326 -59 331 -65 2 -2 -36 -40 -85 -85 -107
-98 -173 -191 -169 -236 3 -27 10 -34 58 -53 30 -12 68 -25 83 -29 25 -6 28
-4 25 12 -2 11 -23 26 -58 39 -30 12 -56 28 -58 36 -4 19 97 135 179 206 35
30 76 66 92 79 15 13 27 31 27 38 0 12 -227 92 -426 150 -16 5 -22 19 -30 67
-9 51 -8 66 8 101 10 22 18 42 18 44 0 2 -21 -8 -46 -21 -89 -47 -124 -29
-124 61 l0 48 -34 -37 c-23 -25 -42 -37 -60 -37 -15 0 -44 -9 -65 -20 l-38
-19 -135 197 c-73 108 -141 198 -149 200 -9 2 -21 -3 -26 -10z m452 -387 c3
-5 -61 -88 -142 -183 -286 -334 -512 -621 -565 -716 -28 -48 -34 -53 -61 -50
-18 2 -37 13 -49 29 -17 22 -18 31 -9 66 7 26 21 48 38 59 68 44 348 335 651
677 63 70 118 127 122 127 5 0 11 -4 15 -9z m-136 -83 c-217 -247 -551 -602
-611 -649 l-40 -33 15 30 c27 52 150 205 253 314 256 270 426 431 442 415 3
-2 -24 -37 -59 -77z m287 7 c6 -16 7 -13 -95 -340 -98 -311 -170 -599 -178
-708 -5 -78 -9 -90 -31 -107 -43 -34 -90 -22 -111 27 -10 26 -7 39 30 118 83
180 221 581 304 890 15 55 31 108 36 118 12 21 38 22 45 2z m-207 -77 c-96
-190 -302 -472 -463 -634 -101 -101 -176 -159 -176 -135 0 12 92 140 183 256
150 189 474 575 483 575 2 0 -10 -28 -27 -62z m223 -85 c-56 -277 -120 -537
-167 -684 -63 -191 -114 -286 -100 -183 28 200 263 1015 273 942 2 -14 -1 -48
-6 -75z m-182 -170 c-103 -338 -238 -703 -262 -703 -20 0 24 212 79 385 69
212 232 580 250 561 3 -2 -28 -112 -67 -243z"/>
</g>
</svg>
