<?xml version="1.0" encoding="UTF-8" standalone="no"?>
<svg
   xmlns:dc="http://purl.org/dc/elements/1.1/"
   xmlns:cc="http://creativecommons.org/ns#"
   xmlns:rdf="http://www.w3.org/1999/02/22-rdf-syntax-ns#"
   xmlns:svg="http://www.w3.org/2000/svg"
   xmlns="http://www.w3.org/2000/svg"
   xmlns:sodipodi="http://sodipodi.sourceforge.net/DTD/sodipodi-0.dtd"
   xmlns:inkscape="http://www.inkscape.org/namespaces/inkscape"
   version="1.0"
   width="108.000000pt"
   height="131.000000pt"
   viewBox="0 0 108.000000 131.000000"
   preserveAspectRatio="xMidYMid meet">
  <defs id="defs12" />
  <metadata
     id="metadata2">
Created by potrace 1.14, written by Peter Selinger 2001-2017
</metadata>
  <g
     transform="matrix(0.1,0,0,-0.1,0,131)"
     id="g6"
     style="fill:#5c2900;stroke:none">
    <path
       d="m 371,1280 c -35,-58 -54,-183 -48,-308 7,-120 25,-180 66,-216 30,-27 26,-36 -17,-36 -32,0 -44,7 -78,43 -22,23 -53,59 -68,80 -30,41 -100,81 -168,96 -56,13 -68,-1 -26,-29 139.39015,-57.46896 177,-135 196,-168 25,-44 87,-92 121,-92 31,0 18,-16 -21,-25 -49,-12 -118,-14 -159,-4 -62,15 -93,-11 -47,-40 27,-17 187,-25 224,-11 39,15 41,5 6,-34 C 283,457 248,216 285,74 302,9 314,-10 331,7 c 7,7 6,24 -2,58 -15,61 -5,237 18,326 10,36 29,78 43,95 l 25,30 16,-83 c 44,-216 174,-217 217,-1 l 17,84 25,-30 c 14,-17 33,-59 43,-95 23,-89 33,-265 18,-326 -8,-34 -9,-51 -2,-58 17,-17 29,2 46,67 37,142 2,383 -67,462 -35,39 -33,49 6,34 37,-14 197,-6 224,11 46,29 15,55 -47,40 -41,-10 -110,-8 -159,4 -39,9 -52,25 -21,25 34,0 96,48 121,92 19,33 53.28177,108.31232 196,168 42,28 30,42 -26,29 -68,-15 -138,-55 -168,-96 -15,-21 -46,-57 -68,-80 -34,-36 -46,-43 -78,-43 -43,0 -47,9 -17,36 41,36 59,96 66,216 6,125 -13,250 -48,308 -34,56 -51,32 -24,-33 23,-55 30,-194 15,-297 -11,-74 -18,-97 -44,-130 -16,-22 -35,-40 -40,-40 -6,0 -5,5 2,12 17,17 15,73 -4,89 -13,10 -17,10 -25,-2 -5,-8 -9,-23 -9,-34 0,-17 -7,-20 -40,-20 -33,0 -40,3 -40,20 0,11 -4,26 -9,34 -8,12 -12,12 -25,2 -19,-16 -21,-72 -4,-89 7,-7 8,-12 2,-12 -5,0 -24,18 -40,40 -26,33 -33,56 -44,130 -15,103 -8,242 15,297 27,65 10,89 -24,33 z M 618,512 c 6,-19 -17,-49 -48,-62 -24,-10 -36,-10 -60,0 -32,13 -55,44 -47,63 6,15 150,13 155,-1 z"
       id="path4"/>
  </g>
</svg>
