<?xml version="1.0" standalone="no"?>
<!DOCTYPE svg PUBLIC "-//W3C//DTD SVG 20010904//EN"
 "http://www.w3.org/TR/2001/REC-SVG-20010904/DTD/svg10.dtd">
<svg version="1.0" xmlns="http://www.w3.org/2000/svg"
 width="314.000000pt" height="362.000000pt" viewBox="0 0 314.000000 362.000000"
 preserveAspectRatio="xMidYMid meet">
<metadata>
Created by potrace 1.14, written by Peter Selinger 2001-2017
</metadata>
<g transform="translate(0.000000,362.000000) scale(0.100000,-0.100000)"
fill="#5c2900" stroke="none">
<path d="M563 3613 c-7 -2 -13 -17 -13 -33 0 -32 40 -159 71 -225 16 -33 18
-49 10 -58 -12 -15 -14 -9 89 -189 37 -65 65 -126 66 -143 1 -16 13 -55 28
-86 14 -31 26 -58 26 -62 0 -3 17 -36 38 -74 21 -37 54 -106 72 -153 19 -47
43 -98 53 -113 11 -16 17 -31 13 -34 -3 -3 4 -17 14 -31 22 -27 27 -72 9 -72
-8 0 -8 -5 1 -15 7 -8 9 -15 5 -15 -4 0 -3 -6 3 -13 6 -7 13 -61 16 -119 5
-120 11 -135 92 -241 54 -69 101 -147 89 -147 -4 0 -22 12 -40 26 -19 14 -40
27 -47 28 -35 6 -138 76 -193 133 -34 35 -67 63 -73 63 -6 0 -35 33 -64 74
-29 41 -72 86 -94 101 -40 26 -108 91 -194 188 -23 26 -48 47 -54 47 -15 0
-156 150 -156 166 0 7 -16 30 -36 50 -25 27 -37 35 -43 26 -6 -9 -15 -4 -33
20 -14 18 -27 38 -29 45 -6 16 -97 111 -125 129 -18 12 -27 13 -44 4 -12 -6
-18 -16 -13 -23 22 -38 118 -147 152 -175 23 -18 41 -41 41 -51 0 -11 16 -32
35 -47 69 -56 78 -64 72 -64 -3 0 15 -20 42 -45 26 -24 58 -65 71 -89 12 -24
74 -99 136 -165 63 -66 114 -124 114 -128 0 -5 27 -36 59 -70 32 -34 56 -64
53 -68 -3 -3 3 -5 12 -5 14 0 17 -5 13 -21 -3 -11 0 -22 7 -25 7 -3 52 -42
101 -89 49 -46 92 -82 96 -79 4 2 14 -3 22 -11 9 -8 25 -15 36 -15 12 0 21 -5
21 -11 0 -5 5 -7 12 -3 6 4 8 3 5 -3 -4 -6 9 -23 28 -39 19 -15 35 -34 35 -41
0 -7 6 -13 13 -13 19 0 36 -44 21 -57 -6 -7 -13 -10 -15 -8 -2 2 -18 5 -36 8
-17 3 -37 8 -44 13 -9 5 -10 2 -6 -9 5 -13 1 -17 -14 -17 -27 0 -122 -32 -130
-44 -4 -5 -20 -9 -37 -10 -23 -1 -28 -4 -20 -13 14 -17 -15 -17 -45 -1 -30 17
-44 20 -104 23 -28 2 -62 9 -75 16 -12 7 -25 14 -28 14 -3 1 -22 9 -44 18 -21
9 -49 17 -62 17 -13 0 -24 5 -24 11 0 5 -4 8 -9 4 -5 -3 -12 3 -15 12 -3 10
-27 40 -52 67 -34 37 -48 46 -54 37 -6 -10 -12 -7 -25 13 -19 28 -115 101
-171 129 -30 16 -32 15 -37 -3 -4 -16 13 -34 81 -88 98 -76 129 -102 119 -102
-4 0 12 -18 35 -40 24 -22 40 -40 37 -40 -4 0 16 -25 45 -55 28 -30 59 -55 69
-55 9 0 26 -9 36 -19 11 -11 21 -17 24 -15 2 2 17 -2 33 -11 16 -8 44 -18 62
-21 17 -3 32 -10 32 -14 0 -9 34 -23 63 -26 9 -1 18 -2 20 -3 1 -2 20 -4 42
-6 22 -2 41 -8 43 -14 2 -6 7 -9 11 -7 4 3 29 7 55 10 49 6 156 53 156 69 0 4
6 7 13 6 6 -1 20 1 29 5 32 14 51 -1 44 -35 -5 -26 -4 -30 8 -20 8 7 17 8 20
3 6 -10 38 -8 71 3 12 4 9 0 -8 -13 -18 -12 -25 -22 -18 -27 16 -9 4 -25 -20
-25 -10 0 -19 -6 -19 -12 0 -7 -10 -23 -23 -34 -33 -32 -58 -110 -53 -165 4
-31 0 -53 -9 -65 -19 -25 -19 -35 0 -28 23 9 11 -28 -29 -85 -20 -28 -36 -58
-36 -67 0 -9 -6 -28 -14 -42 -14 -29 -55 -114 -105 -222 -17 -36 -42 -84 -56
-108 -14 -23 -25 -49 -25 -58 0 -8 -8 -18 -17 -21 -10 -4 -20 -9 -23 -12 -10
-11 -50 -31 -62 -31 -18 0 -87 -115 -88 -147 0 -6 -5 -24 -11 -40 -7 -15 -13
-35 -14 -43 -2 -8 -6 -33 -10 -56 -6 -33 -4 -42 9 -47 20 -8 36 22 66 123 13
41 28 86 34 99 12 26 56 56 126 86 68 29 96 51 115 92 10 21 21 40 24 43 3 3
20 32 38 65 17 33 43 80 56 105 14 25 37 69 52 98 15 28 30 52 35 52 4 0 23
25 41 55 36 59 46 57 47 -10 1 -23 8 -63 17 -88 20 -61 77 -157 92 -157 6 0
18 -8 25 -17 15 -21 41 -26 128 -26 87 0 113 5 128 26 7 9 19 17 25 17 15 0
72 96 92 157 9 25 16 65 17 88 1 67 11 69 47 10 18 -30 37 -55 41 -55 5 0 20
-24 35 -52 15 -29 38 -73 52 -98 13 -25 39 -72 56 -105 18 -33 35 -62 38 -65
3 -3 14 -22 24 -43 19 -41 47 -63 115 -92 70 -30 114 -60 126 -86 6 -13 21
-58 34 -99 30 -101 46 -131 66 -123 13 5 15 14 9 47 -4 23 -8 48 -10 56 -1 8
-7 28 -14 43 -6 16 -11 34 -11 40 -1 32 -70 147 -88 147 -12 0 -52 20 -62 31
-3 3 -13 8 -22 12 -10 3 -18 13 -18 21 0 9 -11 35 -25 58 -14 24 -39 72 -56
108 -50 108 -91 193 -105 222 -8 14 -14 33 -14 42 0 9 -16 39 -36 67 -40 57
-52 94 -29 85 19 -7 19 3 0 28 -9 12 -13 34 -9 65 5 55 -20 133 -53 165 -13
11 -23 27 -23 34 0 6 -9 12 -19 12 -24 0 -36 16 -20 25 7 5 0 15 -18 27 -17
13 -20 17 -8 13 33 -11 65 -13 71 -3 3 5 12 4 20 -3 12 -10 13 -6 8 20 -7 34
12 49 44 35 9 -4 23 -6 29 -5 7 1 13 -2 13 -6 0 -16 107 -63 156 -69 26 -3 51
-7 55 -10 4 -2 9 1 11 7 2 6 21 12 43 14 22 2 41 4 43 6 1 1 10 2 20 3 28 3
62 17 62 26 0 4 15 11 33 14 17 3 45 13 61 21 16 9 31 13 33 11 3 -2 13 4 24
15 10 10 27 19 36 19 10 0 41 25 69 55 29 30 49 55 45 55 -3 0 13 18 37 40 23
22 39 40 35 40 -10 0 21 26 119 102 68 54 85 72 81 88 -5 18 -7 19 -37 3 -56
-28 -152 -101 -171 -129 -13 -20 -19 -23 -25 -13 -6 9 -20 0 -54 -37 -25 -27
-49 -57 -52 -67 -3 -9 -10 -15 -15 -12 -5 4 -9 1 -9 -4 0 -6 -11 -11 -24 -11
-13 0 -41 -8 -62 -17 -22 -9 -41 -17 -44 -18 -3 0 -16 -7 -28 -14 -13 -7 -47
-14 -75 -16 -60 -3 -74 -6 -104 -23 -30 -16 -59 -16 -45 1 8 9 3 12 -20 13
-17 1 -33 5 -37 10 -8 12 -103 44 -130 44 -15 0 -19 4 -14 17 4 11 3 14 -6 9
-7 -5 -27 -10 -44 -13 -18 -3 -34 -6 -36 -8 -2 -2 -9 1 -15 8 -15 13 2 57 22
57 6 0 12 6 12 13 0 7 16 26 35 41 19 16 32 33 28 39 -3 6 -1 7 5 3 7 -4 12
-2 12 3 0 6 9 11 21 11 11 0 27 7 36 15 8 8 18 13 22 11 4 -3 47 33 96 79 49
47 94 86 101 89 7 3 10 14 7 25 -4 16 -1 21 13 21 9 0 15 2 12 5 -3 4 21 34
53 68 32 34 59 65 59 70 0 4 51 62 114 128 62 66 124 141 136 165 13 24 45 65
71 89 27 25 45 45 42 45 -6 0 3 8 72 64 19 15 35 36 35 47 0 10 18 33 41 51
34 28 130 137 152 175 5 7 -1 17 -13 23 -17 9 -26 8 -44 -4 -28 -18 -119 -113
-125 -129 -2 -7 -15 -27 -29 -45 -18 -24 -27 -29 -33 -20 -6 9 -18 1 -43 -26
-20 -20 -36 -43 -36 -50 0 -16 -141 -166 -156 -166 -6 0 -31 -21 -54 -47 -86
-97 -154 -162 -194 -188 -22 -15 -65 -60 -94 -101 -29 -41 -58 -74 -64 -74 -6
0 -39 -28 -73 -63 -55 -57 -158 -127 -193 -133 -7 -1 -28 -14 -47 -28 -18 -14
-36 -26 -40 -26 -12 0 35 78 89 147 81 106 87 121 92 241 3 58 10 112 16 119
6 7 7 13 3 13 -4 0 -2 7 5 15 9 10 9 15 1 15 -18 0 -13 45 9 72 10 14 17 28
14 31 -4 3 2 18 13 34 10 15 34 66 53 113 18 47 51 116 72 153 21 38 38 71 38
74 0 4 12 31 26 62 15 31 27 70 28 86 1 17 29 78 66 143 103 180 101 174 89
189 -8 9 -6 25 10 58 31 66 71 193 71 225 0 32 -25 47 -47 28 -28 -23 -61
-114 -84 -233 -7 -37 -16 -54 -32 -60 -16 -8 -24 -25 -33 -70 -14 -77 -19 -87
-71 -166 -41 -63 -93 -113 -93 -89 0 7 -5 8 -12 3 -7 -4 -17 -8 -23 -8 -5 0
-11 -28 -12 -63 -2 -37 -9 -72 -18 -85 -8 -12 -15 -27 -15 -35 0 -7 -24 -52
-52 -100 -56 -91 -65 -112 -103 -229 -13 -39 -30 -82 -39 -95 -8 -14 -17 -61
-21 -118 -8 -111 -19 -154 -47 -180 -21 -19 -21 -19 -37 13 -10 19 -23 31 -34
31 -9 -1 -17 2 -17 7 0 5 -7 6 -16 2 -31 -12 -4 40 42 80 24 21 53 51 65 68
18 26 20 34 9 60 -11 25 -10 32 4 48 22 24 20 47 -6 84 -47 70 -72 73 -128 15
-53 -55 -99 -146 -107 -209 -5 -40 -8 -47 -19 -38 -11 9 -14 8 -14 -2 0 -10
-16 -14 -60 -14 -44 0 -60 4 -60 14 0 10 -3 11 -14 2 -11 -9 -14 -2 -19 38 -8
63 -54 154 -107 209 -56 58 -81 55 -128 -15 -26 -37 -28 -60 -6 -84 14 -16 15
-23 4 -48 -11 -26 -9 -34 9 -60 12 -17 41 -47 65 -68 46 -40 73 -92 42 -80 -9
4 -16 3 -16 -2 0 -5 -8 -8 -17 -7 -11 0 -24 -12 -34 -31 -16 -32 -16 -32 -37
-13 -28 26 -39 69 -47 180 -4 57 -13 104 -21 118 -9 13 -26 56 -39 95 -38 117
-47 138 -102 229 -29 48 -53 93 -53 100 0 8 -7 23 -15 35 -9 13 -16 48 -18 85
-1 35 -6 63 -12 63 -5 0 -16 4 -22 8 -8 5 -13 4 -13 -3 0 -24 -52 26 -93 89
-52 79 -57 89 -71 166 -9 45 -17 62 -33 70 -16 6 -25 23 -32 60 -22 116 -49
194 -79 228 -16 18 -19 19 -39 10z"/>
</g>
</svg>
