<?xml version="1.0" standalone="no"?>
<!DOCTYPE svg PUBLIC "-//W3C//DTD SVG 20010904//EN"
 "http://www.w3.org/TR/2001/REC-SVG-20010904/DTD/svg10.dtd">
<svg version="1.0" xmlns="http://www.w3.org/2000/svg"
 width="191.000000pt" height="171.000000pt" viewBox="0 0 191.000000 171.000000"
 preserveAspectRatio="xMidYMid meet">
<metadata>
Created by potrace 1.14, written by Peter Selinger 2001-2017
</metadata>
<g transform="translate(0.000000,171.000000) scale(0.100000,-0.100000)"
fill="#b95cb9" stroke="none">
<path d="M966 1634 c-15 -19 -41 -42 -57 -51 -38 -23 -44 -42 -19 -68 11 -12
20 -34 20 -49 0 -26 3 -27 37 -24 43 3 52 -11 23 -37 -29 -26 -26 -55 5 -55
29 0 32 -16 9 -48 -18 -26 -48 -22 -74 10 -13 17 -21 19 -51 11 -23 -7 -40 -7
-52 1 -12 8 -22 8 -35 0 -14 -9 -22 -9 -35 1 -21 15 -22 25 -1 25 13 0 15 7
11 29 -5 25 -3 30 16 33 12 2 21 9 20 16 -2 6 -4 17 -5 23 -2 6 13 17 32 24
19 8 31 14 26 14 -5 1 -3 7 3 15 10 11 5 21 -24 50 -20 20 -39 36 -44 36 -4 0
-13 11 -19 25 -15 31 -36 32 -50 1 -17 -38 -142 -126 -179 -126 -28 0 -33 -4
-33 -24 0 -16 10 -30 33 -43 22 -14 47 -48 81 -111 27 -50 57 -100 67 -110 12
-13 14 -23 7 -30 -7 -7 -6 -17 2 -33 8 -14 10 -44 7 -82 -3 -33 -1 -71 4 -85
12 -31 4 -40 -18 -19 -10 8 -31 17 -48 19 l-30 3 0 73 c0 62 2 72 17 72 15 0
18 9 18 44 0 90 -24 100 -66 29 -16 -27 -31 -70 -35 -98 -4 -27 -10 -68 -14
-90 -6 -37 -4 -42 24 -63 17 -12 31 -27 31 -33 0 -5 16 -32 35 -60 34 -50 44
-79 26 -79 -5 0 -15 10 -24 22 -13 20 -18 21 -34 10 -10 -7 -37 -21 -60 -32
-37 -17 -47 -28 -73 -87 -17 -37 -42 -90 -56 -116 -28 -51 -26 -77 4 -77 24 0
62 41 62 66 0 25 18 44 42 44 13 0 25 15 38 45 25 59 56 63 46 8 -3 -21 -6
-54 -6 -75 0 -44 -55 -115 -106 -138 -34 -15 -34 -15 -28 -65 8 -71 23 -125
34 -125 15 0 70 -86 76 -120 8 -40 20 -38 34 6 12 36 8 67 -15 119 -15 35 -26
111 -18 131 12 32 41 13 68 -44 35 -76 115 -157 190 -193 114 -55 130 -41 121
103 -3 57 -9 124 -12 151 -4 29 -2 47 4 47 12 0 18 -29 27 -120 10 -102 26
-179 41 -191 27 -22 104 10 161 67 58 57 68 76 93 174 23 90 43 89 90 -6 37
-75 84 -124 119 -124 29 0 27 10 -19 97 -22 42 -40 85 -40 96 0 40 -62 110
-114 127 -27 8 -35 19 -48 59 l-16 49 30 22 c27 19 33 20 61 9 41 -16 47 -26
47 -72 0 -52 90 -165 133 -166 22 -1 27 3 27 24 0 13 -6 28 -14 32 -11 7 -61
109 -106 221 -5 12 -14 22 -19 22 -6 0 -22 12 -36 26 -19 19 -32 24 -48 19
-12 -4 -48 -12 -81 -18 -56 -10 -59 -9 -77 14 -25 32 -24 45 6 65 14 9 28 27
31 39 4 15 15 25 33 28 23 5 30 14 39 49 9 34 8 46 -3 59 -8 8 -15 26 -15 40
0 41 -37 144 -52 147 -16 3 -28 -59 -28 -145 0 -55 -14 -88 -47 -118 -39 -34
-54 -32 -46 6 5 26 1 35 -23 54 -25 20 -27 25 -15 39 7 9 11 16 7 16 -9 0 20
54 58 109 40 57 116 196 116 212 0 7 -26 38 -58 68 -49 48 -70 79 -112 170
-11 25 -24 21 -54 -15z m-38 -570 c17 -3 32 -10 32 -15 0 -7 -37 -8 -112 -4
-62 4 -115 9 -117 11 -22 19 93 24 197 8z m75 -121 c-4 -14 -95 -24 -172 -18
-76 6 -95 11 -87 23 6 10 261 5 259 -5z"/>
</g>
</svg>
