<?xml version="1.0" standalone="no"?>
<!DOCTYPE svg PUBLIC "-//W3C//DTD SVG 20010904//EN"
 "http://www.w3.org/TR/2001/REC-SVG-20010904/DTD/svg10.dtd">
<svg version="1.0" xmlns="http://www.w3.org/2000/svg"
 width="219.000000pt" height="250.000000pt" viewBox="0 0 219.000000 250.000000"
 preserveAspectRatio="xMidYMid meet">
<metadata>
Created by potrace 1.14, written by Peter Selinger 2001-2017
</metadata>
<g transform="translate(0.000000,250.000000) scale(0.100000,-0.100000)"
fill="#b98900" stroke="none">
<path d="M873 2478 c21 -58 55 -275 45 -290 -9 -14 -11 -158 -3 -180 9 -23 62
-10 69 16 10 35 6 135 -8 241 -14 109 -62 225 -92 225 -9 0 -14 -6 -11 -12z"/>
<path d="M1147 2378 c-7 -83 -38 -232 -52 -248 -7 -8 -24 -45 -36 -82 l-24
-68 27 -26 26 -26 30 64 c17 35 34 84 38 109 3 24 12 63 20 87 14 43 19 178 8
220 -12 41 -32 25 -37 -30z"/>
<path d="M650 2302 c0 -10 51 -150 74 -204 9 -21 16 -59 17 -85 0 -54 13 -140
22 -149 3 -3 15 0 28 6 20 11 21 17 16 80 -8 95 -117 360 -148 360 -5 0 -9 -4
-9 -8z"/>
<path d="M1281 2009 c-33 -44 -68 -93 -78 -109 -9 -16 -26 -33 -37 -38 -37
-17 -126 -103 -126 -122 0 -32 18 -32 62 -1 68 48 80 61 144 151 73 104 92
133 104 165 20 51 -10 32 -69 -46z"/>
<path d="M420 2070 c0 -14 50 -92 111 -175 20 -27 39 -64 42 -81 3 -17 17 -57
31 -89 l26 -58 20 26 c20 25 20 25 0 81 -10 31 -29 69 -40 84 -12 15 -49 65
-83 111 -62 84 -107 126 -107 101z"/>
<path d="M920 1959 c-34 -14 -60 -39 -60 -59 0 -18 98 -92 137 -104 16 -5 26
0 41 21 38 54 37 70 -6 113 -41 41 -65 47 -112 29z"/>
<path d="M280 1854 c0 -4 33 -49 73 -101 82 -106 87 -116 118 -195 24 -62 32
-67 60 -42 17 15 17 18 -1 59 -20 47 -163 230 -206 264 -27 21 -44 27 -44 15z"/>
<path d="M788 1831 c-49 -31 -58 -46 -58 -95 0 -39 28 -67 125 -126 l70 -43
35 20 c47 27 64 63 55 119 -6 39 -11 47 -48 65 -23 12 -58 34 -77 49 -54 41
-54 41 -102 11z"/>
<path d="M661 1655 c-58 -66 -51 -101 31 -168 72 -58 146 -99 167 -92 35 11
69 45 76 75 11 49 -1 66 -63 89 -36 13 -80 41 -119 76 l-61 55 -31 -35z"/>
<path d="M1159 1652 c-132 -42 -203 -90 -192 -130 l5 -22 37 22 c20 12 51 33
69 47 18 13 85 41 149 62 64 21 121 43 126 48 23 23 -81 8 -194 -27z"/>
<path d="M1012 1474 c-57 -52 -115 -99 -129 -105 -17 -6 -23 -14 -19 -25 3 -9
6 -22 6 -30 0 -13 5 -12 31 3 36 21 211 198 228 231 24 45 -14 21 -117 -74z"/>
<path d="M1855 1557 c-75 -25 -135 -67 -135 -94 0 -18 16 -16 48 7 15 11 60
30 100 42 67 19 82 21 149 11 85 -12 126 -36 131 -77 4 -34 -17 -42 -60 -21
l-33 16 33 -31 c39 -36 70 -36 90 0 22 39 -4 91 -64 126 -40 24 -61 28 -133
31 -52 2 -102 -2 -126 -10z"/>
<path d="M557 1495 c-42 -29 -67 -71 -67 -114 0 -40 53 -83 152 -121 88 -34
107 -36 147 -15 33 17 41 33 41 85 0 36 -2 38 -65 69 -36 17 -87 51 -114 76
-26 25 -50 45 -52 45 -2 0 -21 -11 -42 -25z"/>
<path d="M1373 1470 c-100 -23 -181 -124 -151 -187 20 -41 58 -42 92 -2 31 37
26 52 -7 21 -30 -29 -45 -28 -53 3 -9 35 23 84 71 109 50 26 149 27 223 2 61
-21 101 -15 67 10 -43 32 -184 57 -242 44z"/>
<path d="M1001 1345 c-51 -52 -95 -95 -99 -95 -5 0 -29 -13 -55 -30 -39 -25
-47 -35 -47 -60 0 -38 13 -38 70 3 71 50 240 239 240 268 0 21 -22 4 -109 -86z"/>
<path d="M1659 1391 c-82 -52 -101 -142 -43 -203 38 -38 78 -37 140 5 69 46
88 76 79 123 -9 49 -63 104 -102 104 -16 0 -49 -13 -74 -29z"/>
<path d="M1923 1325 c0 -41 2 -75 3 -75 2 0 10 13 18 29 11 20 13 41 8 72 -12
72 -29 58 -29 -26z"/>
<path d="M51 1362 c-22 -16 0 -21 130 -33 80 -7 140 -19 168 -31 l45 -20 18
24 c24 31 23 33 -19 46 -51 15 -324 26 -342 14z"/>
<path d="M441 1285 c-34 -39 -38 -68 -17 -119 11 -27 24 -37 63 -50 56 -18
162 -36 214 -36 88 0 96 107 9 130 -22 5 -58 15 -79 20 -22 6 -63 28 -92 50
-30 22 -56 40 -60 40 -4 0 -21 -16 -38 -35z"/>
<path d="M1450 1278 c0 -25 40 -77 70 -93 27 -14 30 -14 30 1 0 9 -9 18 -20
21 -12 3 -30 23 -41 44 -19 38 -39 51 -39 27z"/>
<path d="M1836 1224 c-63 -76 -174 -115 -222 -79 -29 22 -36 18 -29 -17 12
-56 21 -60 122 -48 61 7 108 7 143 0 67 -13 67 -13 73 4 7 17 -26 163 -40 177
-5 5 -24 -9 -47 -37z"/>
<path d="M941 1159 c-41 -28 -85 -59 -98 -69 -13 -10 -37 -22 -53 -25 -33 -7
-35 -10 -17 -42 12 -22 13 -21 92 33 94 64 175 131 175 145 0 19 -27 8 -99
-42z"/>
<path d="M2056 1161 c-17 -18 -41 -31 -59 -33 -17 -2 -33 -9 -35 -17 -4 -11 4
-13 39 -8 32 4 52 14 72 37 46 52 31 71 -17 21z"/>
<path d="M1426 1172 c-11 -18 72 -82 104 -82 17 0 30 4 30 9 0 11 -25 21 -50
21 -10 0 -25 8 -32 18 -21 28 -46 44 -52 34z"/>
<path d="M388 1088 c-28 -43 -28 -60 -6 -130 26 -81 31 -84 157 -75 178 13
227 43 203 125 -11 35 -16 40 -50 46 -20 3 -56 6 -79 6 -23 0 -77 11 -119 25
-93 30 -88 30 -106 3z"/>
<path d="M1365 1099 c-5 -6 13 -32 42 -61 39 -39 61 -52 94 -58 50 -9 46 -11
51 15 2 17 -3 20 -37 23 -28 2 -50 13 -75 36 -57 52 -67 59 -75 45z"/>
<path d="M185 1026 c-149 -63 -188 -86 -172 -103 7 -6 101 26 182 61 32 15 75
26 96 26 27 0 39 4 39 14 0 8 3 21 6 30 11 27 -43 17 -151 -28z"/>
<path d="M837 991 c-78 -80 -87 -94 -65 -107 7 -5 36 18 76 61 125 135 116
176 -11 46z"/>
<path d="M1640 1043 c-34 -6 -47 -19 -53 -49 -6 -35 25 -54 88 -54 29 0 84
-11 125 -25 41 -14 82 -23 92 -19 10 3 25 19 34 36 15 29 15 34 0 65 -9 18
-27 38 -42 43 -25 10 -196 12 -244 3z"/>
<path d="M897 943 c-73 -158 -78 -173 -65 -196 11 -20 14 -17 44 48 39 82 74
181 74 207 0 36 -17 17 -53 -59z"/>
<path d="M1340 987 c0 -15 75 -90 107 -106 12 -6 35 -11 52 -11 24 0 31 4 31
20 0 16 -7 20 -36 20 -29 0 -46 9 -86 45 -52 47 -68 54 -68 32z"/>
<path d="M1066 934 c-8 -20 -8 -292 0 -322 5 -17 11 -21 28 -16 35 10 38 20
22 59 -9 21 -16 65 -16 99 0 86 -12 196 -20 196 -4 0 -11 -7 -14 -16z"/>
<path d="M1023 929 c-13 -16 -36 -103 -58 -215 -20 -104 -20 -104 13 -104 28
0 29 1 28 53 -1 28 7 98 18 154 19 107 19 135 -1 112z"/>
<path d="M944 893 c-8 -21 -19 -46 -24 -56 -21 -36 -60 -150 -54 -158 14 -24
34 -2 62 69 31 79 52 147 52 170 0 26 -22 10 -36 -25z"/>
<path d="M1579 909 c-36 -36 -25 -58 48 -91 37 -17 93 -51 125 -75 45 -36 62
-44 82 -39 59 15 73 108 21 142 -36 23 -119 53 -192 68 -61 13 -66 13 -84 -5z"/>
<path d="M1951 911 c-9 -15 -7 -20 10 -24 11 -3 35 -3 53 0 27 4 43 -2 86 -31
52 -36 70 -43 70 -28 0 14 -16 29 -69 65 -63 44 -132 52 -150 18z"/>
<path d="M1306 888 c35 -39 155 -111 166 -100 19 19 0 39 -80 80 -90 47 -115
53 -86 20z"/>
<path d="M655 863 c-23 -10 -86 -19 -150 -22 l-110 -6 -3 -30 c-2 -23 8 -43
40 -83 52 -64 57 -64 206 9 112 54 132 77 110 124 -13 29 -35 31 -93 8z"/>
<path d="M1160 828 c0 -52 24 -196 35 -206 2 -3 11 1 19 7 17 14 15 29 -16
156 -25 102 -38 116 -38 43z"/>
<path d="M1210 873 c0 -9 63 -105 97 -147 21 -27 53 -31 53 -7 0 15 -120 156
-136 159 -8 2 -14 0 -14 -5z"/>
<path d="M1520 795 c-21 -22 -22 -26 -8 -48 9 -12 32 -34 52 -47 21 -14 59
-55 87 -92 54 -75 77 -84 123 -47 39 31 36 85 -6 126 -53 49 -189 133 -216
133 -5 0 -19 -11 -32 -25z"/>
<path d="M270 775 c-146 -62 -218 -105 -173 -105 16 0 63 17 221 78 27 10 42
23 42 34 0 27 -11 27 -90 -7z"/>
<path d="M690 720 c-30 -21 -82 -46 -115 -55 -33 -10 -71 -21 -85 -25 -21 -6
-25 -13 -23 -40 2 -43 70 -144 100 -148 16 -2 51 25 138 109 103 100 115 116
110 138 -8 33 -34 61 -54 61 -9 -1 -41 -18 -71 -40z"/>
<path d="M1902 718 c-17 -17 -15 -23 17 -60 15 -18 31 -51 35 -73 11 -56 26
-82 37 -64 28 45 -23 209 -66 209 -6 0 -16 -5 -23 -12z"/>
<path d="M1387 693 c-20 -14 -37 -30 -37 -35 0 -6 23 -35 51 -66 28 -32 67
-89 85 -129 19 -40 39 -75 44 -78 20 -12 97 32 120 70 21 35 22 39 8 69 -9 18
-50 69 -93 114 -88 94 -113 102 -178 55z"/>
<path d="M768 579 c-29 -33 -77 -78 -105 -100 -29 -22 -53 -46 -53 -53 0 -7
17 -31 38 -53 28 -31 48 -42 80 -48 57 -9 69 3 127 120 48 99 54 125 37 168
-9 21 -18 27 -41 27 -24 0 -40 -12 -83 -61z"/>
<path d="M1231 599 c-31 -30 -31 -30 -15 -67 39 -90 52 -131 59 -187 11 -85
18 -95 68 -95 38 0 48 6 96 54 43 44 52 59 48 78 -9 35 -76 142 -125 198 -53
61 -85 66 -131 19z"/>
<path d="M344 550 c-89 -45 -143 -85 -132 -96 10 -10 219 86 225 104 14 34
-16 32 -93 -8z"/>
<path d="M953 568 c-13 -17 -133 -268 -133 -279 0 -4 20 -20 45 -35 38 -22 53
-25 88 -20 70 11 70 10 80 165 9 130 8 143 -8 161 -20 23 -58 26 -72 8z"/>
<path d="M1092 557 c-14 -16 -34 -309 -22 -321 5 -5 32 -11 59 -14 43 -4 57 0
91 22 23 15 40 34 40 45 0 22 -65 212 -86 253 -11 21 -22 28 -43 28 -16 0 -33
-6 -39 -13z"/>
<path d="M1742 513 c-18 -4 -22 -9 -16 -21 5 -9 8 -49 9 -89 0 -39 3 -74 7
-78 15 -15 41 62 42 124 1 66 -3 71 -42 64z"/>
<path d="M560 391 c-8 -5 -73 -11 -144 -15 -72 -4 -132 -8 -134 -11 -2 -2 -1
-8 3 -14 7 -13 303 -15 322 -3 8 5 6 13 -7 30 -20 25 -20 24 -40 13z"/>
<path d="M1573 357 c-12 -5 -28 -26 -37 -46 -8 -21 -35 -54 -61 -75 -28 -23
-43 -42 -37 -48 27 -27 172 93 172 144 0 33 -8 39 -37 25z"/>
<path d="M1328 198 c7 -7 12 -41 12 -82 l1 -71 19 24 c15 17 20 38 20 82 l0
59 -32 0 c-25 0 -29 -3 -20 -12z"/>
<path d="M905 148 c9 -64 13 -69 78 -106 59 -33 98 -45 121 -36 23 9 10 23
-39 44 -24 10 -60 36 -79 57 -29 30 -35 43 -30 66 5 25 3 27 -26 27 l-32 0 7
-52z"/>
<path d="M1080 181 c0 -16 85 -113 112 -127 15 -8 37 -14 50 -14 21 1 18 5
-22 43 -25 23 -52 57 -59 75 -11 27 -18 32 -47 32 -19 0 -34 -4 -34 -9z"/>
</g>
</svg>
