<?xml version="1.0" standalone="no"?>
<!DOCTYPE svg PUBLIC "-//W3C//DTD SVG 20010904//EN"
 "http://www.w3.org/TR/2001/REC-SVG-20010904/DTD/svg10.dtd">
<svg version="1.0" xmlns="http://www.w3.org/2000/svg"
 width="205.000000pt" height="250.000000pt" viewBox="0 0 205.000000 250.000000"
 preserveAspectRatio="xMidYMid meet">
<metadata>
Created by potrace 1.14, written by Peter Selinger 2001-2017
</metadata>
<g transform="translate(0.000000,250.000000) scale(0.100000,-0.100000)"
fill="#b95c2b" stroke="none">
<path d="M1330 2481 c-45 -14 -262 -127 -445 -232 -244 -139 -453 -246 -498
-254 -22 -4 -36 -12 -34 -19 14 -39 159 26 517 230 329 187 451 247 514 252
49 4 57 2 79 -22 28 -30 37 -65 37 -142 l0 -53 -39 -11 c-50 -13 -82 -39 -106
-85 -14 -26 -36 -45 -77 -66 -69 -35 -123 -87 -131 -125 -8 -43 24 -106 89
-174 68 -71 114 -95 214 -109 177 -25 252 48 209 202 -10 37 -8 42 30 99 23
34 42 68 42 77 1 9 2 27 3 41 1 29 49 59 148 91 77 24 114 20 128 -15 9 -26 1
-68 -45 -216 -64 -209 -73 -532 -19 -745 18 -70 41 -112 56 -97 6 6 5 20 -5
39 -35 67 -51 192 -52 388 0 218 10 284 67 465 44 139 44 176 1 210 -14 11
-37 20 -50 20 -32 0 -170 -47 -209 -71 -41 -25 -44 -25 -103 15 -28 19 -67 40
-86 47 l-35 13 0 71 c0 82 -28 152 -70 172 -28 14 -91 16 -130 4z m131 -462
c112 -56 157 -147 114 -229 -23 -44 -58 -40 -127 15 -32 25 -95 62 -141 84
-47 21 -87 44 -91 50 -19 30 34 86 98 102 41 10 102 1 147 -22z"/>
<path d="M911 2030 c-29 -16 -59 -34 -66 -40 -8 -7 -22 -6 -44 1 -40 14 -54 4
-16 -11 l28 -11 -34 -29 c-22 -19 -41 -28 -54 -25 -69 17 -71 17 -36 -3 l34
-19 -24 -16 c-13 -8 -49 -18 -79 -22 -71 -9 -94 -22 -160 -89 -61 -63 -52 -73
19 -23 25 19 71 43 101 54 165 62 150 59 150 38 0 -8 5 -15 10 -15 6 0 10 10
10 23 0 15 13 30 44 50 52 33 53 33 59 5 3 -17 5 -15 6 9 1 24 10 38 43 62 52
39 73 40 64 6 -4 -17 4 -45 29 -95 19 -38 35 -75 35 -81 0 -10 -62 -81 -201
-233 -16 -18 -18 -17 -63 24 -25 23 -55 58 -67 76 -31 50 -58 45 -130 -22 -51
-50 -62 -56 -88 -51 -17 4 -33 2 -36 -3 -3 -6 5 -10 19 -10 35 0 33 -9 -13
-66 -36 -45 -41 -48 -82 -47 l-44 2 38 -12 38 -13 -23 -20 c-13 -12 -49 -31
-81 -44 -45 -18 -78 -43 -153 -118 -53 -53 -92 -98 -85 -100 19 -6 96 45 125
82 15 20 64 59 109 86 45 28 92 58 105 67 20 14 22 14 22 -1 0 -9 5 -16 10
-16 6 0 10 13 10 28 0 20 14 41 49 76 45 44 50 47 61 30 10 -16 11 -15 6 12
-4 25 2 38 33 74 38 45 61 48 61 8 0 -12 20 -48 45 -79 25 -32 45 -60 45 -63
0 -8 -161 -220 -169 -224 -4 -1 -35 16 -69 38 -35 22 -69 40 -76 40 -19 0 -63
-54 -89 -107 -17 -34 -28 -44 -54 -49 -18 -3 -33 -10 -33 -15 0 -5 13 -6 30
-3 l29 6 -24 -63 c-27 -67 -37 -79 -72 -79 -12 0 -25 -5 -29 -11 -5 -9 3 -10
30 -5 28 5 36 4 36 -8 0 -14 -85 -133 -153 -214 -20 -23 -44 -66 -55 -95 -42
-114 -35 -178 8 -72 12 30 50 92 84 138 34 45 77 109 96 142 48 86 50 89 66
68 16 -21 18 -10 4 16 -7 14 -1 35 22 85 29 60 48 82 48 56 0 -5 4 -10 10 -10
6 0 5 10 -2 25 -9 19 -7 34 6 69 23 60 43 76 51 43 4 -14 25 -37 46 -52 l40
-26 -31 -52 c-190 -316 -225 -568 -99 -711 l40 -46 42 21 c150 76 335 238 421
368 99 149 124 236 136 481 12 227 27 359 48 424 16 46 44 78 56 65 4 -3 -5
-44 -19 -90 -14 -46 -29 -113 -32 -149 l-6 -64 54 46 c75 64 167 118 201 118
52 0 35 -23 -49 -68 -67 -35 -167 -114 -190 -149 -15 -22 -18 -52 -20 -168 -2
-116 -7 -155 -28 -228 -68 -235 -218 -417 -480 -582 l-87 -54 39 -16 c168 -71
333 -13 499 175 42 48 178 246 187 273 1 5 22 0 46 -13 25 -12 54 -20 68 -17
38 7 39 -18 3 -63 -24 -30 -39 -40 -61 -40 -16 0 -29 -4 -29 -10 0 -5 9 -10
21 -10 18 0 15 -7 -25 -62 -24 -35 -55 -66 -68 -69 -16 -5 -18 -7 -5 -8 9 -1
17 -4 17 -8 0 -3 -20 -40 -44 -82 -25 -42 -54 -100 -65 -129 -31 -77 -60 -132
-93 -174 -50 -64 -26 -63 39 2 51 52 66 74 93 148 40 105 97 222 109 222 5 0
14 -14 20 -32 6 -17 14 -29 17 -25 3 3 1 22 -6 41 -11 34 -10 38 27 86 42 54
52 60 60 30 3 -11 9 -20 13 -20 5 0 4 16 -1 35 -9 31 -6 40 27 89 20 31 37 69
37 86 2 30 -3 35 -68 69 -85 45 -86 47 -21 186 25 55 47 104 49 109 2 6 36 5
87 -2 56 -8 87 -9 94 -2 16 16 36 12 36 -7 -1 -33 -38 -101 -59 -108 -12 -3
-21 -10 -21 -15 0 -5 7 -7 15 -4 20 8 19 -10 -5 -83 -14 -39 -29 -64 -43 -71
l-22 -11 22 0 c20 -1 21 -5 18 -53 -3 -29 -7 -87 -9 -128 -2 -41 -12 -92 -20
-112 -17 -39 -20 -109 -7 -142 5 -13 15 11 34 80 44 160 48 187 37 245 -12 64
-12 80 0 99 9 13 13 11 30 -9 11 -13 23 -21 27 -17 4 3 -3 16 -15 29 -27 29
-27 32 0 98 28 69 26 68 48 39 24 -31 26 -18 4 20 -16 25 -16 32 1 99 24 101
18 117 -47 126 -45 5 -146 32 -156 40 -2 2 20 73 48 158 l51 154 46 7 c25 3
63 6 83 6 21 0 43 7 50 15 25 30 40 17 40 -35 0 -41 -5 -55 -25 -74 -30 -28
-33 -41 -5 -26 19 10 20 8 20 -40 0 -37 -5 -55 -20 -70 -25 -25 -25 -33 -2
-26 15 5 20 -7 36 -98 13 -74 17 -123 11 -170 -8 -83 7 -87 29 -8 21 77 20
130 -4 192 -11 28 -20 62 -20 75 0 28 21 33 40 10 7 -8 18 -15 24 -15 6 1 -4
14 -22 29 -32 27 -33 31 -27 75 8 51 11 53 37 29 10 -9 18 -12 18 -6 0 5 -9
18 -20 28 -16 15 -20 31 -20 85 0 37 -5 81 -11 97 l-10 30 -107 0 c-273 0
-269 0 -326 26 -30 14 -74 45 -98 69 -52 51 -168 223 -197 291 -25 57 -42 60
-120 17z"/>
</g>
</svg>
