<?xml version="1.0" standalone="no"?>
<!DOCTYPE svg PUBLIC "-//W3C//DTD SVG 20010904//EN"
 "http://www.w3.org/TR/2001/REC-SVG-20010904/DTD/svg10.dtd">
<svg version="1.0" xmlns="http://www.w3.org/2000/svg"
 width="250.000000pt" height="248.000000pt" viewBox="0 0 250.000000 248.000000"
 preserveAspectRatio="xMidYMid meet">
<metadata>
Created by potrace 1.14, written by Peter Selinger 2001-2017
</metadata>
<g transform="translate(0.000000,248.000000) scale(0.100000,-0.100000)"
fill="#e62b00" stroke="none">
<path d="M331 2462 c-15 -11 -30 -77 -31 -135 0 -33 24 -92 60 -147 5 -8 22
-42 36 -75 14 -33 45 -85 67 -115 110 -148 134 -179 176 -223 48 -51 242 -187
265 -187 7 0 19 -7 26 -15 7 -8 9 -15 5 -15 -20 0 -239 121 -293 162 -72 55
-236 139 -315 162 -28 8 -93 18 -144 22 -99 7 -145 -3 -163 -37 -14 -26 -12
-125 4 -162 18 -43 95 -127 159 -174 29 -20 75 -60 102 -89 52 -53 125 -107
185 -137 19 -10 50 -29 69 -42 52 -38 244 -98 316 -98 68 -1 161 30 213 70 18
14 35 23 37 21 7 -7 -35 -81 -54 -98 -31 -27 -71 -107 -71 -143 0 -25 -13 -56
-45 -104 -29 -44 -45 -79 -45 -99 0 -23 -12 -45 -44 -81 -27 -30 -52 -71 -64
-106 -14 -42 -29 -65 -58 -87 -21 -17 -50 -48 -64 -68 -15 -21 -47 -47 -76
-62 -28 -14 -60 -39 -72 -57 -12 -18 -33 -34 -51 -38 -16 -3 -59 -24 -95 -46
-36 -21 -69 -39 -74 -39 -16 0 -101 -40 -107 -50 -3 -6 -27 -10 -53 -10 -30 0
-59 -8 -81 -21 l-33 -20 22 -24 c17 -18 19 -27 12 -42 -18 -33 -2 -41 63 -31
33 5 87 11 119 13 51 4 66 10 106 44 31 26 60 41 90 46 25 4 65 19 90 34 25
16 62 33 82 40 23 8 58 35 92 72 30 32 59 59 64 59 12 0 72 69 72 83 0 23 39
76 66 89 34 16 70 77 84 145 9 40 16 53 30 53 37 0 90 100 90 173 0 15 4 27 9
27 14 0 39 76 51 149 5 35 12 66 15 69 9 9 5 -75 -6 -127 l-11 -50 62 -85
c119 -164 122 -167 333 -270 106 -51 215 -101 242 -111 28 -10 67 -26 87 -36
47 -24 169 -42 229 -34 32 5 56 16 82 40 49 45 50 86 3 164 -57 93 -188 194
-471 363 -71 42 -155 95 -186 117 -31 22 -70 46 -86 54 -37 20 -126 114 -121
129 8 24 26 18 47 -16 19 -30 189 -156 211 -156 4 0 13 -6 19 -14 23 -27 106
-47 266 -62 319 -31 395 -21 533 63 74 47 78 53 74 122 -2 36 -29 59 -117 102
-86 41 -132 53 -235 63 -86 8 -294 43 -400 66 -47 10 -107 22 -135 25 -69 9
-95 16 -95 25 0 4 17 4 38 -1 113 -26 163 -1 187 94 8 32 25 71 36 87 25 33
87 61 118 53 15 -4 21 -1 21 11 0 19 -24 20 -87 5 -56 -15 -94 -63 -112 -144
-16 -69 -35 -81 -115 -71 -44 6 -56 11 -56 25 0 28 33 51 73 51 53 0 67 27 68
131 2 122 -2 144 -26 144 -14 0 -19 7 -18 21 2 20 -4 22 -88 27 -56 4 -98 3
-110 -3 -40 -22 -61 -98 -39 -141 9 -16 7 -21 -15 -29 -44 -17 -55 -12 -75 32
-29 66 -13 117 73 230 34 44 46 123 24 153 -12 15 -19 17 -27 9 -9 -9 -8 -18
5 -37 21 -33 13 -62 -31 -112 -74 -84 -82 -98 -89 -161 -6 -51 -4 -69 14 -109
20 -45 20 -49 5 -67 -29 -31 -48 -21 -84 43 -19 33 -61 86 -94 117 -33 31 -91
91 -129 132 -38 41 -100 107 -136 145 -37 39 -87 93 -111 120 -24 28 -74 71
-110 97 -170 121 -170 121 -218 125 -26 2 -53 0 -61 -5z m110 -35 c199 -141
283 -218 480 -442 25 -27 83 -89 131 -136 50 -51 97 -108 113 -139 14 -29 45
-69 67 -89 47 -44 49 -77 6 -101 -25 -14 -34 -13 -105 7 -92 25 -138 41 -175
59 -14 8 -32 14 -40 14 -7 0 -32 15 -55 33 -23 17 -67 48 -98 67 -54 33 -143
119 -175 169 -8 13 -27 37 -42 55 -15 17 -28 34 -28 38 0 3 -11 20 -25 36 -14
16 -47 72 -74 123 -26 52 -60 117 -75 144 -23 42 -27 58 -22 99 7 63 29 89 70
80 17 -3 38 -11 47 -17z m-161 -567 c72 -14 301 -128 349 -174 41 -39 242
-143 341 -176 107 -36 152 -59 186 -95 l24 -27 -29 -36 c-64 -81 -120 -121
-223 -158 -52 -18 -121 -15 -193 11 -22 8 -59 19 -82 25 -24 6 -72 31 -108 55
-36 25 -67 45 -70 45 -14 0 -131 89 -183 140 -33 33 -66 60 -71 60 -15 0 -149
136 -165 168 -37 74 -27 150 22 169 28 11 125 8 202 -7z m1175 -180 c10 -11
14 -20 9 -20 -5 0 -15 9 -22 20 -7 11 -11 20 -9 20 2 0 12 -9 22 -20z m-395
-160 c23 -6 40 -14 37 -17 -6 -6 -107 26 -107 34 0 3 6 3 14 0 8 -3 33 -11 56
-17z m90 -30 c0 -13 -11 -13 -30 0 -12 8 -11 10 8 10 12 0 22 -4 22 -10z m343
-30 c31 -11 65 -20 76 -20 11 0 30 -4 43 -10 13 -5 100 -21 193 -35 357 -53
485 -80 554 -116 80 -42 112 -86 88 -122 -17 -25 -109 -83 -164 -103 -47 -16
-357 -19 -468 -3 -107 15 -139 28 -267 112 -96 63 -121 85 -165 147 -59 81
-70 115 -27 81 15 -12 33 -21 41 -21 23 0 133 -40 213 -76 41 -20 111 -41 154
-49 43 -8 83 -18 88 -23 5 -5 12 -41 15 -80 7 -90 23 -84 23 9 0 68 1 70 22
63 12 -3 43 -19 68 -35 26 -16 66 -36 90 -44 24 -9 64 -27 89 -40 24 -14 46
-23 49 -20 13 13 -39 47 -164 110 -118 59 -150 71 -238 85 -61 10 -127 29
-166 47 -36 17 -87 38 -115 47 -27 9 -72 27 -99 41 -27 14 -58 25 -68 25 -21
0 -22 4 -8 31 14 25 68 25 143 -1z m-231 -182 c-27 -27 -12 -56 61 -123 39
-37 77 -75 82 -85 6 -11 57 -56 115 -100 58 -45 120 -97 138 -116 l32 -34 -40
-39 c-38 -36 -51 -61 -31 -61 5 0 14 7 21 15 7 9 26 25 42 36 l28 20 28 -21
c15 -12 57 -49 94 -82 59 -54 68 -66 74 -107 4 -25 13 -60 20 -78 21 -50 18
-55 -23 -37 -21 8 -69 27 -108 41 -38 14 -99 40 -135 59 -36 18 -108 54 -160
79 -108 53 -131 71 -209 174 -31 40 -64 85 -75 98 -16 21 -17 35 -11 118 6 90
17 117 29 78 3 -10 18 -25 33 -34 16 -9 45 -46 68 -88 21 -40 52 -82 67 -93
42 -29 53 -56 34 -77 -17 -19 -22 -81 -7 -81 5 0 12 14 16 30 4 17 12 30 18
30 7 0 28 -24 47 -53 55 -83 100 -137 116 -137 8 0 14 2 14 4 0 3 -25 40 -56
83 -31 43 -73 106 -93 140 -20 33 -49 69 -64 80 -16 10 -40 40 -53 66 -44 86
-91 152 -118 167 -15 7 -29 24 -32 37 -11 41 13 103 39 103 7 0 7 -4 -1 -12z
m97 -89 c24 -28 69 -68 99 -88 110 -73 238 -152 271 -166 46 -21 156 -94 288
-192 118 -88 183 -168 183 -223 0 -63 -95 -102 -200 -83 -38 8 -45 12 -42 30
2 12 -4 45 -12 74 -9 29 -14 54 -11 57 10 10 92 -32 129 -65 26 -24 41 -32 44
-24 6 19 -47 69 -108 102 -69 37 -266 197 -300 243 -14 19 -72 71 -130 115
-104 80 -270 239 -270 260 0 21 15 11 59 -40z m-285 -194 c21 -21 30 -55 18
-67 -13 -13 -70 19 -78 44 -11 37 30 53 60 23z m-108 -173 c41 -28 59 -102 25
-102 -20 0 -81 62 -81 84 0 25 31 35 56 18z m-90 -218 c26 -61 -7 -95 -52 -54
-26 26 -29 41 -14 71 17 32 49 24 66 -17z m-135 -172 c29 -44 27 -62 -6 -62
-41 0 -70 61 -43 88 18 18 22 16 49 -26z m-164 -145 c6 -54 -10 -69 -32 -28
-18 36 -19 63 -3 79 18 18 30 0 35 -51z m-138 -61 c13 -15 5 -45 -13 -47 -27
-3 -52 4 -66 17 -13 14 -13 17 4 30 25 18 60 18 75 0z m-195 -112 c5 -24 3
-33 -8 -37 -42 -16 -59 20 -30 62 19 26 29 19 38 -25z"/>
<path d="M412 2378 c3 -7 28 -31 57 -52 42 -32 49 -41 37 -48 -29 -16 -18 -31
19 -24 31 6 38 3 75 -35 22 -23 43 -52 46 -65 6 -22 31 -40 42 -29 8 7 -49
107 -72 128 -12 10 -53 40 -93 67 -39 27 -74 54 -78 60 -9 14 -37 12 -33 -2z"/>
<path d="M502 2195 c-29 -21 -29 -73 0 -132 21 -42 107 -130 201 -206 52 -42
57 -53 27 -62 -11 -3 -20 -11 -20 -17 0 -10 19 -8 65 7 15 5 33 -6 70 -40 87
-81 112 -96 191 -116 43 -11 106 -35 142 -55 35 -20 66 -33 69 -30 18 17 -14
60 -81 110 -40 30 -84 69 -96 88 -26 36 -104 118 -114 118 -12 0 -6 -24 11
-42 26 -29 2 -21 -51 17 -48 34 -70 38 -60 10 7 -16 83 -66 130 -84 17 -7 53
-35 80 -63 l49 -50 -55 7 c-71 9 -96 23 -174 93 -35 31 -87 75 -115 97 -165
127 -241 203 -262 264 -9 25 -8 36 6 57 22 33 15 48 -13 29z"/>
<path d="M295 1810 c-3 -5 28 -26 70 -47 77 -39 90 -55 55 -73 -11 -6 -20 -15
-20 -20 0 -16 26 -11 52 10 l25 19 83 -44 c46 -25 86 -45 90 -45 4 0 15 -9 26
-21 34 -37 148 -89 197 -89 42 0 32 16 -20 30 -61 17 -102 36 -133 65 -14 12
-72 47 -130 77 -58 30 -123 66 -145 80 -22 13 -47 27 -55 30 -8 4 -32 13 -52
22 -23 10 -39 12 -43 6z"/>
<path d="M274 1551 c3 -4 31 -11 63 -14 71 -8 197 -39 202 -51 2 -4 -18 -32
-43 -62 -59 -68 -37 -71 29 -3 49 49 51 50 95 44 25 -3 68 -15 96 -25 28 -10
88 -24 135 -31 85 -12 145 -35 168 -63 11 -13 3 -18 -57 -35 -38 -12 -75 -21
-81 -21 -7 0 -11 -6 -8 -12 4 -15 41 -13 112 7 28 7 69 19 93 25 44 11 59 40
21 40 -12 0 -46 16 -77 35 -41 25 -76 37 -127 45 -38 5 -92 16 -120 24 -263
75 -286 81 -370 96 -66 11 -138 12 -131 1z"/>
<path d="M2045 1320 c11 -5 46 -14 78 -20 48 -10 57 -15 57 -33 0 -33 11 -67
21 -67 5 0 9 18 9 40 0 50 7 50 105 9 73 -31 108 -33 69 -5 -56 42 -224 87
-319 85 -32 0 -36 -2 -20 -9z"/>
</g>
</svg>
