<?xml version="1.0" standalone="no"?>
<!DOCTYPE svg PUBLIC "-//W3C//DTD SVG 20010904//EN"
 "http://www.w3.org/TR/2001/REC-SVG-20010904/DTD/svg10.dtd">
<svg version="1.0" xmlns="http://www.w3.org/2000/svg"
 width="545.000000pt" height="656.000000pt" viewBox="0 0 545.000000 656.000000"
 preserveAspectRatio="xMidYMid meet">
<metadata>
Created by potrace 1.14, written by Peter Selinger 2001-2017
</metadata>
<g transform="translate(0.000000,656.000000) scale(0.100000,-0.100000)"
fill="#e62b00" stroke="none">
<path d="M2350 6516 c0 -38 6 -51 43 -92 40 -45 112 -147 138 -196 9 -16 5
-25 -25 -54 -40 -39 -66 -92 -66 -135 0 -28 -1 -29 -52 -29 -130 0 -222 -30
-304 -96 -122 -99 -94 -232 90 -431 l64 -69 -19 -23 c-11 -14 -19 -39 -19 -62
0 -34 -2 -39 -17 -31 -33 16 -93 15 -99 -1 -7 -20 -71 -45 -131 -52 -26 -3
-61 -8 -78 -10 -49 -8 -190 -16 -338 -18 -123 -2 -138 0 -143 16 -3 9 -10 17
-15 17 -5 0 -9 6 -9 12 0 7 -12 38 -27 68 -15 30 -33 70 -40 87 -7 18 -20 48
-28 65 -8 18 -18 48 -21 66 -4 17 -10 32 -15 32 -5 0 -9 7 -9 16 0 9 -6 28
-13 42 -19 37 -41 89 -62 142 -9 25 -22 56 -29 70 -7 14 -26 76 -42 138 -16
62 -32 112 -36 112 -5 0 -8 -4 -8 -10 0 -15 -29 0 -67 36 -20 19 -44 34 -54
34 -11 0 -19 3 -19 8 0 8 -6 11 -96 57 -32 17 -62 34 -65 38 -6 8 -34 26 -67
43 -7 4 -34 27 -59 52 -42 43 -49 58 -52 120 -1 6 -8 12 -16 12 -15 0 -19 -15
-15 -57 1 -13 -3 -23 -9 -23 -6 0 -11 7 -11 16 0 18 -23 44 -39 44 -6 0 -11
-4 -11 -9 0 -18 44 -86 82 -126 21 -22 38 -43 38 -47 0 -11 46 -58 57 -58 6 0
16 -7 23 -15 7 -8 20 -15 30 -15 10 0 32 -13 50 -30 18 -16 36 -30 40 -30 4 0
10 -7 14 -15 3 -8 9 -15 13 -14 25 4 52 -16 60 -44 6 -24 20 -38 52 -54 24
-12 49 -27 56 -35 7 -7 25 -61 40 -120 16 -60 31 -108 35 -108 4 0 11 -17 15
-37 4 -21 15 -57 26 -80 10 -23 19 -47 19 -53 0 -6 6 -21 14 -33 8 -12 17 -38
21 -57 4 -19 12 -40 17 -47 12 -15 39 -114 33 -123 -2 -4 5 -40 17 -81 20 -72
50 -118 76 -119 10 0 10 -5 2 -20 -11 -21 -5 -61 8 -58 4 1 21 -4 37 -11 20
-8 56 -11 105 -7 116 9 145 13 204 30 30 9 59 15 63 14 15 -3 109 14 203 37
168 41 177 41 216 1 l34 -35 -53 -49 c-28 -27 -67 -62 -85 -77 -32 -27 -33
-31 -30 -87 l3 -60 -179 -170 c-99 -94 -229 -208 -290 -253 -119 -89 -171
-134 -177 -153 -3 -9 -19 -6 -58 9 -30 11 -93 29 -140 40 -47 11 -136 36 -197
54 -62 18 -140 39 -175 46 -35 6 -71 18 -79 25 -19 16 -372 14 -377 -3 -3 -7
-18 -7 -50 -1 -31 7 -64 7 -105 -2 l-61 -11 -33 32 c-27 27 -36 30 -47 20 -19
-19 52 -81 95 -82 31 0 31 -1 11 -11 -18 -9 -30 -6 -66 16 -37 21 -47 23 -56
12 -8 -10 0 -19 38 -39 54 -30 67 -32 108 -16 43 16 146 17 158 1 9 -11 22
-10 72 8 47 16 67 19 82 11 23 -13 87 -13 116 -2 12 5 33 3 54 -5 18 -8 46
-14 61 -14 50 0 427 -107 569 -161 53 -20 79 -36 86 -51 12 -27 53 -27 73 0 7
9 30 41 51 70 82 113 178 207 330 323 86 65 177 136 203 159 46 40 46 40 94
30 42 -10 51 -9 75 9 l26 20 11 -92 c5 -50 6 -101 2 -112 -18 -47 -51 -236
-48 -277 2 -38 -7 -61 -94 -213 -101 -177 -160 -267 -265 -404 -35 -45 -63
-89 -63 -99 0 -10 -27 -36 -67 -62 -36 -25 -100 -73 -142 -108 -93 -77 -144
-108 -230 -139 -91 -33 -195 -98 -232 -144 -22 -28 -38 -39 -57 -39 -20 0 -47
-22 -114 -92 -51 -54 -91 -105 -95 -121 -3 -15 -14 -32 -23 -37 -10 -5 -28
-27 -41 -47 -12 -21 -38 -55 -56 -76 -18 -20 -33 -42 -33 -47 0 -18 28 -11 44
11 14 21 15 21 30 -15 14 -34 26 -43 38 -30 4 3 0 21 -8 39 -20 48 -19 51 23
72 24 11 42 29 48 47 5 16 59 78 119 137 83 83 113 106 125 100 10 -6 33 -2
66 11 68 26 98 46 191 123 43 37 111 87 149 112 39 25 97 68 131 94 74 58 102
71 173 73 44 2 58 7 74 27 20 26 93 155 189 339 33 63 82 151 108 196 26 44
56 101 67 126 19 41 23 45 51 40 26 -3 33 -11 46 -50 11 -31 13 -49 6 -56 -14
-14 -13 -212 1 -251 10 -27 7 -41 -26 -120 -38 -93 -85 -253 -93 -318 -2 -20
1 -43 7 -51 8 -10 7 -21 -4 -44 -23 -44 -36 -275 -23 -378 10 -76 9 -83 -15
-130 -30 -60 -47 -136 -47 -214 0 -47 5 -64 24 -86 l23 -28 -23 -34 c-28 -40
-40 -80 -56 -180 -14 -87 3 -286 32 -369 10 -29 14 -55 9 -60 -15 -15 -13 -94
5 -228 25 -183 71 -407 77 -374 0 2 2 15 5 29 7 44 27 100 36 100 4 0 8 -21 8
-47 0 -27 7 -77 14 -113 15 -72 108 -302 124 -308 5 -1 12 12 16 30 6 34 31
78 44 78 4 0 6 -21 4 -47 -5 -72 23 -224 53 -292 15 -33 31 -59 35 -56 4 2 10
21 13 40 6 35 42 105 55 105 4 0 6 -46 6 -102 -2 -126 -18 -171 -129 -354 -42
-70 -74 -131 -73 -136 4 -12 163 217 208 300 19 34 37 62 40 62 10 0 33 -181
39 -305 l6 -120 6 125 c7 127 29 300 39 300 3 0 21 -28 40 -62 45 -83 204
-312 208 -300 1 5 -31 66 -73 136 -111 183 -127 228 -129 354 0 56 2 102 6
102 13 0 49 -70 55 -105 3 -19 9 -38 13 -40 4 -3 20 23 35 56 30 68 58 220 53
292 -2 26 0 47 4 47 13 0 38 -44 44 -78 4 -18 11 -31 16 -30 16 6 109 236 124
308 7 36 14 86 14 113 0 26 4 47 8 47 9 0 30 -59 35 -97 3 -19 17 -46 17 -32
0 2 11 58 24 124 49 243 70 455 47 478 -5 5 -1 31 9 60 29 83 46 282 32 369
-16 100 -28 140 -56 180 l-23 34 23 28 c19 22 24 39 24 86 0 78 -17 154 -47
214 -24 47 -25 54 -15 130 13 103 0 334 -23 378 -11 23 -12 34 -4 44 6 8 9 31
7 51 -8 65 -55 225 -93 318 -33 79 -36 93 -26 120 14 39 15 237 1 251 -7 7 -5
25 6 56 13 39 20 47 46 50 28 5 32 1 51 -40 11 -25 41 -82 67 -126 26 -45 75
-133 108 -196 96 -184 169 -313 189 -339 16 -20 30 -25 74 -27 71 -2 99 -15
173 -73 34 -26 93 -69 131 -94 39 -25 106 -75 149 -112 93 -77 123 -97 191
-123 33 -13 56 -17 66 -11 12 6 42 -17 125 -100 60 -59 114 -121 119 -137 6
-18 24 -36 48 -47 42 -21 43 -24 23 -72 -8 -18 -12 -36 -8 -39 12 -13 24 -4
38 30 15 36 16 36 30 15 16 -22 44 -29 44 -11 0 5 -15 27 -33 47 -18 21 -44
55 -56 76 -13 20 -31 42 -41 47 -9 5 -20 22 -23 37 -4 16 -44 67 -95 121 -67
70 -94 92 -114 92 -19 0 -35 11 -57 39 -37 46 -141 111 -232 144 -86 31 -137
62 -230 139 -42 35 -106 83 -142 108 -40 26 -67 52 -67 62 0 10 -28 54 -62 99
-106 137 -165 227 -266 404 -87 152 -96 175 -94 213 3 41 -30 230 -48 277 -4
11 -3 62 2 112 l11 92 26 -20 c24 -18 33 -19 75 -9 48 10 48 10 94 -30 26 -23
117 -94 203 -159 152 -116 248 -210 330 -323 21 -29 44 -61 51 -70 20 -27 61
-27 73 0 7 15 33 31 86 51 142 54 519 161 569 161 15 0 43 6 61 14 21 8 42 10
54 5 29 -11 93 -11 116 2 15 8 35 5 82 -11 50 -18 63 -19 72 -8 12 16 115 15
158 -1 41 -16 54 -14 108 16 38 20 46 29 38 39 -9 11 -19 9 -56 -12 -36 -22
-48 -25 -66 -16 -20 10 -20 11 11 11 43 1 114 63 95 82 -11 10 -20 7 -47 -20
l-33 -32 -61 11 c-41 9 -74 9 -105 2 -32 -6 -47 -6 -50 1 -5 17 -358 19 -377
3 -8 -7 -44 -19 -79 -25 -35 -7 -113 -28 -175 -46 -61 -18 -150 -43 -197 -54
-47 -11 -110 -29 -140 -40 -39 -15 -55 -18 -58 -9 -6 19 -58 64 -177 153 -61
45 -191 159 -290 253 l-179 170 3 60 c3 56 2 60 -30 87 -18 15 -57 50 -85 77
l-53 49 34 35 c39 40 48 40 216 -1 94 -23 188 -40 203 -37 4 1 33 -5 63 -14
59 -17 88 -21 204 -30 49 -4 85 -1 105 7 17 7 33 12 37 11 13 -3 19 37 8 58
-8 15 -8 20 2 20 26 1 56 47 76 119 12 41 19 77 17 81 -6 9 21 108 33 123 5 7
13 28 17 47 4 19 13 45 21 57 8 12 14 27 14 33 0 6 9 30 19 53 11 23 22 59 26
80 4 20 11 37 15 37 4 0 19 48 35 108 15 59 33 113 40 120 7 8 32 23 56 35 32
16 46 30 52 54 8 28 35 48 60 44 4 -1 10 6 13 14 4 8 10 15 14 15 4 0 22 14
40 30 18 17 40 30 50 30 10 0 23 7 30 15 7 8 17 15 23 15 11 0 57 47 57 58 0
4 17 25 38 47 38 40 82 108 82 126 0 5 -5 9 -11 9 -16 0 -39 -26 -39 -44 0 -9
-5 -16 -11 -16 -6 0 -10 10 -9 23 4 42 0 57 -15 57 -8 0 -15 -6 -16 -12 -3
-62 -10 -77 -52 -120 -25 -25 -52 -48 -59 -52 -33 -17 -61 -35 -67 -43 -3 -4
-33 -21 -65 -38 -90 -46 -96 -49 -96 -57 0 -5 -8 -8 -19 -8 -10 0 -34 -15 -54
-34 -38 -36 -67 -51 -67 -36 0 6 -3 10 -8 10 -4 0 -20 -50 -36 -112 -16 -62
-35 -124 -42 -138 -7 -14 -20 -45 -29 -70 -21 -53 -43 -105 -62 -142 -7 -14
-13 -33 -13 -42 0 -9 -4 -16 -9 -16 -5 0 -11 -15 -15 -32 -3 -18 -13 -49 -22
-68 -9 -19 -22 -48 -29 -65 -6 -16 -23 -55 -38 -85 -15 -30 -27 -61 -27 -68 0
-6 -4 -12 -9 -12 -5 0 -12 -8 -15 -17 -5 -16 -20 -18 -143 -16 -148 2 -289 10
-338 18 -16 2 -52 7 -78 10 -60 7 -124 32 -131 52 -6 16 -66 17 -98 1 -16 -8
-18 -3 -18 31 0 23 -8 48 -19 62 l-19 23 64 69 c184 199 212 332 90 431 -82
66 -174 96 -303 96 -52 0 -53 1 -53 29 0 43 -26 96 -66 135 -30 29 -34 38 -25
54 26 49 98 151 138 196 37 41 43 54 43 92 0 29 -4 44 -12 43 -13 0 -153 -181
-182 -234 -8 -16 -26 -42 -39 -58 -23 -27 -23 -27 -66 -12 -24 8 -58 15 -76
15 -18 0 -52 -7 -76 -15 -43 -15 -43 -15 -66 12 -13 16 -31 42 -39 58 -29 53
-169 234 -181 234 -9 1 -13 -14 -13 -43z m-40 -613 c30 -88 75 -175 106 -204
l24 -23 -57 -22 c-252 -94 -232 -89 -253 -68 -41 42 -80 134 -80 190 0 48 4
58 36 94 54 59 121 97 180 99 16 1 25 -12 44 -66z m976 32 c22 -13 57 -42 77
-64 33 -37 37 -47 37 -95 0 -56 -39 -148 -80 -190 -21 -21 -1 -26 -253 68
l-57 22 24 23 c31 29 76 116 107 204 l23 69 41 -7 c22 -3 58 -17 81 -30z
m-595 -2092 c2 -337 0 -615 -3 -618 -10 -10 -16 61 -28 310 -17 355 -39 647
-54 728 -8 40 -31 117 -51 170 l-36 97 37 93 c20 50 43 99 51 109 8 9 20 40
28 70 7 29 17 67 21 83 15 58 32 -426 35 -1042z m118 983 c10 -42 25 -84 33
-94 9 -9 32 -59 52 -109 l37 -93 -36 -97 c-20 -53 -43 -130 -51 -170 -15 -81
-37 -373 -54 -728 -12 -250 -18 -320 -28 -310 -11 10 -3 1105 10 1407 6 153
13 276 15 274 2 -2 12 -38 22 -80z m-264 -423 c44 -110 52 -165 79 -567 l4
-59 -43 80 c-72 135 -96 207 -108 320 -10 94 -9 104 8 123 13 14 19 41 23 95
2 41 6 75 7 75 2 0 15 -30 30 -67z m421 -104 c16 -18 17 -29 7 -122 -12 -113
-36 -185 -108 -320 l-43 -80 4 59 c28 404 35 457 81 569 l28 70 6 -78 c5 -54
12 -84 25 -98z m-511 -391 c0 -253 -1 -268 -21 -294 -11 -15 -25 -29 -31 -31
-24 -8 -41 291 -24 444 20 182 21 191 44 220 l22 28 5 -50 c3 -28 6 -170 5
-317z m594 293 c30 -121 37 -410 15 -575 -7 -51 -17 -54 -48 -12 -20 26 -21
42 -22 274 0 136 1 278 4 315 4 65 5 67 23 51 11 -10 23 -33 28 -53z m-546
-476 c2 -248 1 -262 -20 -307 -11 -25 -32 -63 -46 -83 -31 -45 -33 -40 -42
103 l-7 103 40 37 c35 33 41 44 47 97 5 33 5 134 2 225 -5 153 -4 162 9 125
11 -31 15 -101 17 -300z m470 172 c-3 -89 -3 -189 2 -222 6 -53 12 -64 47 -97
l40 -37 -7 -103 c-9 -143 -11 -148 -42 -103 -67 98 -68 106 -67 382 1 178 5
265 15 297 7 26 14 46 15 46 2 0 0 -73 -3 -163z m-403 -322 c0 -292 -6 -338
-55 -435 l-25 -49 -24 22 c-14 13 -30 47 -40 85 l-16 63 40 58 c73 107 75 117
74 379 l0 234 22 -44 c22 -42 23 -52 24 -313z m356 123 c-1 -261 1 -272 74
-379 l40 -58 -16 -63 c-10 -38 -26 -72 -40 -85 l-24 -22 -25 49 c-49 97 -55
143 -55 432 0 255 1 270 22 313 12 25 23 45 23 45 1 0 1 -105 1 -232z m-312
64 c11 -21 19 -111 31 -327 l17 -298 -37 -113 c-20 -63 -41 -117 -46 -120 -11
-7 -45 49 -65 108 l-15 47 35 74 c20 41 40 98 46 127 5 29 10 160 10 291 0
132 2 239 5 239 2 0 11 -13 19 -28z m275 -572 c12 -30 32 -71 43 -91 20 -35
20 -39 4 -85 -20 -61 -53 -117 -65 -110 -5 3 -26 57 -46 120 l-37 113 17 298
c13 239 19 304 33 329 16 30 17 22 22 -244 6 -257 7 -279 29 -330z"/>
</g>
</svg>
