<?xml version="1.0" standalone="no"?>
<!DOCTYPE svg PUBLIC "-//W3C//DTD SVG 20010904//EN"
 "http://www.w3.org/TR/2001/REC-SVG-20010904/DTD/svg10.dtd">
<svg version="1.0" xmlns="http://www.w3.org/2000/svg"
 width="788.000000pt" height="585.000000pt" viewBox="0 0 788.000000 585.000000"
 preserveAspectRatio="xMidYMid meet">
<metadata>
Created by potrace 1.14, written by Peter Selinger 2001-2017
</metadata>
<g transform="translate(0.000000,585.000000) scale(0.100000,-0.100000)"
fill="#dc5797" stroke="none">
<path d="M5226 5825 c-37 -13 -66 -21 -66 -19 0 2 -26 -12 -58 -31 -32 -18
-78 -41 -102 -51 -43 -17 -54 -24 -85 -52 -8 -7 -15 -10 -15 -6 0 4 -8 -2 -17
-12 -10 -11 -34 -31 -53 -44 -19 -13 -44 -34 -56 -46 -12 -13 -24 -21 -28 -17
-3 3 -6 1 -6 -5 0 -7 -6 -12 -12 -12 -24 -1 -76 -58 -118 -131 -50 -84 -47
-104 16 -104 21 0 45 -4 52 -8 6 -5 12 -6 12 -2 0 3 13 -1 30 -10 16 -8 51
-15 79 -15 27 0 60 -4 73 -9 13 -5 26 -9 31 -10 4 0 20 -7 36 -15 16 -9 30
-13 33 -11 2 2 17 -7 32 -20 16 -14 32 -25 35 -25 3 0 19 -11 35 -25 16 -14
25 -25 21 -25 -5 0 -2 -6 7 -12 28 -23 97 -126 102 -152 3 -14 8 -31 13 -38 7
-12 9 -18 16 -53 2 -8 6 -17 9 -21 4 -3 4 -12 1 -20 -3 -8 -2 -25 1 -38 5 -22
10 -23 63 -20 57 4 133 11 143 14 8 3 112 0 140 -3 14 -2 39 -10 55 -18 29
-15 64 -15 66 -1 0 4 3 19 5 35 2 15 6 39 8 55 2 15 5 27 6 27 1 0 4 13 6 30
3 16 9 32 14 35 16 10 29 248 14 272 -3 4 -1 8 5 8 14 0 7 38 -30 158 -12 39
-26 72 -30 72 -5 0 -11 22 -15 50 -4 27 -13 55 -20 61 -8 6 -14 17 -14 24 0 7
-19 50 -43 97 -79 155 -88 160 -239 164 -68 1 -101 -3 -152 -21z"/>
<path d="M5645 5781 c-5 -10 10 -49 24 -61 17 -14 83 -146 84 -167 0 -7 4 -13
7 -13 4 0 10 -19 14 -42 4 -22 13 -53 21 -67 35 -65 51 -147 49 -252 -1 -102
-22 -239 -35 -239 -6 0 -21 -51 -33 -111 -2 -8 -6 -21 -9 -29 -17 -46 -17 -90
0 -105 51 -44 80 -73 103 -105 27 -40 28 -40 75 -95 19 -22 35 -46 35 -52 0
-7 5 -13 11 -13 5 0 7 -4 4 -10 -3 -5 -2 -10 3 -10 5 0 17 -18 27 -40 10 -23
25 -40 34 -40 9 0 27 -7 39 -16 12 -8 34 -13 50 -11 74 12 102 20 102 27 0 5
14 11 30 15 17 4 30 11 30 17 0 6 3 9 6 5 3 -3 11 -1 18 4 46 39 60 49 67 49
4 0 11 10 14 21 5 16 9 18 15 9 6 -9 10 -7 15 9 3 11 10 21 15 21 10 0 70 102
70 120 0 7 11 25 25 42 14 16 25 37 25 47 0 9 5 22 11 28 6 6 13 38 16 71 5
52 3 64 -18 93 -13 19 -25 41 -27 49 -2 8 -8 17 -13 18 -5 2 -7 8 -3 13 3 5 0
9 -5 9 -6 0 -11 6 -11 13 0 8 -9 24 -20 37 -11 13 -20 27 -20 31 0 4 -11 20
-25 34 -14 14 -23 25 -20 25 9 0 -28 53 -54 78 -13 12 -21 22 -17 22 4 0 1 7
-6 15 -28 31 -39 45 -34 45 2 0 -36 41 -85 92 -49 50 -91 100 -95 110 -3 10
-10 18 -15 18 -5 0 -9 7 -9 15 0 8 -5 15 -10 15 -6 0 -33 21 -60 48 -27 26
-59 56 -72 68 -28 26 -88 57 -88 47 0 -5 -6 -1 -13 7 -21 27 -94 64 -147 74
-3 1 -9 4 -15 7 -21 14 -73 20 -80 10z"/>
<path d="M54 5760 c-10 -11 -27 -29 -38 -39 -17 -19 -17 -22 -1 -71 9 -28 24
-54 31 -57 8 -3 36 1 62 8 26 7 50 12 55 11 4 -1 7 2 7 8 0 5 10 18 22 30 14
13 22 34 24 59 2 39 1 40 -46 55 -65 21 -93 20 -116 -4z"/>
<path d="M267 5713 c-4 -3 -7 -13 -7 -22 0 -44 -94 -142 -121 -126 -5 4 -9 1
-9 -4 0 -6 -7 -11 -15 -11 -15 0 -22 -29 -7 -31 4 0 18 -2 31 -5 13 -2 29 0
36 6 6 5 15 7 18 3 4 -3 7 -1 7 5 0 6 10 14 22 18 12 4 35 18 50 33 15 14 34
32 43 39 22 19 23 80 2 94 -15 10 -42 10 -50 1z"/>
<path d="M389 5674 c-1 -2 -3 -8 -4 -14 -1 -5 -3 -11 -5 -12 -1 -2 -3 -11 -5
-21 -5 -26 -92 -105 -143 -129 -47 -23 -58 -33 -42 -43 11 -7 113 29 138 48 6
5 12 6 12 3 0 -8 19 7 66 53 43 43 52 74 29 98 -17 16 -43 26 -46 17z"/>
<path d="M515 5620 c-4 -6 -11 -7 -17 -4 -6 4 -8 2 -4 -4 3 -5 3 -12 -2 -14
-4 -1 -20 -23 -34 -48 -20 -34 -40 -52 -85 -75 -32 -16 -61 -34 -65 -40 -4 -5
-8 -7 -8 -2 0 10 -50 -23 -50 -33 0 -10 36 -5 90 11 48 14 130 52 130 60 0 4
18 25 40 48 22 22 40 44 41 49 0 4 2 14 4 23 3 19 -31 44 -40 29z"/>
<path d="M605 5574 c-11 -8 -19 -17 -17 -19 7 -14 -4 -31 -68 -95 -38 -38 -76
-70 -85 -70 -24 0 -29 -2 -50 -16 -11 -8 -27 -14 -37 -14 -24 0 -30 -14 -15
-34 12 -16 21 -17 92 -7 43 6 82 16 86 22 3 6 9 10 13 9 17 -5 107 62 126 92
11 18 20 29 20 23 1 -22 29 42 30 67 0 22 -6 29 -27 34 -16 4 -33 10 -38 15
-6 4 -19 1 -30 -7z"/>
<path d="M720 5458 c-36 -57 -93 -114 -125 -124 -11 -4 -22 -10 -25 -13 -9
-13 -130 -52 -140 -46 -23 14 -8 -26 15 -41 19 -12 38 -15 78 -10 63 7 154 33
162 46 3 6 15 10 26 10 10 0 19 5 19 11 0 5 5 7 10 4 6 -3 10 -2 10 4 0 5 8
12 18 15 27 9 84 121 76 151 -3 14 -10 26 -15 26 -5 1 -13 2 -18 3 -5 0 -13 4
-17 9 -18 18 -43 3 -74 -45z"/>
<path d="M894 5433 c-11 -38 -50 -108 -72 -130 -31 -32 -102 -76 -127 -80 -10
-2 -22 -8 -25 -13 -6 -10 -55 -22 -87 -21 -36 1 -27 -22 20 -48 124 -69 111
-65 180 -47 95 26 161 50 169 61 4 5 8 6 8 2 0 -11 45 35 57 59 6 10 9 36 7
57 -2 20 0 37 5 37 13 0 0 44 -16 53 -7 4 -13 13 -13 20 0 7 -23 25 -50 40
-46 26 -51 27 -56 10z"/>
<path d="M1076 5273 c1 -21 -3 -44 -8 -50 -6 -7 -8 -13 -4 -13 9 0 -18 -51
-43 -79 -13 -15 -21 -19 -21 -10 0 9 -3 10 -8 4 -10 -14 -62 -38 -87 -40 -11
-1 -42 -7 -70 -14 -27 -6 -63 -12 -78 -13 -47 -4 -54 -24 -21 -57 16 -15 38
-33 50 -39 26 -14 243 -10 252 5 4 6 17 13 30 17 12 4 22 12 22 17 0 6 5 7 10
4 6 -3 10 -1 10 4 0 6 6 11 13 11 8 0 20 11 27 25 7 14 17 25 21 25 23 0 36
122 16 148 -5 6 -6 12 -1 12 5 0 -7 10 -26 21 -19 12 -42 30 -51 40 -25 29
-35 23 -33 -18z"/>
<path d="M4538 5232 c-10 -2 -18 -8 -18 -13 0 -6 -4 -8 -8 -5 -21 13 -95 -86
-107 -144 -4 -19 -11 -40 -16 -46 -5 -6 -10 -23 -11 -38 -1 -14 -5 -26 -9 -26
-9 0 -20 -79 -26 -190 -3 -52 -9 -97 -13 -100 -12 -7 -12 -194 0 -226 8 -21
15 -25 34 -20 66 16 127 20 301 20 226 -1 321 -8 340 -24 8 -7 15 -10 15 -6 0
3 10 2 23 -3 34 -13 49 11 52 82 1 34 6 73 9 87 4 14 8 30 10 35 6 25 38 75
55 87 17 12 20 25 18 92 -1 42 -7 80 -13 84 -6 4 -14 17 -18 30 -4 12 -12 22
-17 22 -6 0 -8 4 -4 9 7 12 -15 61 -28 61 -6 0 -8 3 -4 6 9 9 -36 60 -89 102
-15 12 -24 22 -19 22 6 0 -9 11 -31 24 -47 27 -131 49 -189 51 -22 0 -45 4
-52 8 -17 11 -157 26 -185 19z"/>
<path d="M1253 5171 c-5 -3 -10 -22 -12 -41 -3 -40 -35 -96 -68 -123 -13 -10
-29 -24 -36 -31 -6 -7 -33 -25 -59 -40 -39 -23 -62 -28 -125 -30 -43 -2 -81
-4 -85 -5 -13 -2 -9 -31 4 -31 6 0 8 -3 5 -7 -11 -11 48 -41 95 -49 53 -8 246
-6 261 3 6 4 23 7 37 8 33 2 95 30 120 55 41 41 76 140 50 140 -6 0 -9 4 -6 9
3 4 -5 13 -18 19 -22 10 -47 30 -126 103 -16 14 -32 23 -37 20z"/>
<path d="M1479 4937 c-11 -12 -22 -32 -26 -46 -8 -34 -62 -86 -103 -99 -46
-15 -85 -20 -205 -27 -151 -8 -163 -11 -158 -40 3 -13 14 -32 24 -41 10 -9 19
-22 19 -28 0 -25 39 -35 121 -31 107 5 126 6 142 4 72 -5 186 7 219 23 22 11
43 17 46 14 3 -3 16 1 29 9 13 9 23 12 23 8 0 -5 4 -3 8 2 4 6 18 18 32 26 33
21 38 65 9 74 -11 4 -18 9 -15 12 2 3 -8 18 -22 34 -15 17 -34 43 -43 58 -19
36 -48 65 -66 67 -7 1 -23 -7 -34 -19z"/>
<path d="M6645 4730 c-9 -16 -13 -30 -9 -30 3 0 -1 -11 -10 -25 -9 -14 -13
-25 -9 -25 5 0 3 -4 -3 -8 -6 -4 -37 -52 -68 -107 -55 -96 -103 -155 -125
-155 -6 0 -11 -4 -11 -9 0 -5 -10 -13 -22 -17 -13 -4 -25 -10 -28 -13 -6 -7
-147 -81 -155 -81 -57 1 -49 -12 60 -98 74 -57 112 -92 100 -92 -13 0 51 -44
150 -102 89 -53 192 -90 227 -82 10 2 28 7 41 10 12 3 27 6 32 7 6 2 16 6 23
10 6 5 12 6 12 2 0 -3 12 1 28 9 32 17 112 93 112 106 0 6 6 10 14 10 8 0 24
14 36 30 12 17 19 30 15 30 -3 0 1 13 10 30 23 44 25 163 2 187 -9 11 -17 23
-17 28 0 4 -11 18 -25 31 -14 13 -25 26 -25 29 0 4 -6 12 -12 20 -7 7 -40 43
-73 80 -33 36 -89 97 -125 135 -36 37 -75 80 -87 94 -28 34 -39 33 -58 -4z"/>
<path d="M1672 4671 c-40 -38 -176 -81 -273 -85 -41 -2 -74 -5 -74 -6 0 -1
-12 -3 -27 -4 -16 -1 -28 2 -28 7 0 4 -4 5 -10 2 -5 -3 -41 -7 -78 -9 -38 -1
-73 -6 -79 -9 -14 -9 1 -67 19 -79 7 -4 9 -8 4 -8 -5 0 1 -9 13 -19 12 -11 21
-23 19 -28 -2 -4 29 -11 67 -15 97 -9 355 -8 355 2 0 5 15 12 33 15 17 4 41
12 52 18 11 6 22 12 25 12 52 13 100 50 100 78 0 20 -38 89 -52 95 -5 2 -6 8
-2 13 3 5 0 9 -5 9 -6 0 -11 6 -11 14 0 27 -17 26 -48 -3z"/>
<path d="M1804 4469 c-12 -4 -25 -12 -29 -18 -3 -6 -11 -9 -16 -6 -5 4 -9 1
-9 -4 0 -6 -9 -11 -20 -11 -11 0 -35 -9 -54 -19 -19 -11 -37 -17 -40 -14 -3 4
-6 1 -6 -5 0 -6 -15 -14 -32 -18 -42 -9 -328 -11 -328 -2 0 3 -8 5 -17 3 -10
-2 -21 -4 -24 -4 -16 -2 -14 -51 3 -82 10 -18 18 -39 18 -46 0 -7 5 -13 11
-13 5 0 8 -4 4 -10 -7 -12 33 -38 67 -42 15 -2 29 -6 32 -8 7 -7 237 -3 271 5
17 4 40 7 53 8 12 1 22 4 22 9 0 4 7 5 15 2 8 -4 15 -1 15 6 0 6 5 8 10 5 6
-3 10 -1 10 4 0 6 6 11 13 11 8 0 24 9 37 20 12 11 25 18 29 16 9 -4 36 27 39
48 2 10 -4 28 -12 41 -9 13 -18 43 -22 67 -9 59 -15 67 -40 57z"/>
<path d="M4341 4364 c-24 -21 -25 -22 -11 -78 7 -31 17 -56 22 -56 5 0 6 -5 3
-10 -4 -6 -2 -25 4 -43 5 -17 13 -77 16 -132 4 -55 13 -113 19 -130 13 -31 31
-105 28 -117 -4 -18 41 -17 77 2 23 11 41 17 41 13 0 -5 4 -3 8 3 4 7 23 13
42 15 19 2 40 5 45 8 14 8 37 12 55 11 50 -2 128 5 136 12 3 3 22 2 42 -2 20
-5 82 -12 137 -15 55 -4 102 -8 103 -10 2 -2 17 1 33 7 36 12 36 20 -8 128 -6
16 -11 56 -17 155 -3 33 -11 83 -19 110 -7 28 -12 56 -10 62 6 18 -25 47 -56
51 -14 2 -28 7 -31 12 -6 10 -220 21 -460 24 -165 1 -175 0 -199 -20z"/>
<path d="M7149 4228 c0 -12 -4 -28 -12 -63 -1 -5 -6 -16 -10 -22 -5 -7 -6 -13
-2 -13 11 0 -28 -65 -54 -90 -14 -14 -37 -40 -50 -58 -13 -18 -26 -30 -28 -28
-3 2 -21 -12 -41 -33 -37 -36 -79 -61 -116 -68 -32 -6 -48 -24 -35 -39 6 -8
16 -14 21 -14 6 0 24 -10 41 -22 18 -13 34 -23 37 -24 33 -4 89 -27 93 -37 3
-7 31 -19 63 -26 33 -7 64 -17 69 -22 6 -4 36 -9 66 -10 31 -1 66 -7 80 -12
13 -6 38 -11 54 -13 96 -7 162 -14 175 -17 74 -18 210 -28 210 -15 0 4 4 8 9
8 5 0 25 7 45 15 20 8 37 14 38 13 5 -4 54 47 55 57 3 17 10 39 18 58 4 11 2
29 -5 45 -8 15 -14 30 -14 34 -1 4 -9 16 -18 28 -10 11 -15 20 -12 20 18 0
-75 74 -138 110 -40 23 -97 57 -127 75 -44 28 -136 66 -186 78 -10 2 -44 23
-109 66 -16 11 -33 18 -37 15 -4 -2 -10 0 -14 6 -9 14 -65 12 -66 -2z"/>
<path d="M1818 4187 c-35 -19 -79 -37 -98 -41 -19 -3 -46 -9 -60 -12 -21 -4
-194 -13 -290 -14 -14 0 -31 -4 -39 -9 -12 -8 -12 -11 0 -23 8 -8 23 -32 34
-54 17 -34 38 -56 55 -59 3 -1 23 -4 45 -8 22 -4 58 -10 80 -13 22 -4 46 -7
53 -8 29 -5 155 14 168 25 8 6 14 8 14 3 0 -5 4 -3 8 4 5 7 22 14 39 16 31 4
72 26 107 58 14 12 17 24 12 45 -4 15 -8 37 -10 48 -8 40 -11 50 -23 62 -17
18 -24 17 -95 -20z"/>
<path d="M1915 3982 c-28 -15 -52 -29 -55 -32 -3 -3 -12 -6 -20 -7 -8 -1 -46
-11 -85 -21 -71 -20 -145 -22 -269 -7 -42 5 -61 3 -67 -6 -9 -16 -4 -80 8 -88
5 -3 15 -21 22 -38 8 -18 17 -33 22 -33 5 0 9 -7 9 -15 0 -16 36 -52 47 -47 3
2 9 -2 14 -9 16 -27 378 -16 399 12 3 4 27 14 53 23 67 23 96 53 76 81 -4 6
-10 30 -14 55 -4 25 -11 49 -16 55 -5 5 -9 17 -9 27 0 10 -5 18 -12 18 -6 0
-9 3 -5 6 6 6 -3 17 -33 41 -12 9 -25 6 -65 -15z"/>
<path d="M4767 3813 c-2 -1 -25 -4 -52 -7 -51 -5 -91 -20 -155 -57 -67 -40
-77 -54 -79 -119 -1 -33 2 -66 6 -73 4 -6 9 -25 10 -42 3 -50 12 -95 20 -108
4 -6 8 -16 10 -22 8 -37 13 -54 27 -87 9 -21 16 -48 16 -60 0 -13 7 -33 15
-44 8 -12 11 -24 8 -28 -3 -3 -2 -6 4 -6 6 0 16 -13 21 -30 6 -16 26 -39 44
-50 35 -21 98 -27 98 -9 0 5 4 8 9 5 5 -4 11 -3 13 1 5 13 62 50 88 58 14 4
31 12 38 18 7 6 40 11 72 13 32 1 64 5 71 10 24 15 41 16 188 16 135 -1 145 1
161 21 19 23 20 60 1 127 -12 46 -16 57 -47 125 -10 22 -17 43 -16 47 1 3 -5
12 -13 18 -8 7 -15 19 -15 26 0 8 -5 14 -11 14 -5 0 -8 4 -4 9 3 5 1 12 -5 16
-5 3 -15 26 -21 51 -6 24 -16 44 -21 44 -5 0 -6 5 -3 10 3 6 2 10 -4 10 -5 0
-13 10 -17 22 -15 48 -39 60 -119 64 -42 2 -82 7 -88 11 -11 7 -244 13 -250 6z"/>
<path d="M2063 3692 c-13 -2 -23 -8 -23 -13 0 -6 -4 -8 -9 -4 -5 3 -12 1 -15
-4 -12 -19 -186 -67 -186 -51 0 4 -15 6 -32 4 -18 -1 -84 -3 -145 -4 l-113 -2
0 -35 c0 -19 7 -47 15 -63 9 -17 12 -30 8 -30 -5 0 -3 -4 3 -8 12 -7 54 -124
54 -149 0 -7 3 -13 8 -14 31 -4 76 -8 130 -10 34 -1 62 -6 62 -10 0 -4 10 -6
23 -3 12 2 44 7 72 10 27 3 53 10 57 17 4 7 8 8 8 3 0 -5 6 -4 13 1 14 12 69
30 111 37 26 5 61 27 78 51 4 5 0 20 -8 32 -8 13 -12 23 -9 23 3 0 -3 17 -13
38 -11 20 -23 55 -27 77 -8 38 -9 50 -13 86 -2 20 -18 26 -49 21z"/>
<path d="M2178 3338 c-16 -5 -28 -14 -28 -19 0 -5 -11 -9 -23 -9 -13 0 -46 -7
-73 -15 -45 -14 -89 -25 -187 -45 -20 -4 -40 -4 -43 1 -5 9 -152 4 -162 -5 -3
-4 -7 -14 -9 -24 -5 -24 18 -132 28 -132 4 0 11 -16 15 -35 3 -19 11 -38 16
-41 7 -4 7 -9 0 -13 -6 -4 -6 -18 2 -41 8 -26 16 -34 31 -33 89 10 124 17 205
43 51 17 102 30 112 30 10 0 18 4 18 9 0 5 14 7 30 5 18 -3 30 -1 30 6 0 6 6
10 13 9 15 -2 61 15 119 44 37 19 43 26 41 51 -1 16 -7 32 -13 36 -7 4 -12 11
-12 16 0 11 -13 39 -33 74 -8 14 -10 26 -5 28 6 2 6 8 0 15 -6 7 -18 22 -28
33 -14 19 -21 20 -44 12z"/>
<path d="M5239 3136 c-2 -2 -33 -6 -69 -9 -36 -3 -98 -14 -137 -25 -40 -12
-73 -19 -73 -16 0 3 -10 -2 -22 -10 -12 -9 -29 -16 -36 -16 -52 0 -182 -101
-182 -141 0 -25 27 -127 40 -151 6 -10 10 -25 10 -33 0 -8 4 -15 8 -15 5 0 9
-6 10 -12 1 -16 9 -53 17 -79 4 -10 11 -19 16 -19 6 0 7 -4 4 -10 -3 -5 -1
-10 4 -10 6 0 11 -7 11 -15 0 -7 6 -18 13 -22 7 -4 30 -34 51 -65 22 -32 43
-58 46 -58 4 0 10 -9 13 -20 4 -15 14 -20 36 -20 17 0 31 3 31 8 0 4 16 16 36
27 19 10 46 28 59 39 13 12 38 32 55 46 17 14 38 32 47 40 9 8 17 13 17 11 1
-6 47 9 101 35 28 13 79 31 115 41 36 9 67 20 70 23 3 3 19 6 35 7 27 2 70 9
70 13 0 1 17 3 39 5 41 5 71 32 55 51 -5 6 -6 14 -2 17 3 4 2 7 -3 7 -5 0 -20
20 -34 45 -14 25 -28 45 -32 45 -5 0 -8 6 -8 13 0 7 -9 23 -20 35 -11 12 -20
28 -20 36 0 8 -13 35 -30 59 -16 25 -30 49 -30 55 0 6 -21 22 -47 37 -40 22
-65 28 -143 32 -52 3 -100 9 -106 14 -6 5 -13 7 -15 5z"/>
<path d="M2310 3036 c-14 -6 -27 -13 -30 -16 -3 -3 -11 -6 -17 -7 -7 -2 -19
-4 -25 -5 -7 -2 -15 -5 -18 -8 -7 -8 -92 -31 -112 -31 -10 0 -18 -4 -18 -8 0
-4 -6 -8 -12 -9 -7 0 -23 -3 -35 -6 -21 -6 -32 -8 -73 -18 -8 -1 -17 -6 -20
-10 -9 -12 -118 -36 -130 -28 -19 11 -50 -21 -50 -51 0 -40 89 -253 113 -270
7 -5 121 22 219 50 30 9 68 26 68 31 0 3 12 7 26 8 14 1 40 8 57 16 72 33 112
49 120 48 4 -1 7 3 7 8 0 5 3 9 8 9 18 -3 31 3 56 26 29 26 33 47 13 67 -19
20 -48 68 -42 68 4 0 -1 7 -9 16 -9 8 -16 24 -16 35 0 10 -5 19 -11 19 -5 0
-8 4 -4 9 7 12 -14 59 -29 64 -6 2 -22 -1 -36 -7z"/>
<path d="M2465 2720 c-10 -11 -23 -20 -29 -20 -14 0 -120 -43 -126 -52 -3 -3
-19 -10 -35 -14 -17 -4 -55 -18 -85 -31 -30 -14 -100 -36 -155 -50 -114 -30
-130 -43 -106 -85 9 -15 19 -28 24 -28 4 0 7 -11 7 -23 0 -13 9 -34 20 -47 11
-13 20 -29 20 -36 0 -28 27 -40 86 -38 66 3 66 3 199 38 53 14 105 26 116 26
10 0 19 5 19 11 0 5 4 8 9 5 5 -4 11 -3 13 1 1 5 28 21 58 37 30 16 63 38 73
49 9 11 17 18 17 15 0 -4 14 7 30 22 35 33 37 48 10 81 -11 13 -24 29 -28 35
-5 5 -22 30 -37 55 -47 73 -69 84 -100 49z"/>
<path d="M5631 2609 c-25 -5 -47 -12 -50 -17 -3 -4 -22 -8 -41 -7 -43 1 -158
-32 -177 -51 -8 -8 -21 -14 -29 -14 -8 0 -14 -5 -14 -12 0 -6 -3 -9 -6 -5 -4
3 -12 1 -20 -6 -25 -22 -40 -32 -54 -35 -8 -2 -23 -13 -34 -25 -12 -12 -39
-33 -61 -47 -71 -44 -108 -96 -85 -122 6 -7 20 -24 31 -38 11 -14 30 -36 42
-50 34 -38 68 -96 60 -103 -3 -4 -1 -7 6 -7 7 0 9 -4 6 -10 -3 -5 -2 -10 3
-10 9 0 36 -53 33 -65 -1 -3 3 -11 9 -18 6 -6 21 -25 33 -42 23 -31 46 -42 56
-28 20 29 147 93 196 99 22 3 61 18 87 34 25 16 49 26 52 23 3 -4 6 -1 6 5 0
7 9 12 19 12 11 0 27 7 35 16 9 8 16 12 16 8 0 -3 6 -1 14 5 8 6 31 14 52 17
42 5 121 31 142 47 6 5 12 6 12 2 0 -4 7 -2 15 5 21 17 19 54 -5 75 -11 10
-20 26 -20 36 0 10 -7 24 -15 32 -8 8 -16 21 -17 28 -3 13 -13 28 -35 53 -7 8
-9 16 -6 20 4 3 2 6 -4 6 -10 0 -38 49 -35 63 1 4 -2 7 -7 7 -5 0 -12 14 -16
30 -4 17 -11 30 -16 30 -5 0 -9 7 -9 15 0 8 -9 24 -20 35 -22 22 -70 25 -149
9z"/>
<path d="M2645 2457 c-11 -6 -26 -17 -33 -24 -7 -7 -17 -13 -21 -13 -4 0 -18
-10 -31 -22 -14 -13 -25 -21 -25 -20 0 8 -55 -22 -55 -30 0 -5 -4 -6 -10 -3
-5 3 -10 2 -10 -2 0 -9 -62 -35 -77 -32 -4 1 -11 0 -15 -1 -10 -3 -16 -4 -63
-14 -22 -4 -43 -12 -46 -18 -3 -5 -25 -11 -47 -14 -72 -6 -106 -15 -114 -27
-6 -9 -8 -8 -8 3 0 13 -1 13 -10 0 -6 -9 -5 -17 3 -22 7 -4 9 -8 4 -8 -4 0 2
-18 13 -40 11 -22 18 -40 15 -40 -8 0 11 -23 71 -86 46 -48 53 -52 85 -47 19
3 42 9 52 15 10 5 39 11 64 14 25 2 52 9 59 15 8 6 14 8 14 3 0 -5 4 -4 8 1 4
6 34 19 67 30 33 10 63 24 67 30 4 5 8 6 8 1 0 -5 6 -3 14 3 8 7 26 14 40 17
59 10 166 96 166 132 0 10 -20 46 -45 80 -25 34 -45 65 -45 69 -1 16 -39 54
-57 58 -11 1 -28 -2 -38 -8z"/>
<path d="M2830 2170 c-16 -17 -30 -28 -30 -25 0 4 -7 -1 -16 -9 -8 -9 -22 -16
-30 -16 -8 0 -14 -4 -14 -9 0 -5 -16 -15 -35 -21 -19 -6 -35 -16 -35 -21 0 -6
-4 -8 -10 -4 -5 3 -26 -2 -47 -11 -21 -9 -44 -19 -50 -20 -7 -2 -19 -6 -25 -7
-7 -2 -25 -9 -39 -15 -29 -12 -108 -36 -124 -37 -43 -5 -96 -18 -100 -25 -5
-8 11 -52 33 -90 5 -8 17 -31 28 -50 21 -41 27 -49 77 -101 29 -30 41 -37 55
-31 9 5 41 15 70 22 28 6 52 15 52 19 0 4 10 7 22 8 11 1 25 8 29 15 4 7 11 9
15 5 4 -4 18 0 31 8 13 9 23 13 23 10 0 -4 7 1 16 9 8 9 22 16 30 16 8 0 14 5
14 11 0 5 4 8 9 4 5 -3 12 -1 15 4 3 5 29 21 58 36 28 15 58 33 65 41 8 8 18
14 23 14 4 0 19 19 33 43 l25 42 -26 50 c-15 28 -30 53 -35 56 -4 3 -10 16
-12 30 -3 13 -9 25 -15 27 -5 2 -10 10 -10 17 0 8 -9 19 -20 25 -17 9 -25 6
-50 -20z"/>
<path d="M5986 2113 c-3 -4 -14 -8 -23 -9 -9 -2 -30 -9 -47 -17 -72 -34 -106
-46 -106 -38 0 9 -79 -27 -90 -40 -3 -3 -22 -12 -42 -20 -21 -7 -38 -16 -38
-19 0 -4 -18 -13 -40 -20 -22 -7 -40 -17 -40 -21 0 -4 -13 -5 -30 -3 -17 3
-30 1 -30 -5 0 -6 -7 -11 -15 -11 -21 0 -55 -20 -82 -48 -15 -15 -22 -33 -21
-57 1 -19 4 -35 8 -35 4 0 13 -13 20 -30 7 -16 16 -30 20 -30 4 0 13 -20 20
-45 7 -25 16 -45 20 -45 4 0 7 -6 8 -12 0 -7 3 -24 7 -38 4 -14 8 -41 10 -60
2 -19 4 -35 5 -35 2 0 12 -43 24 -100 4 -19 29 -60 45 -72 17 -13 80 -11 157
5 22 5 49 7 60 5 10 -3 83 -4 162 -3 78 1 142 -2 142 -7 0 -4 22 -8 48 -9 27
0 57 -4 68 -9 23 -10 19 -9 69 -19 22 -4 54 -16 71 -27 46 -28 57 -10 50 83
-2 40 -5 73 -6 73 -1 0 -4 27 -6 60 -5 64 -59 272 -75 291 -6 7 -12 25 -15 40
-3 16 -8 31 -12 34 -4 3 -18 27 -32 54 -13 27 -38 64 -55 82 -16 18 -37 42
-45 55 -8 12 -23 29 -32 37 -9 9 -15 19 -13 23 6 9 -19 30 -42 34 -10 2 -18 4
-18 5 0 6 -53 9 -59 3z"/>
<path d="M3000 1891 c-11 -22 -30 -42 -42 -46 -40 -11 -128 -58 -128 -67 0 -5
-4 -6 -10 -3 -5 3 -10 1 -10 -4 0 -6 -5 -11 -11 -11 -6 0 -36 -15 -68 -34 -31
-18 -80 -39 -109 -46 -29 -6 -52 -16 -52 -21 0 -4 -7 -6 -15 -3 -8 4 -26 -1
-40 -10 l-25 -16 27 -47 c14 -26 32 -54 40 -61 7 -7 13 -17 13 -22 0 -5 6 -15
13 -22 7 -7 26 -34 41 -60 34 -59 47 -69 88 -70 85 -1 276 70 310 117 4 6 8 6
8 1 0 -5 9 1 20 14 11 13 20 20 20 15 0 -4 9 4 21 19 11 14 25 26 31 26 12 0
88 78 88 91 0 4 6 14 14 21 26 26 46 78 41 101 -5 20 -53 59 -70 57 -18 -1
-25 1 -37 13 -33 31 -127 107 -132 107 -3 0 -15 -18 -26 -39z"/>
<path d="M3353 1773 c-13 -9 -23 -22 -23 -31 0 -23 -83 -162 -97 -162 -6 0
-15 -9 -18 -20 -3 -11 -12 -20 -18 -20 -7 0 -20 -8 -29 -17 -65 -67 -201 -167
-212 -156 -3 4 -6 2 -6 -3 0 -5 -8 -10 -17 -11 -26 -3 -135 -29 -176 -42 -22
-8 -39 -21 -43 -34 -8 -24 -6 -33 5 -30 4 1 31 4 59 7 29 3 57 8 62 11 6 3 10
2 10 -4 0 -12 -21 -18 -125 -37 -39 -7 -49 -17 -40 -43 7 -25 53 -31 95 -14 8
4 22 7 30 8 84 9 268 80 335 130 17 12 41 26 55 30 14 4 33 17 43 28 9 11 17
16 17 11 0 -5 9 6 20 24 11 19 29 43 40 55 11 11 20 24 20 29 0 4 16 24 35 43
33 35 92 143 100 185 2 11 7 26 12 33 12 20 12 37 0 37 -7 0 -22 3 -33 6 -18
5 -24 0 -33 -28 -5 -18 -12 -45 -15 -60 -2 -14 -10 -37 -17 -50 -7 -12 -14
-25 -14 -28 -1 -18 -29 -69 -34 -65 -4 2 -14 -5 -22 -16 -8 -12 -23 -31 -34
-43 -11 -12 -29 -34 -39 -49 -11 -14 -23 -24 -27 -21 -4 2 -11 -2 -16 -9 -9
-15 -165 -107 -181 -107 -7 0 -12 -5 -12 -11 0 -5 -4 -8 -9 -5 -5 4 -11 2 -13
-4 -3 -11 -117 -34 -126 -26 -3 3 4 6 15 6 11 0 23 3 27 7 4 4 19 9 33 11 14
2 39 10 54 18 16 8 32 14 35 13 4 0 10 3 13 8 3 6 38 29 77 52 67 39 130 93
181 156 26 31 102 182 108 213 6 31 -23 44 -52 25z"/>
<path d="M3519 1755 c-2 -6 -4 -13 -14 -50 -9 -33 -71 -145 -89 -160 -7 -5
-24 -31 -39 -56 -30 -53 -136 -169 -154 -169 -16 0 -83 -40 -83 -50 0 -4 -16
-11 -35 -14 -19 -4 -35 -11 -35 -16 0 -5 -10 -12 -22 -16 -13 -3 -41 -15 -63
-24 -22 -10 -51 -20 -65 -23 -20 -4 -154 -38 -208 -53 -10 -3 -9 -10 4 -33 15
-26 22 -29 57 -25 23 2 43 8 46 13 4 5 18 11 31 13 14 2 35 10 48 16 12 7 27
10 32 7 6 -4 25 2 43 13 17 10 51 25 75 32 23 7 42 17 42 22 0 4 3 7 8 6 12
-3 62 25 62 34 0 5 5 6 10 3 6 -3 10 -2 10 3 0 8 42 32 55 32 20 0 -5 -20 -60
-49 -36 -19 -65 -39 -65 -43 0 -4 -3 -7 -7 -6 -8 2 -64 -23 -73 -32 -3 -3 -12
-6 -20 -8 -8 -1 -24 -6 -35 -11 -11 -5 -40 -13 -65 -19 -25 -6 -58 -16 -75
-23 -16 -7 -36 -13 -44 -15 -26 -5 -35 -22 -21 -39 10 -13 23 -15 49 -10 20 4
41 8 48 9 7 1 16 5 19 9 4 4 17 7 30 7 25 0 156 39 164 49 11 13 112 62 118
56 16 -16 -109 -85 -190 -105 -27 -7 -48 -15 -48 -19 0 -4 -15 -7 -32 -8 -30
-1 -73 -9 -73 -13 0 -1 -8 -3 -18 -5 -23 -4 -30 -11 -33 -29 -3 -21 46 -38 81
-28 17 5 47 7 68 6 20 -1 37 1 37 5 0 4 19 14 43 21 23 7 80 31 127 53 47 23
86 40 88 39 1 -1 8 2 15 8 50 43 76 64 100 83 27 21 163 154 192 187 7 8 36
57 65 108 29 50 56 92 60 92 8 0 18 22 21 45 1 6 8 19 15 30 22 31 17 71 -10
89 -23 14 -26 14 -40 0 -9 -8 -16 -23 -16 -32 0 -9 -7 -26 -15 -36 -8 -11 -15
-26 -15 -34 0 -22 -101 -192 -110 -187 -5 3 -12 -4 -15 -16 -7 -22 -155 -173
-194 -199 -13 -8 -29 -20 -35 -26 -24 -23 -55 -34 -62 -23 -3 6 -1 16 5 22 6
6 11 8 11 3 0 -9 59 31 81 56 9 10 19 15 23 11 3 -3 6 -1 6 5 0 7 7 12 15 12
8 0 15 3 15 8 0 4 18 26 39 50 21 23 49 56 61 73 13 16 35 42 49 57 28 29 98
162 106 200 11 52 14 63 20 72 8 12 -33 33 -51 26 -8 -3 -17 1 -20 9 -6 14
-42 22 -45 10z m50 -92 c-7 -21 -14 -40 -14 -43 -13 -49 -25 -71 -57 -102 -21
-20 -38 -41 -38 -46 0 -5 -10 -20 -22 -34 -13 -13 -39 -44 -58 -67 -73 -89
-113 -122 -128 -105 -4 4 0 9 8 12 8 3 27 17 42 32 15 15 29 26 32 23 2 -2 7
4 10 15 4 11 17 31 29 45 12 15 33 40 47 58 14 17 38 45 53 63 33 37 65 79 65
86 0 8 22 93 29 110 12 33 14 -11 2 -47z"/>
<path d="M3762 1640 c-11 -12 -22 -33 -25 -48 -3 -15 -15 -37 -26 -49 -12 -12
-21 -27 -21 -34 0 -14 -39 -79 -56 -94 -6 -5 -26 -36 -43 -67 -18 -32 -36 -58
-41 -58 -5 0 -12 -9 -15 -20 -3 -11 -12 -20 -18 -20 -7 0 -28 -17 -48 -38 -47
-48 -93 -89 -149 -132 -25 -19 -51 -40 -58 -47 -13 -12 -28 -17 -45 -14 -4 1
-15 -5 -23 -14 -9 -8 -22 -15 -30 -15 -8 0 -14 -5 -14 -11 0 -5 -4 -8 -9 -4
-5 3 -12 1 -16 -5 -3 -5 -13 -10 -21 -10 -8 0 -34 -9 -57 -20 -52 -25 -81 -32
-127 -32 -49 0 -55 -18 -16 -45 28 -18 43 -21 92 -18 32 3 60 9 63 13 3 5 20
12 36 16 17 4 51 18 76 31 26 13 49 21 53 18 3 -4 6 -1 6 5 0 7 6 12 14 12 13
0 123 69 158 100 48 42 65 59 83 83 11 15 25 27 32 27 6 0 15 9 18 20 4 11 11
18 16 15 5 -4 9 -2 9 4 0 5 13 23 30 39 16 16 46 58 66 93 21 35 43 68 51 72
7 4 13 16 13 25 0 9 9 31 20 47 11 17 20 36 20 43 0 7 8 22 18 32 20 22 29
104 13 114 -5 4 -19 -3 -29 -14z"/>
<path d="M3829 1598 c-4 -13 -10 -45 -11 -55 -1 -7 -5 -13 -9 -13 -10 0 -59
-82 -59 -98 0 -13 -57 -108 -80 -133 -8 -9 -26 -33 -40 -54 -36 -52 -177 -198
-230 -237 -25 -18 -62 -42 -82 -53 -21 -11 -38 -23 -38 -26 0 -7 -50 -23 -62
-21 -5 1 -8 -2 -8 -7 0 -5 -15 -14 -32 -21 -18 -7 -53 -22 -78 -33 -40 -18
-72 -24 -122 -26 -15 -1 -16 -5 -6 -26 6 -14 14 -25 18 -25 3 0 22 -14 41 -30
31 -28 39 -31 88 -27 29 3 57 10 61 17 4 6 13 10 21 9 8 -1 27 3 42 9 16 7 33
12 38 12 5 0 9 4 9 9 0 5 11 12 25 15 14 4 25 11 25 17 0 6 5 7 10 4 6 -3 10
-2 10 4 0 5 8 12 18 15 10 3 37 24 61 46 24 23 48 42 54 43 6 1 21 12 34 24
12 12 31 24 42 28 11 3 23 14 26 23 3 9 20 28 38 41 18 14 44 40 58 58 38 54
61 82 106 132 24 25 43 50 43 54 0 5 18 45 39 90 55 116 58 159 10 206 -25 25
-56 40 -60 29z"/>
<path d="M3940 1475 c-7 -8 -10 -15 -6 -15 4 0 -1 -11 -10 -25 -9 -14 -13 -25
-10 -25 4 0 0 -13 -9 -30 -8 -16 -15 -32 -15 -35 1 -17 -46 -90 -123 -188 -74
-94 -81 -101 -176 -187 -84 -76 -91 -82 -91 -72 0 6 -18 -7 -39 -27 -55 -51
-71 -63 -71 -55 0 4 -9 -3 -20 -16 -11 -13 -20 -19 -20 -14 0 5 -4 4 -8 -1
-10 -14 -117 -67 -128 -63 -5 1 -20 -4 -34 -12 -14 -7 -26 -13 -27 -12 -2 1
-12 2 -22 2 -21 0 -39 -32 -20 -39 6 -2 19 -11 28 -20 60 -57 95 -67 156 -42
17 7 42 15 58 18 15 3 30 10 33 14 3 5 14 9 25 9 10 0 19 4 19 9 0 5 15 15 33
22 31 13 36 15 55 18 5 0 18 9 30 19 44 36 66 52 73 52 4 0 11 9 14 21 4 11 9
19 11 16 3 -2 43 33 89 79 46 46 89 84 95 84 5 0 16 13 25 29 8 16 18 31 23
33 4 1 34 48 66 103 132 226 134 232 89 287 -26 31 -73 78 -78 78 -2 0 -8 -7
-15 -15z"/>
<path d="M4060 1281 c-5 -21 -16 -41 -23 -44 -6 -3 -25 -31 -42 -64 -16 -32
-32 -60 -35 -63 -3 -3 -19 -27 -35 -55 -15 -27 -41 -63 -57 -79 -15 -17 -28
-34 -28 -38 0 -5 -4 -7 -9 -4 -4 3 -13 -6 -20 -21 -6 -14 -14 -23 -17 -21 -2
3 -47 -36 -98 -86 -119 -115 -111 -109 -192 -142 -38 -15 -71 -30 -74 -33 -7
-8 -84 -44 -89 -41 -2 1 -7 -3 -10 -8 -4 -6 -19 -12 -34 -14 -48 -7 -31 -21
53 -44 98 -27 81 -26 135 -10 45 14 73 4 44 -15 -25 -16 10 -28 65 -22 28 3
61 6 74 6 12 1 22 4 22 7 0 3 24 12 53 19 50 13 131 65 206 131 19 16 38 30
43 30 11 0 58 50 58 61 0 5 6 9 13 9 7 0 21 16 31 35 11 19 23 35 27 35 4 0
24 30 45 68 20 37 43 71 51 75 17 10 17 88 0 146 l-14 44 -21 -35 c-12 -20
-22 -43 -22 -51 0 -9 -24 -40 -52 -69 -29 -30 -73 -78 -98 -108 -24 -30 -51
-62 -60 -72 -8 -9 -35 -40 -60 -68 -39 -45 -87 -81 -105 -80 -3 0 -11 -4 -18
-10 -44 -38 -61 -50 -67 -50 -4 0 -17 -9 -30 -20 -13 -11 -29 -20 -37 -20 -7
0 -13 -4 -13 -9 0 -8 -52 -31 -71 -31 -28 0 15 36 45 38 5 0 12 5 15 10 3 5
32 24 64 42 32 18 61 39 64 46 3 8 9 12 13 9 5 -3 11 -1 15 5 4 6 11 8 16 5 5
-4 9 -1 9 6 0 7 3 10 6 6 7 -6 104 93 104 106 0 5 5 5 10 2 6 -3 10 -2 10 4 0
5 10 21 23 35 12 14 31 37 42 51 11 15 42 50 69 78 27 28 62 73 78 99 26 42
32 56 42 108 2 8 -3 27 -11 43 -7 15 -11 27 -8 27 6 0 -24 49 -42 68 -22 23
-42 13 -53 -27z"/>
<path d="M5790 1287 c-4 -4 -48 -12 -115 -20 -23 -3 -85 -38 -85 -48 0 -4 -9
-9 -19 -12 -29 -7 -41 -67 -36 -177 2 -52 0 -99 -4 -105 -4 -5 -7 -33 -7 -60
1 -41 11 -69 56 -153 30 -56 62 -104 70 -107 8 -3 29 -17 45 -31 17 -14 44
-33 60 -41 17 -9 35 -22 40 -30 6 -7 19 -15 30 -17 12 -2 43 -17 70 -33 55
-32 144 -63 181 -63 26 0 74 19 74 30 0 4 24 32 54 63 30 32 56 69 59 86 4 17
15 39 26 50 10 10 22 34 26 52 4 19 10 39 13 44 4 6 7 15 8 20 21 124 26 145
37 145 6 0 7 3 4 7 -4 3 -3 11 2 17 5 6 12 47 16 91 4 44 9 87 10 95 3 19 -15
60 -37 84 -10 11 -18 23 -18 28 0 6 -35 19 -92 34 -5 1 -9 2 -10 4 -5 3 -30 7
-88 14 -30 3 -68 11 -85 16 -16 5 -85 8 -153 7 -67 -1 -123 2 -125 6 -1 5 -5
6 -7 4z"/>
<path d="M4242 928 c-6 -13 -13 -32 -16 -43 -3 -11 -19 -36 -36 -55 -16 -19
-30 -38 -30 -41 0 -4 -18 -26 -40 -49 -22 -23 -40 -47 -40 -52 0 -5 -4 -7 -8
-4 -5 3 -36 -21 -70 -52 -33 -31 -77 -70 -96 -87 -20 -16 -42 -35 -49 -41 -10
-9 -25 -14 -79 -29 -5 -2 -9 -3 -10 -5 -2 -1 -11 -3 -22 -5 -36 -7 -37 -21 -1
-41 19 -10 35 -23 35 -29 0 -11 201 -126 240 -137 14 -4 43 -16 65 -27 38 -18
78 -15 95 7 3 4 28 24 55 44 28 20 57 48 64 61 7 14 24 31 37 38 21 11 29 23
22 32 -2 1 8 20 22 42 14 22 23 40 22 40 -7 0 11 60 21 73 6 8 11 28 12 45 0
18 4 37 7 43 19 30 0 164 -24 164 -10 0 -88 77 -88 88 0 8 -57 42 -69 42 -4 0
-13 -10 -19 -22z"/>
<path d="M5410 757 c-14 -6 -27 -15 -30 -18 -7 -10 -64 -19 -145 -24 -141 -9
-198 -22 -226 -51 -21 -22 -22 -32 -22 -158 0 -128 15 -226 34 -226 5 0 8 -3
7 -8 -1 -4 8 -27 19 -52 12 -25 21 -49 21 -54 0 -5 4 -12 9 -15 5 -3 19 -32
32 -63 20 -49 28 -59 63 -73 47 -18 164 -12 211 11 15 8 27 12 27 8 0 -4 6 -2
13 4 6 6 30 13 52 17 61 10 155 39 155 46 0 4 15 11 33 14 17 4 50 17 72 28
22 12 42 21 45 22 18 3 103 66 142 107 26 26 51 48 57 48 5 0 11 9 14 20 4 15
-2 24 -24 35 -16 9 -30 14 -32 13 -1 -2 -69 35 -152 81 -154 88 -211 134 -234
189 -7 18 -18 32 -23 32 -5 0 -6 5 -3 10 3 6 1 10 -4 10 -6 0 -11 4 -11 10 0
19 -35 50 -55 49 -11 0 -31 -6 -45 -12z"/>
<path d="M4509 750 c-11 -6 -15 -22 -14 -50 1 -22 -2 -40 -7 -40 -4 0 -7 -3
-6 -7 4 -16 -13 -112 -21 -117 -8 -5 -23 -63 -18 -69 2 -2 -44 -79 -53 -87 -3
-3 -18 -23 -35 -45 -39 -53 -51 -65 -59 -58 -3 4 -6 1 -6 -5 0 -6 -20 -25 -44
-42 -31 -22 -42 -37 -39 -50 5 -20 70 -55 122 -66 8 -1 17 -7 20 -12 7 -10 46
-25 74 -28 9 -1 18 -2 20 -4 3 -2 25 -7 72 -14 102 -15 115 -18 115 -27 0 -5
3 -8 8 -8 4 1 9 0 12 -1 8 -3 68 -6 253 -15 149 -6 167 -5 167 9 0 9 -4 16
-10 16 -5 0 -12 17 -16 38 -4 20 -19 64 -34 97 -35 76 -44 98 -42 108 1 4 -2
7 -6 7 -19 0 -33 97 -35 246 -3 137 -6 169 -19 163 -12 -5 -135 -6 -143 -1 -5
4 -14 7 -20 8 -5 1 -28 5 -49 8 -22 4 -45 11 -53 17 -7 6 -13 8 -13 4 0 -3
-15 3 -34 14 -36 23 -62 26 -87 11z"/>
</g>
</svg>
