<?xml version="1.0" standalone="no"?>
<!DOCTYPE svg PUBLIC "-//W3C//DTD SVG 20010904//EN"
 "http://www.w3.org/TR/2001/REC-SVG-20010904/DTD/svg10.dtd">
<svg version="1.0" xmlns="http://www.w3.org/2000/svg"
 width="598.000000pt" height="435.000000pt" viewBox="0 0 598.000000 435.000000"
 preserveAspectRatio="xMidYMid meet">
<metadata>
Created by potrace 1.14, written by Peter Selinger 2001-2017
</metadata>
<g transform="translate(0.000000,435.000000) scale(0.100000,-0.100000)"
fill="#046307" stroke="none">
<path d="M2795 4305 c-40 -41 -72 -105 -90 -178 -6 -23 -9 -23 -87 -19 -61 4
-82 1 -89 -9 -6 -11 -30 -3 -111 38 -57 29 -125 59 -153 67 -27 8 -68 22 -90
31 -109 47 -277 79 -373 72 -108 -9 -266 -44 -337 -75 -58 -25 -228 -132 -239
-151 -10 -15 5 -41 24 -41 9 0 34 11 54 25 20 14 39 25 41 25 2 0 31 16 65 36
72 42 123 58 252 78 114 19 230 20 314 5 73 -13 182 -47 210 -66 12 -8 64 -29
115 -47 52 -17 107 -40 122 -51 34 -22 131 -55 163 -55 44 0 54 -9 41 -38 -6
-15 -24 -40 -40 -57 -69 -69 -100 -152 -99 -255 1 -84 19 -125 79 -181 88 -83
86 -81 67 -123 -11 -21 -25 -36 -36 -36 -24 0 -36 -27 -50 -115 l-12 -76 -23
38 c-13 21 -26 53 -29 71 -4 19 -17 40 -30 48 -12 9 -39 47 -58 85 -39 76
-173 249 -214 277 -38 25 -80 69 -166 173 -42 52 -94 114 -114 138 -53 62 -78
102 -86 134 -4 17 -13 27 -24 26 -10 0 -12 -3 -4 -6 18 -7 15 -20 -9 -44 -17
-17 -23 -19 -30 -8 -7 11 -9 11 -9 -3 0 -9 8 -19 18 -23 9 -3 40 -35 67 -72
28 -36 70 -89 94 -116 24 -28 64 -78 88 -111 24 -32 57 -73 73 -89 17 -17 30
-36 30 -43 0 -10 25 -49 125 -194 13 -19 47 -57 75 -85 27 -27 50 -57 50 -65
0 -9 16 -53 35 -99 19 -45 35 -88 35 -94 0 -7 16 -43 36 -81 l35 -70 -20 -49
c-12 -27 -21 -55 -21 -61 0 -6 -12 -19 -26 -30 -26 -18 -27 -18 -113 7 -47 14
-114 32 -147 41 -66 17 -657 272 -809 348 -49 25 -133 60 -185 78 -52 18 -130
50 -172 72 -223 111 -477 174 -658 164 -82 -4 -106 -8 -213 -39 -58 -16 -122
-74 -131 -118 -9 -47 -7 -157 3 -163 4 -3 11 -19 14 -36 4 -18 32 -55 74 -98
37 -37 97 -108 133 -156 82 -112 165 -204 248 -274 59 -50 72 -56 120 -60 38
-3 55 -9 59 -21 20 -62 87 -183 114 -203 17 -12 52 -42 77 -64 48 -42 200
-124 230 -124 9 0 40 -9 69 -20 28 -11 89 -22 135 -26 46 -3 96 -13 112 -20
20 -10 67 -14 147 -14 68 0 120 -4 124 -10 9 -15 122 -12 153 4 15 7 45 17 67
20 21 4 57 17 78 29 22 12 50 28 63 35 13 7 31 23 41 35 10 13 46 42 80 65 33
23 70 53 81 66 10 14 32 28 48 32 16 4 36 12 44 19 8 7 35 19 60 26 25 7 52
19 62 26 19 17 24 11 33 -42 11 -64 15 -75 31 -75 8 0 17 6 20 14 3 8 12 12
21 9 22 -9 -33 -50 -77 -59 -92 -18 -140 -57 -190 -152 -39 -74 -141 -375
-144 -422 0 -14 -28 -63 -62 -110 -66 -92 -92 -133 -124 -195 -11 -22 -34 -60
-50 -85 -16 -25 -47 -76 -69 -115 -22 -38 -52 -83 -66 -98 -15 -16 -24 -32
-20 -35 3 -4 10 0 14 7 15 23 46 8 46 -22 -1 -15 2 -27 6 -27 9 0 19 27 19 52
0 12 9 30 21 42 20 20 93 140 136 221 11 22 29 56 41 76 11 20 26 47 34 60 7
13 16 26 19 29 3 3 13 19 22 35 9 17 27 42 41 57 14 15 26 30 26 33 0 3 9 14
20 25 l20 20 0 -37 c0 -28 3 -34 10 -23 5 8 10 29 10 45 0 17 7 62 16 100 47
200 95 389 99 393 3 3 39 7 80 9 l75 4 0 -30 c0 -16 4 -32 8 -35 5 -3 33 4 63
15 62 24 117 20 157 -11 13 -11 43 -25 66 -31 l41 -12 -60 -12 c-105 -21 -168
-51 -224 -108 -28 -28 -55 -65 -61 -82 -7 -22 -25 -38 -65 -59 -51 -26 -105
-81 -105 -106 0 -6 -9 -36 -19 -68 -14 -40 -23 -110 -30 -237 -6 -99 -16 -246
-22 -327 -6 -81 -8 -152 -5 -157 3 -5 -15 -33 -40 -63 -37 -43 -118 -161 -179
-260 -24 -40 -133 -198 -170 -248 -23 -31 -58 -85 -78 -121 -26 -46 -45 -67
-67 -76 -16 -6 -30 -17 -30 -24 0 -10 3 -10 12 -1 7 7 18 12 25 12 19 0 50
-31 56 -55 3 -12 5 -5 6 17 1 40 33 103 56 112 8 3 15 12 15 21 0 8 18 35 41
59 22 25 68 86 102 138 114 169 129 192 223 318 51 69 95 137 99 152 l7 28 19
-24 c10 -13 19 -30 19 -38 0 -7 5 -20 11 -28 8 -11 9 -7 3 15 -4 17 -9 77 -9
135 -1 58 -5 220 -10 361 -4 140 -5 267 -1 282 4 18 13 27 27 27 11 0 33 7 48
15 l29 14 -1 -104 c-1 -57 2 -107 6 -111 4 -4 18 -2 31 4 57 26 206 37 496 37
290 0 439 -11 496 -37 13 -6 27 -8 31 -4 4 4 7 54 6 111 l-1 104 29 -14 c15
-8 37 -15 48 -15 14 0 23 -9 27 -27 4 -15 3 -142 -1 -282 -5 -141 -9 -303 -10
-361 0 -58 -5 -118 -9 -135 -6 -22 -5 -26 3 -15 6 8 11 21 11 28 0 8 9 25 19
38 l19 24 7 -28 c4 -15 48 -83 99 -152 94 -126 109 -149 223 -318 34 -52 80
-113 102 -138 23 -24 41 -51 41 -59 0 -9 7 -18 15 -21 23 -9 55 -72 56 -112 1
-22 3 -29 6 -17 6 24 37 55 56 55 7 0 18 -5 25 -12 9 -9 12 -9 12 1 0 7 -14
18 -30 24 -22 9 -41 30 -67 76 -20 36 -55 90 -78 121 -37 50 -146 208 -170
248 -61 99 -142 217 -179 260 -25 30 -43 58 -40 63 3 5 1 76 -5 157 -6 81 -16
228 -22 327 -7 127 -16 197 -30 237 -10 32 -19 62 -19 68 0 25 -54 80 -105
106 -40 21 -58 37 -65 59 -6 17 -33 54 -61 82 -56 57 -119 87 -224 108 l-60
12 41 12 c23 6 53 20 66 31 40 31 95 35 157 11 30 -11 58 -18 63 -15 4 3 8 19
8 35 l0 30 75 -4 c41 -2 77 -6 80 -9 4 -4 52 -193 99 -393 9 -38 16 -83 16
-100 0 -16 5 -37 10 -45 7 -11 10 -5 10 23 l0 37 20 -20 c11 -11 20 -22 20
-25 0 -3 12 -18 26 -33 14 -15 32 -40 41 -57 9 -16 19 -32 22 -35 3 -3 12 -16
19 -29 8 -13 23 -40 34 -60 12 -20 30 -54 41 -76 43 -81 116 -201 136 -221 12
-12 21 -30 21 -42 0 -25 10 -52 19 -52 4 0 7 12 6 27 0 30 31 45 46 22 4 -7
11 -11 14 -7 4 3 -5 19 -20 35 -14 15 -44 60 -66 98 -22 39 -53 90 -69 115
-16 25 -39 63 -50 85 -32 62 -58 103 -124 195 -34 47 -62 96 -62 110 -3 47
-105 348 -144 422 -50 95 -98 134 -190 152 -44 9 -99 50 -77 59 9 3 18 -1 21
-9 3 -8 12 -14 20 -14 16 0 20 11 31 75 9 53 14 59 33 42 10 -7 37 -19 62 -26
25 -7 52 -19 60 -26 8 -7 28 -15 44 -19 16 -4 38 -18 48 -32 11 -13 48 -43 81
-66 34 -23 70 -52 80 -65 10 -12 28 -28 41 -35 13 -7 41 -23 63 -35 21 -12 57
-25 78 -29 22 -3 52 -13 67 -20 31 -16 144 -19 153 -4 4 6 56 10 124 10 80 0
127 4 147 14 16 7 66 17 112 20 46 4 107 15 135 26 29 11 60 20 69 20 30 0
182 82 230 124 25 22 60 52 77 64 27 20 94 141 114 203 4 12 21 18 59 21 48 4
61 10 120 60 83 70 166 162 248 274 36 48 96 119 133 156 42 43 70 80 74 98 3
17 10 33 14 36 10 6 12 116 3 163 -17 86 -152 147 -344 157 -181 10 -435 -53
-658 -164 -42 -22 -120 -54 -172 -72 -52 -18 -135 -53 -185 -78 -152 -76 -743
-331 -809 -348 -33 -9 -100 -27 -147 -41 -86 -25 -87 -25 -113 -7 -14 11 -26
24 -26 30 0 6 -9 34 -21 61 l-20 49 35 70 c20 38 36 74 36 81 0 6 16 49 35 94
19 46 35 90 35 99 0 8 23 38 50 65 28 28 62 66 75 85 100 145 125 184 125 194
0 7 13 26 30 43 16 16 49 57 73 89 24 33 64 83 88 111 24 27 67 80 94 116 28
37 58 69 68 72 9 4 17 14 17 23 0 14 -2 14 -9 3 -7 -11 -13 -9 -30 8 -24 24
-27 37 -8 44 7 3 5 6 -5 6 -11 1 -20 -9 -24 -26 -8 -32 -33 -72 -86 -134 -20
-24 -72 -86 -114 -138 -86 -104 -128 -148 -166 -173 -41 -28 -175 -201 -214
-277 -19 -38 -46 -76 -58 -85 -13 -8 -26 -29 -30 -48 -3 -18 -16 -50 -29 -71
l-23 -38 -12 76 c-14 88 -26 115 -50 115 -11 0 -25 15 -36 36 -19 42 -21 40
67 123 60 56 78 97 79 181 1 103 -30 186 -99 255 -16 17 -34 42 -40 57 -13 29
-3 38 41 38 32 0 129 33 163 55 15 11 70 34 122 51 51 18 103 39 115 47 28 19
137 53 210 66 84 15 200 14 314 -5 129 -20 180 -36 252 -78 34 -20 63 -36 65
-36 2 0 21 -11 41 -25 20 -14 45 -25 54 -25 19 0 34 26 24 41 -11 19 -181 126
-239 151 -71 31 -229 66 -337 75 -96 7 -264 -25 -373 -72 -22 -9 -62 -23 -90
-31 -27 -8 -96 -38 -153 -67 -81 -41 -105 -49 -111 -38 -7 10 -28 13 -89 9
l-80 -5 -18 60 c-21 70 -64 139 -106 168 -33 24 -49 18 -25 -9 13 -14 17 -37
17 -89 0 -100 -6 -104 -160 -104 -154 0 -160 3 -160 106 0 52 4 76 15 85 8 7
15 16 15 21 0 20 -23 7 -65 -36z m-100 -459 c18 -25 20 -41 18 -144 -2 -134
-16 -186 -55 -210 -27 -16 -28 -15 -59 13 -69 67 -72 75 -58 178 7 50 18 99
26 108 7 8 13 19 13 23 0 4 12 25 28 46 24 35 29 38 47 26 10 -7 28 -25 40
-40z m705 -30 c0 -5 6 -17 13 -25 8 -9 19 -58 26 -108 12 -88 11 -94 -7 -120
-91 -127 -145 -101 -164 78 -14 133 -5 184 38 227 l35 35 29 -39 c16 -22 30
-43 30 -48z m-3138 -430 c56 -14 127 -46 193 -87 22 -13 56 -31 75 -40 19 -8
51 -23 70 -31 51 -24 96 -26 280 -17 132 6 168 5 179 -6 11 -11 10 -15 -10
-26 -17 -8 -80 -12 -222 -10 -221 1 -281 14 -364 72 -59 41 -172 96 -216 104
-39 8 -63 28 -52 45 8 13 4 13 67 -4z m5523 4 c11 -17 -13 -37 -52 -45 -44 -8
-157 -63 -216 -104 -83 -58 -143 -71 -364 -72 -142 -2 -205 2 -222 10 -20 11
-21 15 -10 26 11 11 47 12 179 6 184 -9 229 -7 280 17 19 8 51 23 70 31 19 9
58 30 85 46 56 34 133 68 185 83 48 14 58 14 65 2z m-4462 -291 c100 -51 241
-191 264 -264 8 -25 20 -34 79 -56 38 -14 76 -28 84 -32 24 -10 237 -27 347
-27 115 0 188 -21 230 -67 13 -14 27 -22 31 -19 3 4 0 11 -8 16 -12 7 -11 10
4 16 13 5 25 -1 42 -22 32 -39 46 -64 37 -65 -41 -7 -64 -5 -103 8 -36 13
-103 16 -320 19 -151 1 -392 5 -535 9 -247 7 -331 1 -330 -21 1 -5 28 -12 60
-16 33 -4 98 -13 143 -20 70 -9 85 -9 92 2 7 11 59 16 222 23 233 10 512 -7
638 -38 36 -8 82 -18 103 -22 27 -4 37 -11 37 -24 0 -27 -11 -29 -76 -14 -127
31 -247 45 -439 52 -234 9 -376 7 -384 -5 -11 -17 -71 -24 -119 -13 -26 5 -95
15 -154 21 -60 6 -141 19 -182 30 -72 18 -75 18 -112 0 -22 -10 -58 -20 -81
-23 -36 -4 -44 -2 -57 18 -15 22 -14 23 32 29 26 3 61 13 77 22 20 11 54 16
101 15 47 0 78 5 90 14 15 11 59 14 196 15 l177 0 15 51 c9 28 13 55 10 60
-11 18 -84 29 -190 29 -153 0 -206 -20 -222 -84 -8 -31 -9 -31 -66 -27 -43 2
-73 12 -115 36 -85 49 -149 60 -278 47 -59 -6 -117 -12 -127 -14 -29 -5 -30
19 -2 37 21 14 55 17 188 19 l163 1 70 -41 c94 -56 115 -60 149 -29 30 28 31
61 2 58 -11 -1 -36 10 -57 23 -21 13 -44 24 -51 24 -25 1 -98 39 -148 79 -29
23 -58 41 -66 41 -22 0 -64 30 -64 46 0 30 27 24 123 -27 13 -7 41 -6 90 5 40
8 101 20 137 26 73 13 133 43 155 77 19 29 44 29 98 2z m3432 -2 c22 -34 82
-64 155 -77 36 -6 97 -18 137 -26 49 -11 77 -12 90 -5 96 51 123 57 123 27 0
-16 -42 -46 -64 -46 -8 0 -37 -18 -66 -41 -50 -40 -123 -78 -148 -79 -7 0 -30
-11 -51 -24 -21 -13 -46 -24 -57 -23 -29 3 -28 -30 2 -58 34 -31 55 -27 149
29 l70 41 163 -1 c133 -2 167 -5 188 -19 28 -18 27 -42 -2 -37 -10 2 -68 8
-127 14 -129 13 -193 2 -278 -47 -42 -24 -72 -34 -115 -36 -57 -4 -58 -4 -66
27 -16 64 -69 84 -222 84 -106 0 -179 -11 -190 -29 -3 -5 1 -32 10 -60 l15
-51 177 0 c137 -1 181 -4 196 -15 12 -9 43 -14 90 -14 47 1 81 -4 101 -15 17
-9 51 -19 77 -22 46 -6 47 -7 32 -29 -13 -20 -21 -22 -57 -18 -23 3 -59 13
-81 23 -37 18 -40 18 -112 0 -41 -11 -122 -24 -182 -30 -59 -6 -128 -16 -154
-21 -48 -11 -108 -4 -119 13 -8 12 -150 14 -384 5 -192 -7 -312 -21 -439 -52
-65 -15 -76 -13 -76 14 0 13 10 20 38 24 20 4 66 14 102 22 126 31 405 48 638
38 163 -7 215 -12 222 -23 7 -11 22 -11 92 -2 45 7 109 16 141 20 32 4 58 11
58 17 0 22 -78 27 -326 20 -143 -4 -384 -8 -535 -9 -217 -3 -284 -6 -320 -19
-39 -13 -62 -15 -103 -8 -9 1 5 26 37 65 17 21 29 27 42 22 15 -6 16 -9 4 -16
-8 -5 -11 -12 -8 -16 4 -3 18 5 31 19 42 46 115 67 230 67 110 0 323 17 347
27 8 4 46 18 84 32 59 22 71 31 79 56 30 96 244 283 324 285 13 0 29 -10 38
-23z m-2331 -655 c12 -20 -16 -29 -106 -35 -101 -7 -130 2 -93 30 21 14 190
19 199 5z m1331 -5 c37 -28 8 -37 -93 -30 -90 6 -118 15 -106 35 9 14 178 9
199 -5z"/>
<path d="M1230 3053 c-50 -35 -116 -60 -167 -62 -63 -2 -154 -18 -165 -29 -12
-12 21 -37 77 -58 28 -10 79 -33 115 -50 51 -26 69 -30 84 -22 12 7 78 9 178
6 87 -3 158 -3 158 -1 0 2 -9 21 -19 42 -35 69 -178 191 -223 191 -7 0 -25 -8
-38 -17z"/>
<path d="M1562 2743 c-5 -10 -12 -33 -15 -50 l-6 -33 57 0 c32 0 63 -5 70 -12
15 -15 405 -17 532 -3 82 9 83 9 45 18 -22 5 -121 12 -220 17 -198 9 -274 17
-290 29 -11 9 -138 51 -154 51 -6 0 -14 -8 -19 -17z"/>
<path d="M4650 3041 c-60 -38 -137 -115 -161 -162 -10 -21 -19 -40 -19 -42 0
-2 71 -2 158 1 100 3 166 1 178 -6 15 -8 33 -4 84 22 36 17 88 40 115 50 56
21 89 46 77 58 -11 11 -102 27 -165 29 -51 2 -117 27 -167 62 -33 23 -47 21
-100 -12z"/>
<path d="M4320 2739 c-30 -10 -62 -23 -72 -28 -24 -14 -90 -21 -293 -31 -99
-5 -198 -12 -220 -17 -38 -9 -37 -9 45 -18 127 -14 517 -12 532 3 7 7 38 12
70 12 l58 0 -7 33 c-14 73 -23 77 -113 46z"/>
<path d="M2680 1419 c-58 -5 -128 -16 -157 -24 -43 -13 -52 -20 -57 -43 -24
-126 -28 -186 -24 -367 5 -281 14 -296 203 -333 113 -22 577 -22 690 0 118 23
150 39 177 90 21 40 23 58 26 243 4 181 0 241 -24 367 -5 24 -14 30 -57 43
-112 32 -523 44 -777 24z"/>
<path d="M2500 659 c0 -37 21 -130 39 -180 35 -91 71 -120 193 -149 148 -36
368 -36 516 0 122 29 158 58 193 149 22 58 45 179 36 188 -3 2 -15 -1 -27 -7
-43 -23 -177 -40 -365 -46 -255 -9 -474 11 -567 51 -12 5 -18 3 -18 -6z"/>
<path d="M2650 329 c1 -2 9 -33 19 -69 18 -64 19 -65 51 -62 61 6 120 -36 120
-87 0 -29 13 -33 54 -16 46 19 146 19 192 0 41 -17 54 -13 54 16 0 51 59 93
120 87 32 -3 33 -2 51 62 9 36 16 66 15 67 -2 2 -38 -7 -82 -19 -66 -18 -107
-21 -249 -22 -165 0 -193 3 -322 40 -13 3 -23 5 -23 3z"/>
</g>
</svg>
