<?xml version="1.0" standalone="no"?>
<!DOCTYPE svg PUBLIC "-//W3C//DTD SVG 20010904//EN"
 "http://www.w3.org/TR/2001/REC-SVG-20010904/DTD/svg10.dtd">
<svg version="1.0" xmlns="http://www.w3.org/2000/svg"
 width="250.000000pt" height="248.000000pt" viewBox="0 0 250.000000 248.000000"
 preserveAspectRatio="xMidYMid meet">
<metadata>
Created by potrace 1.14, written by Peter Selinger 2001-2017
</metadata>
<g transform="translate(0.000000,248.000000) scale(0.100000,-0.100000)"
fill="#e62b8b" stroke="none">
<path d="M1056 2447 c-7 -29 12 -117 62 -287 22 -74 45 -169 51 -210 16 -95
34 -132 82 -166 22 -15 39 -30 39 -34 0 -8 -224 -116 -262 -125 -19 -5 -37 0
-64 18 -65 42 -108 50 -218 44 -165 -9 -315 -54 -303 -90 6 -19 142 -20 278
-2 110 14 121 14 145 -1 14 -9 21 -20 17 -24 -4 -4 -89 -38 -188 -75 -99 -37
-224 -87 -278 -111 -194 -86 -346 -194 -387 -275 -38 -73 -19 -159 34 -159 21
0 200 82 428 196 92 46 171 84 175 84 10 -1 -10 -17 -221 -177 -249 -189 -309
-251 -262 -269 35 -14 216 111 436 301 138 119 225 180 271 190 38 8 70 -12
106 -66 l27 -40 -97 -95 c-113 -110 -201 -223 -241 -313 -69 -154 -73 -385 -6
-421 36 -19 295 127 419 237 94 82 155 178 176 277 l6 29 25 -24 c36 -34 82
-132 89 -192 4 -32 -2 -105 -14 -195 -34 -230 -27 -415 16 -429 31 -11 46 81
63 370 7 110 17 204 26 228 27 79 16 110 -94 251 -86 110 -85 108 -66 164 8
27 23 55 32 62 19 14 179 17 201 3 12 -8 19 -75 33 -328 28 -520 46 -734 63
-760 29 -43 104 -21 146 43 44 67 54 129 53 319 -1 172 -18 321 -63 560 -5 27
-8 52 -6 54 2 1 19 -14 37 -35 112 -130 272 -306 299 -328 37 -31 69 -34 69
-6 0 27 -71 112 -220 265 -69 72 -145 158 -169 193 -39 57 -43 71 -56 170 -8
59 -15 133 -15 166 l0 59 38 -7 c20 -3 74 -11 119 -18 92 -13 78 -18 186 72
36 30 125 91 198 134 182 108 263 186 195 186 -15 0 -97 -49 -205 -123 -276
-187 -314 -207 -386 -207 -53 0 -131 12 -140 22 -2 2 5 39 15 83 11 44 22 92
25 107 3 16 19 35 41 49 41 25 74 73 74 107 0 26 -29 82 -42 82 -24 0 -1 19
48 39 43 18 67 22 105 18 82 -10 167 -38 193 -64 26 -26 41 -14 24 19 -14 28
-57 45 -166 67 -107 21 -160 19 -250 -13 -42 -15 -51 -12 -114 37 -29 22 -39
39 -48 79 -18 87 -44 130 -131 221 -74 77 -89 88 -114 85 -32 -3 -47 -28 -17
-28 29 0 97 -54 146 -116 35 -45 45 -67 50 -109 3 -29 9 -60 12 -69 5 -12 0
-16 -18 -16 -50 0 -98 -84 -98 -172 0 -53 -1 -54 -65 -111 l-64 -57 -36 36
c-43 43 -67 93 -90 195 -89 379 -137 511 -159 426z m555 -357 c26 -14 24 -33
-6 -68 -23 -28 -79 -51 -91 -39 -11 11 18 87 39 102 25 18 32 18 58 5z m221
-137 c28 -25 22 -66 -13 -104 -30 -32 -32 -33 -45 -14 -20 27 -17 78 7 109 24
31 27 31 51 9z m-177 -107 c54 -32 83 -83 65 -116 -15 -28 -42 -12 -76 45 -25
43 -28 45 -74 45 -56 0 -80 7 -80 24 0 45 89 46 165 2z m-222 -116 c15 -14
-23 -58 -82 -98 -78 -52 -1255 -642 -1281 -642 -16 0 -20 6 -20 35 0 56 18 84
64 96 339 87 500 153 528 214 6 14 19 25 28 25 30 0 200 61 298 106 116 54
265 152 347 228 49 45 65 55 85 50 14 -3 29 -9 33 -14z m-223 -74 c0 -10 -142
-97 -226 -139 -167 -84 -319 -133 -381 -121 -45 9 -42 10 130 74 149 55 358
137 427 169 50 23 50 23 50 17z m458 -69 c20 -21 21 -25 8 -68 -52 -171 -41
-555 19 -733 12 -33 12 -42 -1 -60 -31 -44 -12 -217 47 -442 46 -174 46 -169
11 -204 -43 -42 -69 -40 -76 8 -14 90 -64 946 -73 1242 -5 174 -3 211 10 243
19 43 26 45 55 14z m-458 -134 l0 -57 -35 34 c-19 19 -35 37 -35 40 0 5 53 36
68 39 1 1 2 -25 2 -56z m-123 -45 c24 -28 59 -86 67 -115 5 -16 0 -26 -24 -43
l-30 -21 -65 65 c-37 36 -70 66 -76 66 -23 0 -5 22 39 44 59 31 64 31 89 4z
m668 -462 c42 -254 42 -284 2 -204 -43 86 -67 219 -74 409 -7 210 5 271 23
119 7 -58 29 -204 49 -324z m-1147 402 c-10 -33 -297 -146 -438 -172 l-35 -7
38 35 c56 50 210 124 292 140 93 19 148 20 143 4z m962 -104 l0 -34 -60 0
c-33 0 -60 3 -60 8 1 10 103 69 113 65 4 -2 7 -20 7 -39z m-424 -114 c29 -41
44 -52 80 -61 49 -13 67 -29 58 -52 -10 -26 -35 -28 -78 -6 -60 31 -135 90
-142 112 -6 18 20 57 38 57 4 0 24 -23 44 -50z m-181 -260 c28 -28 77 -65 110
-82 72 -36 95 -55 95 -79 0 -26 -49 -61 -74 -53 -86 25 -276 188 -276 236 0
16 9 33 21 42 29 20 57 5 124 -64z m-165 -206 c25 -25 68 -57 95 -71 71 -37
80 -53 41 -78 -22 -15 -27 -15 -58 1 -47 24 -144 102 -163 130 -12 18 -13 29
-5 44 17 31 42 24 90 -26z m959 -1 c43 -86 63 -174 63 -288 1 -60 -3 -126 -7
-145 -8 -35 -8 -35 -17 -10 -19 50 -58 227 -73 327 -21 143 -6 194 34 116z"/>
</g>
</svg>
