<?xml version="1.0" standalone="no"?>
<!DOCTYPE svg PUBLIC "-//W3C//DTD SVG 20010904//EN"
 "http://www.w3.org/TR/2001/REC-SVG-20010904/DTD/svg10.dtd">
<svg version="1.0" xmlns="http://www.w3.org/2000/svg"
 width="458.000000pt" height="486.000000pt" viewBox="0 0 458.000000 486.000000"
 preserveAspectRatio="xMidYMid meet">
<metadata>
Created by potrace 1.14, written by Peter Selinger 2001-2017
</metadata>
<g transform="translate(0.000000,486.000000) scale(0.100000,-0.100000)"
fill="#ac3a3a" stroke="none">
<path d="M2135 4755 c-71 -72 -105 -113 -105 -128 1 -29 36 -135 56 -165 12
-18 14 -37 9 -76 -3 -28 -7 -76 -8 -106 -1 -34 -9 -65 -19 -80 -10 -13 -18
-41 -18 -61 0 -35 -1 -37 -41 -42 -53 -7 -109 -60 -139 -130 -18 -40 -21 -65
-18 -123 4 -86 23 -119 85 -149 l41 -20 -27 -32 c-14 -17 -51 -48 -81 -68 -77
-52 -91 -59 -99 -48 -3 6 -40 35 -81 66 -41 31 -86 65 -100 75 -14 10 -36 25
-50 32 -14 7 -47 33 -74 57 -90 80 -163 124 -221 132 -33 5 -45 14 -75 54 -32
44 -38 48 -71 45 -33 -3 -39 0 -55 32 -37 70 -122 196 -150 221 -63 58 -92 58
-134 -1 -25 -35 -19 -50 17 -50 28 0 59 -29 168 -158 74 -88 84 -107 66 -125
-17 -17 -14 -23 17 -36 15 -7 54 -43 87 -81 42 -49 67 -69 84 -70 27 0 131
-59 176 -100 17 -15 46 -37 65 -51 19 -13 74 -54 123 -92 71 -56 87 -73 87
-95 0 -36 -9 -47 -44 -59 -17 -5 -43 -26 -60 -47 -26 -32 -29 -40 -19 -65 13
-36 7 -48 -76 -138 -101 -111 -138 -156 -145 -180 -4 -13 -11 -23 -16 -23 -5
0 -21 -20 -35 -44 -14 -23 -35 -52 -46 -62 -12 -10 -29 -35 -39 -55 -31 -60
-38 -63 -129 -43 -100 22 -152 11 -176 -37 -17 -31 -49 -49 -91 -49 -14 0 -35
-10 -48 -23 -39 -37 -66 -57 -77 -57 -14 0 -72 -58 -88 -88 -27 -51 -63 -185
-87 -327 -14 -82 -30 -156 -37 -164 -11 -13 -14 -283 -5 -406 3 -39 2 -40 -27
-37 -77 6 -234 6 -268 -1 -23 -5 -37 -14 -37 -24 0 -10 -6 -13 -16 -9 -9 3
-32 -1 -51 -11 -32 -15 -34 -19 -29 -52 3 -20 9 -59 12 -88 6 -46 9 -51 24
-43 10 5 30 30 44 55 28 48 57 61 184 85 30 5 58 12 63 16 6 3 21 -1 34 -10
32 -21 64 -20 100 4 17 11 40 20 52 20 46 0 60 30 68 136 8 118 28 249 54 359
50 215 61 274 61 345 0 65 3 80 20 95 19 17 26 18 68 6 25 -6 47 -13 47 -14 1
-1 15 -47 33 -102 17 -55 38 -120 47 -145 9 -24 17 -76 18 -115 3 -93 41 -174
103 -218 24 -17 44 -38 44 -48 0 -42 51 -124 90 -144 21 -11 29 -26 39 -70 8
-33 24 -69 40 -88 50 -57 83 -119 98 -181 16 -70 27 -86 59 -86 16 0 24 -6 24
-17 0 -23 71 -151 102 -183 13 -14 48 -46 77 -72 l55 -47 -27 -25 c-17 -16
-27 -36 -27 -53 0 -15 -6 -59 -14 -98 -8 -38 -20 -108 -25 -155 -6 -47 -14
-99 -17 -117 -5 -26 -1 -36 21 -57 22 -20 28 -38 35 -94 5 -38 13 -80 18 -93
6 -13 18 -50 28 -82 l19 -59 55 7 c30 3 63 8 73 11 20 6 23 24 5 24 -20 1 -58
37 -58 55 0 9 -9 53 -20 96 -15 59 -20 105 -18 172 3 90 3 92 28 92 21 0 26 6
32 40 4 22 7 82 5 134 -2 86 0 95 18 102 29 11 47 11 40 -1 -9 -15 13 -40 35
-40 9 0 34 -16 54 -35 24 -23 51 -37 77 -41 22 -4 42 -11 45 -15 3 -5 12 -9
20 -9 8 0 39 -11 67 -24 32 -15 73 -24 106 -25 30 -1 88 -8 128 -17 102 -21
154 -14 332 42 39 12 47 12 61 -1 9 -8 28 -15 42 -15 l25 0 7 -127 c6 -124 6
-129 -16 -146 -22 -19 -22 -19 -3 -34 11 -8 29 -12 40 -9 11 3 35 9 54 13 28
7 37 16 48 48 15 44 7 145 -23 273 -8 35 -12 72 -9 82 3 9 34 35 68 56 98 60
249 196 325 292 34 43 72 166 72 233 0 19 9 38 25 53 22 20 24 29 19 69 -4 25
-3 76 1 114 6 62 11 71 49 109 31 31 52 43 86 49 25 4 57 14 72 21 29 15 71
81 82 127 4 16 17 32 31 39 43 19 105 136 105 198 0 25 15 33 50 25 57 -12 58
-19 53 -197 -3 -97 -1 -192 6 -233 6 -38 16 -141 22 -227 11 -150 8 -207 -16
-348 -8 -41 26 -101 62 -110 13 -3 31 -12 40 -20 79 -66 85 -70 107 -64 62 15
264 -197 266 -278 0 -27 36 -42 52 -22 7 8 28 31 46 49 28 30 33 40 29 74 -4
43 -66 134 -116 171 -14 11 -30 23 -36 27 -69 53 -191 123 -213 123 -10 0 -23
5 -30 12 -15 15 -16 70 -1 85 6 6 13 61 16 122 5 99 3 116 -16 156 -25 54 -27
87 -5 120 20 31 21 70 6 230 -17 179 -42 317 -60 337 -12 15 -13 24 -2 63 11
38 10 48 -4 69 -22 34 -73 71 -126 92 -70 28 -77 39 -55 83 11 20 32 46 47 59
35 29 35 46 -1 157 -25 80 -32 92 -62 107 -48 25 -138 23 -201 -4 -60 -26 -43
-39 -145 117 -120 183 -309 403 -366 424 -21 8 -27 17 -27 40 0 29 -18 81 -31
91 -4 3 -8 14 -10 25 -2 11 -15 25 -27 31 -16 8 -19 13 -10 16 19 7 -22 49
-104 105 -37 26 -68 50 -68 53 0 4 34 57 75 119 41 61 75 115 75 119 0 11 99
142 185 247 50 61 65 86 65 111 0 36 16 56 63 81 42 21 42 20 28 37 -19 23
-12 38 64 127 119 141 129 150 164 158 19 3 36 11 38 18 2 6 -12 27 -31 48
-39 40 -46 41 -103 2 -31 -21 -125 -155 -164 -235 -18 -35 -21 -37 -58 -34
-34 3 -40 0 -59 -30 -11 -18 -35 -44 -52 -58 -53 -42 -88 -82 -137 -155 -26
-38 -81 -118 -123 -177 -41 -59 -101 -148 -134 -198 -58 -89 -85 -110 -121
-96 -28 10 -16 44 30 82 55 46 72 89 74 180 1 63 -2 75 -28 111 -42 57 -96 96
-144 102 -39 6 -42 8 -48 43 -3 20 -10 43 -16 50 -16 20 -33 102 -40 186 -4
61 -1 93 16 154 11 42 18 85 14 95 -11 29 -133 142 -189 174 -34 19 -65 29
-93 29 -40 0 -47 -5 -146 -105z m351 -89 c5 -13 -11 -52 -52 -128 -14 -27 -38
-37 -47 -20 -7 11 20 131 33 147 16 19 59 19 66 1z m-311 -46 c7 -19 19 -50
26 -67 11 -27 11 -35 0 -45 -14 -15 -18 -11 -77 80 -19 30 -31 58 -28 63 3 6
19 9 36 7 24 -2 33 -10 43 -38z m1091 -415 c9 -24 -51 -77 -83 -73 -39 5 -40
26 -1 43 19 7 40 21 48 29 16 20 29 20 36 1z m-720 -110 c20 -27 25 -41 19
-62 -21 -84 -86 -64 -102 31 -11 70 39 89 83 31z m-383 -16 c31 -36 32 -47 13
-94 -18 -43 -29 -43 -67 -6 -33 33 -35 47 -15 96 18 43 34 44 69 4z m-847
-240 c3 -6 1 -16 -5 -22 -9 -9 -6 -16 10 -28 27 -20 17 -39 -22 -39 -19 0 -32
6 -36 18 -3 9 -13 25 -21 34 -22 26 -8 48 32 48 19 0 38 -5 42 -11z m751 -567
c68 -53 94 -140 53 -177 -15 -14 -29 -16 -62 -11 -86 14 -103 46 -77 141 19
68 43 81 86 47z m626 -21 c63 -75 36 -151 -54 -151 -56 0 -72 15 -73 73 -2 92
75 140 127 78z m1162 -600 c0 -9 -21 -19 -60 -28 -62 -14 -89 -11 -83 9 11 31
143 49 143 19z m-926 -14 c7 -6 23 -16 35 -22 13 -7 22 -22 24 -42 3 -28 -5
-40 -58 -92 -33 -33 -69 -62 -79 -66 -24 -7 -88 20 -101 44 -5 11 -10 42 -10
69 0 48 2 52 48 85 49 37 111 48 141 24z m-974 -59 c25 -23 45 -48 45 -54 0
-6 7 -17 16 -24 9 -8 14 -25 12 -43 -2 -25 -12 -35 -47 -54 -64 -33 -104 -30
-154 12 -22 19 -44 35 -49 35 -4 0 -8 24 -8 54 0 49 3 57 35 85 52 46 93 43
150 -11z m-1047 -8 c2 -14 10 -29 18 -33 21 -12 17 -35 -8 -48 -13 -6 -35 -23
-50 -37 -33 -30 -63 -24 -53 10 4 13 15 29 26 37 13 9 19 26 19 51 0 20 3 40
7 44 14 14 38 0 41 -24z m-294 -199 c7 -34 6 -45 -7 -58 -15 -15 -18 -15 -37
2 -24 22 -25 32 -4 74 21 41 37 35 48 -18z m3351 -121 c10 -11 25 -20 34 -20
23 -1 75 -46 67 -59 -19 -30 -97 3 -132 56 -25 40 -1 58 31 23z m-3415 -56
c14 -35 13 -81 -2 -90 -30 -19 -64 76 -36 104 18 18 27 15 38 -14z m-67 -353
c9 -57 3 -116 -14 -127 -5 -3 -17 0 -26 7 -13 11 -14 27 -9 88 4 41 10 79 13
83 12 21 29 -2 36 -51z m2415 -5 c38 -44 50 -91 28 -115 -34 -37 -108 -64
-186 -68 -67 -4 -78 -2 -104 20 -25 20 -28 28 -22 58 13 69 110 137 197 138
53 1 59 -2 87 -33z m-792 -38 c82 -53 97 -69 92 -100 -10 -72 -226 -91 -295
-26 -40 38 -27 148 19 168 47 20 111 6 184 -42z m-1547 -6 c12 -22 3 -67 -22
-109 -21 -36 -29 -40 -45 -20 -8 9 -5 29 8 70 28 84 39 96 59 59z m2842 -234
c12 -23 15 -201 3 -219 -3 -5 -15 -9 -27 -9 -24 0 -117 86 -117 108 0 27 98
142 122 142 4 0 13 -10 19 -22z m-1921 -160 c57 -61 60 -65 60 -116 0 -48 -2
-54 -32 -72 -18 -11 -47 -20 -65 -20 -28 0 -35 6 -53 43 -11 23 -36 64 -55 91
-35 49 -45 89 -23 102 6 4 21 -4 34 -19 25 -29 34 -26 34 13 0 60 27 54 100
-22z m1678 20 c16 -16 15 -53 -4 -135 -18 -77 -28 -93 -58 -93 -25 0 -116 91
-116 115 0 74 133 158 178 113z m983 -101 c18 -46 18 -50 2 -78 -18 -30 -53
-40 -53 -15 0 8 -6 21 -13 28 -23 23 -27 48 -12 84 21 52 52 44 76 -19z
m-2357 -19 c25 -29 46 -61 46 -71 0 -42 -55 -107 -92 -107 -13 0 -58 39 -58
51 0 5 -11 25 -25 45 -48 71 -24 134 51 134 27 0 41 -10 78 -52z m1586 -63 c0
-53 -31 -166 -46 -172 -30 -11 -65 8 -80 42 -26 62 -23 72 36 119 69 57 90 59
90 11z m-1802 -122 c28 -32 52 -63 52 -69 0 -20 -34 -53 -62 -59 -24 -6 -29
-1 -67 62 -54 92 -55 123 -2 123 19 0 41 -16 79 -57z m1093 -340 c9 -9 -4 -27
-50 -72 -83 -83 -117 -82 -135 5 -5 24 -2 36 19 58 24 26 30 28 91 24 35 -2
69 -9 75 -15z m-218 -35 c23 -27 17 -86 -10 -105 -24 -18 -67 -16 -94 5 -13
10 -32 21 -41 25 -10 3 -18 13 -18 22 0 9 -9 15 -22 15 -26 1 -83 43 -75 56 3
5 58 8 124 7 110 -2 119 -4 136 -25z"/>
</g>
</svg>
