<?xml version="1.0" standalone="no"?>
<!DOCTYPE svg PUBLIC "-//W3C//DTD SVG 20010904//EN"
 "http://www.w3.org/TR/2001/REC-SVG-20010904/DTD/svg10.dtd">
<svg version="1.0" xmlns="http://www.w3.org/2000/svg"
 width="245.000000pt" height="393.000000pt" viewBox="0 0 245.000000 393.000000"
 preserveAspectRatio="xMidYMid meet">
<metadata>
Created by potrace 1.14, written by Peter Selinger 2001-2017
</metadata>
<g transform="translate(0.000000,393.000000) scale(0.100000,-0.100000)"
fill="#005045" stroke="none">
<path d="M691 3909 c-18 -11 -31 -23 -28 -26 3 -3 16 2 29 11 58 41 130 9 224
-100 87 -100 194 -288 194 -340 0 -14 -24 -41 -75 -83 -83 -69 -109 -101 -119
-147 -18 -81 75 -173 176 -174 20 0 40 -5 43 -10 4 -6 -14 -30 -38 -54 -52
-50 -72 -101 -64 -161 10 -68 -28 -89 -113 -65 -104 30 -329 30 -378 -1 -17
-10 -23 -10 -36 0 -24 20 -19 39 19 72 24 21 44 55 66 112 28 74 32 95 34 207
4 120 11 160 50 276 22 64 14 111 -25 149 -79 76 -248 -2 -441 -202 -149 -156
-218 -312 -206 -465 7 -86 21 -116 31 -64 4 20 4 52 0 71 -5 29 -3 35 11 35
14 0 16 6 11 34 -7 39 1 66 19 66 7 0 16 16 19 35 4 20 13 35 21 35 7 0 15 12
17 28 2 16 9 27 18 27 8 0 16 9 18 20 6 28 23 47 38 41 7 -3 17 8 23 25 6 17
15 28 21 24 5 -3 10 -1 10 6 0 16 47 59 65 59 7 0 15 10 17 23 2 12 9 21 17
19 7 -1 22 9 33 23 11 15 26 24 34 21 7 -3 18 2 23 11 9 18 121 33 121 16 0
-16 -31 -53 -44 -53 -7 0 -18 -11 -24 -25 -7 -16 -17 -23 -27 -19 -10 4 -15 0
-15 -14 0 -12 -4 -24 -10 -27 -5 -3 -10 -1 -10 4 0 6 -5 11 -11 11 -7 0 -10
-12 -7 -32 7 -45 1 -58 -28 -58 -24 0 -32 -14 -14 -25 6 -3 10 -15 10 -27 0
-17 -4 -19 -26 -14 -23 6 -25 4 -19 -11 17 -40 11 -58 -17 -56 -33 2 -34 0 -9
-41 14 -23 16 -37 10 -54 -7 -20 -12 -21 -30 -12 -30 16 -31 9 -8 -34 19 -36
20 -74 1 -62 -4 2 -14 1 -21 -4 -11 -6 -9 -10 8 -19 17 -10 21 -21 22 -64 1
-70 8 -89 48 -138 58 -70 72 -75 261 -97 30 -4 96 -5 147 -2 82 5 96 9 135 36
24 17 57 36 73 41 l31 10 18 -81 c10 -44 25 -94 33 -109 9 -18 15 -64 16 -126
1 -54 7 -104 13 -112 6 -8 14 -29 16 -47 4 -28 1 -35 -18 -42 -31 -12 -40 -34
-48 -111 -7 -63 -10 -69 -48 -99 -37 -30 -116 -140 -132 -184 -5 -15 -17 -3
-59 63 -100 157 -153 233 -228 334 -92 124 -122 157 -142 157 -28 0 -87 -41
-91 -64 -29 -151 -35 -172 -132 -463 -35 -105 -64 -200 -64 -210 0 -10 7 -27
15 -37 8 -11 15 -30 15 -42 0 -40 26 -123 97 -309 74 -194 94 -233 172 -338
28 -37 51 -72 51 -77 0 -6 5 -10 10 -10 6 0 10 7 10 15 0 8 6 15 14 15 7 0 19
7 26 15 10 12 6 13 -23 8 -31 -5 -37 -2 -52 23 -10 16 -26 41 -36 56 -11 15
-19 34 -19 41 0 8 -6 20 -14 26 -8 6 -16 22 -19 34 -3 12 -15 47 -27 77 -12
30 -23 62 -24 71 -1 8 -7 28 -13 45 -6 16 -30 89 -54 163 -38 123 -41 139 -31
175 6 23 28 109 47 191 20 83 50 193 66 246 16 53 32 117 35 143 4 26 11 49
16 52 19 12 25 2 205 -298 50 -84 109 -182 130 -217 46 -77 80 -97 129 -74 18
9 42 13 57 9 43 -10 51 -68 53 -366 2 -300 10 -345 81 -448 41 -59 141 -132
182 -132 32 0 110 51 155 100 87 97 102 169 111 530 7 296 12 320 59 320 13 0
36 -6 51 -14 25 -13 32 -13 57 0 30 15 40 31 191 282 51 85 112 187 137 228
43 71 62 90 81 78 5 -3 9 -20 9 -37 0 -18 15 -86 34 -152 51 -174 116 -447
116 -483 0 -17 -16 -79 -36 -139 -19 -59 -37 -116 -39 -125 -2 -9 -9 -26 -15
-38 -6 -11 -8 -24 -6 -29 3 -5 -1 -22 -9 -37 -8 -16 -15 -35 -15 -42 0 -8 -7
-28 -16 -45 -39 -74 -44 -86 -44 -101 0 -9 -4 -16 -9 -16 -6 0 -22 -23 -37
-51 -27 -48 -30 -51 -61 -46 -38 7 -45 -10 -8 -19 14 -3 25 -13 25 -21 0 -17
26 14 91 107 66 94 82 127 150 305 58 152 98 281 99 316 0 9 7 29 15 46 14 28
11 40 -64 269 -43 131 -86 275 -96 319 -9 44 -20 91 -23 105 -9 30 -68 72 -97
68 -11 -2 -50 -40 -88 -88 -69 -86 -287 -406 -308 -454 -7 -14 -15 -26 -18
-25 -3 0 -19 28 -36 61 -16 34 -58 92 -92 130 -58 62 -63 72 -63 113 0 55 -15
90 -46 104 -20 9 -23 15 -17 43 3 18 11 42 16 53 6 11 11 63 12 115 0 59 6
104 14 120 18 32 41 118 41 154 0 26 2 28 31 22 17 -3 51 -20 76 -38 l45 -33
147 1 c149 0 250 11 286 31 27 15 80 74 99 111 9 17 16 55 16 86 0 46 4 57 21
67 17 9 19 13 8 19 -7 5 -17 6 -21 4 -19 -12 -18 26 1 62 23 43 22 50 -8 34
-18 -9 -23 -8 -30 12 -6 17 -4 31 10 54 25 41 24 43 -8 41 -29 -2 -35 16 -18
56 6 15 4 17 -19 11 -22 -5 -26 -3 -26 14 0 12 5 24 10 27 18 11 10 25 -14 25
-29 0 -35 13 -28 58 3 20 0 32 -7 32 -6 0 -11 -5 -11 -11 0 -5 -4 -7 -10 -4
-5 3 -10 15 -10 27 0 14 -5 18 -15 14 -10 -4 -20 3 -27 19 -6 14 -17 25 -23
25 -15 0 -45 32 -45 48 0 8 18 12 50 12 37 0 54 -5 67 -19 9 -11 21 -17 28
-15 7 3 22 -6 33 -21 11 -14 26 -24 33 -23 8 2 15 -7 17 -19 2 -13 10 -23 17
-23 17 0 65 -43 65 -58 0 -6 6 -9 14 -6 9 3 15 -5 19 -25 4 -20 11 -29 20 -25
16 6 33 -12 39 -41 2 -11 10 -20 18 -20 9 0 16 -11 18 -27 2 -16 10 -28 17
-28 8 0 17 -15 21 -35 3 -19 12 -35 19 -35 18 0 26 -27 19 -66 -5 -28 -3 -34
11 -34 14 0 16 -6 11 -35 -9 -47 3 -114 16 -91 18 33 21 149 4 219 -31 131
-100 241 -237 373 -94 90 -150 131 -224 161 -76 31 -102 35 -137 20 -74 -32
-94 -96 -59 -187 32 -83 49 -184 49 -290 -1 -84 3 -104 32 -178 22 -56 44 -92
67 -112 36 -32 41 -51 17 -71 -13 -10 -19 -10 -36 0 -25 15 -179 32 -233 25
-22 -3 -79 -12 -128 -21 -110 -21 -122 -14 -122 75 -1 66 -35 137 -80 166 -36
23 -33 46 6 46 54 0 111 23 151 61 34 32 38 41 38 83 0 67 -18 93 -115 175
-97 82 -95 70 -40 188 44 95 105 184 179 262 89 92 134 109 201 76 l30 -15
-28 25 c-54 48 -119 26 -217 -74 -82 -83 -137 -163 -191 -275 -22 -47 -45 -88
-50 -92 -5 -3 -9 11 -9 30 0 33 -21 66 -42 66 -6 0 -7 -7 -3 -17 19 -46 18
-48 -25 -48 -41 0 -41 0 -35 32 7 38 -7 43 -29 11 -9 -13 -13 -31 -9 -46 4
-18 2 -23 -8 -20 -8 3 -36 50 -64 105 -98 197 -248 353 -339 353 -11 0 -36 -9
-55 -21z m428 -607 c23 -44 -34 -155 -86 -168 -53 -14 -92 42 -73 101 22 66
134 113 159 67z m311 3 c63 -33 89 -104 54 -153 -24 -34 -61 -28 -105 17 -41
44 -60 110 -39 136 16 19 53 19 90 0z m-302 -1197 c20 -20 14 -38 -13 -38 -29
0 -45 28 -24 41 18 12 23 11 37 -3z m243 2 c15 -9 17 -15 9 -30 -20 -37 -61
-14 -46 25 6 18 11 18 37 5z"/>
<path d="M392 1890 c-36 -26 -42 -35 -42 -66 0 -20 9 -48 19 -63 24 -34 42
-102 76 -291 23 -126 114 -510 147 -623 19 -63 16 -244 -8 -457 -3 -25 -10
-55 -17 -68 -8 -18 -8 -28 1 -42 9 -14 8 -21 -4 -31 -11 -9 -14 -23 -11 -46 3
-18 1 -35 -4 -38 -5 -4 -9 -18 -9 -33 1 -15 -3 -49 -8 -75 -10 -51 0 -70 23
-46 12 13 33 92 38 144 1 11 6 26 10 33 5 7 7 25 6 40 -1 15 1 34 4 42 8 20
18 85 21 135 2 22 6 47 9 55 3 8 12 47 21 85 31 137 20 251 -59 580 -18 77
-38 165 -44 195 -32 168 -41 224 -41 253 l0 32 19 -24 c26 -33 123 -229 157
-316 32 -82 64 -135 82 -135 7 0 12 -13 12 -31 0 -25 6 -32 35 -45 19 -7 49
-14 67 -14 l33 -1 -38 -20 c-35 -19 -38 -23 -31 -52 12 -58 22 -68 62 -65 33
3 37 6 34 28 -2 14 -5 86 -7 160 -2 74 -4 138 -4 142 -1 4 -13 6 -28 5 -24 -2
-28 2 -33 33 -8 44 -16 59 -105 195 -93 142 -244 376 -270 418 -27 44 -60 46
-113 7z"/>
<path d="M1934 1858 c-20 -35 -70 -112 -109 -173 -197 -300 -244 -377 -250
-416 -6 -35 -10 -39 -33 -37 l-27 3 -2 -135 c-1 -74 -3 -148 -5 -165 -3 -29
-1 -30 36 -30 37 0 39 2 51 42 14 47 9 56 -44 80 l-26 11 29 1 c71 2 124 33
114 67 -1 5 12 23 28 41 17 17 45 69 63 115 42 104 161 338 172 338 5 0 9 -10
9 -22 0 -33 -63 -352 -99 -498 -46 -194 -74 -367 -67 -425 8 -61 38 -198 46
-205 5 -5 9 -61 9 -134 0 -15 5 -33 10 -40 5 -6 9 -28 8 -49 -1 -21 3 -41 8
-45 6 -4 11 -18 12 -32 4 -53 20 -120 33 -134 23 -29 32 -18 26 32 -4 26 -6
60 -6 76 0 17 -7 38 -16 47 -9 10 -11 19 -6 23 11 7 5 44 -11 64 -8 10 -7 16
2 21 9 6 9 14 0 37 -7 16 -13 45 -15 64 -2 19 -5 55 -7 80 -15 173 -18 300 -8
350 22 112 40 187 59 250 37 126 102 421 117 540 9 69 32 138 56 169 22 27 25
70 7 93 -23 28 -76 58 -101 58 -21 0 -33 -12 -63 -62z"/>
<path d="M915 849 c-9 -16 -25 -39 -36 -50 -11 -11 -19 -26 -16 -32 5 -18 111
-57 170 -64 l52 -6 -35 39 c-19 21 -46 63 -59 92 -28 61 -52 68 -76 21z"/>
<path d="M1480 866 c0 -21 -49 -108 -78 -138 l-26 -28 30 0 c34 0 109 22 153
44 35 18 39 37 14 57 -9 8 -22 29 -30 47 -10 24 -20 32 -38 32 -14 0 -25 -6
-25 -14z"/>
<path d="M907 703 c-3 -5 -9 -32 -12 -59 -10 -75 1 -80 124 -64 88 12 103 11
140 -4 52 -20 81 -20 142 1 42 15 57 16 119 5 133 -23 157 -12 144 66 -10 64
-12 65 -95 42 -40 -11 -84 -20 -96 -20 -13 0 -41 -11 -62 -25 -58 -36 -83 -39
-134 -17 -24 11 -48 25 -51 31 -4 6 -19 11 -34 11 -24 0 -71 11 -158 36 -12 3
-24 2 -27 -3z"/>
<path d="M1035 560 c-11 -5 -34 -9 -51 -9 -25 -1 -33 -6 -38 -26 -9 -34 13
-77 47 -93 24 -12 35 -10 94 13 60 24 77 27 157 23 65 -3 106 -11 142 -27 49
-21 54 -22 83 -6 35 18 55 57 47 91 -5 17 -16 23 -53 29 -81 13 -136 10 -184
-10 -45 -18 -48 -18 -95 -1 -59 22 -122 29 -149 16z"/>
<path d="M1108 434 c-27 -10 -48 -20 -48 -24 0 -3 21 -22 46 -41 25 -19 59
-53 76 -76 16 -24 34 -43 40 -43 6 0 38 28 72 63 33 35 72 71 86 79 l25 16
-40 18 c-57 25 -196 29 -257 8z"/>
<path d="M1080 344 c0 -4 8 -28 17 -54 16 -44 16 -51 -1 -116 -27 -101 -31
-128 -18 -120 6 4 26 45 43 91 18 46 36 82 40 80 4 -3 13 -38 19 -78 15 -87
24 -107 51 -107 24 0 32 21 49 118 12 76 23 90 35 45 6 -24 53 -141 62 -152 2
-2 6 -2 9 2 4 3 -3 37 -15 76 -25 82 -26 129 -6 178 8 20 13 38 10 41 -9 9
-55 -29 -87 -73 -45 -61 -76 -61 -118 0 -36 53 -90 94 -90 69z"/>
</g>
</svg>
