<?xml version="1.0" standalone="no"?>
<!DOCTYPE svg PUBLIC "-//W3C//DTD SVG 20010904//EN"
 "http://www.w3.org/TR/2001/REC-SVG-20010904/DTD/svg10.dtd">
<svg version="1.0" xmlns="http://www.w3.org/2000/svg"
 width="211.000000pt" height="250.000000pt" viewBox="0 0 211.000000 250.000000"
 preserveAspectRatio="xMidYMid meet">
<metadata>
Created by potrace 1.14, written by Peter Selinger 2001-2017
</metadata>
<g transform="translate(0.000000,250.000000) scale(0.100000,-0.100000)"
fill="#5c008b" stroke="none">
<path d="M1005 2475 c-140 -38 -260 -104 -302 -167 -60 -90 -59 -360 1 -460
39 -65 72 -84 166 -99 140 -21 180 -30 180 -41 0 -6 -35 -9 -97 -7 -82 3 -97
1 -95 -11 5 -23 33 -40 67 -40 46 0 95 -19 95 -37 0 -10 -5 -13 -17 -8 -47 19
-106 16 -214 -10 l-112 -28 -21 29 c-12 16 -36 46 -54 66 -27 30 -35 50 -43
102 -10 77 -26 114 -50 121 -9 3 -20 12 -23 20 -3 8 -10 15 -15 15 -12 0 -1
-42 26 -95 11 -22 25 -73 32 -113 18 -116 31 -139 98 -169 68 -31 172 -36 241
-10 32 12 49 14 63 7 24 -13 25 -49 2 -52 -109 -10 -179 -11 -248 -3 -38 5
-61 2 -98 -14 -27 -12 -53 -21 -57 -21 -5 0 -33 25 -63 54 -31 31 -67 58 -83
61 -47 10 -57 19 -95 86 -38 68 -102 139 -125 139 -24 0 -16 -20 27 -68 38
-43 74 -108 128 -235 24 -56 64 -78 172 -97 55 -10 82 -9 151 4 103 20 162 20
177 3 15 -19 4 -27 -36 -27 -19 0 -46 -6 -61 -14 -39 -20 -153 -142 -196 -209
-42 -65 -39 -64 -122 -70 l-60 -5 -42 77 c-47 87 -137 175 -153 150 -14 -23
-10 -45 12 -65 31 -27 66 -86 90 -149 19 -50 24 -55 72 -73 95 -36 133 -37
175 -8 42 29 90 84 149 171 23 34 49 67 59 75 16 14 17 13 10 -14 -4 -15 -30
-78 -57 -140 -88 -195 -129 -333 -141 -477 -10 -112 -9 -129 7 -162 20 -43 61
-71 128 -88 70 -17 116 -1 164 59 21 26 44 51 51 55 31 20 68 73 180 261 66
110 127 210 135 221 15 19 16 19 23 2 4 -11 -9 -57 -34 -120 -44 -110 -66
-211 -56 -251 7 -30 80 -100 129 -123 31 -15 44 -15 115 -4 45 8 100 10 126 6
36 -5 50 -3 65 11 27 24 24 34 -10 34 -16 0 -44 6 -62 14 -27 11 -52 12 -119
5 -46 -5 -89 -8 -96 -5 -6 2 -15 17 -18 33 -4 15 -17 38 -28 50 -24 25 -23 32
20 148 32 87 56 213 46 242 -4 10 -18 30 -32 46 -19 20 -23 30 -14 39 23 23
61 -20 111 -125 42 -88 59 -111 113 -159 35 -30 74 -58 88 -61 14 -3 57 1 95
10 39 8 126 18 195 22 l125 6 -40 19 c-34 15 -55 17 -141 12 -92 -6 -103 -5
-127 14 -40 32 -92 50 -141 50 -52 0 -56 6 -75 91 -10 46 -20 64 -58 99 -25
25 -54 63 -63 86 -10 23 -23 45 -29 48 -13 9 -14 65 -2 85 10 16 22 -6 55 -99
9 -25 20 -50 24 -55 18 -25 136 -116 157 -121 15 -4 62 6 117 25 51 17 117 33
146 37 59 7 72 18 43 33 -29 16 -71 13 -146 -10 -75 -23 -139 -20 -195 9 -32
17 -33 19 -107 197 -14 33 -39 72 -56 87 -30 26 -31 27 -10 28 14 0 42 -19 73
-50 33 -33 59 -50 75 -50 43 0 32 39 -30 100 -53 53 -70 90 -41 90 8 0 35 -29
60 -63 64 -90 136 -154 181 -163 67 -12 147 2 234 42 72 33 91 47 146 111 70
82 85 122 85 225 -1 122 -49 286 -102 342 l-30 31 6 -40 c3 -22 8 -57 12 -77
9 -48 -7 -50 -35 -3 -33 57 -41 44 -34 -58 l6 -92 -53 -102 -54 -102 19 -41
c17 -38 17 -42 2 -58 -11 -11 -36 -17 -73 -19 -31 -1 -62 -7 -67 -12 -6 -6
-19 -11 -28 -11 -27 0 -116 108 -156 188 -36 71 -37 73 -67 66 -17 -3 -46 -15
-64 -25 -18 -10 -35 -19 -38 -19 -2 0 -4 25 -4 55 0 51 -10 69 -25 45 -3 -5
-13 -10 -22 -10 -12 0 -14 7 -9 30 7 36 4 36 -34 9 -33 -25 -60 -19 -61 13 0
13 -5 38 -12 56 l-12 34 -135 4 c-74 2 -148 7 -165 12 -26 7 -30 13 -30 44 0
20 -7 44 -16 54 -9 11 -21 33 -27 51 -13 38 -8 44 65 67 60 20 65 25 87 91 23
72 67 120 147 161 38 19 69 38 69 44 0 5 -24 10 -52 12 l-53 3 68 33 c37 18
65 37 62 42 -9 14 -121 11 -180 -5z m140 -1085 c42 -22 85 -40 96 -40 22 0 25
-15 4 -24 -23 -8 -98 18 -165 59 -71 43 -100 71 -100 98 0 15 7 13 44 -18 24
-20 78 -54 121 -75z m-170 -6 c60 -42 222 -126 264 -137 11 -3 21 -11 21 -17
0 -43 -258 68 -328 141 -23 23 -42 49 -42 57 0 15 1 15 85 -44z m-110 -103
c36 -35 141 -95 247 -141 42 -18 75 -37 72 -42 -31 -50 -364 127 -364 194 0
25 9 23 45 -11z m-33 -117 c35 -25 117 -72 182 -105 83 -40 114 -60 102 -65
-70 -27 -356 138 -356 205 0 17 6 14 72 -35z m-94 -164 c59 -53 134 -95 229
-129 92 -34 110 -57 38 -49 -68 8 -221 87 -285 147 -29 27 -49 54 -46 60 10
16 14 15 64 -29z m-74 -176 c33 -26 114 -72 178 -103 65 -31 118 -59 118 -63
0 -18 -71 -5 -140 25 -98 43 -188 103 -211 141 -37 60 -25 60 55 0z m59 -295
c43 -21 84 -40 90 -43 8 -3 7 -8 -3 -15 -53 -36 -307 119 -264 162 3 3 27 -11
52 -30 26 -20 82 -53 125 -74z"/>
<path d="M1037 2168 c-14 -18 -57 -86 -95 -150 -74 -122 -75 -128 -15 -128 16
0 27 7 30 20 3 11 32 77 64 147 59 127 66 178 16 111z"/>
<path d="M1751 1741 c-10 -10 -38 -52 -62 -92 -23 -41 -53 -86 -67 -101 -27
-29 -24 -61 9 -78 17 -10 23 -2 59 76 22 48 40 89 40 91 0 2 16 29 35 59 19
30 35 57 35 59 0 12 -32 3 -49 -14z"/>
<path d="M514 376 c-15 -40 32 -89 86 -89 63 0 52 29 -27 74 -44 26 -54 28
-59 15z"/>
<path d="M67 361 c-50 -33 -60 -56 -52 -124 9 -81 26 -119 66 -150 47 -34 134
-77 159 -77 38 0 192 69 237 106 52 43 125 132 118 144 -3 4 -28 13 -55 20
-40 10 -54 9 -65 0 -20 -16 -19 -45 1 -76 23 -35 14 -38 -29 -9 -20 14 -38 25
-40 25 -3 0 -15 -17 -27 -37 -16 -28 -21 -48 -17 -75 7 -50 -10 -49 -30 2 -9
22 -22 40 -30 40 -40 0 -103 -54 -103 -87 0 -14 -4 -21 -10 -18 -5 3 -10 28
-10 55 0 47 -1 49 -50 79 -55 34 -77 61 -86 109 -8 41 10 43 30 3 19 -35 62
-73 105 -91 39 -16 96 -2 138 34 l27 23 -31 -4 c-26 -4 -38 2 -79 42 -97 93
-115 101 -167 66z"/>
</g>
</svg>
