<?xml version="1.0" standalone="no"?>
<!DOCTYPE svg PUBLIC "-//W3C//DTD SVG 20010904//EN"
 "http://www.w3.org/TR/2001/REC-SVG-20010904/DTD/svg10.dtd">
<svg version="1.0" xmlns="http://www.w3.org/2000/svg"
 width="276.000000pt" height="445.000000pt" viewBox="0 0 276.000000 445.000000"
 preserveAspectRatio="xMidYMid meet">
<metadata>
Created by potrace 1.14, written by Peter Selinger 2001-2017
</metadata>
<g transform="translate(0.000000,445.000000) scale(0.100000,-0.100000)"
fill="#000000" stroke="none">
<path d="M2030 4430 c-14 -11 -30 -20 -36 -20 -22 0 -132 -131 -149 -177 -15
-38 -15 -47 -4 -54 25 -16 36 -10 133 77 94 84 143 151 132 180 -8 20 -47 17
-76 -6z"/>
<path d="M520 4363 c0 -27 27 -62 110 -142 71 -70 154 -138 206 -171 19 -12
26 -12 36 -2 23 23 -36 117 -132 212 -91 90 -138 120 -189 120 -23 0 -31 -5
-31 -17z"/>
<path d="M1796 4148 c-21 -34 -67 -176 -69 -216 -4 -67 21 -45 78 67 57 114
63 139 43 159 -18 18 -36 15 -52 -10z"/>
<path d="M877 4034 c-19 -19 -2 -58 60 -133 64 -78 85 -93 98 -71 7 11 -29 83
-77 155 -31 46 -64 66 -81 49z"/>
<path d="M1651 3836 c-35 -25 -69 -54 -77 -64 -39 -56 -115 -123 -146 -128
-18 -4 -67 -22 -108 -41 -41 -19 -76 -30 -78 -25 -5 15 -97 158 -126 197 -22
28 -34 35 -54 33 -45 -5 -39 -37 20 -105 56 -62 111 -131 116 -142 1 -4 -30
-17 -70 -30 -84 -27 -98 -37 -134 -99 -23 -39 -26 -53 -21 -107 2 -37 15 -86
30 -119 15 -33 23 -64 20 -74 -4 -9 -27 -43 -52 -76 -47 -62 -66 -117 -82
-241 -5 -38 -14 -83 -19 -100 -24 -81 -29 -210 -9 -262 11 -31 -3 -30 -77 4
-48 21 -75 26 -142 27 -69 1 -86 -2 -96 -16 -7 -10 -17 -18 -23 -18 -21 0 -64
-60 -107 -150 -25 -52 -50 -102 -55 -110 -71 -116 -121 -213 -121 -234 0 -19
-7 -29 -25 -36 -31 -12 -36 -16 -133 -105 -76 -69 -99 -112 -59 -109 9 1 25
-11 34 -27 34 -57 68 -48 59 16 -5 31 -3 45 9 55 8 7 15 18 15 25 0 8 14 24
31 37 16 13 47 37 67 53 20 17 50 36 65 43 15 6 30 20 33 29 3 10 11 32 18 48
7 17 23 53 34 80 37 89 90 209 119 267 l28 57 40 -20 c21 -11 51 -30 65 -44
35 -34 84 -52 163 -60 75 -8 79 -14 56 -85 -11 -33 -25 -168 -34 -320 -10
-186 -18 -235 -40 -262 -34 -41 -93 -166 -109 -233 -8 -33 -18 -107 -21 -165
-4 -58 -15 -204 -25 -325 -11 -121 -20 -276 -21 -345 -2 -137 6 -111 -99 -320
-24 -47 -47 -93 -52 -103 -7 -14 -4 -17 16 -17 17 0 29 -9 38 -27 7 -15 22
-29 33 -31 19 -3 19 -2 3 11 -22 17 -23 28 -3 21 18 -7 19 0 3 25 -16 26 7
105 42 145 31 35 70 104 70 124 0 7 8 24 17 39 15 22 17 57 18 252 1 138 8
298 19 411 l19 185 34 35 35 35 -7 -57 c-4 -32 -2 -77 4 -105 6 -26 15 -147
21 -268 6 -135 15 -238 24 -266 31 -99 71 -187 119 -259 28 -41 69 -103 92
-137 44 -67 109 -129 165 -158 19 -9 46 -23 60 -31 42 -22 135 -27 175 -10 19
9 52 23 73 32 82 34 108 52 140 94 19 25 50 63 69 84 19 22 48 69 65 105 16
36 40 77 53 92 25 30 48 115 69 254 7 50 19 104 26 120 15 35 21 220 10 282
-5 30 -4 46 5 53 7 6 16 42 19 80 4 39 11 70 15 70 22 0 59 -61 65 -106 29
-212 33 -721 6 -748 -16 -16 -11 -30 5 -16 18 15 18 16 33 -35 28 -100 35
-116 50 -127 18 -14 42 -60 61 -119 15 -47 14 -65 -5 -83 -13 -14 -13 -16 -1
-16 9 0 18 6 20 13 3 7 6 6 6 -5 1 -9 -8 -20 -19 -23 -11 -4 -18 -10 -15 -15
9 -15 35 1 51 32 11 22 20 28 35 23 17 -6 19 -3 13 22 -9 39 -28 79 -69 143
-19 30 -34 64 -35 75 0 11 -12 40 -25 64 -18 31 -22 48 -15 55 13 13 13 189 0
383 -5 82 -14 234 -20 338 -11 191 -31 296 -64 340 -9 11 -16 27 -16 35 0 8
-9 26 -20 40 -11 14 -20 31 -20 39 0 8 -7 22 -16 32 -18 20 -63 145 -64 177 0
13 6 22 15 22 11 0 15 11 15 43 0 24 -4 47 -10 53 -14 14 -22 202 -9 226 7 13
7 23 0 32 -6 7 -12 28 -13 46 -3 33 -1 35 37 42 22 4 73 7 113 7 60 1 83 6
130 30 92 48 107 49 129 9 42 -79 124 -275 130 -312 8 -53 30 -86 57 -86 13 0
31 -13 44 -30 13 -16 28 -30 36 -30 17 0 56 -43 56 -63 0 -9 4 -18 10 -22 6
-4 6 -15 0 -31 -12 -32 -12 -34 0 -34 6 0 10 7 10 16 0 8 5 12 11 9 7 -5 4
-15 -6 -32 -12 -18 -13 -24 -4 -21 8 3 26 26 42 52 26 45 27 50 13 72 -9 12
-47 49 -85 81 -41 34 -70 66 -70 78 -1 11 -12 40 -25 65 -13 25 -58 113 -100
197 -65 130 -84 158 -128 195 l-51 43 -96 -1 c-74 0 -110 -6 -156 -23 -33 -13
-71 -25 -84 -28 -22 -6 -23 -4 -17 28 19 104 18 158 -8 317 -15 90 -33 180
-40 200 -15 41 -8 70 23 104 24 25 56 91 66 136 7 34 -11 89 -42 124 -8 9 -64
28 -124 43 -60 15 -109 31 -109 36 0 5 -9 9 -20 9 -10 0 -30 5 -43 11 -22 10
-23 13 -13 58 5 26 6 55 3 64 -10 25 -44 20 -63 -8 -20 -31 -39 -20 -54 33 -8
32 -7 39 15 62 14 14 25 33 25 42 0 19 63 62 69 47 2 -6 -2 -38 -9 -70 -10
-44 -10 -63 -2 -71 18 -18 36 5 67 84 15 40 37 85 47 100 20 30 22 108 3 115
-6 2 -39 -17 -74 -41z m-159 -330 c25 -30 23 -50 -2 -29 -11 10 -20 23 -20 30
0 7 -5 12 -11 11 -6 -2 -14 3 -16 10 -7 19 29 3 49 -22z m-102 7 c0 -5 -10
-21 -23 -37 l-23 -28 -17 26 c-14 20 -15 27 -5 30 7 3 20 7 28 9 23 8 40 8 40
0z m-155 -73 c14 -22 25 -42 25 -44 0 -12 -59 -45 -91 -51 -33 -6 -37 -4 -72
41 -21 26 -34 51 -30 55 6 6 101 33 135 38 4 1 19 -17 33 -39z m547 -140 c97
-20 101 -21 92 -30 -26 -25 -159 -90 -176 -84 -25 8 -23 19 8 33 23 10 26 16
22 51 -2 22 -3 40 -1 40 1 0 26 -5 55 -10z m121 -825 c-15 -23 -55 -82 -87
-131 -33 -49 -88 -150 -123 -224 -35 -74 -70 -148 -78 -163 -8 -16 -15 -34
-15 -41 0 -7 -9 -21 -20 -31 -11 -10 -20 -25 -20 -33 0 -25 -31 -52 -61 -52
-44 0 -43 -16 0 -68 23 -27 41 -58 41 -69 0 -12 6 -28 13 -35 24 -23 36 -53
53 -129 23 -99 65 -184 124 -250 42 -45 50 -60 50 -94 0 -22 7 -59 15 -82 18
-53 23 -239 8 -310 -7 -28 -21 -69 -32 -90 -11 -21 -27 -56 -37 -78 -9 -23
-52 -74 -98 -120 -91 -88 -132 -108 -229 -106 -46 0 -63 6 -113 40 -85 57
-194 149 -194 165 0 7 -9 21 -20 31 -12 11 -33 42 -47 69 -25 50 -26 56 -27
256 l-1 205 30 39 c41 54 68 99 111 186 49 100 52 108 58 160 10 99 30 162 58
190 15 16 28 32 28 36 0 4 8 16 17 26 12 14 14 21 5 30 -9 9 -16 7 -31 -6 -19
-18 -21 -17 -45 9 -15 16 -26 34 -26 42 0 7 -20 51 -44 96 -24 45 -59 118 -76
162 -36 92 -149 305 -162 305 -12 0 -12 0 52 -122 68 -130 116 -240 136 -315
7 -29 22 -72 33 -95 31 -67 51 -130 51 -163 0 -34 -31 -108 -56 -132 -18 -18
-19 -17 -56 52 -11 22 -38 60 -59 85 -33 40 -38 53 -42 110 -5 68 -13 112 -27
145 -4 11 -13 54 -20 95 -7 41 -18 89 -25 105 -11 25 -20 107 -29 252 0 12 -4
25 -8 29 -5 4 -8 22 -8 41 0 33 0 33 20 13 11 -11 32 -22 47 -26 16 -4 35 -13
44 -20 13 -12 24 -11 70 2 129 37 333 61 356 42 7 -6 21 -7 30 -3 10 4 39 7
65 6 26 -2 63 3 82 10 28 10 40 9 76 -5 23 -9 50 -14 59 -11 10 3 32 -2 49
-10 28 -15 34 -15 62 0 16 8 30 20 30 25 0 5 11 12 24 16 14 3 28 13 32 22 6
13 9 11 12 -12 2 -19 -6 -42 -25 -71z m-9 -242 c3 -95 2 -175 -3 -177 -5 -3
-11 -20 -15 -37 -3 -17 -15 -42 -26 -56 -11 -14 -20 -34 -20 -44 0 -10 -11
-42 -24 -71 -14 -29 -28 -66 -31 -81 -7 -33 -78 -113 -124 -140 l-31 -18 -20
33 c-30 50 -26 120 11 209 17 41 39 103 50 138 10 36 41 110 69 165 48 99 148
262 155 255 2 -2 6 -81 9 -176z"/>
<path d="M1171 2470 c-53 -13 -112 -42 -109 -55 2 -7 56 -63 121 -125 109
-104 120 -113 139 -101 12 8 43 11 78 9 49 -2 63 1 91 22 59 43 204 184 207
201 8 43 -81 59 -311 58 -100 -1 -197 -5 -216 -9z"/>
<path d="M1030 2404 c0 -3 35 -69 79 -147 127 -229 216 -400 221 -427 3 -16
12 -25 24 -25 15 0 18 9 20 53 1 50 -8 68 -20 37 -4 -8 -10 -15 -14 -15 -5 0
-45 71 -90 158 -140 270 -220 403 -220 366z"/>
<path d="M1627 2238 c-57 -90 -126 -202 -152 -250 -26 -47 -58 -92 -71 -99
-31 -16 -33 -65 -4 -74 29 -9 53 13 47 44 -6 33 67 168 204 377 54 83 99 153
99 157 0 26 -31 -14 -123 -155z"/>
<path d="M1334 2165 c-11 -28 6 -87 27 -92 12 -4 19 -14 20 -32 0 -23 1 -24 8
-6 7 16 9 17 13 5 3 -8 4 -7 2 4 -1 10 6 28 17 39 14 15 19 33 17 57 -3 34 -4
35 -51 38 -36 2 -49 -1 -53 -13z"/>
</g>
</svg>
