<?xml version="1.0" standalone="no"?>
<!DOCTYPE svg PUBLIC "-//W3C//DTD SVG 20010904//EN"
 "http://www.w3.org/TR/2001/REC-SVG-20010904/DTD/svg10.dtd">
<svg version="1.0" xmlns="http://www.w3.org/2000/svg"
 width="539.000000pt" height="775.000000pt" viewBox="0 0 539.000000 775.000000"
 preserveAspectRatio="xMidYMid meet">
<metadata>
Created by potrace 1.14, written by Peter Selinger 2001-2017
</metadata>
<g transform="translate(0.000000,775.000000) scale(0.100000,-0.100000)"
fill="#000000" stroke="none">
<path d="M296 7741 c-4 -6 -27 -8 -54 -4 -72 8 -242 -46 -242 -78 0 -13 166
-2 237 16 31 8 55 9 59 4 7 -11 186 -11 234 0 20 4 45 5 56 0 11 -4 74 -10
140 -13 123 -5 151 -8 266 -27 37 -6 76 -8 87 -4 11 3 23 0 28 -8 7 -12 42
-24 168 -59 22 -6 51 -20 65 -30 14 -10 61 -34 105 -53 58 -25 104 -55 172
-115 51 -44 97 -80 103 -80 5 0 10 -5 10 -12 0 -6 13 -23 28 -37 15 -14 58
-61 96 -103 38 -43 74 -78 81 -78 7 0 15 -10 19 -23 9 -36 175 -227 198 -227
14 0 18 -5 14 -18 -4 -12 4 -28 25 -48 17 -16 56 -60 87 -99 31 -38 60 -71 65
-73 16 -8 5 -33 -18 -42 -74 -28 -125 -103 -125 -183 l0 -44 93 -18 c138 -26
305 -70 365 -96 47 -21 56 -22 85 -10 79 32 172 61 292 91 72 18 136 37 143
42 16 14 15 100 -2 142 -16 39 -56 72 -96 81 -17 4 -30 11 -30 17 0 15 104
140 147 178 21 19 33 37 29 46 -4 9 3 18 17 23 37 14 197 205 197 235 0 9 6
16 14 16 8 0 27 14 43 32 15 17 58 64 96 103 37 39 67 77 67 83 0 7 7 12 15
12 8 0 36 21 62 46 27 25 64 58 83 73 19 14 39 32 43 38 4 7 14 13 21 13 22 0
186 79 186 90 0 5 8 10 18 10 20 0 189 54 199 63 3 4 20 7 37 7 17 0 67 7 111
15 44 8 143 18 220 21 77 3 146 10 154 14 7 4 30 4 50 -1 47 -11 228 -11 235
0 3 4 27 3 53 -4 67 -17 243 -28 243 -15 0 15 -68 46 -147 66 -58 15 -79 16
-103 7 -23 -9 -32 -8 -41 3 -14 16 -193 20 -246 5 -20 -6 -35 -6 -38 0 -8 12
-146 11 -205 -1 -25 -5 -88 -12 -140 -15 -91 -5 -152 -18 -176 -36 -6 -5 -15
-4 -20 1 -19 19 -224 -55 -224 -80 0 -6 -10 -8 -22 -5 -27 7 -154 -52 -182
-84 -11 -11 -23 -21 -28 -21 -13 0 -147 -100 -183 -137 -17 -17 -40 -33 -51
-37 -23 -7 -214 -190 -214 -204 0 -5 -17 -27 -37 -49 -86 -89 -163 -186 -163
-204 0 -15 -5 -19 -17 -15 -14 4 -35 -20 -91 -105 -41 -61 -80 -113 -89 -116
-9 -4 -32 11 -60 40 l-46 45 23 46 c28 59 35 114 20 160 -20 60 -130 138 -130
92 0 -8 14 -24 30 -36 35 -25 60 -68 60 -102 -1 -36 -37 -108 -55 -108 -9 0
-27 7 -40 16 -32 21 -102 21 -142 1 -46 -24 -52 -22 -73 26 -33 71 -27 104 25
153 25 23 45 46 45 53 0 20 -36 12 -73 -16 -70 -54 -85 -138 -43 -229 l24 -52
-47 -46 c-26 -25 -53 -46 -61 -46 -8 0 -51 54 -95 120 -62 91 -84 118 -97 114
-13 -4 -18 0 -18 16 0 12 -30 55 -67 99 -38 42 -78 89 -90 104 -13 15 -27 27
-32 27 -5 0 -12 11 -15 24 -7 29 -191 204 -223 212 -13 4 -23 10 -23 15 0 11
-183 149 -197 149 -6 0 -13 6 -16 14 -8 20 -168 98 -190 92 -10 -2 -27 5 -40
18 -28 28 -194 83 -208 69 -7 -7 -21 -5 -44 7 -18 9 -71 20 -117 24 -45 4 -99
10 -118 12 -81 10 -539 14 -544 5z m2109 -1257 c43 -67 20 -133 -55 -155 -44
-13 -109 -4 -116 16 -15 38 39 128 90 151 45 19 62 17 81 -12z m681 6 c81 -40
98 -143 27 -163 -41 -12 -99 -1 -124 24 -23 23 -25 78 -4 119 23 45 41 48 101
20z"/>
<path d="M3115 6273 c-79 -21 -317 -97 -345 -112 l-35 -18 -3 -140 -3 -140 43
-5 c24 -3 107 -2 185 2 132 7 148 10 206 38 117 58 138 148 68 298 -42 89 -49
94 -116 77z"/>
<path d="M2153 6228 c-33 -53 -47 -116 -38 -174 8 -57 51 -101 138 -144 78
-38 166 -52 318 -48 l114 3 3 137 c3 157 6 151 -99 187 -77 27 -324 81 -370
81 -35 0 -41 -4 -66 -42z"/>
<path d="M1615 6040 c-27 -3 -68 -12 -91 -18 -36 -11 -173 -95 -261 -161 -30
-23 -35 -24 -73 -11 -22 7 -45 19 -51 27 -6 7 -15 11 -19 8 -4 -3 -13 2 -20
10 -7 8 -19 15 -26 15 -8 0 -23 5 -34 10 -11 6 -29 14 -40 20 -12 6 -21 6 -25
0 -3 -6 -17 -7 -31 -4 -13 3 -24 2 -24 -3 0 -13 44 -53 59 -53 6 0 23 -12 36
-26 14 -15 35 -26 50 -26 15 0 25 -6 25 -14 0 -8 11 -14 26 -14 14 0 22 -4 19
-10 -8 -13 38 -24 73 -17 185 36 273 67 397 142 90 55 95 57 130 45 35 -12 85
-69 85 -98 0 -8 17 -46 37 -86 44 -83 173 -219 268 -282 58 -38 60 -41 76
-106 9 -36 26 -79 37 -96 50 -69 155 -124 274 -142 90 -15 413 -8 469 9 88 27
175 122 208 226 17 54 24 64 77 100 32 22 97 78 145 125 79 77 92 96 143 202
57 118 83 148 132 148 10 0 63 -27 118 -60 96 -56 183 -90 271 -106 22 -4 57
-13 78 -21 44 -18 107 -10 107 13 0 11 6 13 20 9 14 -5 20 -2 20 9 0 10 9 16
25 16 13 0 28 6 32 13 4 6 22 19 38 27 37 18 75 51 75 66 0 11 -52 12 -82 1
-10 -4 -26 -10 -35 -14 -10 -3 -22 -5 -27 -4 -4 1 -15 -4 -23 -11 -18 -14 -52
-35 -73 -43 -8 -4 -22 -10 -30 -14 -22 -12 -46 0 -160 78 -126 86 -188 111
-301 118 -99 7 -135 0 -143 -25 -3 -10 -69 -69 -147 -132 -125 -102 -146 -125
-195 -202 -31 -49 -61 -88 -67 -88 -7 1 -25 21 -40 45 -38 60 -97 106 -192
152 l-80 38 -175 0 c-173 -1 -176 -1 -247 -32 -121 -51 -158 -78 -200 -142
-21 -33 -42 -60 -46 -60 -4 -1 -34 39 -65 89 -51 79 -75 104 -197 205 -77 63
-144 124 -149 134 -14 31 -65 37 -181 21z"/>
<path d="M2206 5160 c-20 -23 -51 -64 -68 -91 -36 -59 -60 -71 -108 -54 -89
31 -178 40 -385 39 -204 -1 -212 -2 -285 -29 -43 -16 -93 -27 -116 -26 -36 1
-46 -4 -71 -32 -33 -38 -107 -176 -130 -244 -12 -36 -17 -95 -18 -233 -2 -102
-3 -195 -4 -207 -1 -14 -11 -24 -31 -32 -17 -5 -30 -17 -30 -26 0 -11 -6 -15
-19 -10 -11 3 -25 -1 -34 -10 -9 -8 -25 -15 -36 -15 -12 0 -26 -9 -33 -20 -7
-11 -21 -20 -30 -20 -10 0 -18 -5 -18 -10 0 -6 -11 -15 -25 -20 -15 -6 -25
-17 -25 -29 0 -10 -7 -21 -15 -25 -17 -6 -20 -32 -5 -41 6 -4 17 -1 25 5 8 6
23 9 34 5 14 -4 23 0 31 15 6 11 15 18 21 14 5 -3 17 0 26 7 8 7 25 13 37 14
12 0 25 9 31 22 7 16 15 21 31 17 17 -4 24 0 29 16 6 18 9 19 22 8 13 -10 21
-6 49 25 19 20 34 46 34 57 0 12 15 58 34 103 63 155 77 215 85 378 8 148 9
153 34 175 37 32 90 40 162 24 33 -7 80 -16 105 -21 67 -12 352 -11 453 2 49
6 91 9 94 6 2 -3 -5 -36 -17 -74 -16 -47 -24 -104 -27 -189 l-6 -122 -48 -37
c-115 -88 -201 -212 -354 -516 -98 -193 -232 -358 -303 -374 -26 -5 -32 -12
-32 -32 0 -14 -20 -62 -45 -108 -84 -153 -88 -173 -91 -403 -2 -205 -6 -232
-41 -232 -7 0 -16 -7 -19 -15 -4 -8 -16 -15 -29 -15 -12 0 -28 -6 -34 -14 -6
-7 -25 -16 -41 -20 -17 -3 -30 -12 -30 -20 0 -8 -10 -16 -22 -18 -13 -2 -22
-9 -20 -16 1 -7 -8 -12 -22 -12 -27 0 -42 -15 -26 -25 17 -10 11 -25 -10 -25
-13 0 -20 -7 -20 -19 0 -26 17 -36 35 -21 8 7 21 10 30 7 8 -4 21 3 29 15 9
13 21 18 31 14 9 -3 18 0 22 9 3 10 12 13 23 10 18 -6 50 18 50 36 0 5 11 7
24 3 19 -4 26 -1 31 16 5 17 10 19 21 9 11 -9 21 -4 49 24 19 19 35 44 35 56
0 11 18 67 39 123 62 163 71 206 80 369 5 85 14 165 21 179 6 14 50 57 96 95
118 98 240 226 303 320 125 185 151 226 216 335 37 63 74 121 80 129 10 11 19
1 44 -51 46 -92 118 -177 212 -247 97 -74 144 -98 268 -141 107 -36 114 -34
106 40 -2 25 -4 296 -4 603 l-1 557 -65 0 c-113 0 -253 36 -317 81 -14 11 -28
19 -31 19 -3 0 -21 -18 -41 -40z"/>
<path d="M3126 5171 c-3 -5 -36 -21 -73 -37 -59 -24 -86 -28 -203 -33 l-135
-6 -3 -608 c-2 -485 0 -609 11 -612 25 -10 174 36 266 82 73 36 110 63 171
123 87 87 135 152 160 219 10 25 22 47 28 49 5 1 21 -21 34 -50 27 -58 177
-297 266 -423 67 -95 202 -237 306 -320 40 -33 79 -71 86 -85 7 -14 16 -86 21
-160 4 -74 11 -154 14 -177 7 -48 52 -185 84 -253 11 -25 21 -57 21 -73 0 -17
13 -41 34 -64 29 -32 36 -35 50 -24 13 11 17 10 26 -13 10 -28 24 -33 36 -15
4 8 12 2 21 -15 9 -17 22 -26 38 -26 13 0 27 -4 30 -10 3 -5 14 -10 24 -10 10
0 24 -7 31 -15 7 -9 19 -14 27 -11 8 3 23 0 34 -7 16 -10 21 -9 29 3 7 11 4
19 -12 31 -11 9 -18 21 -14 28 4 6 -1 14 -11 18 -27 10 -76 45 -91 66 -7 9
-24 17 -38 17 -13 0 -24 5 -24 10 0 6 -14 10 -31 10 -17 0 -28 4 -24 10 3 5
-7 16 -23 24 -16 8 -32 23 -36 31 -3 9 -6 94 -6 189 0 204 -9 249 -79 391 -27
55 -52 112 -55 128 -5 20 -17 31 -46 43 -44 18 -139 115 -200 204 -20 30 -66
114 -103 185 -144 286 -227 406 -341 495 -40 31 -45 40 -46 75 -1 101 -34 286
-59 334 -6 11 -7 22 -2 25 4 3 73 1 152 -5 176 -14 396 -6 463 15 98 31 194
10 215 -47 4 -12 11 -83 14 -157 6 -145 20 -206 83 -358 19 -45 34 -94 34
-108 0 -36 65 -101 84 -85 11 10 16 8 21 -9 5 -17 12 -20 31 -16 13 4 24 2 24
-3 0 -16 32 -42 46 -37 7 3 18 -1 24 -9 6 -8 18 -11 27 -8 9 4 19 -1 25 -10 5
-10 20 -17 33 -17 13 0 27 -5 30 -10 4 -7 14 -6 28 1 l21 12 -22 17 c-12 10
-22 28 -22 39 0 14 -6 21 -19 21 -10 0 -21 7 -25 15 -3 8 -15 15 -26 15 -11 0
-20 6 -20 14 0 15 -21 26 -50 26 -10 0 -21 7 -24 16 -4 10 -14 14 -26 11 -13
-3 -24 1 -30 14 -6 10 -17 19 -25 19 -30 0 -37 42 -39 239 -2 217 -8 246 -82
379 -62 114 -80 132 -131 132 -24 0 -59 7 -79 15 -73 30 -182 45 -336 45 -159
0 -236 -8 -350 -37 -85 -21 -101 -14 -156 73 -28 43 -48 64 -61 64 -11 0 -22
-4 -25 -9z"/>
<path d="M3275 4150 c-112 -168 -386 -320 -577 -320 -72 0 -181 33 -293 90
-126 63 -184 107 -258 195 -32 39 -64 71 -71 73 -25 6 -104 -283 -92 -333 8
-31 18 -36 162 -81 166 -51 170 -51 354 -69 194 -19 386 -14 585 16 142 22
322 64 342 80 18 15 8 76 -38 252 -21 82 -39 150 -39 153 0 2 -8 4 -17 4 -11
0 -35 -26 -58 -60z"/>
<path d="M1950 3723 c-6 -21 -14 -65 -17 -98 l-5 -60 68 -34 c237 -116 554
-166 911 -142 92 6 213 20 268 31 123 24 275 69 294 86 12 11 13 30 3 115 -6
56 -14 105 -19 110 -4 4 -46 -4 -93 -17 -98 -29 -259 -58 -412 -74 -129 -14
-504 1 -643 25 -49 9 -142 34 -206 55 -64 22 -121 40 -127 40 -6 0 -16 -17
-22 -37z"/>
<path d="M1916 3463 c-11 -71 -7 -171 9 -186 29 -29 250 -114 373 -143 181
-42 703 -34 957 15 99 19 190 44 213 57 21 14 22 21 22 124 0 63 -4 110 -10
110 -5 0 -40 -11 -77 -25 -285 -105 -802 -124 -1118 -41 -139 37 -298 91 -330
113 -28 19 -32 17 -39 -24z"/>
<path d="M1917 3183 c-2 -4 -1 -55 3 -111 5 -71 12 -109 23 -119 19 -19 309
-110 391 -123 123 -20 365 -31 526 -25 246 9 545 60 588 99 13 13 40 221 30
232 -4 3 -54 -6 -112 -20 -242 -60 -639 -89 -886 -66 -209 19 -315 46 -541
135 -10 3 -19 3 -22 -2z"/>
<path d="M1940 2854 c0 -22 4 -53 26 -201 6 -40 19 -48 184 -103 163 -54 225
-66 408 -81 222 -19 476 7 746 74 l90 22 13 50 c17 68 36 196 30 202 -3 2 -43
-5 -89 -16 -164 -40 -316 -54 -593 -53 -344 0 -529 27 -743 108 -36 13 -66 24
-68 24 -2 0 -4 -12 -4 -26z"/>
<path d="M1990 2529 c0 -13 11 -60 25 -105 21 -70 32 -88 66 -118 44 -38 143
-77 254 -102 96 -21 477 -30 627 -15 134 14 207 32 297 72 l67 30 23 95 c13
52 21 98 18 100 -3 3 -56 -6 -119 -19 -169 -38 -419 -67 -578 -67 -240 0 -424
40 -667 147 -8 3 -13 -3 -13 -18z"/>
<path d="M2060 2241 c0 -3 10 -35 21 -71 12 -38 21 -95 22 -135 1 -58 -4 -79
-27 -125 -16 -30 -34 -58 -41 -62 -6 -4 -25 -26 -41 -50 -15 -24 -72 -101
-125 -173 -52 -71 -107 -155 -121 -185 -42 -91 -69 -230 -75 -385 -5 -130 -4
-149 21 -244 34 -132 124 -328 210 -459 87 -131 211 -259 289 -296 57 -28 147
-46 147 -30 0 5 -39 47 -87 94 -95 92 -131 145 -198 296 -81 181 -97 254 -102
461 l-5 182 30 65 c29 63 65 104 101 118 10 3 37 -2 61 -13 42 -19 149 -26
184 -13 31 12 18 40 -26 53 -62 19 -98 60 -98 111 0 54 23 91 77 126 65 41
123 108 123 142 0 17 9 37 21 48 14 13 19 26 15 45 -3 15 1 35 10 48 10 14 13
32 9 51 -4 19 -1 37 8 50 8 12 13 30 10 40 -9 35 40 54 147 58 101 4 140 -5
140 -34 0 -9 9 -27 20 -41 15 -20 19 -34 14 -60 -4 -21 -1 -44 6 -58 10 -19
10 -30 1 -54 -9 -21 -10 -35 -2 -49 6 -12 11 -36 11 -55 0 -43 38 -79 126
-121 63 -29 94 -65 94 -108 0 -53 -23 -104 -66 -145 -61 -59 -59 -73 14 -73
31 1 68 7 82 15 30 17 74 19 101 5 23 -13 65 -93 91 -175 15 -45 21 -100 25
-225 5 -162 5 -167 -27 -285 -62 -234 -181 -396 -348 -478 -49 -25 -50 -43 -1
-39 51 5 160 32 194 50 117 58 243 207 339 400 63 127 118 249 130 287 17 57
23 177 16 316 -7 131 -13 167 -38 242 -31 93 -95 210 -166 307 -24 32 -65 96
-92 142 -47 79 -49 87 -52 169 -4 79 -1 92 28 159 17 39 34 87 37 106 l6 35
-54 -22 c-109 -43 -130 -48 -269 -60 -158 -13 -611 -7 -695 10 -27 6 -89 30
-137 55 -49 24 -88 41 -88 37z"/>
</g>
</svg>
