<?xml version="1.0" standalone="no"?>
<!DOCTYPE svg PUBLIC "-//W3C//DTD SVG 20010904//EN"
 "http://www.w3.org/TR/2001/REC-SVG-20010904/DTD/svg10.dtd">
<svg version="1.0" xmlns="http://www.w3.org/2000/svg"
 width="976.000000pt" height="1639.000000pt" viewBox="0 0 976.000000 1639.000000"
 preserveAspectRatio="xMidYMid meet">
<metadata>
Created by potrace 1.14, written by Peter Selinger 2001-2017
</metadata>
<g transform="translate(0.000000,1639.000000) scale(0.100000,-0.100000)"
fill="#4b9400" stroke="none">
<path d="M3090 16363 c-135 -19 -325 -79 -465 -148 -102 -51 -368 -236 -446
-311 -34 -33 -48 -78 -50 -160 -2 -65 25 -137 52 -142 9 -2 81 47 160 109 170
133 313 229 402 269 82 37 204 71 392 110 147 31 154 31 355 26 191 -5 214 -8
340 -39 299 -76 391 -161 456 -427 26 -107 27 -120 5 -251 -14 -88 -16 -92
-93 -139 -356 -216 -436 -308 -524 -600 -65 -217 -82 -307 -104 -539 -10 -108
-14 -120 -61 -212 -113 -221 -197 -271 -709 -424 -140 -42 -298 -89 -350 -105
-212 -64 -423 -99 -547 -90 -39 3 -73 7 -76 10 -2 3 -41 426 -87 940 -59 665
-87 940 -97 951 -7 8 -13 22 -13 30 0 22 -46 114 -67 135 -11 10 -89 108 -173
218 -84 109 -162 208 -174 221 -26 27 -63 48 -75 41 -4 -3 -28 -8 -52 -11 -24
-3 -60 -10 -81 -15 -21 -6 -63 -11 -95 -12 -50 -1 -62 -5 -90 -31 -49 -46 -46
-87 10 -141 33 -33 214 -315 357 -556 14 -25 192 -2073 185 -2127 -4 -27 -17
-66 -30 -88 -13 -22 -298 -647 -635 -1390 -570 -1257 -641 -1411 -661 -1425
-24 -17 -45 -234 -29 -305 15 -69 36 -93 92 -103 82 -16 152 22 164 87 5 30
905 1957 1006 2156 36 70 47 84 74 90 10 3 44 12 74 20 121 34 84 50 835 -365
374 -206 706 -388 737 -404 53 -28 57 -32 71 -85 22 -79 40 -199 39 -246 -1
-22 -54 -443 -118 -935 -90 -688 -121 -899 -133 -912 -13 -14 -26 -16 -70 -11
l-54 6 -710 701 c-547 540 -716 702 -737 704 -23 3 -31 -3 -49 -38 -11 -22
-21 -48 -21 -56 0 -9 -6 -28 -14 -42 -10 -19 -74 -643 -212 -2082 -109 -1130
-200 -2090 -202 -2132 -2 -43 -8 -78 -13 -78 -5 0 -9 -43 -9 -95 0 -52 -4 -95
-9 -95 -5 0 -12 -44 -15 -98 -7 -138 -24 -345 -36 -430 -5 -40 -10 -107 -10
-147 0 -40 -5 -95 -10 -122 -6 -26 -15 -118 -20 -203 -13 -205 -38 -535 -45
-585 -3 -22 -10 -110 -16 -195 -5 -85 -17 -234 -25 -330 -8 -96 -19 -222 -23
-280 -19 -215 -40 -443 -61 -630 -5 -47 -12 -112 -16 -145 -7 -67 -27 -226
-44 -355 -8 -61 -17 -89 -30 -100 -24 -20 -359 -934 -372 -1015 -16 -105 -34
-517 -25 -575 8 -55 203 -496 253 -573 21 -31 28 -36 40 -26 8 6 14 17 14 23
0 7 8 28 19 48 10 20 24 65 30 100 7 35 19 86 26 113 8 28 17 80 21 118 3 37
10 70 15 73 5 3 9 25 9 50 0 24 7 86 15 137 8 50 19 166 25 257 6 91 15 194
19 230 9 80 45 149 81 156 58 11 94 40 108 85 111 384 225 824 227 879 1 36 7
97 13 135 18 115 32 261 42 430 5 88 14 210 20 270 6 61 40 668 76 1350 35
682 69 1274 74 1315 5 41 21 314 35 605 14 292 30 550 35 575 5 25 14 155 20
290 6 135 15 263 20 285 5 22 12 113 16 203 4 89 11 165 15 168 5 3 9 29 9 57
0 51 16 127 29 137 3 3 14 22 23 43 30 64 65 78 192 74 87 -2 110 -6 117 -19
5 -9 237 -360 516 -780 l507 -763 7 -230 c5 -126 5 -239 2 -250 -3 -11 -5 -85
-5 -165 0 -80 -6 -273 -14 -430 -8 -157 -14 -310 -13 -340 1 -30 2 -167 2
-305 0 -498 24 -754 78 -828 11 -16 34 -65 51 -110 30 -80 39 -112 73 -232 10
-33 25 -71 35 -85 9 -14 139 -364 289 -779 150 -415 279 -764 286 -775 7 -12
45 -120 85 -241 40 -121 80 -229 90 -240 10 -11 103 -165 208 -342 l191 -322
116 -113 c136 -131 167 -151 272 -179 167 -45 273 -59 453 -59 180 0 286 14
453 59 105 28 136 48 272 179 l116 113 191 322 c105 177 198 331 208 342 10
11 50 119 90 240 40 121 78 229 85 241 7 11 136 360 286 775 150 415 280 765
289 779 10 14 25 52 35 85 34 120 43 152 73 232 17 45 40 94 51 110 54 74 78
330 78 828 0 138 1 275 2 305 1 30 -5 183 -13 340 -8 157 -14 350 -14 430 0
80 -2 154 -5 165 -3 11 -3 124 2 250 l7 230 507 763 c279 420 511 771 516 780
7 13 30 17 117 19 127 4 162 -10 192 -74 9 -21 20 -40 23 -43 13 -10 29 -86
29 -137 0 -28 4 -54 9 -57 4 -3 11 -79 15 -168 4 -90 11 -181 16 -203 5 -22
14 -150 20 -285 6 -135 15 -265 20 -290 5 -25 21 -283 35 -575 14 -291 30
-564 35 -605 5 -41 39 -633 74 -1315 36 -682 70 -1289 76 -1350 6 -60 15 -182
20 -270 10 -169 24 -315 42 -430 6 -38 12 -99 13 -135 2 -55 116 -495 227
-879 14 -45 50 -74 108 -85 36 -7 72 -76 81 -156 4 -36 13 -139 19 -230 6 -91
17 -207 25 -257 8 -51 15 -113 15 -137 0 -25 4 -47 9 -50 5 -3 12 -36 15 -73
4 -38 13 -90 21 -118 7 -27 19 -78 26 -113 6 -35 20 -80 30 -100 11 -20 19
-41 19 -48 0 -6 6 -17 14 -23 12 -10 19 -5 40 26 50 77 245 518 253 573 9 58
-9 470 -25 575 -13 81 -348 995 -372 1015 -13 11 -22 39 -30 100 -17 129 -37
288 -44 355 -4 33 -11 98 -16 145 -21 187 -42 415 -61 630 -4 58 -15 184 -23
280 -8 96 -20 245 -25 330 -6 85 -13 173 -16 195 -7 50 -32 380 -45 585 -5 85
-14 177 -20 203 -5 27 -10 82 -10 122 0 40 -5 107 -10 147 -12 85 -29 292 -36
431 -3 53 -10 97 -15 97 -5 0 -9 43 -9 95 0 52 -4 95 -9 95 -5 0 -11 35 -13
77 -2 43 -93 1003 -202 2133 -138 1439 -202 2063 -212 2082 -8 14 -14 33 -14
42 0 8 -10 34 -21 56 -18 35 -26 41 -49 38 -21 -2 -190 -164 -737 -704 l-710
-701 -54 -6 c-44 -5 -57 -3 -70 11 -12 13 -43 224 -133 912 -64 492 -117 913
-118 935 -1 47 17 167 39 246 14 53 18 57 71 85 31 16 363 198 737 404 751
415 714 399 835 365 30 -8 64 -17 74 -20 27 -6 38 -20 74 -90 101 -199 1001
-2126 1006 -2156 12 -65 82 -103 164 -87 56 10 77 34 92 103 16 71 -5 288 -29
305 -20 14 -91 168 -661 1425 -337 743 -622 1368 -635 1390 -13 22 -26 61 -30
88 -7 54 171 2102 185 2127 143 241 324 523 357 556 56 54 59 95 11 141 -29
26 -41 30 -91 31 -32 1 -74 6 -95 12 -21 5 -57 12 -81 15 -24 3 -48 8 -52 11
-12 7 -49 -14 -75 -41 -12 -13 -90 -112 -174 -221 -84 -110 -162 -208 -173
-218 -21 -21 -67 -113 -67 -135 0 -8 -6 -22 -13 -30 -10 -11 -38 -286 -97
-951 -46 -514 -85 -937 -87 -940 -3 -3 -37 -7 -76 -10 -124 -9 -335 26 -547
90 -52 16 -210 63 -350 105 -512 153 -596 203 -709 424 -47 92 -51 104 -61
212 -22 232 -39 322 -104 539 -88 292 -168 384 -524 600 -77 47 -79 51 -93
139 -22 131 -21 144 5 251 65 266 157 351 456 427 126 31 149 34 340 39 201 5
208 5 355 -26 188 -39 310 -73 392 -110 89 -40 232 -136 402 -269 79 -62 151
-111 160 -109 43 9 67 143 41 238 -12 46 -36 68 -221 206 -180 133 -315 205
-499 263 -183 58 -291 69 -624 66 -165 -2 -281 -7 -285 -12 -3 -6 -38 -13 -76
-16 -98 -9 -219 -56 -360 -139 -197 -117 -261 -194 -489 -590 -59 -103 -117
-195 -128 -205 -26 -23 -90 -23 -116 0 -11 10 -69 102 -128 205 -228 396 -292
473 -489 590 -141 83 -262 130 -360 139 -38 3 -73 10 -76 16 -11 16 -558 16
-679 0z m2029 -1929 c245 -48 285 -86 310 -286 14 -107 16 -182 5 -199 -11
-20 -58 -44 -104 -54 -19 -4 -37 -11 -40 -16 -3 -4 -46 -13 -95 -20 -50 -7
-92 -16 -95 -20 -4 -6 -179 -29 -220 -29 -28 0 -205 26 -220 33 -8 3 -51 11
-95 17 -44 7 -84 15 -90 20 -5 4 -36 15 -68 24 -77 22 -91 40 -88 113 7 168
30 270 71 317 40 45 103 71 246 100 163 33 315 33 483 0z m-862 -818 c122 -6
224 -14 227 -16 5 -6 -11 -257 -24 -360 -25 -202 -63 -347 -116 -437 -34 -58
-109 -143 -148 -167 -17 -10 -48 -30 -68 -44 -34 -22 -46 -24 -150 -23 -62 1
-115 5 -118 10 -3 4 -22 13 -42 20 -90 29 -157 110 -197 236 -11 33 -27 75
-36 92 -9 18 -18 54 -20 80 -2 27 -9 71 -14 99 -12 62 -6 169 16 282 15 77 19
85 65 128 69 64 100 75 288 100 25 3 47 8 49 10 6 5 32 5 288 -10z m1603 -1
c14 -3 53 -10 87 -15 86 -13 124 -31 181 -84 46 -43 50 -51 65 -128 22 -113
28 -220 16 -282 -5 -28 -12 -72 -14 -99 -2 -26 -11 -62 -20 -80 -9 -17 -25
-59 -36 -92 -40 -126 -107 -207 -197 -236 -20 -7 -39 -16 -42 -20 -3 -5 -56
-9 -118 -10 -104 -1 -116 1 -150 23 -20 14 -51 34 -68 44 -39 24 -114 109
-148 167 -34 58 -82 204 -96 292 -26 162 -54 494 -43 505 2 3 95 10 206 17
186 10 314 10 377 -2z m-862 -480 c43 -20 56 -32 72 -67 11 -24 20 -53 20 -65
0 -13 4 -23 8 -23 9 0 36 -496 28 -508 -3 -5 -7 -27 -10 -51 -6 -53 -34 -85
-95 -107 -25 -9 -57 -21 -70 -28 -13 -6 -45 -11 -71 -11 -26 0 -58 5 -71 11
-13 7 -45 19 -70 28 -61 22 -89 54 -95 107 -3 24 -7 46 -10 51 -8 12 19 508
28 508 4 0 8 10 8 23 0 12 9 41 20 65 26 58 96 92 190 92 48 0 79 -7 118 -25z
m-2228 -306 c63 -6 124 -15 135 -19 11 -5 54 -16 97 -25 118 -25 232 -97 244
-157 2 -7 12 -37 23 -67 13 -39 19 -82 20 -150 0 -84 -3 -100 -26 -142 -49
-91 -161 -140 -318 -140 -104 0 -103 0 -590 159 -291 95 -333 111 -363 141
l-34 33 4 118 c3 113 4 120 33 162 53 74 84 85 280 92 93 4 171 9 174 12 6 6
161 -3 321 -17z m4735 5 c174 -7 208 -20 260 -92 29 -42 30 -49 33 -162 l4
-118 -34 -33 c-30 -30 -72 -46 -363 -141 -487 -159 -486 -159 -590 -159 -157
0 -269 49 -318 140 -23 42 -26 58 -26 142 1 68 7 111 20 150 11 30 21 60 23
67 12 60 126 132 244 157 43 9 86 20 97 25 11 5 76 14 145 20 179 16 227 18
295 13 33 -2 128 -6 210 -9z m-3326 -1080 c295 -201 548 -379 564 -395 36 -39
34 -70 -11 -154 -46 -85 -89 -117 -222 -164 l-94 -34 -177 7 c-176 7 -309 30
-317 56 -2 6 -38 34 -80 62 -167 111 -220 172 -329 375 l-60 111 -2 95 c-2
134 15 324 31 343 48 59 56 64 109 64 52 0 53 -1 588 -366z m2064 342 c12 -13
28 -31 35 -40 16 -19 33 -209 31 -343 l-2 -95 -60 -111 c-109 -203 -162 -264
-329 -375 -42 -28 -78 -56 -80 -62 -8 -26 -141 -49 -317 -56 l-177 -7 -94 34
c-133 47 -176 79 -222 164 -44 81 -47 114 -15 149 12 14 265 192 562 396 l540
369 53 1 c43 0 57 -4 75 -24z m-1307 -2239 c13 -14 49 -168 65 -277 18 -125
25 -184 53 -450 14 -140 31 -285 36 -323 6 -37 10 -96 10 -131 0 -34 5 -98 11
-142 11 -83 26 -307 58 -837 11 -174 22 -336 26 -359 4 -23 51 -871 104 -1884
53 -1014 100 -1846 103 -1850 4 -4 199 3 433 16 235 12 428 20 430 18 2 -2 7
-92 10 -200 6 -237 14 -219 -131 -292 -28 -14 -54 -26 -58 -26 -4 0 -18 -7
-32 -17 -14 -9 -53 -26 -87 -38 -34 -12 -96 -34 -137 -49 -138 -49 -316 -80
-522 -92 -65 -4 -118 -10 -118 -15 0 -4 -139 -8 -310 -8 -170 0 -310 4 -310 8
0 5 -53 11 -117 15 -207 12 -385 43 -523 92 -41 15 -103 37 -137 49 -34 12
-73 29 -87 38 -14 10 -28 17 -32 17 -4 0 -30 12 -58 26 -145 73 -137 55 -131
292 3 108 8 198 10 200 2 2 195 -6 430 -18 234 -13 429 -20 433 -16 3 4 50
836 103 1850 53 1013 100 1861 104 1884 4 23 15 185 26 359 32 530 47 754 58
837 6 44 11 108 11 142 0 35 4 94 10 131 5 38 22 183 36 323 38 366 59 515 92
650 14 59 23 77 42 88 28 14 79 8 96 -11z m-126 -7398 c223 -1 497 -1 610 1
254 3 292 -6 371 -86 61 -62 78 -118 80 -259 l1 -90 -64 -58 c-34 -32 -79 -69
-99 -82 -111 -73 -643 -129 -1011 -106 -363 22 -571 57 -647 106 -20 13 -65
50 -99 82 l-64 58 1 90 c2 139 19 197 77 257 75 76 136 94 315 91 68 -2 306
-3 529 -4z"/>
</g>
</svg>
