<?xml version="1.0" standalone="no"?>
<!DOCTYPE svg PUBLIC "-//W3C//DTD SVG 20010904//EN"
 "http://www.w3.org/TR/2001/REC-SVG-20010904/DTD/svg10.dtd">
<svg version="1.0" xmlns="http://www.w3.org/2000/svg"
 width="1343.000000pt" height="1424.000000pt" viewBox="0 0 1343.000000 1424.000000"
 preserveAspectRatio="xMidYMid meet">
<metadata>
Created by potrace 1.14, written by Peter Selinger 2001-2017
</metadata>
<g transform="translate(0.000000,1424.000000) scale(0.100000,-0.100000)"
fill="#900000" stroke="none">
<path d="M4240 14228 c0 -7 -16 -24 -35 -38 -19 -14 -35 -30 -35 -36 0 -6 -15
-24 -32 -41 -57 -53 -168 -170 -168 -177 0 -3 15 -12 34 -20 44 -18 101 -77
124 -127 l19 -42 44 59 c41 56 124 204 113 204 -3 0 0 9 6 21 42 78 40 191 -3
203 -37 10 -67 7 -67 -6z"/>
<path d="M3955 13875 c-5 -2 -29 -8 -51 -15 l-42 -13 -10 -66 c-15 -89 -49
-206 -75 -256 -6 -11 -25 -49 -44 -84 -18 -35 -42 -74 -53 -86 -11 -12 -20
-25 -20 -30 0 -5 -16 -25 -35 -45 -19 -19 -31 -40 -27 -45 4 -6 32 -26 62 -45
30 -19 70 -47 88 -62 20 -18 38 -25 46 -21 32 19 104 120 140 198 11 22 27 56
37 75 9 19 24 55 32 80 9 25 26 70 37 100 53 135 53 164 4 236 -37 54 -70 83
-89 79z"/>
<path d="M8023 13225 c-44 -15 -46 -18 -30 -56 13 -31 108 -109 133 -109 6 0
25 -16 44 -35 19 -19 39 -35 45 -35 6 0 24 -13 40 -30 16 -16 34 -30 40 -30 6
0 25 -15 42 -32 17 -18 36 -37 43 -43 28 -24 100 -109 100 -118 0 -10 -294
-302 -404 -402 -37 -33 -85 -77 -108 -97 -22 -21 -44 -38 -49 -38 -5 0 -9 -7
-9 -15 0 -8 -10 -20 -22 -26 -23 -12 -35 -22 -148 -128 -36 -34 -73 -64 -82
-67 -10 -3 -18 -11 -18 -19 0 -8 -8 -16 -18 -19 -10 -3 -34 -21 -53 -39 -20
-17 -50 -43 -67 -57 -18 -14 -49 -40 -69 -57 -20 -18 -45 -35 -55 -39 -10 -3
-18 -11 -18 -18 0 -8 -13 -19 -30 -26 -16 -7 -30 -16 -30 -20 0 -4 -13 -13
-29 -20 -16 -6 -32 -19 -35 -27 -4 -10 -13 -13 -24 -8 -19 7 -100 24 -151 31
-19 2 -38 7 -42 10 -5 3 -9 0 -9 -6 0 -7 -15 -3 -35 10 -19 12 -35 17 -35 12
0 -5 -16 -6 -40 -2 -22 4 -42 4 -45 1 -2 -4 -18 -6 -34 -5 -17 1 -31 -1 -31
-5 0 -4 -8 -7 -17 -8 -35 -3 -96 -14 -104 -19 -5 -3 -9 1 -9 8 0 9 -3 9 -10
-2 -6 -10 -10 -11 -10 -2 0 6 -7 12 -15 12 -8 0 -15 4 -15 9 0 5 -8 8 -17 7
-10 -2 -27 3 -38 10 -17 11 -66 15 -166 14 -15 0 -32 -7 -39 -15 -7 -9 -16
-12 -19 -7 -6 9 -46 -3 -186 -53 -27 -10 -58 -22 -67 -26 -24 -12 -48 -11 -48
1 0 6 -12 16 -27 23 -16 6 -34 20 -41 29 -7 10 -19 18 -26 18 -7 0 -25 13 -41
30 -15 16 -32 27 -37 24 -4 -3 -8 -1 -8 5 0 5 -38 37 -85 72 -46 34 -87 68
-89 76 -3 7 -10 13 -16 13 -6 0 -28 16 -48 35 -20 19 -40 35 -44 35 -4 0 -23
15 -41 33 -19 17 -53 48 -76 67 -23 19 -59 51 -81 70 -21 19 -56 50 -77 69
-43 38 -363 343 -399 381 -13 14 -24 28 -24 32 0 5 -6 8 -14 8 -8 0 -24 16
-36 35 -12 19 -28 35 -36 35 -8 0 -14 4 -14 8 0 8 -33 45 -141 160 -28 30 -55
65 -61 78 -6 13 -17 24 -24 24 -7 0 -21 12 -31 26 -10 14 -28 35 -40 47 -13
11 -23 27 -23 34 0 7 -9 21 -20 30 -11 10 -20 22 -20 28 -1 23 -20 39 -53 41
-60 5 -62 -6 -37 -180 12 -85 20 -158 17 -163 -3 -4 -1 -33 4 -63 36 -225 44
-945 14 -1245 -2 -16 -6 -61 -9 -100 -4 -38 -9 -78 -12 -88 -3 -10 -7 -32 -10
-50 -5 -34 -14 -99 -19 -132 -1 -11 -13 -60 -25 -110 -27 -109 -25 -101 -35
-150 -4 -22 -14 -53 -22 -68 -8 -16 -12 -31 -10 -34 3 -2 -1 -20 -9 -39 -8
-19 -11 -34 -8 -34 3 0 -1 -12 -11 -26 -9 -14 -18 -33 -20 -42 -7 -28 -35
-104 -48 -126 -6 -12 -12 -23 -12 -26 0 -3 -9 -20 -19 -39 -10 -18 -16 -44
-13 -57 4 -24 -9 -34 -44 -34 -12 0 -19 -7 -19 -19 0 -13 -11 -23 -35 -31 -19
-6 -35 -15 -35 -20 0 -4 -14 -13 -30 -20 -17 -7 -30 -16 -30 -20 0 -3 -28 -19
-62 -34 -35 -16 -74 -37 -87 -47 -19 -16 -26 -17 -33 -7 -8 10 -11 10 -15 1
-2 -7 -11 -13 -19 -13 -8 0 -14 -4 -14 -10 0 -5 -3 -9 -7 -9 -22 4 -35 -2 -30
-14 10 -25 -59 -59 -143 -70 -44 -6 -80 -14 -80 -19 0 -4 -15 -8 -34 -8 -19 0
-37 -3 -40 -8 -2 -4 -34 -16 -70 -27 -36 -11 -66 -23 -66 -27 0 -4 -16 -10
-35 -14 -19 -3 -35 -9 -35 -13 0 -3 -15 -13 -32 -21 -36 -15 -41 -19 -95 -67
-20 -18 -40 -33 -45 -33 -5 0 -23 -13 -41 -29 -74 -68 -91 -81 -104 -81 -7 0
-21 -4 -31 -9 -25 -14 -159 -30 -217 -25 -162 12 -392 45 -415 59 -15 10 -21
11 -75 19 -58 9 -215 40 -305 61 -27 6 -112 23 -147 29 -11 2 -32 8 -45 12
-12 4 -30 9 -38 10 -8 2 -37 8 -65 14 -27 5 -59 12 -70 14 -11 2 -32 9 -47 15
-16 6 -28 8 -28 6 0 -2 -12 0 -28 6 -25 10 -44 14 -109 24 -12 2 -27 6 -34 10
-12 8 -61 22 -124 35 -58 12 -77 17 -109 29 -16 7 -31 9 -34 7 -2 -3 -14 0
-26 6 -19 10 -67 23 -121 31 -11 2 -29 8 -40 14 -30 15 -89 33 -111 33 -11 0
-31 8 -44 17 -14 10 -27 17 -30 17 -3 -1 -16 3 -30 8 -14 5 -33 11 -44 14 -10
2 -27 11 -37 20 -10 9 -23 13 -28 9 -6 -3 -11 -2 -11 3 0 16 -38 21 -50 7 -6
-7 -41 -16 -78 -20 -37 -4 -71 -11 -77 -15 -5 -4 -24 -11 -42 -14 -17 -4 -34
-14 -37 -22 -3 -8 -12 -14 -20 -14 -8 0 -22 -10 -30 -21 -13 -19 -13 -25 2
-58 9 -20 20 -38 23 -41 3 -3 14 -20 24 -37 11 -18 25 -33 31 -33 6 0 22 -16
35 -35 13 -19 29 -35 34 -35 6 0 19 -14 30 -30 11 -17 28 -33 38 -36 9 -3 17
-9 17 -14 0 -4 19 -28 42 -54 57 -61 78 -87 91 -113 5 -13 14 -23 18 -23 5 0
16 -15 25 -32 22 -42 44 -59 65 -48 12 7 39 -13 114 -86 55 -51 102 -94 106
-94 5 0 20 -16 35 -35 14 -19 33 -35 41 -35 7 0 16 -7 19 -15 3 -8 61 -62 129
-120 68 -59 126 -113 129 -121 3 -8 11 -14 18 -14 7 0 27 -13 43 -30 44 -43
199 -175 205 -175 3 0 16 -12 28 -27 13 -15 30 -28 37 -28 8 0 27 -16 42 -35
15 -19 33 -35 39 -35 5 0 23 -14 39 -30 16 -16 33 -30 39 -30 5 0 24 -15 41
-32 18 -18 54 -49 80 -68 27 -19 62 -47 79 -62 17 -15 45 -39 63 -53 22 -18
34 -38 38 -63 4 -20 10 -46 15 -57 18 -43 39 -254 35 -365 -3 -107 -6 -133
-20 -215 -3 -16 -7 -43 -9 -60 -1 -16 -8 -40 -15 -53 -6 -12 -10 -26 -7 -31 3
-4 -22 -41 -54 -81 -33 -40 -60 -77 -60 -81 0 -5 -3 -8 -8 -7 -11 4 -62 -44
-62 -59 0 -8 -5 -11 -10 -8 -6 3 -13 -2 -17 -12 -8 -20 -33 -49 -33 -37 0 4
-10 -6 -22 -23 -13 -16 -26 -30 -29 -29 -3 1 -22 -16 -41 -36 -19 -21 -41 -38
-47 -38 -7 0 -10 -3 -8 -7 4 -9 -39 -53 -46 -47 -2 2 -16 -7 -31 -21 -15 -14
-30 -25 -34 -25 -4 0 -21 -11 -37 -25 -38 -31 -147 -104 -203 -135 -23 -13
-42 -27 -42 -32 0 -4 -7 -8 -15 -8 -7 0 -18 -6 -22 -13 -4 -8 -21 -22 -38 -33
-16 -10 -45 -33 -64 -51 -39 -36 -35 -51 15 -58 16 -2 76 -11 134 -20 58 -9
125 -18 150 -20 25 -2 79 -7 120 -11 91 -9 451 -9 574 0 122 9 517 64 537 75
8 5 46 12 82 16 37 4 67 11 67 15 0 4 17 10 37 13 21 3 57 10 81 16 31 8 48 8
63 0 11 -6 28 -12 37 -14 9 -2 42 -13 72 -25 30 -12 63 -23 73 -25 10 -2 32
-9 50 -14 36 -12 86 -22 89 -19 2 1 14 -4 26 -11 13 -7 38 -14 55 -16 75 -9
110 -16 128 -25 10 -6 19 -8 19 -5 0 3 8 1 18 -4 11 -6 30 -12 43 -15 13 -2
51 -14 84 -26 33 -11 68 -22 78 -25 9 -2 22 -7 29 -11 6 -4 28 -11 47 -15 20
-4 54 -13 76 -19 22 -6 47 -13 55 -14 8 -1 26 -6 38 -10 33 -11 63 -16 166
-27 87 -9 234 -42 267 -59 9 -5 41 -14 70 -19 91 -17 210 -51 235 -68 14 -9
27 -13 30 -10 3 3 18 1 32 -4 14 -5 37 -12 51 -14 14 -3 60 -11 101 -19 177
-35 214 -46 152 -46 -18 0 -32 -4 -32 -10 0 -5 -11 -10 -24 -10 -13 0 -37 -7
-52 -15 -16 -8 -37 -15 -46 -15 -10 0 -18 -4 -18 -10 0 -5 -5 -10 -11 -10 -15
0 -123 -52 -127 -61 -2 -4 -19 -13 -38 -19 -19 -6 -34 -16 -34 -21 0 -5 -6 -9
-14 -9 -8 0 -27 -10 -43 -23 -15 -12 -39 -28 -53 -35 -25 -12 -143 -91 -170
-114 -8 -7 -37 -28 -65 -45 -27 -18 -59 -40 -70 -48 -11 -9 -38 -29 -60 -46
-55 -42 -101 -79 -137 -111 -17 -16 -34 -28 -39 -28 -4 0 -14 -6 -21 -13 -13
-13 -37 -27 -108 -64 -19 -10 -37 -21 -40 -24 -3 -4 -20 -10 -37 -14 -18 -3
-33 -10 -33 -15 0 -4 -9 -10 -20 -13 -37 -10 -24 -44 26 -69 26 -12 49 -30 52
-38 3 -8 15 -24 28 -35 15 -14 28 -48 44 -115 l22 -96 44 -2 c24 -1 46 3 49 8
3 6 19 10 36 10 16 0 29 4 29 9 0 5 9 13 21 16 12 4 52 36 91 71 38 35 74 64
79 64 5 0 9 7 9 15 0 8 4 15 9 15 5 0 27 17 49 38 36 33 93 82 156 135 12 9
35 28 51 42 17 14 50 41 75 61 25 19 53 41 62 49 9 7 27 19 40 26 13 6 30 18
38 26 24 22 119 83 129 83 5 0 11 4 13 9 3 9 215 121 228 121 4 0 28 19 53 43
25 23 64 57 86 76 26 21 41 42 41 56 0 33 -29 85 -54 96 -11 5 -34 18 -51 28
-16 11 -47 20 -67 20 -20 1 -40 6 -43 11 -9 14 111 13 137 -1 11 -6 44 -15 72
-19 28 -5 85 -16 126 -24 41 -9 96 -16 123 -16 41 0 50 -4 65 -28 9 -16 23
-27 30 -24 10 3 10 -5 -2 -33 -9 -21 -16 -45 -16 -54 -1 -18 -44 -71 -59 -71
-6 0 -27 -30 -48 -67 -20 -38 -48 -83 -60 -102 -13 -19 -23 -40 -23 -48 0 -8
-9 -27 -20 -43 -11 -15 -17 -30 -13 -34 3 -3 1 -6 -5 -6 -13 0 -46 -59 -38
-67 3 -3 -10 -29 -29 -58 -20 -31 -36 -73 -40 -102 -4 -26 -14 -76 -21 -110
-36 -160 -34 -225 12 -330 8 -17 14 -38 14 -47 0 -9 4 -16 10 -16 5 0 12 -16
16 -35 3 -19 10 -35 15 -35 5 0 9 -4 9 -10 0 -5 -6 -10 -13 -10 -30 0 -45 -33
-40 -82 3 -27 9 -48 14 -48 4 0 9 -10 11 -23 4 -32 70 -37 109 -8 16 12 35 21
43 21 10 0 16 12 18 38 3 35 5 37 48 45 25 5 61 13 80 18 19 6 46 10 60 11 48
0 215 22 220 28 4 5 64 18 168 36 18 4 35 10 38 15 3 5 15 9 27 9 13 0 31 6
42 13 11 7 45 21 75 31 30 11 64 25 75 33 11 7 26 13 35 13 8 0 25 11 38 25
24 25 109 45 121 29 9 -12 52 -34 78 -39 12 -2 31 -9 43 -15 12 -6 31 -13 43
-16 75 -16 125 -26 142 -28 91 -14 112 -19 124 -29 10 -9 16 -7 25 5 12 16 14
16 30 0 16 -16 18 -16 27 1 6 9 15 15 20 11 12 -7 245 23 274 36 19 8 38 13
108 27 15 3 27 9 27 14 0 5 9 9 20 9 32 0 180 68 187 86 8 21 73 -14 73 -40 0
-14 14 -29 40 -44 22 -12 40 -29 40 -37 0 -14 18 -23 66 -30 16 -2 56 -14 89
-26 33 -11 89 -23 125 -25 36 -3 71 -7 78 -9 6 -2 12 0 12 5 0 6 9 10 20 10
11 0 20 -7 20 -15 0 -8 6 -15 13 -15 21 0 40 17 32 29 -4 8 4 11 30 9 22 -1
40 3 44 11 5 7 23 15 41 17 21 3 43 15 60 34 15 16 30 30 33 30 4 0 7 -28 7
-62 0 -35 5 -90 11 -123 6 -33 11 -67 11 -76 -1 -24 34 -37 120 -44 l76 -6 1
33 c1 18 3 69 5 113 3 82 -31 376 -45 385 -10 7 -5 87 6 113 7 16 0 42 -26
102 -4 11 -19 65 -33 120 -14 55 -41 140 -60 189 -20 49 -36 95 -36 103 0 7
-4 21 -9 31 -6 9 -13 38 -16 64 -3 26 -10 50 -16 53 -17 11 -9 35 11 35 11 0
20 4 20 10 0 5 26 47 58 92 31 46 64 96 71 111 34 64 152 147 211 147 33 0 47
7 87 47 l48 47 90 2 c50 2 96 3 103 4 6 0 12 9 12 19 0 25 17 35 51 33 36 -3
359 45 393 58 37 14 79 13 95 -2 11 -10 13 -10 7 0 -5 8 0 12 13 12 11 0 62
12 113 26 51 14 105 28 120 31 15 3 25 9 22 14 -3 5 3 9 12 9 23 0 128 32 134
41 3 4 19 11 35 15 16 4 36 13 43 21 7 7 24 13 38 13 13 0 24 4 24 9 0 5 14
12 30 16 17 4 30 11 30 16 0 5 16 9 35 9 21 0 53 11 82 29 31 20 52 27 63 21
47 -24 163 -28 275 -10 39 7 80 13 93 14 12 0 22 5 22 10 0 5 3 6 7 3 3 -4 12
-2 20 5 8 6 34 11 58 10 25 0 45 3 45 8 0 4 14 10 31 14 24 4 35 2 45 -11 7
-10 14 -15 14 -11 0 4 12 3 28 -3 24 -10 46 -16 78 -23 7 -1 19 -8 28 -15 14
-12 16 -12 10 3 -5 12 -2 15 10 10 9 -3 16 -10 16 -16 0 -5 5 -6 10 -3 6 3 10
1 10 -4 0 -6 13 -11 29 -11 16 0 46 -6 67 -14 22 -7 45 -11 52 -9 6 3 12 1 12
-4 0 -5 14 -7 31 -5 18 3 29 1 26 -4 -3 -5 10 -9 29 -8 19 1 36 -2 39 -6 3 -4
24 -6 47 -3 31 5 39 3 33 -6 -6 -10 -3 -11 15 -1 18 10 24 9 31 -1 4 -7 11
-10 15 -6 4 4 13 2 21 -4 9 -9 13 -8 13 0 0 7 9 9 28 4 46 -11 400 -7 415 5
20 17 162 18 172 1 16 -25 105 4 105 35 0 21 -62 87 -76 82 -12 -5 -74 38 -82
56 -2 3 -14 19 -28 35 -13 15 -27 36 -30 46 -3 9 -11 17 -17 17 -7 0 -21 16
-31 35 -11 19 -23 35 -27 35 -9 0 -45 37 -114 115 -44 50 -125 132 -247 249
-20 20 -41 36 -47 36 -6 0 -20 14 -33 30 -12 17 -27 30 -34 30 -7 0 -23 15
-35 33 -13 17 -26 34 -29 37 -3 3 -15 28 -28 55 -13 28 -30 63 -38 78 -8 16
-14 34 -14 42 0 7 -7 26 -15 41 -8 16 -15 37 -15 46 0 9 -4 19 -9 22 -5 3 -11
20 -15 38 -36 205 -40 223 -47 193 l-7 -30 -1 32 c0 17 5 34 12 36 10 4 10 6
0 6 -9 1 -13 20 -13 64 0 44 3 58 10 47 8 -12 10 -12 11 5 2 45 23 135 38 163
6 12 9 22 6 22 -3 0 2 15 12 33 9 17 18 38 19 46 2 7 13 24 26 38 13 13 21 27
19 30 -6 9 120 143 134 143 8 0 18 6 22 13 4 7 23 19 41 26 17 8 32 17 32 21
0 5 12 13 28 19 24 10 79 45 109 71 7 5 17 10 23 10 5 0 10 5 10 10 0 6 7 10
15 10 9 0 18 7 21 15 4 8 12 15 20 15 7 0 26 11 41 25 16 14 51 40 78 57 28
18 59 41 70 51 25 22 91 74 135 107 19 14 50 40 69 57 19 18 43 36 53 39 10 3
18 11 18 18 0 6 13 19 28 28 16 10 49 36 75 60 113 106 150 138 158 138 5 0 9
6 9 13 0 6 16 23 35 36 19 13 35 30 35 37 0 8 4 14 9 14 13 0 248 242 336 345
17 20 65 71 108 115 42 44 77 84 77 88 0 4 14 16 30 27 17 11 33 28 36 38 3 9
21 24 40 32 30 12 34 18 34 53 0 23 -5 39 -12 40 -34 4 -152 3 -234 -2 -107
-7 -489 -61 -525 -74 -13 -5 -72 -15 -131 -22 -60 -7 -108 -16 -108 -20 0 -4
-28 -11 -62 -14 -35 -4 -85 -13 -113 -21 -27 -8 -77 -17 -110 -21 -33 -3 -64
-10 -70 -14 -5 -4 -35 -11 -65 -14 -30 -4 -64 -11 -75 -16 -11 -5 -47 -14 -80
-19 -119 -20 -180 -32 -200 -41 -11 -5 -33 -11 -50 -14 -16 -2 -59 -12 -95
-21 -36 -9 -83 -20 -105 -24 -58 -12 -217 -52 -240 -62 -11 -4 -33 -10 -50
-13 -16 -2 -59 -12 -95 -21 -36 -9 -81 -19 -100 -22 -19 -3 -39 -9 -45 -13
-21 -15 -96 -20 -118 -8 -12 7 -26 11 -30 10 -5 -1 -21 7 -37 18 -16 11 -48
24 -72 29 -24 5 -70 18 -103 29 -33 11 -98 30 -145 42 -47 12 -98 27 -115 33
-33 13 -40 14 -105 23 -112 14 -195 21 -351 28 -92 5 -101 7 -185 51 -49 26
-111 60 -139 76 -27 16 -59 33 -70 38 -12 5 -27 16 -34 25 -7 9 -21 16 -31 16
-9 0 -28 8 -41 18 -13 9 -37 25 -54 34 -16 9 -52 37 -80 63 -45 43 -50 51 -53
98 -1 29 -7 54 -12 55 -6 2 -10 16 -10 31 0 16 -10 37 -25 51 -14 13 -25 29
-25 35 0 7 -10 20 -21 31 -24 21 -76 127 -85 173 -4 17 -10 31 -15 31 -5 0 -9
12 -9 26 0 30 -19 104 -32 120 -4 6 -10 49 -13 95 -3 46 -9 108 -14 138 -9 55
-7 605 3 748 5 81 15 194 20 243 2 14 4 33 4 43 3 24 16 21 55 -13 19 -16 39
-30 45 -30 6 0 24 -16 39 -35 15 -19 33 -35 40 -35 6 0 21 -16 33 -35 17 -27
28 -35 51 -35 43 0 123 65 139 113 15 43 15 44 -107 162 -138 133 -216 195
-245 195 -21 0 -21 4 -7 90 6 36 12 79 14 95 10 96 19 152 27 169 23 43 28
164 8 177 -19 12 -50 12 -50 0 0 -9 -98 -118 -169 -187 -17 -16 -31 -35 -31
-42 0 -7 -3 -12 -8 -12 -4 0 -20 -11 -35 -25 -15 -14 -27 -21 -27 -15 0 12
-60 93 -73 99 -5 2 -22 18 -39 37 -17 19 -35 34 -41 34 -5 0 -18 11 -29 25
-11 14 -23 25 -28 25 -4 0 -38 18 -74 40 -36 22 -73 40 -81 40 -9 0 -26 5 -38
12 -28 15 -173 18 -214 3z m-614 -2395 c53 -28 162 -121 188 -159 13 -19 30
-58 40 -88 16 -52 16 -55 -4 -96 -11 -23 -41 -65 -67 -93 -38 -43 -60 -57
-121 -79 -136 -50 -228 -24 -337 93 -94 102 -106 150 -60 242 35 71 154 197
196 208 39 10 118 -4 165 -28z m777 -35 c20 -8 52 -28 72 -43 21 -16 53 -37
72 -47 48 -23 98 -72 121 -117 21 -41 25 -121 9 -180 -22 -78 -122 -128 -257
-128 -131 0 -220 69 -231 178 -4 46 21 222 38 266 4 11 18 31 31 42 53 47 86
54 145 29z m-2143 -36 c99 -65 175 -179 163 -244 -9 -47 -59 -117 -132 -184
-123 -113 -171 -118 -297 -35 -76 51 -90 65 -132 136 -78 131 -73 172 33 269
84 79 109 89 223 89 90 0 98 -2 142 -31z m625 11 c38 -24 108 -127 123 -183
21 -80 -10 -178 -76 -235 -70 -62 -127 -36 -181 83 -52 112 -30 265 48 330 36
30 44 31 86 5z m-1623 -134 c36 -24 34 -80 -5 -134 -39 -55 -81 -75 -157 -76
-52 -1 -65 3 -87 23 -32 30 -33 67 -3 111 58 87 180 123 252 76z m4133 -566
c51 -27 61 -36 117 -108 28 -35 67 -84 87 -110 68 -86 69 -152 4 -240 -50 -69
-200 -210 -231 -218 -14 -3 -66 -4 -116 -2 -80 4 -97 8 -167 44 -48 25 -84 51
-95 70 -10 16 -44 69 -74 119 -91 146 -84 196 44 322 118 116 172 140 321 142
55 1 82 -4 110 -19z m-4795 -22 c33 -18 54 -43 100 -119 54 -90 58 -100 68
-189 13 -119 8 -147 -41 -202 -62 -71 -121 -92 -255 -93 -105 0 -114 2 -178
33 -81 40 -156 111 -191 180 -49 97 -29 160 93 285 86 90 112 106 196 123 80
17 155 11 208 -18z m3610 -404 c143 -72 281 -185 316 -257 16 -34 21 -63 21
-129 0 -83 -2 -89 -46 -175 -64 -120 -76 -135 -140 -179 -112 -74 -228 -89
-441 -59 -162 23 -201 46 -278 165 -91 141 -142 325 -115 420 7 27 25 57 46
77 49 45 154 103 249 135 71 24 95 28 208 28 118 0 132 -2 180 -26z m-2205
-55 c40 -21 91 -58 127 -94 71 -72 199 -255 212 -305 12 -46 2 -93 -31 -133
-15 -17 -46 -61 -70 -97 -54 -82 -92 -114 -183 -157 -112 -52 -190 -66 -281
-53 -42 7 -87 16 -100 21 -13 5 -56 14 -95 20 -40 6 -85 18 -101 26 -37 19
-122 88 -213 173 -64 59 -73 72 -73 102 0 95 288 402 458 487 118 60 244 63
350 10z m4265 -60 c82 -23 149 -117 151 -212 1 -67 -29 -112 -125 -193 -101
-83 -120 -89 -273 -82 -85 3 -97 7 -145 37 -105 68 -119 123 -48 201 23 25 63
76 88 112 51 72 100 113 156 134 46 16 144 18 196 3z m-6412 -130 c69 -17 159
-149 159 -233 0 -21 -11 -64 -25 -95 -13 -31 -29 -75 -35 -97 -13 -51 -18 -55
-111 -95 -171 -72 -173 -73 -251 -49 -51 15 -85 34 -131 73 -82 69 -110 123
-103 197 8 82 33 154 69 201 71 92 146 121 292 113 55 -3 116 -10 136 -15z
m7357 -1015 c12 -8 29 -29 38 -45 19 -38 22 -155 5 -197 -17 -42 -126 -130
-176 -143 -50 -14 -106 -32 -165 -54 -95 -35 -198 4 -274 104 -42 57 -48 69
-43 103 11 81 78 131 217 162 41 10 94 28 117 42 53 31 101 42 188 43 49 1 77
-4 93 -15z m-8321 -170 c59 -34 178 -168 214 -240 29 -58 30 -63 16 -96 -32
-76 -118 -117 -262 -125 -99 -6 -105 -5 -149 21 -49 29 -97 90 -114 146 -16
55 -22 200 -9 239 16 46 53 71 118 81 75 11 137 3 186 -26z m4969 -69 c58 -17
101 -58 137 -130 14 -27 46 -74 70 -103 81 -93 77 -120 -31 -200 -132 -98
-246 -135 -344 -114 -79 18 -197 92 -288 180 -100 96 -102 110 -27 189 55 59
135 117 224 164 47 25 66 29 132 29 43 0 100 -7 127 -15z m-1476 -84 c118 -45
200 -125 200 -195 0 -46 -75 -191 -113 -220 -51 -39 -347 -137 -389 -130 -57
11 -150 67 -215 129 -83 80 -85 106 -13 222 58 94 117 150 186 177 27 10 65
25 84 33 49 19 189 11 260 -16z m3710 -257 c134 -76 179 -120 201 -194 10 -33
9 -47 -6 -85 -40 -105 -129 -203 -269 -295 -96 -63 -196 -66 -334 -8 -61 25
-92 47 -158 110 -86 82 -113 125 -121 189 -10 74 70 195 191 288 77 60 119 71
256 68 l115 -2 125 -71z m-6016 -173 c116 -34 138 -48 165 -104 26 -54 27
-101 1 -170 -23 -62 -104 -182 -140 -209 -44 -32 -203 -61 -302 -55 -104 7
-145 24 -198 84 -64 74 -66 145 -6 235 65 98 125 166 173 199 97 67 140 70
307 20z m4709 -235 c39 -17 112 -91 126 -129 18 -47 13 -137 -11 -206 -32 -89
-87 -148 -180 -192 -85 -39 -126 -42 -263 -15 -114 22 -150 39 -166 78 -11 27
-10 38 5 77 9 25 23 68 31 94 20 72 41 96 103 124 32 14 89 54 134 95 98 88
149 105 221 74z m-3586 -7 c111 -19 182 -92 191 -194 6 -79 -9 -107 -86 -157
-36 -24 -83 -57 -104 -75 -51 -42 -140 -75 -208 -76 -77 -1 -216 60 -282 123
-43 42 -48 51 -48 91 0 50 56 188 91 225 56 59 283 91 446 63z m2622 -302 c54
-27 85 -79 85 -146 0 -53 -53 -163 -110 -229 -44 -52 -124 -92 -183 -92 -77 0
-110 24 -159 115 -54 102 -58 117 -38 168 21 55 149 183 202 203 51 18 145 10
203 -19z m-1223 -105 c60 -31 110 -95 135 -172 37 -115 12 -162 -131 -246
-116 -68 -197 -59 -284 31 -69 71 -96 87 -151 87 -36 0 -55 -7 -96 -38 -65
-48 -110 -63 -184 -63 -92 -1 -135 13 -174 55 l-34 37 5 81 c3 45 12 95 21
112 52 99 166 121 317 59 46 -19 93 -35 105 -35 20 0 60 22 134 74 71 49 257
59 337 18z"/>
<path d="M3598 13154 c-16 -8 -29 -18 -29 -22 -1 -4 -3 -16 -4 -27 -2 -11 -8
-32 -14 -47 -6 -16 -9 -28 -6 -28 2 0 -1 -15 -6 -32 -6 -18 -12 -40 -14 -48
-12 -45 -49 -150 -64 -179 -9 -19 -16 -37 -16 -40 -1 -3 -9 -21 -18 -38 -10
-18 -15 -33 -11 -33 3 0 -9 -18 -26 -40 -17 -22 -29 -40 -25 -40 3 0 -3 -13
-14 -29 -12 -16 -21 -32 -21 -35 0 -8 -89 -124 -101 -131 -5 -4 -9 -14 -9 -24
0 -9 -13 -30 -30 -46 -16 -15 -27 -31 -25 -35 3 -4 -3 -18 -13 -31 -26 -37
-41 -61 -60 -99 -10 -19 -24 -46 -32 -60 -8 -14 -15 -27 -15 -30 -1 -3 -14
-32 -29 -65 -33 -69 -56 -130 -62 -164 -6 -31 26 -65 96 -101 30 -16 69 -38
85 -49 22 -16 46 -21 92 -21 65 0 66 1 78 57 2 10 8 30 14 46 6 15 8 27 6 27
-2 0 0 12 6 28 6 15 12 36 14 47 2 11 13 47 24 80 11 33 27 83 35 110 15 50
42 127 53 155 3 8 7 20 9 25 1 6 14 40 28 78 14 37 25 70 25 72 0 3 8 19 16
35 9 17 13 30 9 30 -3 0 1 11 9 24 9 13 18 35 21 49 2 14 12 37 21 51 10 14
14 26 10 26 -4 0 0 11 9 25 9 13 16 29 16 36 0 6 15 41 32 78 18 36 33 73 34
82 1 10 11 31 23 48 12 17 20 31 16 31 -3 0 0 12 8 28 51 100 51 98 31 125
-11 14 -35 35 -54 46 -19 11 -46 31 -59 45 -28 30 -27 30 -63 10z"/>
<path d="M9328 12293 c-9 -2 -23 -19 -31 -36 -21 -44 -77 -96 -119 -110 -36
-13 -38 -15 -38 -46 0 -19 14 -39 77 -109 18 -20 36 -44 39 -54 3 -10 9 -18
14 -18 4 0 34 -33 66 -72 47 -58 247 -264 359 -369 11 -10 48 -30 82 -43 61
-25 88 -40 154 -84 31 -21 41 -23 119 -17 47 3 89 11 94 16 6 5 17 9 26 9 32
0 60 43 60 91 0 43 -30 109 -49 109 -5 0 -12 8 -15 18 -16 48 -386 372 -425
372 -6 0 -29 16 -51 36 -21 20 -44 33 -49 30 -5 -4 -22 9 -38 29 -15 19 -32
35 -38 35 -5 0 -21 16 -35 35 -14 19 -28 35 -33 35 -4 0 -40 33 -80 74 -46 46
-78 72 -89 69z"/>
<path d="M2910 11694 c-6 -15 -20 -40 -31 -55 -11 -16 -18 -29 -15 -29 3 0 -2
-16 -10 -35 -8 -19 -12 -35 -9 -35 2 0 0 -12 -6 -27 -6 -16 -13 -39 -15 -53
-14 -83 -17 -110 -28 -240 -3 -30 -10 -82 -16 -115 -6 -33 -13 -76 -16 -95 -3
-19 -7 -44 -9 -55 -2 -11 -6 -36 -9 -56 -3 -20 -10 -48 -16 -63 -5 -14 -7 -26
-5 -26 2 0 0 -12 -6 -27 -11 -28 -17 -55 -23 -104 -2 -14 -11 -40 -20 -57 -9
-18 -14 -32 -11 -32 3 0 -1 -16 -9 -35 -8 -19 -13 -35 -10 -35 2 0 -2 -16 -10
-35 -9 -20 -15 -38 -16 -40 0 -5 -21 -54 -42 -100 -5 -12 -10 -27 -12 -35 -1
-8 -11 -31 -21 -50 -11 -19 -20 -37 -20 -40 -1 -3 -7 -18 -14 -35 -7 -16 -13
-32 -13 -35 0 -3 -10 -18 -21 -35 -12 -16 -22 -35 -23 -42 -1 -7 -12 -26 -23
-42 -12 -16 -21 -32 -21 -35 0 -3 -16 -30 -35 -60 -40 -63 -53 -127 -30 -146
8 -7 15 -18 15 -24 0 -18 142 -36 291 -36 l136 0 38 33 39 33 2 90 c3 97 11
209 19 264 3 19 7 53 10 75 2 22 9 65 15 95 14 63 16 78 24 139 3 23 9 47 12
53 3 5 7 19 9 31 4 39 36 161 56 217 11 30 22 64 24 75 3 11 14 45 25 75 12
30 23 62 25 72 2 9 11 30 19 47 9 17 16 33 16 36 0 7 45 92 75 140 14 22 27
47 31 55 3 8 12 29 20 45 8 17 14 32 13 35 -2 3 4 16 11 30 28 52 52 182 40
214 -7 20 -18 24 -74 30 -73 7 -200 52 -242 85 -38 30 -72 27 -84 -5z"/>
<path d="M9755 11313 c3 -42 9 -81 15 -87 5 -5 10 -23 10 -38 0 -15 4 -28 9
-28 5 0 12 -13 16 -30 6 -27 96 -130 114 -130 5 0 16 -19 26 -42 10 -24 24
-57 31 -75 8 -17 14 -38 14 -47 0 -9 5 -16 10 -16 6 0 10 -7 10 -16 0 -9 6
-30 14 -47 8 -18 22 -54 31 -82 9 -27 21 -58 26 -67 5 -10 9 -26 9 -36 0 -10
4 -22 9 -27 5 -6 16 -37 26 -70 9 -33 21 -68 26 -77 5 -10 9 -29 9 -42 0 -14
4 -27 9 -30 5 -3 11 -20 14 -38 10 -68 35 -139 53 -153 50 -37 264 -95 350
-95 35 0 35 0 28 38 -4 20 -11 45 -15 54 -5 9 -9 30 -9 47 0 17 -4 31 -10 31
-5 0 -10 15 -10 34 0 19 -4 38 -10 41 -5 3 -10 19 -10 36 0 16 -4 29 -10 29
-5 0 -10 11 -10 25 0 14 -4 33 -9 43 -5 9 -17 44 -27 77 -10 33 -22 64 -26 70
-4 5 -8 19 -8 31 0 13 -4 26 -10 29 -5 3 -10 14 -10 23 0 9 -7 30 -15 46 -8
15 -15 34 -15 41 0 7 -7 26 -15 41 -8 16 -15 40 -15 53 0 13 -3 21 -7 18 -3
-4 -15 19 -25 51 -11 31 -26 71 -34 89 -7 17 -14 38 -14 47 0 9 -4 16 -8 16
-4 0 -8 62 -8 138 0 86 -4 144 -12 157 -9 15 -11 16 -12 4 0 -17 -51 -59 -72
-59 -7 0 -22 -7 -32 -15 -13 -10 -43 -15 -85 -15 -73 0 -117 17 -191 74 -25
19 -53 35 -62 35 -9 1 -20 6 -23 11 -3 6 -15 10 -25 10 -18 0 -19 -6 -15 -77z"/>
<path d="M9629 6538 c13 -17 7 -18 -84 -18 -70 0 -123 -7 -188 -24 -51 -13
-114 -26 -141 -30 -59 -7 -103 -41 -84 -63 6 -8 25 -21 42 -30 17 -9 43 -25
57 -37 29 -23 80 -53 90 -52 4 1 15 -6 25 -15 11 -9 30 -20 44 -24 14 -4 39
-17 55 -29 17 -11 32 -20 35 -19 6 2 61 -22 100 -42 14 -7 42 -16 63 -20 l37
-7 0 46 c0 55 31 109 85 145 l34 23 -20 39 c-10 21 -23 39 -28 39 -5 0 -17 13
-28 28 -10 16 -38 46 -63 68 -25 21 -39 31 -31 22z"/>
<path d="M3897 6348 c-35 -28 -63 -107 -61 -168 1 -32 12 -63 39 -107 36 -61
39 -63 79 -63 59 0 209 21 221 31 5 5 22 9 37 9 15 0 28 4 28 9 0 5 16 12 35
15 19 4 35 11 35 16 0 6 6 10 14 10 16 0 110 55 140 83 11 9 23 17 28 17 4 0
8 5 8 10 0 6 -7 10 -15 10 -9 0 -42 13 -73 29 -32 16 -84 37 -115 46 -31 9
-78 28 -104 42 -42 23 -62 27 -158 30 -103 4 -112 3 -138 -19z"/>
<path d="M9872 6339 c-18 -4 -41 -15 -51 -25 -10 -11 -39 -39 -66 -63 -43 -41
-47 -47 -41 -80 3 -20 6 -41 6 -48 0 -11 26 -24 60 -29 8 -1 31 -5 50 -9 142
-25 285 -37 456 -37 168 0 208 23 220 127 7 53 6 55 -22 65 -16 5 -37 15 -48
21 -10 6 -26 12 -35 14 -9 2 -34 11 -56 19 -40 14 -48 16 -165 36 -77 13 -261
19 -308 9z"/>
<path d="M8623 6251 c-29 -33 -53 -66 -53 -75 0 -8 -4 -18 -10 -21 -5 -3 -10
-26 -10 -50 0 -40 4 -47 50 -85 28 -23 79 -71 114 -106 35 -35 66 -64 68 -64
2 0 35 -29 73 -65 39 -36 74 -65 78 -65 4 0 21 -16 38 -35 17 -19 36 -35 41
-35 6 0 27 -14 47 -31 67 -57 234 -179 246 -179 7 0 20 -9 30 -20 10 -11 27
-23 39 -26 11 -4 35 -17 51 -29 17 -13 59 -37 94 -54 35 -17 69 -36 77 -42 8
-6 14 -9 14 -6 0 3 30 -8 67 -25 66 -29 98 -39 137 -42 17 -1 22 10 32 78 21
136 30 151 99 178 22 9 41 22 43 30 3 15 -29 48 -113 118 -27 23 -63 53 -78
67 -15 14 -54 45 -85 69 -31 24 -73 57 -92 73 -76 66 -108 91 -115 91 -4 0
-23 14 -42 30 -18 17 -39 30 -45 30 -6 0 -28 15 -48 33 -21 17 -64 48 -96 67
-32 19 -80 50 -107 68 -27 17 -54 32 -60 32 -6 0 -20 8 -31 18 -12 10 -41 27
-66 37 -25 11 -61 28 -80 39 -19 11 -40 21 -48 22 -8 2 -21 9 -30 16 -11 8
-48 15 -97 16 l-80 3 -52 -60z"/>
<path d="M12265 6225 c-163 -24 -231 -40 -243 -59 -4 -6 -44 -12 -92 -12 -47
-1 -128 -5 -180 -9 -52 -4 -156 -7 -230 -7 -75 0 -141 -5 -147 -10 -14 -11
-17 -77 -6 -116 5 -23 9 -23 67 -17 33 4 63 11 66 15 6 8 384 61 457 64 55 2
68 9 76 41 4 15 5 14 6 -7 0 -15 6 -30 13 -34 26 -16 320 -23 438 -10 68 7
150 42 150 63 0 7 5 13 10 13 6 0 10 10 10 23 -1 14 -15 32 -43 52 -37 25 -52
29 -117 31 -41 1 -147 -9 -235 -21z"/>
<path d="M3475 6209 c-110 -22 -164 -35 -171 -41 -4 -5 -20 -8 -35 -8 -15 0
-31 -4 -34 -10 -3 -5 -19 -10 -34 -10 -67 0 -85 -134 -23 -173 6 -4 12 -14 12
-21 0 -18 28 -41 54 -43 125 -12 266 -10 376 5 69 9 127 20 128 24 2 4 16 8
30 8 15 0 37 8 49 18 23 17 23 18 9 84 -8 37 -24 79 -35 94 -12 15 -21 35 -21
44 0 10 -8 21 -17 25 -26 10 -241 13 -288 4z"/>
<path d="M10543 6203 c-8 -3 -13 -24 -13 -58 0 -34 -5 -57 -15 -65 -21 -18 -9
-31 28 -30 42 2 160 -6 362 -25 22 -2 69 -6 105 -9 36 -4 79 -8 95 -11 205
-32 245 -21 245 70 0 67 11 64 -285 80 -49 3 -117 7 -150 10 -33 4 -85 8 -115
10 -30 2 -80 7 -110 11 -30 3 -63 6 -73 6 -10 -1 -28 3 -40 7 -12 5 -28 6 -34
4z"/>
<path d="M1130 6134 c-47 -7 -102 -18 -122 -25 -35 -11 -38 -15 -38 -50 0 -45
5 -48 121 -55 46 -2 104 -7 129 -9 25 -2 111 -6 192 -10 l147 -7 15 53 c17 56
20 76 10 66 -4 -3 -21 0 -38 7 -87 36 -282 51 -416 30z"/>
<path d="M3025 6097 c-33 -4 -69 -12 -80 -17 -35 -16 -272 -40 -446 -45 -141
-4 -157 -9 -165 -51 -8 -41 1 -90 21 -121 17 -25 27 -25 140 2 121 29 354 57
493 60 79 2 145 5 148 7 2 2 -6 22 -18 44 -12 21 -24 59 -27 84 l-6 45 -60 -8z"/>
<path d="M1633 6058 c-13 -6 -23 -19 -23 -29 0 -9 -3 -25 -7 -35 -5 -13 -3
-16 9 -11 9 3 19 0 21 -7 5 -14 40 -22 177 -41 49 -7 77 -12 140 -25 30 -7 62
-13 70 -14 8 -1 31 -5 50 -9 19 -4 53 -9 75 -11 56 -6 144 -24 157 -32 8 -5 9
7 4 37 -4 24 -10 65 -13 92 -3 26 -8 47 -12 48 -3 0 -85 2 -181 4 -178 3 -238
8 -375 29 -22 4 -47 8 -55 10 -8 3 -25 0 -37 -6z"/>
<path d="M8478 5859 c-32 -23 -37 -66 -14 -102 14 -20 55 -140 86 -247 20 -70
70 -180 103 -226 12 -16 72 -73 134 -125 62 -51 127 -109 145 -126 17 -18 35
-33 40 -33 5 0 22 -16 39 -35 17 -19 35 -35 41 -35 5 0 25 -16 43 -36 22 -23
40 -34 50 -30 10 4 19 -5 29 -29 8 -19 20 -35 27 -35 7 0 26 -16 43 -35 24
-27 36 -34 54 -29 18 5 22 13 22 48 0 72 48 166 85 166 6 0 24 14 40 30 23 24
37 30 72 30 24 0 43 5 43 11 0 19 -39 66 -127 157 -46 48 -109 113 -139 145
-31 31 -59 57 -63 57 -3 0 -15 14 -26 30 -11 16 -23 30 -28 30 -4 0 -35 29
-70 64 -34 35 -102 97 -152 139 -49 42 -106 90 -126 106 -20 17 -41 31 -46 31
-5 0 -22 13 -38 30 -16 16 -31 28 -33 25 -2 -2 -25 7 -51 20 -60 32 -143 34
-183 4z"/>
<path d="M4984 5741 c-22 -10 -47 -29 -56 -42 -17 -26 -40 -52 -176 -198 -118
-128 -223 -231 -233 -231 -5 0 -9 -6 -9 -14 0 -8 -16 -24 -35 -36 -19 -12 -35
-28 -35 -36 0 -8 -4 -14 -9 -14 -5 0 -27 -17 -49 -37 -66 -62 -154 -137 -176
-152 -62 -41 -62 -82 -1 -119 31 -19 48 -37 56 -62 6 -19 22 -52 36 -72 14
-20 27 -55 30 -77 5 -40 6 -40 34 -28 39 17 179 138 179 155 0 5 16 17 35 28
19 10 35 24 35 30 0 6 10 16 23 21 21 11 73 51 108 85 10 9 28 22 41 29 13 6
30 18 38 26 8 8 49 39 90 69 70 51 89 65 148 111 18 14 26 37 37 101 8 45 24
101 35 124 17 36 20 62 20 183 0 125 -2 144 -18 158 -24 22 -95 21 -148 -2z"/>
<path d="M10010 5425 c-7 -8 -20 -15 -30 -15 -10 0 -34 -18 -54 -40 l-36 -40
0 -109 c0 -90 3 -112 19 -132 10 -13 25 -37 34 -54 9 -16 27 -43 41 -60 34
-40 38 -46 58 -77 10 -15 28 -38 40 -51 13 -13 39 -43 58 -66 35 -41 52 -58
173 -176 96 -93 88 -89 144 -64 44 21 92 63 93 82 0 5 9 21 20 36 10 16 20 45
21 67 1 21 7 45 12 51 8 11 -25 99 -43 113 -3 3 -12 20 -19 38 -8 17 -16 32
-20 32 -4 0 -15 16 -25 35 -11 19 -22 35 -25 35 -4 0 -15 16 -25 35 -11 19
-25 35 -33 35 -7 0 -13 5 -13 11 0 14 -177 187 -236 231 -25 18 -63 48 -85 66
-46 36 -52 38 -69 17z"/>
<path d="M3512 5342 c-6 -2 -12 -10 -12 -18 0 -8 -4 -14 -10 -14 -21 0 -249
-254 -263 -294 -4 -10 -16 -30 -28 -45 -29 -38 -101 -154 -103 -166 -1 -6 -11
-24 -22 -40 -28 -41 -47 -92 -40 -104 4 -6 9 -23 10 -39 4 -28 40 -91 71 -123
8 -9 39 -28 69 -43 73 -37 113 -30 178 34 26 26 48 49 48 52 0 2 29 35 65 74
35 38 65 74 65 80 0 5 14 23 30 39 17 16 30 34 30 40 0 6 17 34 38 62 37 52
59 85 98 152 22 39 21 62 -13 166 -14 45 -70 121 -81 110 -2 -2 -14 6 -26 19
-28 30 -88 64 -104 58z"/>
<path d="M9551 4939 c-55 -20 -121 -65 -153 -103 -23 -27 -26 -166 -4 -166 11
0 49 -38 141 -143 14 -15 25 -34 25 -42 0 -8 3 -15 8 -15 4 0 16 -15 26 -33
46 -77 98 -175 113 -209 9 -21 19 -38 23 -38 4 0 11 -16 14 -35 4 -19 11 -35
15 -35 4 0 12 -15 17 -32 l10 -33 94 -3 c52 -2 115 2 140 9 25 6 53 13 63 16
9 2 15 8 13 12 -3 4 4 15 16 25 17 15 19 25 14 54 -4 21 -10 56 -13 80 -3 23
-10 42 -14 42 -5 0 -9 15 -9 34 0 19 -4 38 -10 41 -5 3 -10 14 -10 24 0 10 -7
32 -15 47 -8 16 -15 37 -15 46 0 9 -4 18 -8 20 -5 2 -21 30 -37 63 -15 33 -38
74 -52 90 -13 17 -27 35 -31 40 -4 6 -17 25 -27 43 -11 17 -24 32 -30 32 -5 0
-21 16 -34 35 -13 19 -29 35 -36 35 -7 0 -25 16 -39 35 -15 19 -32 35 -38 35
-6 0 -26 11 -44 25 -38 29 -42 29 -113 4z"/>
<path d="M4085 4857 c-16 -5 -41 -18 -54 -28 -13 -11 -30 -19 -37 -19 -7 0
-17 -6 -21 -14 -4 -7 -19 -19 -33 -26 -27 -14 -30 -17 -100 -83 -45 -43 -155
-181 -155 -195 0 -4 -10 -21 -23 -39 -12 -17 -22 -35 -22 -41 0 -5 -11 -35
-25 -65 -13 -31 -27 -67 -29 -79 -3 -13 -10 -48 -16 -78 -22 -108 -22 -139 1
-171 11 -16 28 -29 37 -29 9 0 30 -7 46 -15 17 -9 55 -15 94 -15 l67 0 90 93
c106 111 135 148 136 179 0 13 3 17 6 10 6 -16 63 34 63 55 0 8 7 16 15 19 8
4 15 12 15 20 0 8 9 19 20 26 11 7 20 16 20 20 0 11 57 93 75 108 8 7 15 19
15 28 0 8 7 23 16 33 15 17 15 24 -1 89 -10 39 -23 77 -30 84 -8 7 -20 29 -28
48 -14 33 -63 79 -97 90 -8 3 -28 1 -45 -5z"/>
<path d="M10636 4657 c-11 -18 -26 -45 -34 -62 -18 -37 -52 -75 -66 -75 -6 -1
-26 -13 -44 -29 l-32 -28 17 -34 c9 -19 20 -36 23 -39 4 -3 15 -20 24 -37 9
-18 20 -33 25 -33 4 0 20 -28 35 -62 16 -35 34 -70 41 -78 7 -8 17 -27 20 -42
4 -16 11 -28 15 -28 4 0 11 -16 14 -35 4 -19 11 -35 16 -35 6 0 10 -5 10 -11
0 -6 14 -40 30 -76 17 -35 30 -67 30 -71 0 -4 6 -19 14 -34 8 -15 17 -40 21
-57 4 -17 11 -31 16 -31 5 0 9 -11 9 -25 0 -14 4 -33 9 -43 5 -9 17 -44 27
-77 9 -33 24 -68 32 -78 14 -16 16 -16 34 -1 14 13 35 17 99 15 l81 -2 -5 38
c-4 37 -20 89 -38 125 -5 10 -9 26 -9 36 0 10 -4 22 -8 27 -5 6 -14 30 -21 55
-7 25 -22 64 -32 87 -10 23 -19 49 -19 57 0 8 -4 18 -10 21 -5 3 -10 14 -10
24 0 10 -7 32 -15 47 -8 16 -15 37 -15 47 0 9 -4 17 -10 17 -5 0 -12 16 -16
35 -3 19 -10 35 -15 35 -5 0 -9 8 -9 18 -1 9 -9 35 -20 57 -11 22 -19 46 -20
53 0 6 -4 12 -10 12 -5 0 -12 16 -16 35 -3 19 -10 35 -15 35 -5 0 -9 5 -9 12
0 15 -53 122 -62 126 -5 2 -8 9 -8 15 -1 7 -13 38 -28 69 l-27 57 -19 -32z"/>
<path d="M8360 4620 c-6 -11 -8 -20 -5 -20 3 0 -2 -14 -11 -32 -21 -40 -22
-49 -49 -338 -7 -76 -1 -87 58 -115 28 -14 51 -24 52 -22 28 45 45 77 41 77
-4 0 1 14 10 31 8 17 17 38 19 47 2 10 13 42 23 72 22 62 44 138 47 160 16
113 18 105 -23 122 -29 13 -127 38 -147 38 -2 0 -9 -9 -15 -20z"/>
<path d="M5325 4600 c-3 -5 -32 -10 -64 -10 -82 0 -85 -10 -66 -212 4 -43 11
-78 16 -78 5 0 9 -12 9 -27 0 -27 15 -84 31 -115 5 -10 9 -29 9 -43 0 -14 4
-25 9 -25 5 0 12 -16 15 -35 8 -43 20 -50 48 -31 12 9 34 16 48 16 14 0 40 9
58 20 28 17 33 25 28 48 -3 15 -10 65 -16 112 -6 47 -15 94 -20 105 -8 19 -13
39 -27 108 -3 15 -9 27 -14 27 -5 0 -9 13 -9 29 0 17 -4 32 -9 35 -5 3 -12 21
-15 41 -7 36 -21 52 -31 35z"/>
<path d="M2969 4498 c-6 -12 -20 -30 -29 -41 -16 -16 -32 -62 -34 -92 0 -5
-11 -24 -23 -42 -13 -17 -23 -37 -23 -43 0 -7 -10 -26 -22 -43 -13 -18 -22
-34 -22 -37 1 -3 -5 -15 -13 -27 -8 -12 -15 -28 -17 -35 -1 -8 -13 -29 -26
-48 -14 -19 -24 -37 -24 -40 1 -3 -3 -16 -9 -30 -6 -14 -11 -27 -12 -30 0 -3
-9 -21 -20 -40 -11 -19 -19 -37 -20 -40 -1 -12 -29 -78 -47 -112 -10 -21 -17
-38 -14 -38 4 0 0 -16 -8 -35 -8 -19 -13 -35 -10 -35 2 0 -3 -14 -11 -31 -9
-17 -14 -33 -11 -36 2 -3 0 -17 -5 -31 -18 -46 -18 -113 0 -134 9 -10 16 -24
16 -30 0 -6 7 -14 15 -18 8 -4 38 -19 66 -33 67 -35 118 -32 148 9 11 16 21
31 21 35 0 3 13 28 28 55 71 126 167 313 167 326 0 6 10 24 22 41 13 18 22 33
20 35 -1 1 5 16 13 32 9 17 13 30 10 30 -3 0 6 18 20 40 14 22 23 40 20 40 -4
0 0 12 8 28 8 15 29 63 47 107 17 44 38 94 46 112 19 45 2 93 -33 93 -26 0
-80 49 -136 123 -33 44 -79 51 -98 15z"/>
<path d="M8289 4118 c-1 -2 -3 -12 -5 -23 -10 -65 -16 -102 -19 -120 -3 -12
-27 -45 -55 -75 -55 -61 -62 -91 -31 -132 54 -68 167 33 207 187 14 52 16 115
4 115 -7 0 -25 11 -42 25 -25 21 -54 32 -59 23z"/>
<path d="M5414 4020 c-27 -22 -57 -40 -66 -40 -21 0 -21 1 -7 -56 6 -24 15
-44 20 -44 5 0 9 -8 9 -18 0 -10 11 -33 25 -52 14 -19 25 -40 25 -47 0 -7 4
-13 10 -13 5 0 16 -16 24 -35 8 -19 19 -35 23 -35 5 0 17 -14 27 -31 10 -18
26 -39 35 -49 9 -9 26 -29 38 -43 13 -15 27 -27 33 -27 5 0 28 18 51 41 35 35
40 44 34 72 -4 18 -11 36 -16 42 -5 5 -9 15 -9 23 0 13 -11 43 -45 117 -8 17
-16 40 -20 53 -3 12 -10 22 -14 22 -5 0 -11 14 -15 30 -3 17 -11 38 -18 46
-31 40 -77 84 -86 84 -5 0 -32 -18 -58 -40z"/>
<path d="M10113 4024 c-13 -6 -32 -19 -42 -28 -16 -14 -35 -17 -105 -14 -70 2
-86 0 -86 -11 0 -12 -2 -12 -12 1 -7 9 -22 19 -34 22 -19 6 -20 3 -17 -56 4
-87 73 -581 83 -593 4 -5 11 -40 15 -78 4 -37 11 -69 15 -72 5 -3 11 -33 15
-67 4 -35 14 -83 21 -108 8 -25 14 -55 14 -68 0 -12 4 -30 9 -40 14 -29 31
-87 31 -110 0 -11 5 -24 10 -27 6 -3 10 -19 10 -35 0 -16 5 -32 10 -35 6 -3
10 -16 10 -29 0 -26 33 -60 73 -75 16 -6 65 -11 110 -11 73 1 84 3 98 23 27
38 41 125 41 262 0 95 -46 456 -63 486 -5 10 -9 31 -9 47 0 16 -3 32 -7 36 -7
7 -27 87 -40 164 -3 18 -9 35 -14 38 -5 3 -9 18 -9 34 0 16 -4 32 -10 35 -5 3
-10 19 -10 35 0 16 -4 32 -10 35 -5 3 -10 17 -10 31 0 13 -4 32 -9 42 -5 9
-15 37 -21 62 -32 115 -33 117 -57 104z"/>
<path d="M3520 3971 c0 -9 -11 -46 -24 -84 -14 -37 -23 -67 -21 -67 2 0 -2
-15 -10 -34 -8 -18 -12 -36 -9 -39 3 -3 -1 -18 -10 -35 -8 -16 -13 -32 -10
-35 3 -3 0 -16 -7 -29 -7 -12 -13 -32 -15 -43 -1 -11 -12 -58 -24 -105 -12
-47 -23 -94 -25 -105 -8 -40 -26 -131 -30 -150 -35 -170 -49 -311 -47 -496 2
-171 8 -194 53 -204 17 -4 50 -16 73 -26 26 -12 64 -19 103 -19 52 0 64 3 73
20 6 11 8 20 6 20 -3 0 -1 12 5 28 6 15 13 41 16 57 8 49 12 67 29 125 8 30
18 68 20 83 2 16 13 67 25 115 29 120 31 132 55 267 3 17 7 39 10 50 2 11 11
61 20 110 8 50 17 99 19 110 2 11 6 38 9 60 3 22 8 56 11 75 3 19 8 51 10 70
2 19 7 53 10 75 3 22 7 64 10 93 l6 52 -89 0 c-84 0 -94 2 -166 39 -61 31 -76
35 -76 22z"/>
<path d="M5695 3570 c-25 -10 -58 -46 -62 -68 -4 -24 16 -79 43 -121 32 -49
114 -132 124 -126 4 3 14 -2 21 -11 9 -11 22 -14 48 -9 48 9 58 19 59 60 2 40
-25 71 -99 111 -45 25 -51 34 -89 132 -15 39 -19 42 -45 32z"/>
<path d="M10948 3494 c-41 -26 -45 -41 -27 -109 16 -58 69 -427 63 -436 -2 -4
0 -36 6 -71 10 -55 20 -322 22 -533 0 -111 38 -159 119 -153 l43 3 2 50 c1 28
5 124 9 215 9 202 9 442 0 575 -4 55 -7 109 -7 120 0 47 -31 264 -45 313 l-14
52 -67 -1 c-54 0 -74 -5 -104 -25z"/>
<path d="M2529 3362 c-11 -19 -13 -42 -9 -75 8 -65 1 -262 -15 -392 -4 -37
-15 -121 -20 -155 -1 -14 -6 -52 -9 -85 -4 -33 -11 -87 -17 -120 -5 -33 -12
-71 -13 -85 -2 -14 -7 -45 -12 -70 -15 -85 -11 -233 8 -261 19 -30 116 -79
168 -86 33 -5 36 -3 50 34 8 21 15 45 17 53 1 8 9 57 18 109 9 51 14 96 11 98
-3 3 -1 15 4 27 4 12 11 56 15 96 4 41 8 86 10 100 6 49 15 146 20 205 3 33 7
79 10 103 19 177 20 205 16 337 -3 90 -6 95 -53 95 -48 0 -92 20 -145 65 l-40
34 -14 -27z"/>
<path d="M10038 2559 c-2 -51 -13 -152 -22 -209 -3 -14 -7 -41 -10 -60 -2 -19
-10 -60 -16 -90 -7 -30 -13 -64 -15 -75 -2 -11 -17 -78 -35 -150 -18 -71 -33
-137 -35 -145 -2 -8 -8 -28 -15 -45 -6 -16 -10 -30 -9 -30 1 0 -3 -16 -8 -35
-6 -19 -19 -62 -28 -95 -10 -33 -22 -65 -26 -71 -5 -6 -6 -13 -3 -17 3 -3 1
-14 -5 -25 -5 -10 -12 -30 -15 -43 -3 -13 -14 -49 -26 -79 -12 -30 -23 -64
-25 -75 -2 -11 -13 -45 -25 -75 -12 -30 -23 -66 -26 -80 -3 -13 -9 -29 -14
-35 -4 -5 -11 -27 -15 -48 -7 -35 -4 -41 34 -78 37 -37 44 -40 87 -37 42 3 48
6 64 38 43 87 50 102 50 115 0 7 12 39 26 71 14 33 28 66 30 74 3 15 17 53 54
150 12 30 23 62 25 70 2 8 13 40 25 70 11 30 22 64 25 75 2 11 13 45 25 75 12
30 23 63 25 73 2 10 13 46 25 80 32 95 41 125 45 144 2 10 8 30 14 46 6 15 8
27 5 27 -2 0 3 14 11 31 9 17 14 33 12 36 -3 2 1 21 9 40 9 19 13 37 10 40 -2
3 2 20 10 39 8 19 12 34 9 34 -2 0 0 12 6 28 11 28 17 55 24 109 2 18 9 42 15
54 7 11 9 23 6 26 -2 3 -1 15 4 28 8 21 7 22 -33 14 -23 -4 -83 -8 -134 -9
-87 0 -93 1 -112 26 l-21 27 -2 -34z"/>
<path d="M3320 2488 c0 -19 46 -191 99 -373 12 -43 26 -94 61 -220 47 -172 49
-176 70 -244 11 -35 20 -77 20 -92 0 -15 4 -30 9 -33 5 -3 12 -32 16 -63 4
-32 10 -62 15 -68 4 -5 10 -32 14 -60 3 -27 10 -63 15 -80 8 -27 28 -114 46
-200 3 -16 12 -57 19 -90 11 -55 15 -61 51 -78 31 -15 51 -18 101 -12 98 10
100 14 85 131 -7 55 -16 104 -21 109 -4 6 -11 39 -14 74 -4 35 -11 71 -16 80
-9 18 -30 115 -37 174 -3 20 -9 37 -14 37 -5 0 -9 10 -9 23 0 24 -28 150 -41
182 -4 11 -10 34 -12 50 -3 17 -12 57 -22 90 -41 145 -58 212 -62 243 -3 18
-9 35 -14 38 -5 3 -9 21 -9 40 0 19 -4 34 -10 34 -5 0 -10 15 -10 34 0 19 -4
38 -10 41 -5 3 -10 22 -10 41 0 19 -4 34 -10 34 -5 0 -10 12 -10 27 0 15 -5
41 -12 58 l-11 32 -100 7 c-86 5 -105 10 -134 32 l-33 25 0 -23z"/>
<path d="M11028 2147 c-15 -12 -16 -45 -13 -365 l3 -352 27 -33 c15 -17 33
-35 39 -39 19 -11 82 7 107 31 27 25 28 38 33 316 4 191 -15 414 -37 443 -13
16 -137 16 -159 -1z"/>
<path d="M2462 1984 c-12 -8 -28 -30 -36 -48 -14 -33 -31 -114 -28 -128 1 -4
4 -47 7 -95 11 -194 60 -461 82 -440 2 3 18 0 35 -7 54 -23 98 0 97 50 -1 10
2 46 6 79 3 33 8 85 11 115 6 67 12 451 7 465 -2 6 -26 8 -54 6 -29 -2 -56 2
-62 8 -15 15 -39 14 -65 -5z"/>
<path d="M9618 913 c-9 -37 -23 -95 -31 -128 -16 -62 -27 -111 -28 -120 0 -3
-6 -23 -14 -45 -8 -22 -12 -40 -9 -40 2 0 0 -8 -5 -19 -6 -10 -13 -33 -16 -52
-7 -38 -16 -78 -38 -159 -23 -88 -29 -128 -17 -135 5 -3 10 -19 10 -34 0 -15
5 -32 12 -39 16 -16 58 -15 58 1 0 7 16 28 35 47 19 18 32 37 29 42 -3 5 0 17
8 26 21 25 58 100 58 118 0 9 6 28 14 42 20 39 81 252 91 317 2 17 19 109 25
140 6 26 -5 33 -62 39 -35 3 -64 11 -66 16 -2 5 -11 19 -20 30 -17 21 -18 19
-34 -47z"/>
<path d="M3863 841 c-61 -5 -71 -8 -63 -21 5 -8 10 -25 10 -37 0 -13 4 -23 8
-23 4 0 17 -32 27 -71 11 -39 23 -73 27 -75 5 -3 8 -18 8 -35 0 -16 5 -29 10
-29 6 0 10 -8 10 -17 1 -21 34 -120 44 -130 3 -3 6 -19 6 -35 0 -15 5 -28 10
-28 6 0 10 -7 10 -16 0 -21 31 -117 41 -128 5 -6 9 -23 9 -38 0 -15 5 -28 10
-28 6 0 10 -9 10 -21 0 -11 10 -38 23 -59 17 -31 30 -41 57 -46 22 -5 35 -3
38 5 2 6 9 11 17 11 30 0 34 24 20 110 -19 121 -71 316 -96 362 -5 10 -9 27
-9 37 0 11 -4 22 -9 26 -5 3 -13 20 -17 37 -3 18 -10 39 -15 48 -5 8 -18 38
-29 65 -12 28 -28 64 -36 82 -8 17 -14 35 -14 41 0 8 -28 26 -33 20 -1 -1 -34
-4 -74 -7z"/>
</g>
</svg>
