<?xml version="1.0" standalone="no"?>
<!DOCTYPE svg PUBLIC "-//W3C//DTD SVG 20010904//EN"
 "http://www.w3.org/TR/2001/REC-SVG-20010904/DTD/svg10.dtd">
<svg version="1.0" xmlns="http://www.w3.org/2000/svg"
 width="250.000000pt" height="188.000000pt" viewBox="0 0 250.000000 188.000000"
 preserveAspectRatio="xMidYMid meet">
<metadata>
Created by potrace 1.14, written by Peter Selinger 2001-2017
</metadata>
<g transform="translate(0.000000,188.000000) scale(0.100000,-0.100000)"
fill="#E6B900" stroke="none">
<path d="M697 1863 c4 -10 24 -34 45 -54 21 -20 38 -43 38 -52 0 -10 5 -17 10
-17 6 0 10 -25 10 -55 0 -30 4 -55 9 -55 5 0 12 -20 15 -45 4 -25 11 -45 17
-45 5 0 9 -13 9 -30 0 -16 4 -30 9 -30 5 0 12 -16 15 -35 4 -19 11 -35 16 -35
6 0 10 -7 10 -15 0 -8 11 -31 25 -51 26 -38 33 -84 14 -84 -11 0 -62 45 -127
114 -20 21 -65 68 -99 103 -35 35 -63 68 -63 73 0 6 -5 10 -11 10 -14 0 -39
25 -39 39 0 6 -5 11 -11 11 -14 0 -39 25 -39 39 0 6 -5 11 -11 11 -14 0 -39
25 -39 39 0 6 -5 11 -11 11 -12 0 -39 25 -39 37 0 8 -29 26 -62 39 -10 3 -18
10 -18 15 0 5 -11 9 -25 9 -14 0 -25 4 -25 9 0 5 -16 12 -35 15 -19 4 -35 11
-35 16 0 6 -45 10 -105 10 -137 0 -145 -6 -145 -120 0 -44 4 -80 10 -80 5 0
12 -16 16 -35 3 -19 9 -35 13 -35 3 0 15 -18 25 -40 11 -22 23 -40 28 -40 4 0
8 -5 8 -11 0 -6 7 -17 15 -25 10 -10 15 -35 15 -74 0 -32 4 -62 10 -65 5 -3
10 -15 10 -26 0 -11 6 -27 13 -34 26 -29 37 -44 37 -49 0 -8 58 -66 65 -66 4
0 13 -6 20 -12 45 -40 100 -68 136 -68 16 0 29 -4 29 -10 0 -5 9 -10 20 -10
23 0 60 -29 60 -47 0 -7 5 -13 10 -13 6 0 10 -9 10 -20 0 -11 7 -20 15 -20 9
0 18 -7 21 -15 5 -12 30 -15 135 -15 85 0 129 -4 129 -11 0 -14 -25 -39 -39
-39 -6 0 -11 -4 -11 -9 0 -5 -10 -13 -22 -17 -12 -3 -36 -22 -54 -40 -17 -19
-34 -34 -38 -34 -12 0 -131 -114 -227 -217 -45 -48 -90 -83 -107 -83 -19 0
-72 -32 -72 -43 0 -5 6 -15 14 -23 16 -15 76 -19 76 -5 0 5 13 12 30 16 16 4
30 11 30 16 0 5 7 9 15 9 16 0 125 104 125 120 0 5 7 10 15 10 8 0 15 5 15 10
0 10 76 90 86 90 3 0 20 16 38 35 19 19 37 35 40 35 4 0 14 6 21 12 33 30 45
38 54 38 5 0 11 7 15 15 3 8 14 15 25 15 11 0 21 6 24 13 4 14 106 14 116 0
13 -18 75 -43 107 -43 19 0 34 -4 34 -10 0 -6 30 -10 70 -10 40 0 70 4 70 10
0 6 13 10 29 10 29 0 93 27 99 43 5 11 72 8 72 -3 0 -5 9 -10 20 -10 11 0 23
-7 26 -15 4 -8 10 -15 16 -15 5 0 16 -6 23 -12 31 -28 44 -38 51 -38 4 0 21
-16 40 -35 18 -19 37 -35 43 -35 6 0 11 -4 11 -9 0 -4 20 -29 45 -54 25 -26
45 -51 45 -57 0 -5 7 -10 15 -10 8 0 15 -5 15 -11 0 -14 25 -39 39 -39 6 0 11
-5 11 -11 0 -11 24 -39 34 -39 3 0 20 -15 38 -34 18 -18 43 -37 56 -40 12 -4
22 -12 22 -17 0 -16 67 -10 74 7 10 25 7 34 -9 34 -8 0 -15 4 -15 10 0 5 -11
12 -25 16 -14 3 -25 10 -25 15 0 5 -11 9 -25 9 -14 0 -25 5 -25 11 0 14 -25
39 -39 39 -6 0 -11 7 -11 15 0 8 -4 15 -9 15 -5 0 -13 9 -16 20 -7 23 -179
200 -193 200 -5 0 -15 11 -22 25 -7 14 -18 25 -25 25 -13 0 -95 75 -95 87 1
27 17 32 75 23 146 -24 217 -8 252 57 10 18 26 36 35 39 10 3 18 10 18 15 0 5
12 9 28 9 15 1 38 7 52 15 14 8 35 14 48 15 12 0 22 4 22 9 0 5 11 12 25 15
14 4 25 11 25 16 0 6 5 10 11 10 13 0 119 105 119 119 0 5 5 11 11 13 6 2 13
34 16 71 3 37 9 67 13 67 4 0 10 8 14 18 8 23 28 53 48 73 28 26 70 119 76
166 2 24 9 43 13 43 5 0 9 7 9 15 0 8 -4 15 -10 15 -5 0 -10 15 -10 33 0 57
-21 67 -143 67 -58 0 -108 -4 -111 -9 -3 -5 -22 -12 -41 -15 -19 -4 -35 -11
-35 -16 0 -6 -11 -10 -25 -10 -14 0 -25 -4 -25 -9 0 -5 -9 -13 -21 -16 -11 -4
-48 -33 -81 -66 -33 -32 -62 -59 -65 -59 -9 0 -33 -29 -33 -39 0 -6 -5 -11
-10 -11 -13 0 -27 -11 -81 -62 -21 -21 -44 -38 -49 -38 -5 0 -10 -5 -10 -11 0
-14 -25 -39 -39 -39 -6 0 -11 -5 -11 -11 0 -14 -25 -39 -39 -39 -6 0 -11 -7
-11 -15 0 -8 -5 -15 -11 -15 -6 0 -26 -16 -45 -35 -18 -19 -40 -35 -48 -35 -8
0 -16 -7 -20 -15 -11 -29 -26 -15 -26 25 0 22 5 40 10 40 6 0 10 5 10 11 0 6
14 40 30 76 17 35 30 69 30 74 0 5 5 9 10 9 6 0 10 11 10 25 0 14 4 25 10 25
5 0 12 16 16 35 3 19 10 38 15 41 5 3 9 23 9 45 0 21 4 39 9 39 5 0 11 14 15
31 3 16 22 45 41 63 45 43 47 76 5 76 -32 0 -83 -42 -95 -79 -3 -11 -11 -21
-16 -21 -5 0 -9 -22 -9 -49 0 -27 -3 -51 -7 -53 -5 -1 -15 -19 -24 -38 -89
-191 -127 -252 -137 -222 -2 7 -10 19 -18 26 -8 8 -14 19 -14 24 0 6 -6 12
-12 15 -9 2 -13 28 -13 82 0 54 4 80 13 83 6 2 12 10 12 18 0 8 4 14 9 14 5 0
12 11 15 25 4 14 11 25 16 25 6 0 10 7 10 15 0 8 4 15 9 15 11 0 32 56 24 64
-10 10 -33 7 -33 -5 0 -6 -6 -17 -12 -24 -27 -30 -38 -44 -38 -50 0 -3 -11
-23 -25 -45 -14 -22 -25 -47 -25 -55 0 -18 -18 -51 -42 -77 -24 -24 -158 -27
-158 -3 0 8 -4 15 -10 15 -5 0 -10 9 -10 21 0 20 -12 52 -47 125 -32 65 -38
74 -45 74 -5 0 -8 7 -8 15 0 8 -7 15 -15 15 -9 0 -15 -9 -15 -25 0 -14 4 -25
10 -25 5 0 12 -11 16 -25 3 -14 10 -25 15 -25 5 0 9 -11 9 -25 0 -14 4 -25 9
-25 5 0 12 -13 16 -30 4 -16 11 -32 16 -35 11 -7 12 -85 1 -85 -12 0 -72 -107
-72 -129 0 -18 -3 -20 -19 -9 -11 7 -28 29 -38 50 -10 21 -21 38 -25 38 -5 0
-8 7 -8 16 0 9 -6 30 -14 47 -8 18 -17 46 -19 62 -11 61 -31 125 -39 125 -4 0
-8 16 -8 35 0 19 -4 35 -9 35 -5 0 -12 11 -15 25 -4 14 -11 25 -16 25 -6 0
-10 7 -10 15 0 8 -7 15 -15 15 -8 0 -15 5 -15 10 0 6 -18 10 -40 10 -33 0 -38
-3 -33 -17z m-166 -553 c6 0 20 -11 33 -25 13 -14 29 -25 35 -25 7 0 22 -11
34 -24 12 -13 32 -26 45 -30 12 -4 22 -12 22 -17 0 -5 5 -9 11 -9 6 0 17 -6
24 -12 33 -30 45 -38 55 -38 5 0 10 -4 10 -10 0 -5 -16 -10 -35 -10 -19 0 -35
4 -35 9 0 5 -11 12 -25 15 -14 4 -25 11 -25 16 0 6 -7 10 -15 10 -8 0 -15 4
-15 9 0 5 -11 12 -25 15 -14 4 -25 11 -25 16 0 6 -5 10 -11 10 -11 0 -39 25
-39 35 0 3 -9 15 -20 27 -11 12 -20 31 -19 42 0 12 3 15 6 9 2 -7 9 -13 14
-13z m753 -15 c11 -8 30 -15 43 -15 13 0 23 -4 23 -10 0 -5 11 -10 25 -10 16
0 25 -6 25 -15 0 -8 5 -15 11 -15 19 0 59 -60 59 -90 0 -16 -40 -11 -46 5 -4
9 -19 15 -39 15 -19 0 -37 5 -40 10 -8 12 -265 14 -265 1 0 -5 -15 -11 -32
-14 -18 -3 -42 -7 -53 -9 -14 -2 -21 3 -23 19 -4 26 62 93 90 93 10 0 18 5 18
10 0 6 8 10 18 10 9 0 26 7 36 15 26 20 125 19 150 0z m639 -41 c7 -7 -14 -44
-26 -44 -4 0 -18 -11 -31 -25 -13 -14 -32 -25 -42 -25 -11 0 -28 -7 -38 -15
-11 -8 -35 -15 -53 -15 -18 0 -33 -4 -33 -10 0 -5 -22 -10 -50 -10 -27 0 -50
5 -50 10 0 6 9 10 21 10 11 0 27 7 35 15 9 8 26 15 40 15 13 0 24 5 24 10 0 6
9 10 19 10 11 0 26 7 35 15 8 8 24 15 35 15 12 0 21 5 21 10 0 6 11 10 25 10
13 0 30 7 37 15 14 16 22 18 31 9z"/>
<path d="M900 775 c0 -14 -4 -25 -10 -25 -5 0 -12 -11 -16 -25 -3 -14 -10 -25
-14 -25 -4 0 -10 -12 -13 -27 -14 -65 -32 -123 -39 -123 -5 0 -8 -11 -8 -25 0
-14 -4 -25 -9 -25 -12 0 -33 -55 -42 -110 -16 -99 -32 -165 -40 -174 -5 -6 -9
-17 -9 -26 0 -8 -11 -27 -25 -40 -14 -14 -36 -36 -50 -50 -31 -31 -28 -44 13
-48 30 -3 46 5 75 36 31 33 37 41 37 51 0 6 4 11 8 11 9 0 28 78 39 154 3 22
12 46 19 54 8 7 14 20 14 28 0 8 5 14 10 14 6 0 10 18 10 40 0 22 4 40 10 40
5 0 13 -18 16 -40 4 -22 10 -40 15 -40 5 0 9 -16 9 -35 0 -19 4 -35 9 -35 5 0
12 -11 15 -25 4 -14 11 -25 16 -25 6 0 10 -5 10 -11 0 -20 107 -119 128 -119
11 0 22 -6 25 -12 5 -18 209 -18 215 0 2 6 13 12 23 12 11 0 30 11 43 25 13
14 26 25 30 25 7 0 16 7 48 37 28 26 38 43 38 63 0 11 4 20 9 20 5 0 12 11 15
24 10 41 56 46 56 5 0 -10 4 -19 9 -19 5 0 11 -19 14 -42 8 -72 28 -139 55
-187 34 -61 47 -73 84 -75 44 -2 47 22 8 64 -16 17 -30 38 -30 46 0 8 -4 14
-10 14 -5 0 -10 15 -10 34 0 19 -4 38 -10 41 -5 3 -12 28 -16 55 -4 28 -10 50
-15 50 -5 0 -9 23 -9 50 0 28 -4 50 -8 50 -8 0 -28 77 -39 153 -3 20 -9 37
-13 37 -5 0 -11 14 -15 30 -4 17 -11 30 -16 30 -5 0 -9 9 -9 21 0 11 -8 34
-17 50 -17 29 -33 38 -33 18 0 -11 -25 -39 -35 -39 -4 0 -13 -7 -21 -15 -9 -8
-26 -15 -40 -15 -13 0 -24 -4 -24 -9 0 -5 -18 -11 -40 -15 -22 -3 -40 -11 -40
-16 0 -16 -123 -12 -146 5 -10 8 -27 15 -36 15 -10 0 -18 5 -18 10 0 6 -11 10
-25 10 -14 0 -25 4 -25 10 0 5 -11 12 -25 16 -14 3 -25 10 -25 15 0 5 -5 9
-11 9 -6 0 -17 6 -25 14 -8 8 -14 19 -14 25 0 6 -11 11 -25 11 -20 0 -25 -5
-25 -25z m622 -236 c-2 -30 -8 -55 -13 -57 -5 -2 -9 -20 -9 -39 0 -30 -9 -44
-55 -90 -31 -29 -64 -53 -75 -53 -11 0 -20 -4 -20 -10 0 -5 -16 -12 -35 -16
-19 -3 -35 -10 -35 -15 0 -5 -29 -9 -65 -9 -36 0 -65 4 -65 9 0 5 -11 12 -25
15 -14 4 -25 11 -25 16 0 6 -10 10 -21 10 -12 0 -32 11 -45 25 -13 14 -28 25
-34 25 -14 0 -50 37 -50 53 0 6 -7 21 -15 31 -8 11 -15 33 -15 48 0 16 -5 37
-12 47 -6 10 -8 26 -5 35 7 18 47 22 47 5 0 -6 6 -17 13 -24 25 -29 36 -40 51
-52 18 -15 136 -18 136 -3 0 6 28 10 64 10 36 0 68 -4 71 -10 3 -5 36 -10 72
-10 59 0 68 3 89 28 13 15 27 35 30 45 3 9 10 17 15 17 5 0 9 7 9 16 0 9 6 14
13 11 8 -3 11 -21 9 -58z"/>
</g>
</svg>
