<?xml version="1.0" encoding="iso-8859-1"?>
<!-- Generator: Adobe Illustrator 19.0.0, SVG Export Plug-In . SVG Version: 6.00 Build 0)  -->
<svg version="1.1" id="Capa_1" xmlns="http://www.w3.org/2000/svg" xmlns:xlink="http://www.w3.org/1999/xlink" x="0px" y="0px"
	 viewBox="0 0 512 512" style="enable-background:new 0 0 512 512;" xml:space="preserve">
<g>
	<g>
		<path d="M512,183.792L473.16,38.84L328.209,0L234.34,93.869L106.112,59.511L0,165.623l38.84,144.952l128.227,34.358
			l34.358,128.227L346.377,512l106.112-106.112l-34.358-128.227L512,183.792z M337.171,33.449l111.504,29.877l29.877,111.504
			l-81.626,81.626l-111.504-29.877l-29.877-111.504L337.171,33.449z M63.326,286.089L33.449,174.585l81.626-81.626l111.504,29.877
			l29.877,111.504l-81.626,81.626L63.326,286.089z M419.042,396.926l-81.626,81.626l-111.504-29.877l-29.877-111.504l81.626-81.626
			l111.504,29.877L419.042,396.926z"/>
	</g>
</g>
<g>
</g>
<g>
</g>
<g>
</g>
<g>
</g>
<g>
</g>
<g>
</g>
<g>
</g>
<g>
</g>
<g>
</g>
<g>
</g>
<g>
</g>
<g>
</g>
<g>
</g>
<g>
</g>
<g>
</g>
</svg>
