<?xml version="1.0" standalone="no"?>
<!DOCTYPE svg PUBLIC "-//W3C//DTD SVG 20010904//EN"
 "http://www.w3.org/TR/2001/REC-SVG-20010904/DTD/svg10.dtd">
<svg version="1.0" xmlns="http://www.w3.org/2000/svg"
 width="142.000000pt" height="147.000000pt" viewBox="0 0 142.000000 147.000000"
 preserveAspectRatio="xMidYMid meet">
<metadata>
Created by potrace 1.14, written by Peter Selinger 2001-2017
</metadata>
<g transform="translate(0.000000,147.000000) scale(0.100000,-0.100000)"
fill="#0088e6" stroke="none">
<path d="M607 1452 c-20 -22 -37 -66 -37 -96 0 -13 -14 -40 -30 -61 -17 -21
-35 -55 -41 -76 l-12 -38 -96 6 c-83 5 -98 3 -110 -11 -22 -26 1 -36 86 -36
83 0 120 -11 148 -44 11 -14 46 -33 78 -43 l57 -19 -25 -34 c-14 -19 -30 -52
-36 -74 l-10 -39 -65 6 c-103 8 -147 36 -224 143 -84 117 -168 214 -186 214
-40 0 2 -81 90 -175 26 -27 68 -78 93 -113 25 -34 54 -67 66 -73 11 -6 61 -20
111 -30 95 -20 112 -29 103 -51 -4 -12 -18 -12 -88 -2 -129 20 -134 19 -197
-30 -32 -24 -73 -52 -92 -61 -19 -10 -46 -26 -60 -35 -14 -9 -43 -29 -65 -43
-47 -31 -71 -65 -57 -79 16 -16 146 59 262 151 55 44 95 61 144 61 65 0 142
-19 158 -38 17 -19 44 -129 35 -138 -3 -3 -50 -12 -104 -20 -116 -18 -141 -28
-168 -72 -11 -19 -43 -62 -70 -95 -89 -109 -133 -171 -140 -198 -7 -29 4 -42
29 -33 21 8 137 157 165 212 38 75 92 118 171 136 74 17 109 20 134 10 13 -5
10 -13 -17 -45 -19 -21 -39 -56 -45 -78 -19 -63 -14 -178 11 -241 30 -76 34
-81 101 -130 48 -35 62 -41 75 -31 9 6 31 19 49 28 18 9 47 40 65 67 31 49 32
54 31 151 -2 118 -18 169 -74 237 l-40 47 54 6 c107 14 186 -35 303 -187 80
-103 165 -188 188 -188 46 0 4 71 -111 188 -53 53 -107 115 -120 138 -30 51
-67 68 -193 89 -99 16 -113 24 -106 62 3 13 7 34 10 48 9 45 47 59 155 60 l96
0 57 -42 c31 -24 60 -43 65 -43 5 0 15 -7 22 -15 18 -22 175 -115 193 -115 9
0 19 5 23 12 11 17 -49 65 -149 121 -47 26 -106 62 -130 81 -74 57 -83 59
-166 51 -114 -12 -154 -11 -158 2 -3 7 6 14 19 17 13 2 59 12 103 22 95 22
112 37 225 198 123 177 124 178 94 190 -25 10 -65 -40 -213 -267 -33 -51 -90
-79 -171 -85 l-65 -4 -23 53 c-13 29 -33 64 -44 78 l-20 26 52 8 c53 7 65 14
93 58 22 34 77 49 152 43 70 -6 96 5 75 31 -12 14 -29 16 -99 13 -48 -2 -92
-6 -100 -9 -10 -3 -24 15 -42 52 -15 32 -43 69 -63 84 -26 20 -36 35 -36 55 0
33 -39 94 -63 98 -18 4 -24 -22 -7 -33 21 -13 8 -25 -27 -25 -34 1 -36 2 -20
14 20 16 23 46 4 46 -8 0 -21 -8 -30 -18z m170 -187 c26 -19 51 -91 37 -105
-6 -6 -25 -7 -42 -4 -37 8 -48 34 -38 89 8 39 12 41 43 20z m-170 -33 c13 -50
1 -82 -31 -82 -29 0 -41 28 -31 68 15 62 48 69 62 14z m101 -296 c2 -33 7 -67
13 -77 5 -10 9 -27 9 -38 0 -12 4 -29 9 -39 21 -38 30 -108 20 -145 -15 -54
-29 -45 -29 17 0 68 -17 118 -39 114 -12 -3 -17 -18 -19 -68 -2 -36 -7 -69
-11 -73 -14 -14 -34 61 -27 101 24 139 29 172 31 212 3 63 3 62 22 58 14 -2
18 -16 21 -62z m51 -487 l34 -20 -7 -122 c-5 -100 -3 -127 9 -151 22 -41 2
-59 -61 -58 -61 0 -81 19 -66 61 7 21 8 49 1 86 -5 30 -13 81 -19 113 -14 79
-13 79 18 96 37 20 51 20 91 -5z"/>
<path d="M696 434 c-9 -8 -17 -21 -17 -27 -13 -113 25 -246 66 -231 23 9 26
37 15 145 -12 123 -28 150 -64 113z"/>
</g>
</svg>
