<?xml version="1.0" standalone="no"?>
<!DOCTYPE svg PUBLIC "-//W3C//DTD SVG 20010904//EN"
 "http://www.w3.org/TR/2001/REC-SVG-20010904/DTD/svg10.dtd">
<svg version="1.0" xmlns="http://www.w3.org/2000/svg"
 width="682.000000pt" height="1298.000000pt" viewBox="0 0 682.000000 1298.000000"
 preserveAspectRatio="xMidYMid meet">
<metadata>
Created by potrace 1.14, written by Peter Selinger 2001-2017
</metadata>
<g transform="translate(0.000000,1298.000000) scale(0.100000,-0.100000)"
fill="#4b9400" stroke="none">
<path d="M709 12964 c-7 -9 -15 -45 -17 -80 -3 -46 -8 -62 -16 -55 -6 5 -26
12 -43 16 -65 14 -31 -44 100 -168 149 -142 328 -267 381 -267 16 0 28 -16 53
-68 17 -37 35 -83 38 -102 11 -54 73 -244 118 -360 100 -257 285 -567 439
-735 50 -55 74 -65 96 -43 9 9 12 5 12 -19 0 -25 17 -48 90 -126 l91 -95 -22
-54 c-13 -34 -23 -86 -26 -143 -4 -79 -2 -99 22 -168 22 -67 24 -82 13 -97
-82 -114 -124 -183 -148 -244 -17 -41 -30 -81 -30 -88 0 -10 -9 -13 -30 -10
-69 10 -287 -53 -321 -94 -6 -8 -21 -14 -32 -14 -53 0 -155 -167 -196 -323
-38 -140 -111 -308 -306 -698 -137 -275 -165 -326 -210 -384 -18 -22 -35 -48
-38 -57 -4 -13 -17 -18 -41 -18 -20 0 -53 -7 -73 -14 -21 -8 -74 -20 -118 -26
-106 -16 -217 -52 -284 -92 -86 -52 -98 -92 -20 -69 22 7 43 10 46 8 2 -3 -3
-19 -11 -36 -19 -35 -21 -81 -4 -81 6 0 25 10 42 23 55 41 158 98 225 123 88
34 260 74 315 74 38 0 48 5 75 35 17 20 31 41 31 47 0 7 17 37 39 68 119 171
259 460 394 815 82 215 162 398 188 431 7 9 19 8 47 -2 20 -7 56 -13 79 -14
23 0 44 -4 47 -8 3 -4 1 -25 -4 -45 -5 -26 -25 -54 -62 -90 -90 -86 -134 -238
-90 -315 88 -158 39 -515 -152 -1101 -121 -369 -180 -579 -250 -886 -31 -136
-76 -369 -76 -393 0 -10 -13 -31 -30 -47 -36 -34 -108 -140 -144 -213 -83
-165 -152 -347 -272 -717 -57 -177 -68 -221 -68 -280 l0 -71 -99 -54 c-116
-63 -177 -110 -338 -261 -128 -120 -148 -151 -76 -119 67 31 73 28 69 -35 -2
-30 0 -55 5 -55 18 0 122 117 138 155 9 22 30 55 48 73 38 39 155 116 247 162
75 37 126 73 139 99 6 10 35 110 66 222 94 341 166 567 227 709 32 75 31 79
13 -110 -25 -256 -40 -957 -26 -1275 17 -411 60 -974 91 -1200 5 -38 12 -99
15 -135 12 -125 75 -597 115 -869 172 -1165 350 -1891 562 -2291 74 -141 112
-194 287 -405 114 -137 216 -200 321 -200 113 0 172 49 240 200 17 39 35 79
40 90 5 11 16 38 23 60 8 22 36 98 62 170 105 291 325 1034 325 1098 0 31 54
209 185 607 52 157 101 310 111 340 9 30 25 81 35 113 10 31 19 64 19 72 0 8
5 15 10 15 6 0 10 -7 10 -15 0 -8 9 -41 19 -72 10 -32 26 -83 35 -113 10 -30
59 -183 111 -340 131 -398 185 -576 185 -607 0 -64 220 -807 325 -1098 26 -72
54 -148 62 -170 7 -22 18 -49 23 -60 5 -11 23 -51 40 -90 68 -151 127 -200
240 -200 105 0 207 63 321 200 175 211 213 264 287 405 212 400 390 1126 562
2291 40 272 103 744 115 869 3 36 10 97 15 135 31 226 74 789 91 1200 14 318
-1 1019 -26 1275 -18 189 -19 185 13 110 61 -142 133 -368 227 -709 31 -112
60 -212 66 -222 13 -26 64 -62 139 -99 92 -46 209 -123 247 -162 18 -18 39
-51 48 -73 16 -38 120 -155 138 -155 5 0 7 25 5 55 -4 63 2 66 70 35 71 -32
51 -1 -77 119 -161 151 -222 198 -338 261 l-99 54 0 71 c0 59 -11 103 -68 280
-120 370 -189 552 -272 717 -36 73 -108 179 -144 213 -17 16 -30 37 -30 47 0
24 -45 257 -76 393 -70 307 -129 517 -250 886 -191 586 -240 943 -152 1101 44
77 0 229 -90 315 -37 36 -57 64 -62 90 -5 20 -7 41 -4 45 3 4 24 8 47 8 23 1
59 7 79 14 28 10 40 11 47 2 26 -33 106 -216 188 -431 135 -355 275 -644 394
-815 22 -31 39 -61 39 -68 0 -6 14 -27 31 -47 27 -30 37 -35 75 -35 55 0 227
-40 315 -74 67 -25 170 -82 225 -123 17 -13 36 -23 42 -23 17 0 15 46 -4 81
-8 17 -13 33 -11 36 3 2 24 -1 46 -8 78 -23 66 17 -20 69 -67 40 -178 76 -284
92 -44 6 -97 18 -118 26 -20 7 -53 14 -73 14 -24 0 -37 5 -41 18 -3 9 -20 35
-38 57 -45 58 -73 109 -210 384 -195 390 -268 558 -306 698 -41 156 -143 323
-196 323 -11 0 -26 6 -32 14 -34 41 -252 104 -321 94 -21 -3 -30 0 -30 10 0 7
-13 47 -30 88 -24 61 -66 130 -148 244 -11 15 -9 30 13 97 24 69 26 89 22 168
-3 57 -13 109 -26 143 l-22 54 91 95 c73 78 90 101 90 126 0 24 3 28 12 19 22
-22 46 -12 96 43 154 168 339 478 439 735 45 116 107 306 118 360 3 19 21 65
38 102 25 52 37 68 53 68 53 0 232 125 381 267 131 124 165 182 101 168 -18
-4 -39 -12 -45 -17 -10 -8 -13 2 -13 43 0 54 -17 103 -34 101 -5 -1 -17 -30
-26 -66 -9 -35 -29 -83 -45 -106 -60 -87 -250 -229 -370 -277 -33 -14 -65 -31
-71 -39 -6 -8 -19 -14 -28 -14 -31 0 -54 -39 -96 -166 -172 -523 -334 -863
-440 -927 -43 -26 -150 -128 -150 -143 0 -10 -12 -14 -37 -14 -24 0 -64 -14
-106 -35 -38 -19 -70 -35 -73 -35 -3 0 -16 26 -30 58 -39 88 -103 178 -145
202 -45 25 -177 52 -236 48 -35 -2 -48 3 -72 26 -18 18 -55 35 -97 47 -74 21
-134 56 -134 79 0 9 15 48 34 87 36 74 106 153 135 153 18 0 41 18 41 32 0 4
-17 8 -39 8 -57 0 -124 -50 -196 -146 l-61 -81 -51 47 c-66 64 -107 75 -238
65 -55 -5 -125 -8 -155 -8 -30 0 -100 3 -155 8 -131 10 -172 -1 -238 -65 l-51
-47 -61 81 c-72 96 -139 146 -196 146 -22 0 -39 -4 -39 -8 0 -14 23 -32 41
-32 29 0 99 -79 135 -153 19 -39 34 -78 34 -87 0 -23 -60 -58 -134 -79 -42
-12 -79 -29 -97 -47 -24 -23 -37 -28 -72 -26 -59 4 -191 -23 -236 -48 -42 -24
-106 -114 -145 -202 -14 -32 -27 -58 -30 -58 -3 0 -35 16 -73 35 -42 21 -82
35 -105 35 -26 0 -38 4 -38 14 0 15 -107 117 -150 143 -106 64 -268 404 -440
927 -42 127 -65 166 -96 166 -9 0 -22 6 -28 14 -6 8 -38 25 -71 39 -124 49
-315 194 -374 283 -16 25 -35 71 -42 102 -15 68 -21 78 -40 56z m1998 -1567
c30 -20 63 -82 63 -117 0 -38 -24 -93 -53 -124 -63 -69 -218 -127 -352 -133
-88 -5 -91 -4 -122 24 -18 17 -33 39 -33 51 0 11 -4 24 -10 27 -11 7 65 158
106 212 41 53 100 75 229 83 124 8 128 7 172 -23z m1609 19 c98 -5 161 -30
198 -79 41 -54 117 -205 106 -212 -6 -3 -10 -16 -10 -27 0 -12 -15 -34 -32
-51 -32 -28 -35 -29 -123 -24 -188 9 -366 101 -394 205 -14 49 -14 59 5 107
20 55 80 94 132 89 20 -2 74 -5 118 -8z m-964 -92 c54 -15 62 -15 116 0 32 9
87 16 123 16 148 0 365 -81 401 -148 11 -21 10 -26 -7 -38 -26 -19 -37 -18
-177 16 -79 20 -172 34 -260 40 -185 14 -374 0 -536 -40 -140 -34 -151 -35
-177 -16 -75 55 195 183 389 185 38 1 96 -6 128 -15z m-836 -1026 c19 -36 79
-174 105 -243 29 -73 66 -217 61 -237 -5 -26 -43 -22 -115 12 -35 17 -68 30
-73 30 -6 0 -30 20 -54 45 l-45 46 0 86 c0 60 4 88 13 90 8 3 12 31 12 93 0
78 2 91 21 103 28 20 57 10 75 -25z m1882 -74 c2 -55 7 -91 15 -96 8 -5 12
-37 12 -92 l0 -85 -45 -46 c-24 -25 -48 -45 -54 -45 -5 0 -38 -13 -73 -30 -72
-34 -110 -38 -115 -12 -9 40 45 209 126 392 25 58 46 106 46 108 0 1 10 7 23
11 14 6 29 5 42 -4 17 -11 20 -25 23 -101z m-2348 -760 c0 -3 -11 -21 -25 -41
-13 -21 -32 -71 -41 -112 -15 -66 -15 -87 -4 -171 22 -171 101 -367 219 -544
25 -38 26 -43 26 -202 0 -135 -3 -166 -16 -179 -17 -17 -13 -23 -64 100 -7 17
-26 62 -43 100 -85 197 -170 493 -192 668 -14 106 -3 223 25 277 19 36 19 40
0 40 -21 0 -19 13 10 44 18 20 34 26 65 26 22 0 40 -2 40 -6z m2825 -20 c29
-31 31 -44 10 -44 -19 0 -19 -4 0 -40 28 -54 39 -171 25 -277 -22 -175 -107
-471 -192 -668 -17 -38 -36 -83 -43 -100 -51 -123 -47 -117 -64 -100 -13 13
-16 44 -16 179 0 159 1 164 26 202 118 177 197 373 219 544 11 84 11 105 -4
171 -9 41 -28 91 -41 112 -14 20 -25 38 -25 41 0 4 18 6 40 6 31 0 47 -6 65
-26z m-3160 -1459 c17 -144 51 -371 85 -555 11 -58 24 -130 29 -160 16 -94 41
-211 66 -316 14 -56 25 -111 25 -123 0 -12 4 -29 9 -39 5 -9 24 -75 41 -147
36 -146 116 -420 166 -570 18 -55 37 -116 43 -135 15 -52 95 -275 125 -350 20
-50 29 -94 37 -195 5 -71 14 -155 18 -185 8 -51 5 -88 -19 -300 -14 -117 -35
-249 -42 -255 -10 -10 -208 221 -208 243 0 6 -11 23 -23 39 -43 51 -157 339
-157 395 0 10 -4 18 -10 18 -5 0 -10 17 -10 38 0 20 -9 87 -20 147 -11 61 -27
153 -35 205 -9 52 -22 131 -30 175 -8 44 -31 177 -50 295 -19 118 -39 235 -45
260 -5 25 -23 137 -40 250 -17 113 -40 252 -50 310 -10 58 -26 155 -35 215 -9
61 -21 130 -25 155 -6 32 -3 77 11 160 11 63 26 153 34 200 7 47 20 123 28
170 8 47 23 141 33 210 l19 125 7 -70 c4 -38 15 -133 23 -210z m3471 -45 c8
-52 22 -133 29 -180 7 -47 23 -137 34 -200 14 -83 17 -128 11 -160 -4 -25 -16
-94 -25 -155 -9 -60 -25 -157 -35 -215 -10 -58 -33 -197 -50 -310 -17 -113
-35 -225 -40 -250 -6 -25 -26 -142 -45 -260 -19 -118 -42 -251 -50 -295 -8
-44 -21 -123 -30 -175 -8 -52 -24 -144 -35 -205 -11 -60 -20 -127 -20 -147 0
-21 -4 -38 -10 -38 -5 0 -10 -8 -10 -18 0 -56 -114 -344 -157 -395 -12 -16
-23 -33 -23 -39 0 -22 -198 -253 -208 -243 -7 6 -28 138 -42 255 -24 212 -27
249 -19 300 4 30 13 114 18 185 8 101 17 145 37 195 30 75 110 298 125 350 6
19 25 80 43 135 50 150 130 424 166 570 17 72 36 138 41 147 5 10 9 27 9 39 0
12 11 67 25 123 35 147 88 419 120 626 8 52 19 118 25 145 11 58 45 331 56
455 l8 85 18 -115 c9 -63 25 -158 34 -210z m-2306 203 c25 -16 83 -68 210
-188 69 -65 171 -145 207 -164 16 -8 33 -7 67 3 39 12 53 12 92 0 34 -10 51
-11 67 -3 36 19 138 99 207 164 185 174 222 205 248 205 49 0 -119 -209 -325
-403 -29 -27 -53 -58 -53 -68 0 -54 143 -135 344 -196 100 -30 -14 -45 -141
-18 -101 21 -200 57 -302 110 l-91 47 -91 -47 c-102 -53 -201 -89 -302 -110
-127 -27 -241 -12 -141 18 201 61 344 142 344 196 0 10 -24 41 -52 68 -100 93
-245 250 -299 323 -51 69 -45 102 11 63z m-1026 -249 c12 -12 35 -25 51 -28
17 -3 91 -22 165 -41 74 -20 159 -36 187 -38 29 -1 53 -4 53 -7 0 -9 110 -30
152 -30 45 0 72 -29 71 -75 -1 -27 -33 -98 -33 -72 0 4 -10 1 -22 -7 -13 -8
-90 -37 -172 -65 -82 -27 -161 -58 -175 -69 -38 -28 -48 -64 -28 -96 33 -50
58 -58 174 -57 116 2 181 -15 348 -88 39 -17 96 -37 128 -46 50 -14 58 -19 55
-38 -3 -24 -59 -66 -135 -103 -48 -23 -61 -25 -176 -22 -134 3 -159 -5 -192
-56 -37 -56 46 -124 191 -155 146 -32 294 -60 370 -70 110 -14 126 -26 157
-117 23 -66 25 -81 14 -103 -16 -34 -86 -59 -216 -78 -113 -16 -148 -29 -192
-74 -39 -40 -38 -76 5 -128 76 -91 75 -90 286 -121 118 -17 231 -83 216 -127
-4 -10 -26 -31 -49 -48 -39 -27 -49 -29 -142 -31 -140 -2 -322 -55 -366 -106
-26 -30 -22 -116 8 -156 12 -16 33 -52 48 -80 23 -45 27 -62 23 -112 -5 -72
-18 -89 -50 -71 -95 53 -154 298 -95 392 41 67 118 116 217 139 60 13 120 60
120 92 0 61 -104 116 -245 130 -122 12 -206 34 -227 59 -10 12 -23 38 -29 59
-22 71 14 120 101 139 98 21 188 43 251 62 62 18 67 22 82 60 14 36 15 45 2
75 -8 19 -29 48 -47 64 -18 17 -29 30 -26 30 4 0 46 -20 94 -45 47 -25 92 -45
100 -45 18 0 7 29 -19 53 -22 19 -246 91 -317 102 -108 16 -424 106 -482 136
-42 23 -11 85 70 141 43 30 53 32 162 38 139 7 176 23 166 74 -3 17 -16 38
-28 46 -13 8 -37 28 -55 43 -23 20 -38 27 -53 22 -12 -4 -27 -2 -34 4 -7 6
-48 15 -92 20 -124 14 -255 71 -284 124 -14 27 -14 29 16 56 17 15 62 37 105
50 208 64 244 76 247 83 2 4 20 12 41 18 20 5 45 16 56 24 17 12 18 17 6 40
-13 24 -65 51 -81 41 -4 -3 -27 -1 -51 5 -24 5 -78 16 -119 24 -125 26 -273
67 -302 84 -20 12 -30 28 -38 64 -5 27 -10 59 -9 71 0 19 2 17 11 -8 6 -16 20
-39 32 -51z m3146 -7 c-8 -41 -17 -57 -38 -69 -29 -17 -177 -58 -302 -84 -41
-8 -95 -19 -119 -24 -24 -6 -47 -8 -51 -5 -16 10 -68 -17 -81 -41 -12 -23 -11
-28 6 -40 11 -8 36 -19 56 -24 21 -6 39 -14 41 -18 3 -7 39 -19 247 -83 43
-13 88 -35 105 -50 30 -27 30 -29 16 -56 -29 -53 -160 -110 -284 -124 -44 -5
-85 -14 -92 -20 -7 -6 -22 -8 -34 -4 -15 5 -30 -2 -53 -22 -18 -15 -42 -35
-55 -43 -12 -8 -25 -29 -28 -46 -10 -51 27 -67 166 -74 109 -6 119 -8 162 -38
81 -56 112 -118 71 -141 -59 -30 -375 -120 -483 -136 -71 -11 -295 -83 -317
-102 -26 -24 -37 -53 -19 -53 8 0 53 20 100 45 48 25 90 45 94 45 3 0 -8 -13
-26 -30 -18 -16 -39 -45 -47 -64 -13 -30 -12 -39 2 -75 15 -38 20 -42 82 -60
63 -19 153 -41 251 -62 87 -19 123 -68 101 -139 -6 -21 -19 -47 -29 -59 -21
-25 -105 -47 -227 -59 -141 -14 -245 -69 -245 -130 0 -32 60 -79 120 -92 99
-23 176 -72 217 -139 59 -94 0 -339 -95 -392 -32 -18 -45 -1 -50 71 -4 50 0
67 23 112 15 28 36 64 48 80 30 40 34 126 8 156 -44 51 -226 104 -366 106 -93
2 -103 4 -142 31 -23 17 -45 38 -49 48 -15 44 98 110 216 127 211 31 210 30
286 121 43 52 44 88 5 128 -44 45 -79 58 -192 74 -130 19 -200 44 -216 78 -11
22 -9 37 14 103 31 91 47 103 157 117 76 10 224 38 370 70 145 31 228 99 191
155 -33 51 -58 59 -192 56 -115 -3 -128 -1 -176 22 -76 37 -132 79 -135 103
-3 19 5 24 55 38 32 9 90 29 128 46 167 73 232 90 348 88 116 -1 141 7 174 57
20 32 10 68 -28 96 -14 11 -93 42 -175 69 -82 28 -159 57 -171 65 -13 8 -23
11 -23 7 0 -26 -32 45 -33 72 -1 46 26 75 71 75 42 0 152 21 152 30 0 3 24 6
53 7 28 2 113 18 187 38 74 19 149 38 165 41 36 7 71 42 82 81 12 48 16 -1 3
-60z m-3486 -892 c20 -121 41 -249 46 -285 6 -36 15 -90 20 -120 5 -30 12 -68
14 -85 3 -16 14 -88 26 -160 11 -71 23 -148 26 -170 3 -22 12 -75 21 -118 8
-43 13 -87 10 -97 -3 -11 -2 -20 2 -22 8 -3 45 -228 61 -373 6 -49 15 -106 20
-125 4 -19 12 -64 15 -100 4 -36 14 -99 21 -140 8 -41 19 -106 25 -145 6 -38
22 -133 36 -210 14 -77 31 -178 39 -225 8 -47 20 -112 26 -145 33 -159 3 -412
-67 -559 -27 -58 -28 -58 -41 -35 -7 13 -18 40 -25 59 -6 19 -17 49 -24 65 -8
17 -30 82 -51 145 -20 63 -45 134 -55 157 -11 24 -19 52 -19 63 0 10 -7 34
-14 52 -8 18 -22 69 -31 113 -8 44 -29 136 -45 205 -16 69 -41 199 -56 290
-14 91 -34 212 -44 270 -10 58 -21 128 -25 155 -3 28 -15 106 -25 175 -11 69
-29 195 -40 280 -12 85 -30 215 -42 289 -27 178 -22 382 16 551 24 108 88 327
105 360 4 8 14 40 21 70 7 30 15 51 16 45 2 -5 19 -109 38 -230z m3866 120
c22 -51 83 -261 106 -365 38 -169 43 -373 16 -551 -12 -74 -30 -204 -42 -289
-11 -85 -29 -211 -40 -280 -10 -69 -22 -147 -25 -175 -4 -27 -15 -97 -25 -155
-10 -58 -30 -179 -44 -270 -15 -91 -40 -221 -56 -290 -16 -69 -37 -161 -45
-205 -9 -44 -23 -95 -31 -113 -7 -18 -14 -42 -14 -52 0 -11 -8 -39 -19 -63
-10 -23 -35 -94 -55 -157 -21 -63 -43 -128 -51 -145 -7 -16 -18 -46 -24 -65
-7 -19 -18 -46 -25 -59 -13 -23 -14 -23 -41 35 -70 147 -100 400 -67 559 6 33
18 98 26 145 8 47 25 148 39 225 14 77 30 172 36 210 6 39 17 104 25 145 7 41
17 104 21 140 3 36 11 81 15 100 5 19 14 76 20 125 16 145 53 370 61 373 4 2
5 11 2 22 -3 10 2 54 10 97 9 43 18 96 21 118 3 22 15 99 26 170 12 72 23 144
26 160 2 17 9 56 14 88 6 31 14 83 19 115 5 31 27 162 48 291 l38 234 13 -49
c7 -27 17 -58 22 -69z m-4131 -1225 c15 -146 40 -342 82 -625 19 -132 23 -153
78 -400 17 -77 40 -183 51 -235 11 -52 39 -172 63 -266 l42 -170 -5 -319 -5
-319 -32 85 c-39 101 -124 359 -148 444 -25 92 -57 218 -60 240 -2 11 -9 36
-14 55 -18 57 -79 357 -96 470 -40 267 -46 331 -52 565 -6 267 0 366 39 590
l23 130 11 -65 c7 -36 17 -117 23 -180z m4407 -75 c13 -113 15 -189 11 -395
-6 -239 -12 -301 -52 -570 -17 -113 -78 -413 -96 -470 -5 -19 -12 -44 -14 -55
-3 -22 -35 -148 -60 -240 -24 -85 -109 -343 -148 -444 l-32 -85 -5 319 -5 319
42 170 c24 94 52 214 63 266 11 52 34 158 51 235 17 77 38 169 45 205 26 116
93 597 114 815 5 55 15 134 22 175 l12 75 17 -90 c10 -49 25 -153 35 -230z
m-3177 -552 c10 -21 43 -72 73 -113 30 -41 63 -90 74 -109 10 -19 31 -48 47
-65 15 -17 27 -34 27 -38 0 -3 6 -13 13 -20 7 -7 19 -22 27 -34 8 -11 47 -56
86 -100 84 -93 160 -181 191 -221 12 -15 32 -41 46 -58 64 -79 75 -108 77
-196 3 -147 9 -142 -66 -63 -77 81 -214 240 -214 248 0 4 -12 20 -27 36 -14
16 -33 41 -42 54 -9 13 -38 57 -66 97 -130 193 -214 369 -251 526 -8 34 -17
69 -20 77 -12 31 6 15 25 -21z m1866 -58 c-13 -50 -30 -108 -38 -130 -36 -98
-126 -266 -212 -394 -28 -40 -57 -84 -66 -97 -9 -13 -28 -38 -42 -54 -15 -16
-27 -32 -27 -36 0 -8 -137 -167 -214 -248 -75 -79 -69 -84 -66 63 2 88 13 117
77 196 14 17 34 43 46 58 31 40 107 128 191 221 39 44 78 89 86 100 8 12 20
27 27 34 7 7 13 17 13 20 0 4 12 21 28 38 15 17 36 46 46 65 11 19 44 68 74
109 30 41 63 92 74 113 10 22 21 37 23 35 2 -2 -7 -44 -20 -93z m-1844 -373
c92 -168 204 -328 293 -422 29 -30 79 -84 111 -120 86 -95 219 -240 307 -333
93 -98 107 -134 115 -287 4 -80 1 -120 -12 -169 -16 -61 -66 -151 -84 -151
-18 0 -194 184 -253 265 -4 6 -20 26 -35 45 -16 19 -47 60 -70 90 -36 48 -68
97 -210 317 -46 71 -193 337 -234 422 -18 37 -21 57 -16 120 9 136 31 310 39
305 4 -2 26 -39 49 -82z m1905 -207 c6 -81 4 -96 -15 -135 -41 -86 -188 -352
-234 -423 -142 -220 -174 -269 -210 -317 -23 -30 -54 -71 -70 -90 -15 -19 -31
-39 -35 -45 -59 -81 -235 -265 -253 -265 -18 0 -68 90 -84 151 -13 49 -16 89
-12 169 8 153 22 189 115 287 88 93 221 238 307 333 32 36 82 90 111 120 89
94 184 228 276 393 77 138 70 137 85 17 7 -58 15 -146 19 -195z m-2289 53
c129 -147 167 -199 243 -338 34 -63 75 -134 90 -157 15 -22 31 -51 35 -63 4
-13 24 -49 44 -81 20 -32 54 -88 76 -124 44 -73 162 -244 197 -287 35 -42 173
-190 280 -302 l97 -101 1 -113 c0 -78 -5 -124 -15 -149 -8 -19 -15 -43 -15
-53 0 -23 -44 -104 -74 -136 -30 -33 -34 -31 -157 105 -207 228 -258 288 -389
461 -27 36 -58 77 -70 92 -11 14 -20 30 -20 36 0 5 -9 17 -20 27 -11 10 -20
24 -20 32 0 7 -4 13 -8 13 -4 0 -16 15 -26 33 -11 17 -37 59 -59 92 -55 82
-161 291 -186 367 -11 35 -27 104 -36 153 -9 50 -23 115 -31 145 -7 30 -21 84
-30 120 -19 79 -32 340 -17 340 6 0 56 -51 110 -112z m2700 -25 c-3 -76 -13
-167 -21 -203 -9 -36 -23 -90 -30 -120 -8 -30 -22 -95 -31 -145 -9 -49 -25
-118 -36 -153 -25 -76 -131 -285 -186 -367 -22 -33 -48 -75 -59 -92 -10 -18
-22 -33 -26 -33 -4 0 -8 -6 -8 -13 0 -8 -9 -22 -20 -32 -11 -10 -20 -22 -20
-27 0 -6 -9 -22 -20 -36 -12 -15 -43 -56 -70 -92 -131 -173 -182 -233 -389
-461 -123 -136 -127 -138 -157 -105 -30 32 -74 113 -74 136 0 10 -7 34 -15 53
-10 25 -15 71 -15 149 l1 113 97 101 c107 112 245 260 280 302 35 43 153 214
197 287 22 36 56 92 76 124 20 32 40 68 44 81 4 12 20 41 35 63 15 23 56 94
90 157 35 63 81 140 103 170 57 78 237 280 250 280 7 0 8 -45 4 -137z m-2710
-858 c67 -127 174 -302 283 -460 39 -57 398 -488 419 -505 4 -3 46 -49 94
-102 l87 -97 0 -113 c0 -164 -40 -304 -113 -400 l-29 -37 -61 75 c-71 86 -100
124 -250 319 -59 77 -111 145 -115 150 -30 38 -179 255 -222 324 -58 94 -139
253 -170 333 -11 29 -25 62 -30 73 -11 24 -69 193 -99 290 l-22 70 29 60 c43
87 77 164 92 209 l12 39 34 -89 c19 -49 46 -111 61 -139z m2714 188 c14 -44
48 -122 91 -208 l29 -60 -22 -70 c-30 -97 -88 -266 -99 -290 -5 -11 -19 -44
-30 -73 -31 -80 -112 -239 -170 -333 -43 -69 -192 -286 -222 -324 -4 -5 -56
-73 -115 -150 -150 -195 -179 -233 -250 -319 l-61 -75 -29 37 c-73 96 -113
236 -113 400 l0 113 87 97 c48 53 90 99 94 102 21 17 380 448 419 505 177 257
291 457 347 607 15 43 29 78 30 78 1 0 7 -17 14 -37z m-3071 -263 c33 -108 52
-163 115 -335 21 -55 44 -117 51 -138 31 -82 143 -298 247 -472 35 -58 160
-241 189 -276 38 -47 31 -37 260 -319 96 -118 183 -227 192 -243 23 -35 33
-178 17 -262 -10 -60 -97 -246 -116 -252 -6 -2 -27 18 -47 44 -40 51 -133 177
-158 214 -8 12 -25 34 -37 49 -13 15 -23 31 -23 34 0 3 -22 37 -50 76 -27 39
-50 73 -50 76 0 3 -11 20 -24 37 -13 18 -33 48 -44 67 -11 19 -36 64 -57 100
-54 95 -135 255 -135 268 0 6 -3 12 -7 14 -15 6 -349 687 -383 778 -7 19 -19
51 -28 70 -13 30 -14 77 -8 345 3 170 9 321 13 334 5 20 9 14 28 -40 13 -35
37 -111 55 -169z m3417 -124 c5 -268 4 -316 -9 -346 -9 -19 -21 -51 -28 -70
-34 -91 -368 -772 -382 -778 -5 -2 -8 -8 -8 -14 0 -13 -81 -173 -135 -268 -21
-36 -46 -81 -57 -100 -11 -19 -31 -49 -44 -67 -13 -17 -24 -34 -24 -37 0 -3
-22 -37 -50 -76 -27 -39 -50 -73 -50 -76 0 -3 -10 -19 -22 -34 -13 -15 -30
-37 -38 -49 -25 -37 -118 -163 -158 -214 -20 -26 -41 -46 -47 -44 -19 6 -106
192 -116 252 -16 84 -6 227 17 262 9 16 96 125 192 243 229 282 222 272 260
319 29 35 154 218 189 276 104 174 216 390 247 472 7 21 30 83 51 138 63 172
82 227 115 335 61 199 74 232 82 209 5 -12 11 -161 15 -333z m-3565 -464 c109
-274 253 -603 279 -637 4 -5 47 -89 97 -185 49 -96 100 -195 114 -220 14 -25
42 -76 63 -115 80 -150 150 -246 375 -519 l125 -151 3 -91 c4 -107 -13 -189
-59 -279 -27 -53 -98 -135 -117 -135 -7 0 -55 79 -161 265 -19 33 -50 89 -69
125 -19 36 -53 99 -76 140 -56 100 -165 323 -254 520 -33 74 -146 365 -197
510 -26 74 -53 149 -60 165 -33 78 -108 319 -126 400 -10 50 -19 120 -19 157
0 69 17 168 28 168 4 0 28 -53 54 -118z m3687 68 c16 -75 13 -174 -8 -275 -18
-81 -93 -322 -126 -400 -7 -16 -34 -91 -60 -165 -51 -145 -164 -436 -197 -510
-89 -197 -198 -420 -254 -520 -23 -41 -57 -104 -76 -140 -88 -166 -220 -390
-230 -390 -19 0 -90 82 -117 135 -46 90 -63 172 -59 279 l3 91 125 151 c225
273 295 369 375 519 21 39 49 90 63 115 14 25 65 124 114 220 50 96 93 180 97
185 26 34 170 363 279 637 26 65 50 118 54 118 3 0 11 -23 17 -50z m-3767
-585 c22 -71 65 -202 95 -290 30 -88 59 -176 65 -195 5 -19 18 -55 28 -80 10
-25 33 -83 50 -130 44 -116 116 -281 160 -365 66 -126 122 -229 140 -260 16
-28 62 -113 87 -160 6 -11 18 -36 26 -55 9 -19 52 -96 96 -170 179 -302 179
-303 160 -402 -11 -60 -52 -129 -112 -190 -25 -27 -36 -23 -87 32 -51 55 -139
218 -245 455 -37 83 -75 168 -85 190 -37 83 -175 533 -210 685 -6 30 -20 87
-31 125 -55 208 -120 476 -154 635 -54 252 -84 413 -89 465 -5 59 -5 59 30
-50 20 -60 54 -168 76 -240z m3884 288 c-9 -74 -80 -421 -132 -643 -25 -109
-81 -333 -113 -455 -11 -38 -25 -95 -31 -125 -35 -152 -173 -602 -210 -685
-10 -22 -48 -107 -85 -190 -106 -237 -194 -400 -245 -455 -51 -55 -62 -59 -87
-32 -60 61 -101 130 -112 190 -19 99 -19 100 160 402 44 74 87 151 96 170 8
19 20 44 26 55 25 47 71 132 87 160 18 31 74 134 140 260 44 84 116 249 160
365 17 47 40 105 50 130 10 25 23 61 28 80 6 19 35 107 65 195 52 151 93 280
168 528 18 59 34 107 37 107 2 0 1 -26 -2 -57z"/>
</g>
</svg>
