<?xml version="1.0" standalone="no"?>
<!DOCTYPE svg PUBLIC "-//W3C//DTD SVG 20010904//EN"
 "http://www.w3.org/TR/2001/REC-SVG-20010904/DTD/svg10.dtd">
<svg version="1.0" xmlns="http://www.w3.org/2000/svg"
 width="238.000000pt" height="243.000000pt" viewBox="0 0 238.000000 243.000000"
 preserveAspectRatio="xMidYMid meet">
<metadata>
Created by potrace 1.14, written by Peter Selinger 2001-2017
</metadata>
<g transform="translate(0.000000,243.000000) scale(0.100000,-0.100000)"
fill="#e67000" stroke="none">
<path d="M1649 2421 c-62 -19 -93 -47 -169 -149 -27 -37 -72 -96 -100 -132
-64 -81 -90 -123 -115 -180 -10 -25 -24 -52 -30 -60 -60 -80 -96 -346 -57
-420 29 -57 46 -84 66 -107 17 -21 15 -43 -5 -43 -5 0 -31 15 -57 34 -75 52
-107 66 -156 66 -33 0 -60 9 -105 35 -37 22 -73 35 -94 35 -21 0 -47 10 -68
25 -47 34 -107 62 -152 70 -27 5 -46 18 -65 42 -15 19 -43 43 -64 53 -34 18
-69 58 -93 105 -6 11 -23 26 -38 33 -15 7 -33 28 -41 45 -7 18 -32 60 -55 92
-22 33 -41 63 -41 68 0 10 -53 91 -62 95 -5 2 -8 22 -8 45 0 38 -30 107 -46
107 -3 0 -15 -12 -26 -26 -15 -18 -24 -22 -31 -15 -6 6 -17 11 -24 11 -18 0
-16 -90 2 -114 8 -11 15 -37 15 -59 0 -27 9 -51 31 -82 17 -24 37 -46 44 -48
6 -3 20 -31 30 -64 10 -32 30 -74 45 -93 15 -19 31 -45 34 -58 7 -22 118 -122
137 -122 5 0 8 -3 8 -7 -4 -24 9 -34 84 -71 51 -25 88 -49 96 -65 15 -28 97
-67 142 -67 21 0 38 -9 56 -30 36 -44 74 -60 138 -60 30 0 55 -4 55 -8 0 -14
65 -32 136 -39 107 -9 112 -24 7 -17 -112 8 -107 11 -279 -158 -53 -53 -65
-71 -89 -142 -15 -44 -34 -92 -41 -106 -22 -42 -74 -171 -74 -184 0 -7 -13
-53 -30 -102 -38 -114 -42 -229 -9 -284 41 -69 58 -80 103 -73 39 6 113 46
128 68 3 5 13 19 22 30 73 94 117 166 200 335 123 247 145 289 168 319 10 13
18 30 18 37 0 8 26 41 57 73 45 47 60 58 70 49 11 -9 6 -18 -27 -49 -25 -23
-54 -67 -75 -111 -18 -40 -42 -85 -53 -98 -43 -55 -52 -109 -52 -316 0 -233
20 -342 76 -425 19 -27 34 -51 34 -54 0 -3 12 -17 28 -30 56 -50 129 -19 161
67 7 18 17 41 22 50 5 10 9 37 9 60 0 24 9 106 20 183 11 77 22 183 25 235 5
90 16 192 34 305 l8 50 2 -73 c0 -40 6 -82 11 -93 14 -25 57 -45 104 -48 75
-4 136 -59 136 -124 0 -19 4 -27 13 -25 20 7 19 33 -4 82 -24 53 -68 81 -141
92 -73 11 -78 17 -78 89 0 35 5 67 10 70 6 4 22 -1 35 -9 18 -12 25 -26 25
-49 0 -55 11 -62 105 -66 66 -2 91 1 110 13 15 10 26 12 30 6 9 -15 25 -2 25
21 0 12 7 19 19 19 16 0 18 9 17 96 -1 89 -3 96 -26 114 -33 25 -79 31 -114
14 -16 -8 -30 -13 -31 -12 -5 12 -25 60 -25 63 0 3 19 17 41 31 33 21 50 25
79 20 33 -5 115 -41 130 -56 37 -39 128 -53 165 -26 16 12 17 16 6 30 -13 16
-36 12 -26 -4 3 -4 -2 -11 -11 -14 -37 -14 -68 -4 -130 44 -64 49 -66 50 -137
50 -54 0 -82 -5 -111 -21 l-38 -20 -24 22 -24 23 27 29 c16 16 40 35 55 43 15
8 52 44 81 82 30 37 97 113 148 168 228 246 297 335 380 496 23 45 24 86 3
116 -13 20 -24 22 -94 22 -73 0 -81 -2 -122 -33 -24 -18 -73 -49 -108 -67 -39
-21 -112 -78 -184 -143 -125 -114 -187 -185 -215 -245 -9 -20 -28 -55 -41 -77
-14 -22 -34 -66 -45 -99 -10 -32 -21 -54 -23 -48 -4 13 28 109 62 185 14 32
26 63 26 71 0 7 11 26 24 41 13 15 30 40 37 54 7 14 18 33 25 41 6 8 19 40 28
70 10 30 24 68 33 84 44 81 61 308 26 366 -23 39 -78 51 -144 31z m87 -17 c11
-3 28 -18 37 -34 31 -52 16 -240 -26 -330 -9 -19 -25 -61 -36 -92 -11 -31 -38
-84 -61 -117 -22 -33 -43 -69 -47 -78 -3 -10 -16 -40 -28 -68 -31 -69 -80
-225 -90 -284 -7 -40 -18 -63 -39 -81 -14 -10 -16 -10 -17 6 -1 11 -2 26 -3
34 0 8 5 35 12 60 7 25 15 77 18 115 7 112 35 235 66 298 68 137 138 312 153
381 17 85 20 166 5 166 -5 0 -7 -13 -4 -28 6 -27 -27 -188 -45 -219 -6 -12
-16 0 -41 51 -18 36 -35 66 -37 66 -12 0 13 -70 38 -108 33 -50 32 -43 19 -78
-9 -24 -12 -25 -28 -13 -20 16 -59 39 -67 39 -15 0 0 -18 34 -39 45 -28 47
-17 -24 -164 -35 -74 -51 -123 -66 -204 -10 -58 -19 -121 -19 -140 0 -18 -4
-33 -8 -33 -5 0 -9 -15 -9 -32 0 -18 -5 -65 -11 -105 -7 -40 -9 -80 -5 -89 7
-20 6 -19 -79 38 -32 21 -65 53 -74 71 -10 18 -29 47 -43 66 -23 31 -26 43
-26 120 0 47 3 97 7 111 16 60 26 110 22 110 -6 0 45 92 62 111 8 8 14 21 14
27 0 19 51 104 99 165 25 33 60 80 76 107 90 143 191 216 271 194z m607 -252
c22 -24 10 -73 -36 -144 -19 -31 -47 -77 -60 -103 -14 -26 -45 -68 -69 -94
-24 -25 -63 -69 -88 -97 -25 -27 -86 -95 -137 -149 -50 -55 -110 -126 -133
-157 -26 -35 -67 -73 -106 -98 -35 -23 -64 -44 -64 -48 0 -17 -53 -62 -72 -62
-11 0 -29 10 -40 22 -22 26 -20 57 13 193 25 107 37 138 82 217 20 36 37 70
37 75 0 20 96 128 177 199 108 94 175 144 232 174 24 12 49 26 55 31 56 48 82
59 136 59 42 0 61 -5 73 -18z m-2205 -50 c9 -6 10 -16 3 -33 l-9 -24 -11 28
c-12 32 -31 36 -31 6 0 -11 -4 -17 -10 -14 -5 3 -10 15 -10 26 0 14 7 19 28
19 15 0 33 -4 40 -8z m98 -163 c14 -28 14 -33 1 -46 -31 -31 -84 29 -55 61 20
23 36 19 54 -15z m112 -141 c19 -19 14 -29 -10 -26 -31 5 -50 17 -43 29 9 13
39 11 53 -3z m-78 -27 c0 -14 -18 -23 -30 -16 -6 4 -8 11 -5 16 8 12 35 12 35
0z m225 -121 c21 -23 4 -35 -26 -20 -16 9 -24 9 -33 0 -8 -9 -5 -16 12 -30 32
-26 27 -31 -15 -16 -46 16 -52 38 -20 70 27 27 55 26 82 -4z m173 -95 c4 -3 0
-10 -7 -14 -7 -5 -10 -14 -6 -21 4 -7 2 -11 -6 -9 -29 3 -60 -1 -55 -9 2 -4 1
-14 -4 -21 -6 -10 -12 -7 -25 13 -17 26 -17 27 6 52 19 21 30 25 58 20 18 -3
36 -8 39 -11z m167 -97 c-1 -12 -7 -24 -13 -26 -7 -2 -12 -10 -12 -18 0 -11
-7 -13 -27 -8 -38 9 -38 9 -12 43 29 36 66 42 64 9z m682 -81 c-6 -38 -16 -66
-22 -63 -11 4 -11 7 4 51 6 17 13 43 16 59 12 57 14 18 2 -47z m-457 -15 c0
-7 -5 -10 -10 -7 -6 3 -13 -1 -16 -9 -3 -9 -13 -16 -21 -16 -9 0 -13 -6 -9
-15 6 -17 -11 -20 -33 -6 -18 12 -6 77 17 90 20 11 72 -15 72 -37z m80 -148
l25 -6 -25 -19 c-14 -10 -29 -19 -33 -19 -5 0 -20 -9 -34 -20 -24 -19 -26 -19
-40 -3 -14 17 -14 17 -10 -4 7 -30 -61 -62 -99 -45 -35 17 -40 15 -20 -7 16
-18 15 -20 -26 -50 -23 -17 -46 -31 -51 -31 -23 0 -93 -132 -81 -151 3 -6 -5
-22 -17 -36 l-24 -26 24 6 c25 6 88 -20 109 -46 10 -12 1 -25 -50 -71 -35 -32
-79 -66 -98 -76 -39 -20 -76 -57 -67 -66 3 -3 18 6 34 20 15 14 30 25 33 23 3
-1 22 -9 43 -17 49 -19 44 -40 -13 -56 -80 -23 -140 -46 -140 -55 0 -12 -5
-13 72 15 37 14 70 21 73 16 16 -26 -91 -180 -125 -180 -5 0 -16 -3 -26 -7
-16 -6 -17 2 -12 94 3 55 11 110 17 121 6 11 22 61 35 109 13 49 32 107 43
128 11 22 35 83 53 135 34 99 67 150 135 210 22 19 59 54 83 77 52 51 102 59
212 37z m154 -10 c9 -8 16 -21 16 -27 0 -8 -4 -7 -12 1 -7 7 -17 12 -23 12
-18 0 -175 -186 -238 -281 -31 -47 -76 -108 -99 -135 -70 -80 -124 -148 -136
-171 -10 -17 -19 -21 -48 -18 -44 4 -55 13 -29 27 23 12 168 158 203 203 12
17 39 53 60 81 20 28 65 86 100 129 61 77 71 95 52 95 -5 0 -10 -4 -10 -9 0
-16 -57 -80 -65 -73 -5 4 -5 2 -2 -4 3 -6 -6 -23 -22 -38 -27 -26 -28 -26 -51
-8 l-22 18 30 25 c16 13 57 46 91 73 34 28 61 55 61 62 0 17 42 42 81 47 19 2
37 5 41 5 4 1 14 -5 22 -14z m-214 -85 c-46 -39 -88 -61 -101 -53 -6 3 11 17
38 31 26 14 57 32 68 39 34 24 31 15 -5 -17z m153 -29 c-33 -33 -59 -60 -56
-60 3 0 -14 -21 -38 -47 -57 -61 -86 -109 -105 -172 -8 -27 -32 -81 -54 -118
-51 -90 -72 -140 -60 -148 5 -3 -4 -27 -20 -53 -16 -26 -43 -72 -61 -102 -55
-95 -142 -170 -196 -170 -17 0 -73 47 -73 62 0 4 12 8 26 8 40 0 91 61 159
189 53 100 109 179 238 339 21 26 47 64 58 85 11 21 26 40 34 44 8 3 15 10 15
16 0 13 91 121 133 160 61 54 61 26 0 -33z m207 35 c0 -3 -15 -20 -33 -38 -70
-69 -131 -159 -185 -272 -24 -49 -27 -91 -20 -250 0 -16 -1 -55 -4 -85 -3 -30
-2 -64 3 -75 5 -14 8 -4 8 33 1 67 19 139 36 146 7 2 21 3 31 1 11 -2 22 -4
26 -4 4 -1 -11 -50 -32 -111 -55 -153 -68 -183 -87 -197 -9 -7 -14 -16 -10
-19 11 -11 37 17 57 62 11 24 20 47 20 52 0 15 22 29 58 35 l32 6 0 -43 c0
-39 -4 -47 -37 -72 -21 -15 -57 -45 -81 -67 -24 -21 -45 -37 -47 -35 -17 17
-37 180 -42 335 -6 173 -5 184 17 240 13 32 31 67 40 78 9 11 27 45 40 75 16
38 47 78 102 133 67 65 108 93 108 72z m70 -71 c0 -25 -4 -53 -9 -63 -5 -9
-11 -46 -13 -82 -3 -38 -11 -75 -22 -91 -29 -44 -55 -202 -62 -368 -3 -85 -10
-171 -15 -190 -4 -19 -11 -57 -14 -84 -4 -27 -11 -58 -16 -68 -9 -17 -5 -22
14 -19 4 1 3 -8 -3 -19 -12 -23 -41 -40 -67 -40 -22 0 -70 48 -103 103 l-22
38 21 15 c12 9 32 26 44 38 12 13 39 36 61 52 l38 28 -7 -74 c-7 -77 -27 -139
-48 -152 -15 -9 -4 -20 14 -13 27 10 49 117 56 268 4 94 10 144 16 140 7 -4 7
2 2 18 -10 29 -11 103 -3 144 4 17 9 59 13 95 12 108 14 123 30 183 8 32 15
68 15 80 0 12 7 41 15 64 8 23 12 50 8 59 -5 15 -4 15 26 0 28 -15 31 -21 31
-62z m-541 -3 c11 -7 5 -18 -26 -52 l-40 -43 -32 20 -32 21 48 30 c53 34 61
37 82 24z m425 -57 c-9 -32 -22 -78 -28 -101 -15 -54 -18 -56 -50 -42 -31 14
-29 27 16 106 28 50 70 105 75 99 2 -1 -4 -29 -13 -62z m316 42 c0 -2 -8 -10
-17 -17 -16 -13 -17 -12 -4 4 13 16 21 21 21 13z m-718 -69 c19 -5 19 -8 -13
-52 -29 -41 -63 -76 -46 -48 4 6 -1 13 -11 16 -9 2 -26 8 -37 12 -13 4 -9 -3
13 -22 l32 -28 -39 -45 c-31 -36 -41 -42 -46 -29 -3 9 -24 25 -46 34 -38 18
-39 19 -22 38 10 11 49 40 86 65 38 24 76 56 85 70 13 20 18 22 20 10 2 -9 12
-18 24 -21z m-133 -5 l29 -17 -64 -42 c-35 -23 -64 -40 -64 -38 0 22 54 115
66 115 2 0 17 -8 33 -18z m268 -30 c-9 -10 -26 -39 -37 -64 -23 -52 -46 -77
-30 -31 13 34 73 124 79 118 2 -3 -3 -13 -12 -23z m274 1 c-12 -20 -14 -14 -5
12 4 9 9 14 11 11 3 -2 0 -13 -6 -23z m-14 -65 c-3 -7 -5 -2 -5 12 0 14 2 19
5 13 2 -7 2 -19 0 -25z m-122 -29 c-4 -12 -8 -31 -10 -42 -5 -41 -17 -77 -25
-77 -5 0 -6 -15 -3 -34 3 -21 1 -36 -7 -41 -21 -13 -6 113 19 168 22 48 38 64
26 26z m76 -15 c2 2 2 -18 1 -45 -4 -48 -4 -49 -38 -49 -19 0 -34 -4 -34 -10
0 -5 14 -10 31 -10 31 0 31 0 26 -45 -8 -60 -12 -65 -52 -65 l-35 0 6 48 c6
54 33 182 40 194 3 4 15 1 28 -7 12 -8 24 -13 27 -11z m22 -110 c-9 -71 -18
-164 -20 -206 -5 -78 -5 -78 -36 -86 -18 -5 -33 -8 -35 -7 -1 1 9 35 24 76 35
100 54 176 54 221 0 36 21 141 26 135 2 -2 -4 -61 -13 -133z m102 -56 c-5 -96
-17 -180 -39 -273 -3 -11 -4 41 -2 115 3 89 10 158 22 203 10 37 20 67 21 67
2 0 1 -51 -2 -112z m-497 -45 c-27 -47 -28 -49 -28 -37 0 11 38 74 45 74 2 0
-5 -17 -17 -37z m438 -448 l-15 -40 0 39 c-1 21 5 57 12 80 l12 41 3 -40 c1
-22 -4 -58 -12 -80z"/>
<path d="M1739 2193 c-1 -5 -1 -11 -1 -15 1 -3 -26 -68 -59 -145 -34 -76 -69
-158 -79 -183 -10 -25 -39 -85 -64 -134 -35 -69 -46 -101 -46 -136 0 -26 -5
-61 -11 -79 -11 -30 -7 -52 7 -38 3 3 12 43 18 90 10 65 24 107 64 189 29 58
52 108 52 111 0 4 15 40 34 79 93 202 117 268 96 268 -5 0 -11 -3 -11 -7z"/>
<path d="M1486 2158 c-3 -13 -6 -48 -6 -79 0 -31 -5 -81 -11 -110 -6 -30 -12
-61 -13 -69 -4 -20 -35 -14 -63 13 -13 11 -26 17 -30 14 -10 -10 38 -57 58
-57 28 0 32 -17 18 -73 -16 -67 -21 -71 -48 -46 -12 12 -25 18 -28 15 -8 -8
15 -34 35 -41 14 -4 16 -15 14 -50 -4 -49 -21 -58 -58 -30 -23 17 -34 19 -34
4 0 -6 18 -18 39 -26 l39 -15 -3 -63 c-4 -67 -22 -122 -48 -143 -14 -12 -17
-11 -22 10 -42 185 -42 182 -15 173 11 -3 20 -2 20 4 0 5 -9 13 -20 16 -17 5
-20 15 -20 60 0 48 3 54 23 58 l22 4 -22 8 c-36 12 -32 81 7 130 35 44 37 49
11 36 -27 -15 -50 -54 -57 -100 -5 -28 -12 -41 -23 -42 -12 0 -11 -4 7 -16 20
-14 22 -23 22 -120 l0 -104 -31 -13 c-37 -15 -23 -31 15 -16 24 9 26 7 32 -28
7 -42 34 -123 45 -136 14 -15 28 4 20 26 -6 16 -1 35 19 68 19 32 29 67 33
111 11 113 16 153 27 194 5 22 19 92 29 155 29 169 41 367 17 278z"/>
<path d="M1230 1611 c0 -12 28 -22 35 -12 3 5 -2 12 -11 15 -21 8 -24 8 -24
-3z"/>
<path d="M2171 2056 c-13 -73 -9 -116 11 -116 6 0 7 7 3 18 -9 21 -9 31 3 105
13 85 -2 79 -17 -7z"/>
<path d="M2305 2086 c-27 -22 -31 -22 -43 -7 -12 14 -13 13 -8 -11 12 -52 -63
-148 -291 -372 -39 -39 -76 -81 -82 -93 -6 -12 -21 -23 -33 -25 -12 -2 -23 -9
-26 -17 -3 -9 0 -11 8 -6 20 12 -4 -27 -35 -55 l-26 -25 11 30 c11 30 132 216
155 239 7 7 27 39 43 72 17 32 42 74 56 93 14 19 23 37 20 40 -8 9 -48 -44
-80 -106 -31 -57 -35 -61 -54 -38 -22 27 -32 16 -12 -12 l20 -27 -31 -43 c-17
-24 -34 -43 -38 -43 -11 0 -20 30 -12 42 3 6 1 8 -5 4 -5 -3 -12 0 -15 6 -2 7
-8 10 -12 6 -4 -4 2 -24 14 -44 l22 -36 -29 -44 c-23 -34 -32 -40 -42 -31 -10
10 -11 7 -6 -15 4 -18 -1 -38 -15 -62 -11 -19 -18 -39 -15 -44 3 -5 -6 -22
-19 -36 l-25 -27 -1 38 c-2 47 -2 44 6 66 4 10 3 17 -4 17 -6 0 -14 -13 -17
-30 -4 -16 -10 -30 -15 -30 -12 0 9 50 36 86 14 18 45 74 69 126 25 52 64 114
88 140 24 26 66 71 93 100 62 67 123 92 155 63 11 -10 20 -31 20 -47 0 -15 5
-28 10 -28 29 0 0 81 -36 100 -19 11 -30 10 -69 -7 -53 -23 -84 -51 -170 -151
-43 -50 -65 -69 -77 -66 -19 6 -24 -6 -8 -22 5 -5 6 -15 0 -24 -8 -13 -11 -12
-24 5 -8 11 -18 17 -22 13 -4 -5 0 -16 9 -26 22 -25 22 -34 -8 -93 -25 -48
-26 -49 -48 -34 -24 17 -57 20 -57 5 0 -5 8 -10 18 -10 25 -1 56 -26 42 -35
-21 -13 -60 -109 -60 -146 0 -20 -13 -62 -29 -95 -39 -82 -43 -94 -26 -94 19
0 42 25 65 70 11 21 30 50 42 63 159 172 193 211 214 239 14 18 90 101 169
184 124 128 205 228 205 251 0 3 17 21 38 38 43 38 41 56 -3 21z m-615 -684
c0 -8 -14 -31 -32 -51 -18 -20 -28 -27 -24 -16 5 11 11 42 14 68 4 46 5 47 23
31 11 -9 19 -24 19 -32z"/>
<path d="M1613 1503 c9 -9 20 -13 24 -9 4 4 1 11 -7 16 -25 16 -35 11 -17 -7z"/>
</g>
</svg>
