<?xml version="1.0" standalone="no"?>
<!DOCTYPE svg PUBLIC "-//W3C//DTD SVG 20010904//EN"
 "http://www.w3.org/TR/2001/REC-SVG-20010904/DTD/svg10.dtd">
<svg version="1.0" xmlns="http://www.w3.org/2000/svg"
 width="250.000000pt" height="242.000000pt" viewBox="0 0 250.000000 242.000000"
 preserveAspectRatio="xMidYMid meet">
<metadata>
Created by potrace 1.14, written by Peter Selinger 2001-2017
</metadata>
<g transform="translate(0.000000,242.000000) scale(0.100000,-0.100000)"
fill="#2a5c00" stroke="none">
<path d="M180 2388 c-45 -48 -79 -124 -97 -218 -14 -71 -15 -96 -5 -178 30
-232 166 -500 338 -663 64 -60 114 -90 182 -108 39 -11 42 -14 36 -39 -10 -48
-13 -52 -33 -52 -11 0 -41 -9 -68 -21 -68 -29 -194 -22 -371 21 -99 24 -137
29 -145 21 -21 -21 16 -40 143 -71 77 -19 164 -34 228 -37 99 -6 105 -5 170
25 37 16 77 33 90 37 21 6 21 5 -8 -42 -16 -26 -66 -79 -111 -118 -73 -63 -85
-79 -126 -165 -49 -104 -63 -123 -200 -282 -51 -60 -93 -114 -93 -122 0 -36
26 -27 74 25 134 146 208 246 261 354 30 61 63 119 74 130 21 18 21 18 21 -7
0 -14 -9 -69 -21 -124 -24 -112 -21 -196 6 -238 26 -39 85 -66 145 -66 70 0
134 35 227 123 l76 72 -7 -35 c-3 -19 -32 -73 -64 -120 -40 -59 -74 -127 -109
-220 -75 -199 -85 -236 -67 -251 9 -7 18 -9 24 -3 5 5 30 70 56 144 60 173 92
245 141 311 56 76 61 88 79 180 20 105 40 154 71 174 13 9 27 14 30 12 2 -3 8
-43 12 -89 11 -119 41 -170 208 -354 80 -89 116 -115 135 -96 8 8 -13 37 -80
109 -171 185 -202 234 -212 336 -5 40 -11 86 -15 104 -6 25 -3 33 12 42 17 8
32 -1 101 -64 99 -90 148 -120 232 -139 284 -68 670 12 853 175 92 81 143 211
101 254 -24 24 -106 63 -211 101 -84 30 -105 34 -196 34 -118 0 -307 -20 -527
-56 -85 -14 -157 -26 -160 -26 -17 -1 -17 7 0 47 47 109 152 241 279 349 45
38 81 75 81 82 0 28 -32 21 -81 -18 -137 -108 -293 -298 -321 -391 -14 -47
-35 -67 -43 -41 -3 11 -12 31 -20 47 -14 27 -14 27 16 27 37 0 75 38 91 92 16
54 -6 99 -61 124 -76 35 -38 78 100 113 40 10 75 24 77 30 2 6 -3 11 -10 11
-27 0 -129 -30 -167 -50 -33 -17 -40 -17 -45 -5 -3 9 -17 20 -31 25 -21 8 -25
16 -25 48 0 56 -76 209 -96 190 -2 -2 12 -36 31 -75 42 -83 55 -162 32 -182
-14 -11 -25 -9 -71 14 -60 29 -85 28 -124 -9 -44 -40 -68 -115 -42 -131 20
-12 9 -25 -21 -25 -17 0 -39 -5 -51 -11 -11 -6 -23 -8 -26 -4 -7 6 -2 15 65
115 53 78 98 194 129 330 28 123 31 180 10 180 -21 0 -22 -4 -46 -118 -25
-126 -78 -276 -122 -349 -60 -99 -58 -100 -112 45 -72 190 -171 417 -219 501
-40 70 -99 131 -212 218 -36 27 -117 73 -129 73 -3 0 -19 -15 -36 -32z m297
-732 c58 -66 206 -276 200 -283 -8 -8 -88 60 -170 145 -60 63 -106 136 -107
170 0 26 40 10 77 -32z m630 -329 c44 -31 83 -92 83 -131 0 -36 -24 -34 -87 9
-28 19 -81 46 -117 61 -82 33 -95 47 -70 75 16 18 28 20 85 17 52 -3 75 -9
106 -31z m448 -368 c193 -22 234 -34 207 -61 -24 -24 -147 -12 -268 25 -104
32 -162 56 -139 57 6 0 96 -9 200 -21z"/>
</g>
</svg>
