<?xml version="1.0" standalone="no"?>
<!DOCTYPE svg PUBLIC "-//W3C//DTD SVG 20010904//EN"
 "http://www.w3.org/TR/2001/REC-SVG-20010904/DTD/svg10.dtd">
<svg version="1.0" xmlns="http://www.w3.org/2000/svg"
 width="105.000000pt" height="203.000000pt" viewBox="0 0 105.000000 203.000000"
 preserveAspectRatio="xMidYMid meet">
<metadata>
Created by potrace 1.14, written by Peter Selinger 2001-2017
</metadata>
<g transform="translate(0.000000,203.000000) scale(0.100000,-0.100000)"
fill="#ac3a3a" stroke="none">
<path d="M0 2009 c0 -38 57 -122 147 -219 49 -52 99 -111 113 -130 13 -19 46
-60 72 -89 26 -30 48 -61 48 -68 0 -8 -26 -42 -58 -76 -50 -54 -65 -80 -105
-182 -51 -129 -68 -211 -93 -440 -33 -315 -28 -586 12 -666 30 -61 154 -139
219 -139 56 0 72 15 115 102 l40 80 0 198 c0 170 -2 199 -16 211 -14 11 -19
10 -34 -9 -10 -12 -32 -24 -48 -26 -36 -4 -52 -13 -52 -31 0 -27 -84 -36 -94
-10 -6 17 -46 21 -46 5 0 -20 -19 -9 -22 12 -4 28 -45 38 -54 14 -10 -26 -24
-18 -24 14 0 18 8 37 20 47 24 21 25 40 3 65 -21 23 -9 36 13 13 15 -15 18
-15 32 -1 13 12 13 18 2 30 -15 19 -36 21 -43 4 -14 -35 -5 144 13 246 20 120
78 311 107 355 23 35 119 122 157 143 82 45 74 43 104 16 15 -14 38 -29 52
-33 48 -13 85 -34 112 -62 37 -39 118 -179 125 -217 3 -17 12 -40 19 -51 7
-11 19 -42 28 -69 14 -39 14 -51 4 -64 -10 -12 -10 -16 0 -19 6 -3 9 -10 6
-15 -4 -6 1 -17 10 -24 14 -10 20 -37 27 -126 5 -62 10 -132 13 -155 3 -37 1
-43 -15 -43 -24 0 -25 -35 -1 -50 14 -10 14 -11 0 -6 -25 7 -53 -17 -44 -40 6
-15 5 -16 -5 -7 -9 9 -18 9 -32 2 -10 -6 -36 -8 -56 -5 -20 4 -52 9 -71 12
-19 4 -48 18 -65 33 -30 28 -97 71 -109 71 -4 0 -6 -102 -4 -227 l3 -228 43
-60 c55 -77 77 -88 161 -83 82 5 127 26 174 82 54 66 72 165 63 361 -3 83 -13
193 -20 245 -37 244 -47 299 -66 354 -11 33 -20 67 -20 76 0 10 -7 23 -14 30
-8 6 -20 28 -27 48 -12 35 -52 103 -112 190 -16 22 -31 58 -34 79 -4 34 0 43
44 93 27 30 60 71 73 90 14 19 64 78 113 130 90 97 147 181 147 219 0 34 -17
24 -24 -13 -10 -51 -83 -142 -207 -257 -60 -56 -130 -131 -155 -166 -25 -34
-48 -63 -51 -63 -3 0 -21 14 -40 30 -27 24 -43 30 -79 30 -25 0 -55 -5 -67
-12 -19 -10 -24 -7 -41 18 -11 16 -80 88 -152 159 -149 147 -200 210 -210 260
-7 38 -24 48 -24 14z"/>
<path d="M356 1372 c-3 -5 26 -37 65 -71 l70 -63 54 42 c67 52 79 66 71 85 -4
12 -28 15 -130 15 -69 0 -127 -4 -130 -8z"/>
<path d="M660 1283 c0 -5 5 -15 10 -23 7 -11 12 -12 21 -3 6 6 8 16 5 22 -8
12 -36 15 -36 4z"/>
<path d="M304 1266 c-8 -22 3 -33 18 -18 9 9 9 15 0 24 -9 9 -13 7 -18 -6z"/>
<path d="M724 1226 c-8 -20 -1 -49 12 -53 13 -4 25 32 17 53 -7 18 -22 18 -29
0z"/>
<path d="M253 1214 c-7 -20 14 -67 27 -59 18 11 8 75 -11 75 -5 0 -12 -7 -16
-16z"/>
<path d="M434 1219 c-8 -14 11 -33 25 -25 6 4 11 14 11 22 0 16 -26 19 -36 3z"/>
<path d="M330 1204 c0 -8 5 -12 10 -9 6 3 10 10 10 16 0 5 -4 9 -10 9 -5 0
-10 -7 -10 -16z"/>
<path d="M623 1194 c-8 -21 21 -48 42 -40 23 8 15 37 -13 47 -17 6 -24 5 -29
-7z"/>
<path d="M205 1111 c-7 -23 3 -51 20 -51 19 0 27 28 15 51 -13 24 -27 24 -35
0z"/>
<path d="M514 1119 c-10 -16 23 -46 36 -33 6 6 8 18 4 27 -7 19 -29 22 -40 6z"/>
<path d="M585 1120 c-3 -5 -3 -19 0 -31 10 -31 60 -23 60 11 0 20 -6 26 -27
28 -14 2 -29 -2 -33 -8z"/>
<path d="M761 1112 c-8 -15 -2 -38 14 -60 7 -9 35 13 35 28 0 47 -30 67 -49
32z"/>
<path d="M350 1105 c-11 -13 -11 -19 4 -33 20 -20 51 -6 51 24 0 24 -37 30
-55 9z"/>
<path d="M433 1074 c-3 -8 -1 -20 6 -27 14 -14 47 15 37 32 -10 16 -36 13 -43
-5z"/>
<path d="M702 999 c-34 -13 -25 -43 14 -47 37 -4 78 33 54 48 -18 12 -38 12
-68 -1z"/>
<path d="M257 977 c-9 -23 16 -49 44 -45 26 3 42 48 17 48 -7 0 -23 3 -34 6
-14 4 -23 0 -27 -9z"/>
<path d="M544 955 c-12 -30 23 -46 55 -26 12 8 12 12 2 25 -17 20 -50 21 -57
1z"/>
<path d="M417 903 c-15 -15 -7 -43 13 -43 15 0 20 7 20 25 0 24 -18 34 -33 18z"/>
<path d="M194 866 c-10 -26 0 -51 21 -51 16 0 20 7 20 30 0 33 -30 49 -41 21z"/>
<path d="M795 859 c-10 -30 19 -53 47 -38 29 15 20 53 -14 57 -20 2 -28 -2
-33 -19z"/>
<path d="M444 826 c-7 -19 3 -36 22 -36 10 0 14 8 12 22 -4 26 -26 36 -34 14z"/>
<path d="M332 782 c3 -23 7 -27 32 -25 35 3 39 7 32 31 -4 13 -16 19 -37 20
-27 1 -30 -2 -27 -26z"/>
<path d="M527 783 c-13 -12 -7 -40 12 -57 23 -21 33 -8 25 33 -6 29 -22 40
-37 24z"/>
<path d="M630 765 c-16 -20 22 -40 49 -26 15 8 20 7 25 -5 4 -9 15 -14 28 -12
17 2 23 10 23 28 0 23 -4 25 -57 27 -38 1 -60 -2 -68 -12z"/>
<path d="M830 765 c-17 -21 -1 -38 31 -33 16 2 24 10 24 23 0 25 -37 32 -55
10z"/>
<path d="M230 751 c0 -12 2 -21 4 -21 2 0 12 -3 21 -6 13 -5 16 -2 13 17 -4
31 -38 39 -38 10z"/>
<path d="M297 723 c-4 -3 -7 -15 -7 -25 0 -13 8 -18 30 -18 23 0 30 5 30 19 0
24 -37 41 -53 24z"/>
<path d="M575 701 c-3 -5 -1 -12 4 -15 13 -8 42 4 35 15 -7 12 -31 12 -39 0z"/>
<path d="M454 667 c-5 -13 -10 -14 -25 -7 -14 8 -20 6 -28 -8 -7 -13 -7 -22 1
-30 18 -18 30 -14 57 14 18 18 21 28 13 36 -8 8 -13 7 -18 -5z"/>
<path d="M822 658 c-30 -30 2 -74 37 -51 17 12 16 44 -2 55 -16 10 -21 10 -35
-4z"/>
<path d="M242 618 c2 -17 11 -24 31 -26 33 -4 35 11 5 32 -31 22 -40 20 -36
-6z"/>
<path d="M624 619 c-3 -6 -2 -15 4 -21 15 -15 56 -5 60 15 3 13 -3 17 -27 17
-16 0 -33 -5 -37 -11z"/>
<path d="M761 601 c-21 -14 -5 -43 21 -39 29 4 39 48 11 48 -10 0 -24 -4 -32
-9z"/>
</g>
</svg>
