<?xml version="1.0" standalone="no"?>
<!DOCTYPE svg PUBLIC "-//W3C//DTD SVG 20010904//EN"
 "http://www.w3.org/TR/2001/REC-SVG-20010904/DTD/svg10.dtd">
<svg version="1.0" xmlns="http://www.w3.org/2000/svg"
 width="223.000000pt" height="250.000000pt" viewBox="0 0 223.000000 250.000000"
 preserveAspectRatio="xMidYMid meet">
<metadata>
Created by potrace 1.14, written by Peter Selinger 2001-2017
</metadata>
<g transform="translate(0.000000,250.000000) scale(0.100000,-0.100000)"
fill="#005cb9" stroke="none">
<path d="M720 2483 c0 -13 13 -27 53 -56 20 -15 37 -35 37 -43 0 -7 22 -26 50
-42 27 -15 50 -32 50 -39 0 -15 61 -57 161 -111 l75 -42 27 -77 c41 -117 38
-129 -36 -153 -40 -13 -73 -51 -64 -74 10 -25 51 -46 113 -57 77 -14 132 -47
188 -113 26 -30 60 -59 77 -66 26 -11 32 -10 50 6 19 17 21 26 15 87 l-6 68
32 13 c18 8 65 19 103 26 l71 12 66 -40 c100 -62 168 -94 184 -88 8 3 34 -7
59 -23 28 -18 53 -27 69 -24 13 3 37 -2 54 -11 35 -18 72 -21 72 -6 0 17 -44
39 -170 86 -141 52 -192 76 -270 129 -51 34 -58 36 -107 30 -79 -10 -184 -42
-217 -67 -19 -13 -31 -17 -34 -10 -16 48 -89 96 -130 85 -20 -5 -22 -1 -22 31
0 43 -31 163 -59 228 -17 41 -27 49 -94 82 -41 20 -101 58 -133 85 -33 26 -96
77 -142 114 -72 59 -122 83 -122 60z"/>
<path d="M885 1920 c-3 -6 -4 -23 0 -38 5 -26 2 -30 -46 -52 -67 -32 -124 -89
-106 -107 10 -10 20 -11 45 -2 31 11 34 9 104 -56 134 -124 351 -251 528 -309
93 -30 106 -37 115 -62 13 -37 24 -54 35 -54 16 0 30 64 30 136 0 69 1 74 27
86 36 17 32 32 -11 36 -30 3 -36 8 -42 35 -3 18 -11 43 -16 56 l-9 24 -15 -21
c-30 -43 -90 -24 -164 53 -58 59 -113 91 -192 111 -35 9 -78 27 -96 41 -29 22
-33 30 -30 60 4 33 3 35 -24 29 -15 -3 -41 -9 -57 -12 -23 -5 -30 -2 -35 14
-9 28 -32 46 -41 32z"/>
<path d="M626 1712 c-3 -5 2 -22 10 -37 12 -22 13 -35 5 -53 -18 -38 -13 -49
22 -56 36 -7 41 -10 213 -149 125 -100 232 -159 417 -228 87 -32 140 -57 154
-74 28 -31 38 -31 59 0 12 18 25 25 50 25 46 0 50 15 9 39 -19 11 -35 27 -35
34 0 32 -42 67 -98 83 -122 34 -193 64 -307 132 -129 76 -194 123 -269 192
-78 72 -79 72 -124 67 -36 -4 -53 -1 -74 14 -14 11 -29 16 -32 11z"/>
<path d="M575 1501 c-16 -10 -41 -30 -55 -45 -31 -34 -18 -63 26 -58 25 3 51
-14 154 -99 197 -161 269 -203 500 -290 58 -22 117 -45 132 -50 16 -7 31 -23
37 -41 13 -37 30 -33 53 13 22 41 23 88 4 134 -17 40 -23 44 -162 94 -202 72
-280 114 -412 225 -157 131 -165 136 -207 136 -22 0 -53 -8 -70 -19z"/>
<path d="M370 1426 c0 -3 18 -26 41 -52 27 -31 38 -52 33 -63 -18 -45 -17 -48
26 -54 36 -5 55 -19 144 -106 175 -169 335 -257 571 -311 60 -13 73 -20 90
-47 24 -39 38 -41 58 -9 15 22 20 23 54 15 48 -11 93 -11 93 -1 0 5 -42 36
-94 71 -70 46 -124 72 -208 100 -233 79 -309 122 -473 266 -117 103 -179 145
-215 145 -14 0 -42 11 -62 25 -34 23 -58 32 -58 21z"/>
<path d="M381 1204 c-32 -41 -26 -59 29 -94 28 -18 76 -64 108 -104 109 -134
368 -282 535 -305 44 -6 99 -22 127 -36 27 -14 56 -25 64 -25 18 0 46 49 46
79 0 22 -51 69 -83 76 -12 2 -52 11 -88 19 -204 46 -350 127 -507 284 -62 62
-125 117 -138 122 -43 17 -71 11 -93 -16z"/>
<path d="M210 1161 c0 -5 20 -25 45 -45 50 -41 54 -59 25 -96 -11 -14 -20 -30
-20 -36 0 -5 28 -31 63 -56 61 -45 162 -142 179 -172 12 -22 163 -120 238
-155 36 -17 100 -37 143 -45 43 -9 115 -32 160 -51 45 -20 87 -39 94 -41 7 -3
21 12 32 34 25 49 37 54 86 35 77 -28 82 -26 39 14 -79 72 -139 101 -254 119
-120 19 -224 64 -384 168 -75 49 -109 80 -169 152 -68 83 -84 96 -154 129
-101 48 -123 56 -123 46z"/>
<path d="M225 881 c-8 -17 -19 -32 -24 -36 -6 -3 -46 3 -90 15 -44 11 -84 20
-90 20 -28 0 -4 -23 67 -64 42 -25 83 -54 90 -66 7 -11 23 -20 36 -20 41 0
105 -33 240 -124 71 -48 192 -118 269 -157 143 -70 198 -105 230 -146 10 -13
28 -23 39 -23 12 0 51 -17 87 -38 122 -70 132 -63 41 32 -63 66 -68 79 -45
110 36 48 7 68 -172 121 -238 69 -275 92 -539 328 -47 42 -95 77 -105 77 -10
0 -25 -13 -34 -29z"/>
<path d="M175 688 c-9 -32 -15 -87 -10 -101 5 -12 13 -13 40 -6 53 15 107 -13
167 -85 82 -101 164 -149 290 -171 108 -19 167 -59 168 -112 0 -14 6 -23 15
-23 22 0 95 50 95 65 0 26 -75 77 -230 155 -88 45 -217 120 -287 167 -112 75
-203 123 -234 123 -5 0 -11 -6 -14 -12z"/>
<path d="M82 528 c-47 -6 -72 -14 -69 -22 8 -24 58 -36 171 -38 85 -2 116 -6
116 -15 0 -7 -6 -13 -13 -13 -24 0 -69 -56 -65 -81 2 -19 10 -25 36 -27 22 -2
41 3 53 14 34 30 49 12 49 -61 0 -57 3 -69 26 -91 29 -30 54 -27 114 12 53 35
75 29 77 -20 1 -43 30 -80 55 -71 21 8 43 61 40 97 -3 41 24 36 32 -6 4 -18
15 -41 27 -51 11 -10 29 -35 41 -54 43 -73 98 -115 98 -76 0 31 -88 202 -114
222 -15 12 -48 25 -74 29 -129 19 -222 70 -324 177 l-78 81 -62 2 c-35 1 -96
-2 -136 -8z"/>
<path d="M290 300 c-16 -30 -6 -50 25 -50 24 0 26 3 23 32 -4 39 -31 49 -48
18z"/>
<path d="M495 174 c-20 -15 -20 -15 4 -35 28 -23 51 -11 51 27 0 28 -24 32
-55 8z"/>
</g>
</svg>
